<svg width="800" height="400" viewBox="0 0 800 400" fill="none" xmlns="http://www.w3.org/2000/svg">
<rect width="800" height="400" fill="white"/>
<circle cx="40.4196" cy="68.0578" r="8.41959" fill="#C54846"/>
<circle cx="40.4196" cy="95.696" r="8.41959" fill="#283C57"/>
<circle cx="40.4196" cy="40.4196" r="8.41959" fill="#E5B89F"/>
<circle cx="40.4196" cy="123.334" r="8.41959" fill="#D71A38"/>
<path d="M340.82 152V113.084H355.386C358.684 113.084 361.52 113.622 363.892 114.696C366.264 115.734 368.08 117.254 369.34 119.255C370.637 121.219 371.286 123.61 371.286 126.427C371.286 129.169 370.637 131.541 369.34 133.543C368.08 135.507 366.264 137.027 363.892 138.102C361.52 139.176 358.684 139.714 355.386 139.714H343.099L344.934 137.768V152H340.82ZM344.934 138.102L343.099 136.1H355.275C359.166 136.1 362.113 135.266 364.114 133.598C366.152 131.894 367.172 129.503 367.172 126.427C367.172 123.314 366.152 120.904 364.114 119.2C362.113 117.495 359.166 116.642 355.275 116.642H343.099L344.934 114.696V138.102ZM397.736 152.334C394.808 152.334 392.084 151.852 389.563 150.888C387.08 149.887 384.912 148.498 383.059 146.719C381.243 144.903 379.816 142.808 378.778 140.436C377.778 138.027 377.277 135.396 377.277 132.542C377.277 129.688 377.778 127.075 378.778 124.703C379.816 122.294 381.243 120.2 383.059 118.421C384.912 116.605 387.08 115.215 389.563 114.252C392.047 113.251 394.771 112.751 397.736 112.751C400.664 112.751 403.369 113.251 405.852 114.252C408.336 115.215 410.485 116.587 412.301 118.366C414.155 120.145 415.581 122.239 416.582 124.648C417.62 127.057 418.139 129.688 418.139 132.542C418.139 135.396 417.62 138.027 416.582 140.436C415.581 142.846 414.155 144.94 412.301 146.719C410.485 148.498 408.336 149.887 405.852 150.888C403.369 151.852 400.664 152.334 397.736 152.334ZM397.736 148.664C400.071 148.664 402.22 148.275 404.185 147.497C406.186 146.682 407.909 145.551 409.355 144.106C410.837 142.623 411.986 140.918 412.802 138.991C413.617 137.027 414.025 134.877 414.025 132.542C414.025 130.207 413.617 128.076 412.802 126.149C411.986 124.184 410.837 122.48 409.355 121.034C407.909 119.552 406.186 118.421 404.185 117.643C402.22 116.828 400.071 116.42 397.736 116.42C395.401 116.42 393.233 116.828 391.231 117.643C389.23 118.421 387.488 119.552 386.005 121.034C384.56 122.48 383.411 124.184 382.559 126.149C381.743 128.076 381.336 130.207 381.336 132.542C381.336 134.84 381.743 136.971 382.559 138.935C383.411 140.9 384.56 142.623 386.005 144.106C387.488 145.551 389.23 146.682 391.231 147.497C393.233 148.275 395.401 148.664 397.736 148.664ZM427.36 152V113.084H441.926C445.224 113.084 448.059 113.622 450.431 114.696C452.803 115.734 454.62 117.254 455.88 119.255C457.177 121.219 457.825 123.61 457.825 126.427C457.825 129.169 457.177 131.541 455.88 133.543C454.62 135.507 452.803 137.027 450.431 138.102C448.059 139.139 445.224 139.658 441.926 139.658H429.639L431.474 137.768V152H427.36ZM453.934 152L443.927 137.879H448.374L458.437 152H453.934ZM431.474 138.102L429.639 136.156H441.814C445.706 136.156 448.652 135.303 450.654 133.598C452.692 131.894 453.712 129.503 453.712 126.427C453.712 123.314 452.692 120.904 450.654 119.2C448.652 117.495 445.706 116.642 441.814 116.642H429.639L431.474 114.696V138.102Z" fill="#283C57"/>
<path d="M348.381 220V184.642H334.705V181.084H366.171V184.642H352.495V220H348.381ZM384.752 199.931H405.321V203.489H384.752V199.931ZM385.196 220H381.082V181.084H407.767V184.642H385.196V220ZM441.125 220.334C438.197 220.334 435.473 219.852 432.953 218.888C430.47 217.887 428.301 216.498 426.448 214.719C424.632 212.903 423.205 210.808 422.168 208.436C421.167 206.027 420.667 203.396 420.667 200.542C420.667 197.688 421.167 195.075 422.168 192.703C423.205 190.294 424.632 188.2 426.448 186.421C428.301 184.605 430.47 183.215 432.953 182.252C435.436 181.251 438.16 180.751 441.125 180.751C444.053 180.751 446.759 181.251 449.242 182.252C451.725 183.215 453.875 184.587 455.691 186.366C457.544 188.145 458.971 190.239 459.971 192.648C461.009 195.057 461.528 197.688 461.528 200.542C461.528 203.396 461.009 206.027 459.971 208.436C458.971 210.846 457.544 212.94 455.691 214.719C453.875 216.498 451.725 217.887 449.242 218.888C446.759 219.852 444.053 220.334 441.125 220.334ZM441.125 216.664C443.46 216.664 445.61 216.275 447.574 215.497C449.575 214.682 451.299 213.551 452.744 212.106C454.227 210.623 455.376 208.918 456.191 206.991C457.006 205.027 457.414 202.877 457.414 200.542C457.414 198.207 457.006 196.076 456.191 194.149C455.376 192.184 454.227 190.48 452.744 189.034C451.299 187.552 449.575 186.421 447.574 185.643C445.61 184.828 443.46 184.42 441.125 184.42C438.79 184.42 436.622 184.828 434.621 185.643C432.619 186.421 430.877 187.552 429.395 189.034C427.949 190.48 426.8 192.184 425.948 194.149C425.133 196.076 424.725 198.207 424.725 200.542C424.725 202.84 425.133 204.971 425.948 206.935C426.8 208.9 427.949 210.623 429.395 212.106C430.877 213.551 432.619 214.682 434.621 215.497C436.622 216.275 438.79 216.664 441.125 216.664Z" fill="#E5B89F"/>
<path d="M340.82 288V249.084H344.934V284.442H366.727V288H340.82ZM391.348 288V249.084H395.462V288H391.348ZM442.925 288.334C439.997 288.334 437.273 287.852 434.753 286.888C432.27 285.887 430.102 284.498 428.249 282.719C426.433 280.903 425.006 278.808 423.968 276.436C422.967 274.027 422.467 271.396 422.467 268.542C422.467 265.688 422.967 263.075 423.968 260.703C425.006 258.294 426.433 256.2 428.249 254.421C430.102 252.605 432.27 251.215 434.753 250.252C437.236 249.251 439.96 248.751 442.925 248.751C445.853 248.751 448.559 249.251 451.042 250.252C453.525 251.215 455.675 252.587 457.491 254.366C459.344 256.145 460.771 258.239 461.772 260.648C462.81 263.057 463.328 265.688 463.328 268.542C463.328 271.396 462.81 274.027 461.772 276.436C460.771 278.846 459.344 280.94 457.491 282.719C455.675 284.498 453.525 285.887 451.042 286.888C448.559 287.852 445.853 288.334 442.925 288.334ZM442.925 284.664C445.26 284.664 447.41 284.275 449.374 283.497C451.376 282.682 453.099 281.551 454.545 280.106C456.027 278.623 457.176 276.918 457.991 274.991C458.807 273.027 459.214 270.877 459.214 268.542C459.214 266.207 458.807 264.076 457.991 262.149C457.176 260.184 456.027 258.48 454.545 257.034C453.099 255.552 451.376 254.421 449.374 253.643C447.41 252.828 445.26 252.42 442.925 252.42C440.59 252.42 438.422 252.828 436.421 253.643C434.42 254.421 432.678 255.552 431.195 257.034C429.75 258.48 428.601 260.184 427.748 262.149C426.933 264.076 426.525 266.207 426.525 268.542C426.525 270.84 426.933 272.971 427.748 274.935C428.601 276.9 429.75 278.623 431.195 280.106C432.678 281.551 434.42 282.682 436.421 283.497C438.422 284.275 440.59 284.664 442.925 284.664Z" fill="#C54846"/>
<path d="M326 98.0415H474.684V301.682H326" stroke="#D71A38" stroke-width="1.12925"/>
<path d="M638.022 368L641.58 360.217H642.392L645.95 368H645.083L641.814 360.695H642.147L638.878 368H638.022ZM639.423 365.921L639.668 365.254H644.193L644.438 365.921H639.423ZM648.905 368V360.217H649.728V367.288H654.087V368H648.905ZM657.854 363.697H661.968V364.398H657.854V363.697ZM657.943 367.288H662.624V368H657.121V360.217H662.458V360.928H657.943V367.288ZM668.372 368.067C667.794 368.067 667.238 367.974 666.704 367.789C666.178 367.596 665.77 367.351 665.481 367.055L665.804 366.421C666.078 366.688 666.445 366.914 666.905 367.099C667.372 367.277 667.861 367.366 668.372 367.366C668.861 367.366 669.258 367.307 669.562 367.188C669.873 367.062 670.099 366.896 670.24 366.688C670.388 366.48 670.463 366.251 670.463 365.999C670.463 365.695 670.374 365.45 670.196 365.265C670.025 365.079 669.799 364.935 669.517 364.831C669.236 364.72 668.924 364.624 668.583 364.542C668.242 364.461 667.902 364.375 667.561 364.286C667.22 364.19 666.905 364.064 666.615 363.908C666.334 363.753 666.104 363.549 665.926 363.297C665.756 363.037 665.67 362.7 665.67 362.285C665.67 361.899 665.77 361.547 665.971 361.229C666.178 360.903 666.493 360.643 666.916 360.45C667.338 360.25 667.879 360.15 668.539 360.15C668.976 360.15 669.41 360.213 669.84 360.339C670.27 360.458 670.64 360.625 670.952 360.839L670.674 361.496C670.34 361.273 669.984 361.11 669.606 361.006C669.236 360.903 668.876 360.851 668.528 360.851C668.061 360.851 667.675 360.914 667.372 361.04C667.068 361.166 666.842 361.336 666.693 361.551C666.552 361.759 666.482 361.996 666.482 362.263C666.482 362.567 666.567 362.811 666.738 362.997C666.916 363.182 667.145 363.326 667.427 363.43C667.716 363.534 668.031 363.627 668.372 363.708C668.713 363.79 669.05 363.879 669.384 363.975C669.725 364.071 670.036 364.197 670.318 364.353C670.607 364.501 670.837 364.701 671.007 364.953C671.185 365.205 671.274 365.535 671.274 365.943C671.274 366.321 671.17 366.673 670.963 366.999C670.755 367.318 670.437 367.577 670.007 367.778C669.584 367.97 669.039 368.067 668.372 368.067ZM676.881 368.067C676.303 368.067 675.747 367.974 675.213 367.789C674.687 367.596 674.279 367.351 673.99 367.055L674.312 366.421C674.587 366.688 674.953 366.914 675.413 367.099C675.88 367.277 676.369 367.366 676.881 367.366C677.37 367.366 677.766 367.307 678.07 367.188C678.382 367.062 678.608 366.896 678.749 366.688C678.897 366.48 678.971 366.251 678.971 365.999C678.971 365.695 678.882 365.45 678.704 365.265C678.534 365.079 678.308 364.935 678.026 364.831C677.744 364.72 677.433 364.624 677.092 364.542C676.751 364.461 676.41 364.375 676.069 364.286C675.728 364.19 675.413 364.064 675.124 363.908C674.842 363.753 674.612 363.549 674.435 363.297C674.264 363.037 674.179 362.7 674.179 362.285C674.179 361.899 674.279 361.547 674.479 361.229C674.687 360.903 675.002 360.643 675.424 360.45C675.847 360.25 676.388 360.15 677.047 360.15C677.485 360.15 677.918 360.213 678.348 360.339C678.778 360.458 679.149 360.625 679.46 360.839L679.182 361.496C678.849 361.273 678.493 361.11 678.115 361.006C677.744 360.903 677.385 360.851 677.036 360.851C676.569 360.851 676.184 360.914 675.88 361.04C675.576 361.166 675.35 361.336 675.202 361.551C675.061 361.759 674.99 361.996 674.99 362.263C674.99 362.567 675.076 362.811 675.246 362.997C675.424 363.182 675.654 363.326 675.936 363.43C676.225 363.534 676.54 363.627 676.881 363.708C677.222 363.79 677.559 363.879 677.893 363.975C678.233 364.071 678.545 364.197 678.826 364.353C679.116 364.501 679.345 364.701 679.516 364.953C679.694 365.205 679.783 365.535 679.783 365.943C679.783 366.321 679.679 366.673 679.471 366.999C679.264 367.318 678.945 367.577 678.515 367.778C678.093 367.97 677.548 368.067 676.881 368.067ZM681.998 368L685.556 360.217H686.368L689.926 368H689.058L685.789 360.695H686.123L682.854 368H681.998ZM683.399 365.921L683.644 365.254H688.169L688.413 365.921H683.399ZM692.881 368V360.217H693.559L698.93 366.977H698.574V360.217H699.385V368H698.707L693.348 361.24H693.704V368H692.881ZM703.594 368V360.217H706.763C707.593 360.217 708.319 360.384 708.942 360.717C709.572 361.043 710.061 361.499 710.41 362.085C710.758 362.67 710.932 363.345 710.932 364.108C710.932 364.872 710.758 365.546 710.41 366.132C710.061 366.718 709.572 367.177 708.942 367.511C708.319 367.837 707.593 368 706.763 368H703.594ZM704.416 367.288H706.718C707.407 367.288 708.004 367.155 708.508 366.888C709.02 366.614 709.416 366.24 709.698 365.765C709.98 365.283 710.12 364.731 710.12 364.108C710.12 363.478 709.98 362.926 709.698 362.452C709.416 361.977 709.02 361.607 708.508 361.34C708.004 361.066 707.407 360.928 706.718 360.928H704.416V367.288ZM714.448 368V360.217H717.361C718.02 360.217 718.587 360.324 719.062 360.539C719.536 360.747 719.899 361.051 720.151 361.451C720.411 361.844 720.541 362.322 720.541 362.885C720.541 363.434 720.411 363.908 720.151 364.309C719.899 364.701 719.536 365.005 719.062 365.22C718.587 365.428 718.02 365.532 717.361 365.532H714.903L715.27 365.154V368H714.448ZM719.762 368L717.761 365.176H718.65L720.663 368H719.762ZM715.27 365.22L714.903 364.831H717.338C718.117 364.831 718.706 364.661 719.106 364.32C719.514 363.979 719.718 363.501 719.718 362.885C719.718 362.263 719.514 361.781 719.106 361.44C718.706 361.099 718.117 360.928 717.338 360.928H714.903L715.27 360.539V365.22ZM722.905 368L726.463 360.217H727.275L730.833 368H729.966L726.697 360.695H727.03L723.761 368H722.905ZM724.306 365.921L724.551 365.254H729.076L729.321 365.921H724.306ZM738.366 368V360.217H741.279C741.939 360.217 742.506 360.324 742.98 360.539C743.455 360.747 743.818 361.051 744.07 361.451C744.329 361.844 744.459 362.322 744.459 362.885C744.459 363.434 744.329 363.908 744.07 364.309C743.818 364.701 743.455 365.005 742.98 365.22C742.506 365.428 741.939 365.532 741.279 365.532H738.822L739.189 365.154V368H738.366ZM743.681 368L741.679 365.176H742.569L744.581 368H743.681ZM739.189 365.22L738.822 364.831H741.257C742.035 364.831 742.624 364.661 743.025 364.32C743.432 363.979 743.636 363.501 743.636 362.885C743.636 362.263 743.432 361.781 743.025 361.44C742.624 361.099 742.035 360.928 741.257 360.928H738.822L739.189 360.539V365.22ZM748.803 363.697H752.917V364.398H748.803V363.697ZM748.892 367.288H753.573V368H748.069V360.217H753.406V360.928H748.892V367.288ZM757.175 368V360.217H757.997V368H757.175ZM764.343 368.067C763.765 368.067 763.209 367.974 762.676 367.789C762.149 367.596 761.742 367.351 761.453 367.055L761.775 366.421C762.049 366.688 762.416 366.914 762.876 367.099C763.343 367.277 763.832 367.366 764.343 367.366C764.833 367.366 765.229 367.307 765.533 367.188C765.845 367.062 766.071 366.896 766.211 366.688C766.36 366.48 766.434 366.251 766.434 365.999C766.434 365.695 766.345 365.45 766.167 365.265C765.996 365.079 765.77 364.935 765.489 364.831C765.207 364.72 764.896 364.624 764.555 364.542C764.214 364.461 763.873 364.375 763.532 364.286C763.191 364.19 762.876 364.064 762.587 363.908C762.305 363.753 762.075 363.549 761.897 363.297C761.727 363.037 761.642 362.7 761.642 362.285C761.642 361.899 761.742 361.547 761.942 361.229C762.149 360.903 762.464 360.643 762.887 360.45C763.309 360.25 763.851 360.15 764.51 360.15C764.948 360.15 765.381 360.213 765.811 360.339C766.241 360.458 766.612 360.625 766.923 360.839L766.645 361.496C766.312 361.273 765.956 361.11 765.578 361.006C765.207 360.903 764.848 360.851 764.499 360.851C764.032 360.851 763.647 360.914 763.343 361.04C763.039 361.166 762.813 361.336 762.665 361.551C762.524 361.759 762.453 361.996 762.453 362.263C762.453 362.567 762.539 362.811 762.709 362.997C762.887 363.182 763.117 363.326 763.398 363.43C763.687 363.534 764.003 363.627 764.343 363.708C764.684 363.79 765.022 363.879 765.355 363.975C765.696 364.071 766.008 364.197 766.289 364.353C766.578 364.501 766.808 364.701 766.979 364.953C767.157 365.205 767.245 365.535 767.245 365.943C767.245 366.321 767.142 366.673 766.934 366.999C766.727 367.318 766.408 367.577 765.978 367.778C765.555 367.97 765.011 368.067 764.343 368.067Z" fill="#283C57"/>
<path d="M748 32H768.444V60H748" stroke="#D71A38" stroke-width="1.3"/>
<path d="M755.146 46L741.537 56.3923V35.6077L755.146 46Z" fill="#C54846"/>
</svg>
