<svg width="800" height="400" viewBox="0 0 800 400" fill="none" xmlns="http://www.w3.org/2000/svg">
<rect width="800" height="400" fill="white"/>
<rect x="202" y="82" width="397" height="236" fill="#D74743"/>
<circle cx="40.4196" cy="68.0578" r="8.41959" fill="#C54846"/>
<circle cx="40.4196" cy="95.696" r="8.41959" fill="#283C57"/>
<circle cx="40.4196" cy="40.4196" r="8.41959" fill="#E5B89F"/>
<circle cx="40.4196" cy="123.334" r="8.41959" fill="#D71A38"/>
<path d="M638.022 368L641.58 360.217H642.392L645.95 368H645.083L641.814 360.695H642.147L638.878 368H638.022ZM639.423 365.921L639.668 365.254H644.193L644.438 365.921H639.423ZM648.905 368V360.217H649.728V367.288H654.087V368H648.905ZM657.854 363.697H661.968V364.398H657.854V363.697ZM657.943 367.288H662.624V368H657.121V360.217H662.458V360.928H657.943V367.288ZM668.372 368.067C667.794 368.067 667.238 367.974 666.704 367.789C666.178 367.596 665.77 367.351 665.481 367.055L665.804 366.421C666.078 366.688 666.445 366.914 666.905 367.099C667.372 367.277 667.861 367.366 668.372 367.366C668.861 367.366 669.258 367.307 669.562 367.188C669.873 367.062 670.099 366.896 670.24 366.688C670.388 366.48 670.463 366.251 670.463 365.999C670.463 365.695 670.374 365.45 670.196 365.265C670.025 365.079 669.799 364.935 669.517 364.831C669.236 364.72 668.924 364.624 668.583 364.542C668.242 364.461 667.902 364.375 667.561 364.286C667.22 364.19 666.905 364.064 666.615 363.908C666.334 363.753 666.104 363.549 665.926 363.297C665.756 363.037 665.67 362.7 665.67 362.285C665.67 361.899 665.77 361.547 665.971 361.229C666.178 360.903 666.493 360.643 666.916 360.45C667.338 360.25 667.879 360.15 668.539 360.15C668.976 360.15 669.41 360.213 669.84 360.339C670.27 360.458 670.64 360.625 670.952 360.839L670.674 361.496C670.34 361.273 669.984 361.11 669.606 361.006C669.236 360.903 668.876 360.851 668.528 360.851C668.061 360.851 667.675 360.914 667.372 361.04C667.068 361.166 666.842 361.336 666.693 361.551C666.552 361.759 666.482 361.996 666.482 362.263C666.482 362.567 666.567 362.811 666.738 362.997C666.916 363.182 667.145 363.326 667.427 363.43C667.716 363.534 668.031 363.627 668.372 363.708C668.713 363.79 669.05 363.879 669.384 363.975C669.725 364.071 670.036 364.197 670.318 364.353C670.607 364.501 670.837 364.701 671.007 364.953C671.185 365.205 671.274 365.535 671.274 365.943C671.274 366.321 671.17 366.673 670.963 366.999C670.755 367.318 670.437 367.577 670.007 367.778C669.584 367.97 669.039 368.067 668.372 368.067ZM676.881 368.067C676.303 368.067 675.747 367.974 675.213 367.789C674.687 367.596 674.279 367.351 673.99 367.055L674.312 366.421C674.587 366.688 674.953 366.914 675.413 367.099C675.88 367.277 676.369 367.366 676.881 367.366C677.37 367.366 677.766 367.307 678.07 367.188C678.382 367.062 678.608 366.896 678.749 366.688C678.897 366.48 678.971 366.251 678.971 365.999C678.971 365.695 678.882 365.45 678.704 365.265C678.534 365.079 678.308 364.935 678.026 364.831C677.744 364.72 677.433 364.624 677.092 364.542C676.751 364.461 676.41 364.375 676.069 364.286C675.728 364.19 675.413 364.064 675.124 363.908C674.842 363.753 674.612 363.549 674.435 363.297C674.264 363.037 674.179 362.7 674.179 362.285C674.179 361.899 674.279 361.547 674.479 361.229C674.687 360.903 675.002 360.643 675.424 360.45C675.847 360.25 676.388 360.15 677.047 360.15C677.485 360.15 677.918 360.213 678.348 360.339C678.778 360.458 679.149 360.625 679.46 360.839L679.182 361.496C678.849 361.273 678.493 361.11 678.115 361.006C677.744 360.903 677.385 360.851 677.036 360.851C676.569 360.851 676.184 360.914 675.88 361.04C675.576 361.166 675.35 361.336 675.202 361.551C675.061 361.759 674.99 361.996 674.99 362.263C674.99 362.567 675.076 362.811 675.246 362.997C675.424 363.182 675.654 363.326 675.936 363.43C676.225 363.534 676.54 363.627 676.881 363.708C677.222 363.79 677.559 363.879 677.893 363.975C678.233 364.071 678.545 364.197 678.826 364.353C679.116 364.501 679.345 364.701 679.516 364.953C679.694 365.205 679.783 365.535 679.783 365.943C679.783 366.321 679.679 366.673 679.471 366.999C679.264 367.318 678.945 367.577 678.515 367.778C678.093 367.97 677.548 368.067 676.881 368.067ZM681.998 368L685.556 360.217H686.368L689.926 368H689.058L685.789 360.695H686.123L682.854 368H681.998ZM683.399 365.921L683.644 365.254H688.169L688.413 365.921H683.399ZM692.881 368V360.217H693.559L698.93 366.977H698.574V360.217H699.385V368H698.707L693.348 361.24H693.704V368H692.881ZM703.594 368V360.217H706.763C707.593 360.217 708.319 360.384 708.942 360.717C709.572 361.043 710.061 361.499 710.41 362.085C710.758 362.67 710.932 363.345 710.932 364.108C710.932 364.872 710.758 365.546 710.41 366.132C710.061 366.718 709.572 367.177 708.942 367.511C708.319 367.837 707.593 368 706.763 368H703.594ZM704.416 367.288H706.718C707.407 367.288 708.004 367.155 708.508 366.888C709.02 366.614 709.416 366.24 709.698 365.765C709.98 365.283 710.12 364.731 710.12 364.108C710.12 363.478 709.98 362.926 709.698 362.452C709.416 361.977 709.02 361.607 708.508 361.34C708.004 361.066 707.407 360.928 706.718 360.928H704.416V367.288ZM714.448 368V360.217H717.361C718.02 360.217 718.587 360.324 719.062 360.539C719.536 360.747 719.899 361.051 720.151 361.451C720.411 361.844 720.541 362.322 720.541 362.885C720.541 363.434 720.411 363.908 720.151 364.309C719.899 364.701 719.536 365.005 719.062 365.22C718.587 365.428 718.02 365.532 717.361 365.532H714.903L715.27 365.154V368H714.448ZM719.762 368L717.761 365.176H718.65L720.663 368H719.762ZM715.27 365.22L714.903 364.831H717.338C718.117 364.831 718.706 364.661 719.106 364.32C719.514 363.979 719.718 363.501 719.718 362.885C719.718 362.263 719.514 361.781 719.106 361.44C718.706 361.099 718.117 360.928 717.338 360.928H714.903L715.27 360.539V365.22ZM722.905 368L726.463 360.217H727.275L730.833 368H729.966L726.697 360.695H727.03L723.761 368H722.905ZM724.306 365.921L724.551 365.254H729.076L729.321 365.921H724.306ZM738.366 368V360.217H741.279C741.939 360.217 742.506 360.324 742.98 360.539C743.455 360.747 743.818 361.051 744.07 361.451C744.329 361.844 744.459 362.322 744.459 362.885C744.459 363.434 744.329 363.908 744.07 364.309C743.818 364.701 743.455 365.005 742.98 365.22C742.506 365.428 741.939 365.532 741.279 365.532H738.822L739.189 365.154V368H738.366ZM743.681 368L741.679 365.176H742.569L744.581 368H743.681ZM739.189 365.22L738.822 364.831H741.257C742.035 364.831 742.624 364.661 743.025 364.32C743.432 363.979 743.636 363.501 743.636 362.885C743.636 362.263 743.432 361.781 743.025 361.44C742.624 361.099 742.035 360.928 741.257 360.928H738.822L739.189 360.539V365.22ZM748.803 363.697H752.917V364.398H748.803V363.697ZM748.892 367.288H753.573V368H748.069V360.217H753.406V360.928H748.892V367.288ZM757.175 368V360.217H757.997V368H757.175ZM764.343 368.067C763.765 368.067 763.209 367.974 762.676 367.789C762.149 367.596 761.742 367.351 761.453 367.055L761.775 366.421C762.049 366.688 762.416 366.914 762.876 367.099C763.343 367.277 763.832 367.366 764.343 367.366C764.833 367.366 765.229 367.307 765.533 367.188C765.845 367.062 766.071 366.896 766.211 366.688C766.36 366.48 766.434 366.251 766.434 365.999C766.434 365.695 766.345 365.45 766.167 365.265C765.996 365.079 765.77 364.935 765.489 364.831C765.207 364.72 764.896 364.624 764.555 364.542C764.214 364.461 763.873 364.375 763.532 364.286C763.191 364.19 762.876 364.064 762.587 363.908C762.305 363.753 762.075 363.549 761.897 363.297C761.727 363.037 761.642 362.7 761.642 362.285C761.642 361.899 761.742 361.547 761.942 361.229C762.149 360.903 762.464 360.643 762.887 360.45C763.309 360.25 763.851 360.15 764.51 360.15C764.948 360.15 765.381 360.213 765.811 360.339C766.241 360.458 766.612 360.625 766.923 360.839L766.645 361.496C766.312 361.273 765.956 361.11 765.578 361.006C765.207 360.903 764.848 360.851 764.499 360.851C764.032 360.851 763.647 360.914 763.343 361.04C763.039 361.166 762.813 361.336 762.665 361.551C762.524 361.759 762.453 361.996 762.453 362.263C762.453 362.567 762.539 362.811 762.709 362.997C762.887 363.182 763.117 363.326 763.398 363.43C763.687 363.534 764.003 363.627 764.343 363.708C764.684 363.79 765.022 363.879 765.355 363.975C765.696 364.071 766.008 364.197 766.289 364.353C766.578 364.501 766.808 364.701 766.979 364.953C767.157 365.205 767.245 365.535 767.245 365.943C767.245 366.321 767.142 366.673 766.934 366.999C766.727 367.318 766.408 367.577 765.978 367.778C765.555 367.97 765.011 368.067 764.343 368.067Z" fill="#283C57"/>
<circle cx="626.403" cy="200.403" r="84.6617" stroke="white" stroke-width="2.87067" stroke-linecap="round" stroke-dasharray="5.74 5.74"/>
<circle cx="626.139" cy="200.139" r="77.5082" stroke="white" stroke-width="2.87067" stroke-linecap="round" stroke-dasharray="0.11 5.93"/>
<circle cx="626.139" cy="200.139" r="90.1391" stroke="white" stroke-width="3.33849" stroke-linecap="round" stroke-dasharray="0.13 6.89"/>
<path d="M368.059 172V139.442H356.768V136.186H383.235V139.442H371.945V172H368.059ZM427.723 172.84C423.312 172.84 420.004 171.65 417.798 169.269C415.592 166.854 414.49 163.335 414.49 158.714V136.186H418.428V158.714C418.428 165.751 421.526 169.269 427.723 169.269C430.524 169.269 432.729 168.359 434.34 166.539C435.985 164.718 436.808 162.11 436.808 158.714V136.186H440.746V158.714C440.746 163.265 439.591 166.766 437.28 169.217C435.005 171.632 431.819 172.84 427.723 172.84ZM362.36 241V205.186H382.42V208.494H366.298V220.993H378.902V224.196H366.298V237.744H382.578V241H362.36ZM427 241.84C423.989 241.84 421.381 241.105 419.175 239.635C417.005 238.129 415.325 235.994 414.134 233.228C412.979 230.427 412.401 227.084 412.401 223.198C412.401 219.277 412.979 215.916 414.134 213.116C415.325 210.28 417.005 208.127 419.175 206.656C421.381 205.151 423.989 204.398 427 204.398C429.766 204.398 432.146 205.029 434.142 206.289C436.172 207.514 437.905 209.335 439.341 211.75L436.242 213.956C434.037 209.965 430.956 207.969 427 207.969C423.709 207.969 421.136 209.317 419.281 212.013C417.46 214.673 416.55 218.384 416.55 223.146C416.55 227.872 417.478 231.583 419.333 234.278C421.188 236.939 423.744 238.269 427 238.269C428.82 238.269 430.448 237.832 431.884 236.956C433.354 236.081 434.509 234.786 435.35 233.071C436.19 231.355 436.61 229.255 436.61 226.769H428.155V223.513H440.496V226.769C440.496 230.025 439.918 232.79 438.763 235.066C437.608 237.307 435.997 239.005 433.932 240.16C431.901 241.28 429.591 241.84 427 241.84Z" fill="white"/>
<path d="M440.293 215.776L431.312 212.062L439.019 206.141L440.293 215.776Z" fill="white"/>
<mask id="path-12-outside-1_306_30" maskUnits="userSpaceOnUse" x="358" y="267" width="85" height="12" fill="black">
<rect fill="white" x="358" y="267" width="85" height="12"/>
<path d="M358.473 267.867H361.86C362.772 267.867 363.5 268.145 364.044 268.699C364.589 269.254 364.861 270.022 364.861 271.002C364.861 271.973 364.574 272.736 364 273.29C363.435 273.845 362.682 274.122 361.741 274.122H359.587V278H358.473V267.867ZM361.712 273.201C362.375 273.201 362.88 273.018 363.227 272.651C363.574 272.275 363.747 271.725 363.747 271.002C363.747 270.279 363.574 269.73 363.227 269.353C362.88 268.977 362.375 268.789 361.712 268.789H359.587V273.201H361.712ZM376.556 278L373.986 273.528H371.98V278H370.866V267.867H374.253C374.868 267.867 375.407 267.986 375.873 268.224C376.338 268.462 376.695 268.798 376.943 269.234C377.19 269.66 377.314 270.15 377.314 270.705C377.314 271.379 377.111 271.958 376.705 272.443C376.299 272.919 375.759 273.241 375.085 273.409L377.73 278H376.556ZM371.98 272.607H374.105C374.759 272.607 375.259 272.434 375.605 272.087C375.962 271.74 376.14 271.28 376.14 270.705C376.14 270.131 375.962 269.67 375.605 269.323C375.259 268.967 374.759 268.789 374.105 268.789H371.98V272.607ZM387.938 278.238C387.096 278.238 386.343 278.015 385.68 277.569C385.026 277.114 384.511 276.485 384.135 275.682C383.768 274.88 383.585 273.969 383.585 272.949C383.585 271.928 383.768 271.017 384.135 270.215C384.511 269.403 385.026 268.774 385.68 268.328C386.343 267.872 387.096 267.645 387.938 267.645C388.78 267.645 389.528 267.872 390.181 268.328C390.845 268.774 391.36 269.403 391.727 270.215C392.103 271.017 392.291 271.933 392.291 272.963C392.291 273.984 392.103 274.895 391.727 275.697C391.36 276.49 390.845 277.114 390.181 277.569C389.528 278.015 388.78 278.238 387.938 278.238ZM387.938 277.213C388.552 277.213 389.102 277.034 389.587 276.678C390.082 276.311 390.469 275.806 390.746 275.162C391.023 274.509 391.162 273.771 391.162 272.949C391.162 272.126 391.023 271.389 390.746 270.735C390.469 270.081 390.082 269.571 389.587 269.205C389.102 268.838 388.552 268.655 387.938 268.655C387.324 268.655 386.769 268.838 386.274 269.205C385.789 269.571 385.407 270.081 385.13 270.735C384.853 271.389 384.714 272.126 384.714 272.949C384.714 273.771 384.853 274.509 385.13 275.162C385.407 275.806 385.789 276.311 386.274 276.678C386.769 277.034 387.324 277.213 387.938 277.213ZM400.764 278.238C400.071 278.238 399.462 278.054 398.937 277.688C398.422 277.312 398.025 276.787 397.748 276.113L398.684 275.667C398.833 276.143 399.09 276.519 399.457 276.797C399.833 277.064 400.249 277.198 400.705 277.198C401.339 277.198 401.819 277.005 402.146 276.618C402.473 276.222 402.636 275.667 402.636 274.954V267.867H403.75V274.954C403.75 275.984 403.483 276.792 402.948 277.376C402.413 277.95 401.685 278.238 400.764 278.238ZM410.571 278V267.867H416.247V268.803H411.685V272.339H415.251V273.246H411.685V277.079H416.291V278H410.571ZM426.274 278.238C425.422 278.238 424.684 278.03 424.06 277.614C423.446 277.188 422.971 276.584 422.634 275.801C422.307 275.009 422.144 274.063 422.144 272.963C422.144 271.854 422.302 270.903 422.619 270.111C422.946 269.309 423.407 268.699 424.001 268.283C424.605 267.858 425.318 267.645 426.14 267.645C426.982 267.645 427.7 267.833 428.295 268.209C428.899 268.576 429.369 269.096 429.706 269.769L428.815 270.289C428.498 269.705 428.126 269.289 427.7 269.041C427.274 268.784 426.754 268.655 426.14 268.655C425.259 268.655 424.566 269.036 424.06 269.799C423.565 270.552 423.318 271.602 423.318 272.949C423.318 273.83 423.431 274.593 423.659 275.237C423.887 275.88 424.214 276.376 424.64 276.722C425.066 277.059 425.561 277.227 426.126 277.227C426.829 277.227 427.374 277.074 427.76 276.767C428.156 276.45 428.522 275.96 428.859 275.296L429.795 275.861C429.439 276.633 428.963 277.222 428.369 277.629C427.785 278.035 427.086 278.238 426.274 278.238ZM438.197 278V268.789H435.002V267.867H442.49V268.789H439.296V278H438.197Z"/>
</mask>
<path d="M358.473 267.867H361.86C362.772 267.867 363.5 268.145 364.044 268.699C364.589 269.254 364.861 270.022 364.861 271.002C364.861 271.973 364.574 272.736 364 273.29C363.435 273.845 362.682 274.122 361.741 274.122H359.587V278H358.473V267.867ZM361.712 273.201C362.375 273.201 362.88 273.018 363.227 272.651C363.574 272.275 363.747 271.725 363.747 271.002C363.747 270.279 363.574 269.73 363.227 269.353C362.88 268.977 362.375 268.789 361.712 268.789H359.587V273.201H361.712ZM376.556 278L373.986 273.528H371.98V278H370.866V267.867H374.253C374.868 267.867 375.407 267.986 375.873 268.224C376.338 268.462 376.695 268.798 376.943 269.234C377.19 269.66 377.314 270.15 377.314 270.705C377.314 271.379 377.111 271.958 376.705 272.443C376.299 272.919 375.759 273.241 375.085 273.409L377.73 278H376.556ZM371.98 272.607H374.105C374.759 272.607 375.259 272.434 375.605 272.087C375.962 271.74 376.14 271.28 376.14 270.705C376.14 270.131 375.962 269.67 375.605 269.323C375.259 268.967 374.759 268.789 374.105 268.789H371.98V272.607ZM387.938 278.238C387.096 278.238 386.343 278.015 385.68 277.569C385.026 277.114 384.511 276.485 384.135 275.682C383.768 274.88 383.585 273.969 383.585 272.949C383.585 271.928 383.768 271.017 384.135 270.215C384.511 269.403 385.026 268.774 385.68 268.328C386.343 267.872 387.096 267.645 387.938 267.645C388.78 267.645 389.528 267.872 390.181 268.328C390.845 268.774 391.36 269.403 391.727 270.215C392.103 271.017 392.291 271.933 392.291 272.963C392.291 273.984 392.103 274.895 391.727 275.697C391.36 276.49 390.845 277.114 390.181 277.569C389.528 278.015 388.78 278.238 387.938 278.238ZM387.938 277.213C388.552 277.213 389.102 277.034 389.587 276.678C390.082 276.311 390.469 275.806 390.746 275.162C391.023 274.509 391.162 273.771 391.162 272.949C391.162 272.126 391.023 271.389 390.746 270.735C390.469 270.081 390.082 269.571 389.587 269.205C389.102 268.838 388.552 268.655 387.938 268.655C387.324 268.655 386.769 268.838 386.274 269.205C385.789 269.571 385.407 270.081 385.13 270.735C384.853 271.389 384.714 272.126 384.714 272.949C384.714 273.771 384.853 274.509 385.13 275.162C385.407 275.806 385.789 276.311 386.274 276.678C386.769 277.034 387.324 277.213 387.938 277.213ZM400.764 278.238C400.071 278.238 399.462 278.054 398.937 277.688C398.422 277.312 398.025 276.787 397.748 276.113L398.684 275.667C398.833 276.143 399.09 276.519 399.457 276.797C399.833 277.064 400.249 277.198 400.705 277.198C401.339 277.198 401.819 277.005 402.146 276.618C402.473 276.222 402.636 275.667 402.636 274.954V267.867H403.75V274.954C403.75 275.984 403.483 276.792 402.948 277.376C402.413 277.95 401.685 278.238 400.764 278.238ZM410.571 278V267.867H416.247V268.803H411.685V272.339H415.251V273.246H411.685V277.079H416.291V278H410.571ZM426.274 278.238C425.422 278.238 424.684 278.03 424.06 277.614C423.446 277.188 422.971 276.584 422.634 275.801C422.307 275.009 422.144 274.063 422.144 272.963C422.144 271.854 422.302 270.903 422.619 270.111C422.946 269.309 423.407 268.699 424.001 268.283C424.605 267.858 425.318 267.645 426.14 267.645C426.982 267.645 427.7 267.833 428.295 268.209C428.899 268.576 429.369 269.096 429.706 269.769L428.815 270.289C428.498 269.705 428.126 269.289 427.7 269.041C427.274 268.784 426.754 268.655 426.14 268.655C425.259 268.655 424.566 269.036 424.06 269.799C423.565 270.552 423.318 271.602 423.318 272.949C423.318 273.83 423.431 274.593 423.659 275.237C423.887 275.88 424.214 276.376 424.64 276.722C425.066 277.059 425.561 277.227 426.126 277.227C426.829 277.227 427.374 277.074 427.76 276.767C428.156 276.45 428.522 275.96 428.859 275.296L429.795 275.861C429.439 276.633 428.963 277.222 428.369 277.629C427.785 278.035 427.086 278.238 426.274 278.238ZM438.197 278V268.789H435.002V267.867H442.49V268.789H439.296V278H438.197Z" fill="white"/>
<path d="M358.473 267.867V267.667H358.273V267.867H358.473ZM364.044 268.699L363.902 268.84L363.902 268.84L364.044 268.699ZM364 273.29L363.861 273.146L363.86 273.148L364 273.29ZM359.587 274.122V273.922H359.387V274.122H359.587ZM359.587 278V278.2H359.787V278H359.587ZM358.473 278H358.273V278.2H358.473V278ZM363.227 272.651L363.372 272.789L363.374 272.787L363.227 272.651ZM363.227 269.353L363.08 269.489L363.08 269.489L363.227 269.353ZM359.587 268.789V268.589H359.387V268.789H359.587ZM359.587 273.201H359.387V273.401H359.587V273.201ZM358.473 268.067H361.86V267.667H358.473V268.067ZM361.86 268.067C362.728 268.067 363.401 268.33 363.902 268.84L364.187 268.559C363.598 267.96 362.815 267.667 361.86 267.667V268.067ZM363.902 268.84C364.401 269.348 364.661 270.06 364.661 271.002H365.061C365.061 269.984 364.777 269.16 364.187 268.559L363.902 268.84ZM364.661 271.002C364.661 271.931 364.388 272.637 363.861 273.146L364.139 273.434C364.76 272.834 365.061 272.015 365.061 271.002H364.661ZM363.86 273.148C363.339 273.659 362.641 273.922 361.741 273.922V274.322C362.724 274.322 363.531 274.031 364.14 273.433L363.86 273.148ZM361.741 273.922H359.587V274.322H361.741V273.922ZM359.387 274.122V278H359.787V274.122H359.387ZM359.587 277.8H358.473V278.2H359.587V277.8ZM358.673 278V267.867H358.273V278H358.673ZM361.712 273.401C362.412 273.401 362.977 273.207 363.372 272.789L363.082 272.514C362.784 272.829 362.339 273.001 361.712 273.001V273.401ZM363.374 272.787C363.767 272.361 363.947 271.755 363.947 271.002H363.547C363.547 271.696 363.381 272.189 363.08 272.516L363.374 272.787ZM363.947 271.002C363.947 270.25 363.767 269.644 363.374 269.218L363.08 269.489C363.381 269.815 363.547 270.309 363.547 271.002H363.947ZM363.374 269.218C362.979 268.789 362.414 268.589 361.712 268.589V268.989C362.337 268.989 362.782 269.165 363.08 269.489L363.374 269.218ZM361.712 268.589H359.587V268.989H361.712V268.589ZM359.387 268.789V273.201H359.787V268.789H359.387ZM359.587 273.401H361.712V273.001H359.587V273.401ZM376.556 278L376.383 278.1L376.441 278.2H376.556V278ZM373.986 273.528L374.159 273.428L374.102 273.328H373.986V273.528ZM371.98 273.528V273.328H371.78V273.528H371.98ZM371.98 278V278.2H372.18V278H371.98ZM370.866 278H370.666V278.2H370.866V278ZM370.866 267.867V267.667H370.666V267.867H370.866ZM375.873 268.224L375.964 268.046L375.964 268.046L375.873 268.224ZM376.943 269.234L376.769 269.333L376.77 269.335L376.943 269.234ZM376.705 272.443L376.857 272.573L376.858 272.572L376.705 272.443ZM375.085 273.409L375.037 273.215L374.78 273.279L374.912 273.509L375.085 273.409ZM377.73 278V278.2H378.076L377.903 277.9L377.73 278ZM371.98 272.607H371.78V272.807H371.98V272.607ZM375.605 272.087L375.466 271.943L375.464 271.945L375.605 272.087ZM375.605 269.323L375.462 269.463L375.466 269.467L375.605 269.323ZM371.98 268.789V268.589H371.78V268.789H371.98ZM376.73 277.9L374.159 273.428L373.813 273.628L376.383 278.1L376.73 277.9ZM373.986 273.328H371.98V273.728H373.986V273.328ZM371.78 273.528V278H372.18V273.528H371.78ZM371.98 277.8H370.866V278.2H371.98V277.8ZM371.066 278V267.867H370.666V278H371.066ZM370.866 268.067H374.253V267.667H370.866V268.067ZM374.253 268.067C374.841 268.067 375.349 268.181 375.782 268.402L375.964 268.046C375.466 267.791 374.894 267.667 374.253 267.667V268.067ZM375.782 268.402C376.214 268.623 376.541 268.933 376.769 269.333L377.116 269.135C376.849 268.664 376.463 268.301 375.964 268.046L375.782 268.402ZM376.77 269.335C376.997 269.726 377.114 270.181 377.114 270.705H377.514C377.514 270.12 377.383 269.594 377.115 269.134L376.77 269.335ZM377.114 270.705C377.114 271.335 376.925 271.868 376.551 272.315L376.858 272.572C377.296 272.048 377.514 271.422 377.514 270.705H377.114ZM376.553 272.314C376.177 272.754 375.675 273.056 375.037 273.215L375.134 273.603C375.843 273.426 376.421 273.084 376.857 272.573L376.553 272.314ZM374.912 273.509L377.557 278.1L377.903 277.9L375.259 273.309L374.912 273.509ZM377.73 277.8H376.556V278.2H377.73V277.8ZM371.98 272.807H374.105V272.407H371.98V272.807ZM374.105 272.807C374.793 272.807 375.351 272.624 375.747 272.228L375.464 271.945C375.166 272.243 374.724 272.407 374.105 272.407V272.807ZM375.745 272.23C376.146 271.84 376.34 271.325 376.34 270.705H375.94C375.94 271.235 375.778 271.64 375.466 271.943L375.745 272.23ZM376.34 270.705C376.34 270.086 376.146 269.57 375.745 269.18L375.466 269.467C375.778 269.77 375.94 270.176 375.94 270.705H376.34ZM375.749 269.184C375.354 268.778 374.795 268.589 374.105 268.589V268.989C374.722 268.989 375.164 269.156 375.462 269.463L375.749 269.184ZM374.105 268.589H371.98V268.989H374.105V268.589ZM371.78 268.789V272.607H372.18V268.789H371.78ZM385.68 277.569L385.565 277.733L385.568 277.735L385.68 277.569ZM384.135 275.682L383.953 275.765L383.954 275.767L384.135 275.682ZM384.135 270.215L383.953 270.131L383.953 270.132L384.135 270.215ZM385.68 268.328L385.792 268.493L385.793 268.493L385.68 268.328ZM390.181 268.328L390.067 268.492L390.07 268.494L390.181 268.328ZM391.727 270.215L391.544 270.297L391.546 270.3L391.727 270.215ZM391.727 275.697L391.546 275.612L391.545 275.613L391.727 275.697ZM390.181 277.569L390.294 277.734L390.295 277.734L390.181 277.569ZM389.587 276.678L389.706 276.839L389.706 276.838L389.587 276.678ZM390.746 275.162L390.93 275.241L390.93 275.24L390.746 275.162ZM390.746 270.735L390.93 270.657L390.93 270.657L390.746 270.735ZM389.587 269.205L389.467 269.364L389.468 269.365L389.587 269.205ZM386.274 269.205L386.155 269.044L386.154 269.045L386.274 269.205ZM385.13 270.735L384.946 270.657L384.946 270.657L385.13 270.735ZM385.13 275.162L384.946 275.24L384.946 275.241L385.13 275.162ZM386.274 276.678L386.153 276.837L386.157 276.84L386.274 276.678ZM387.938 278.038C387.134 278.038 386.42 277.825 385.791 277.403L385.568 277.735C386.267 278.204 387.059 278.438 387.938 278.438V278.038ZM385.794 277.405C385.172 276.972 384.679 276.372 384.316 275.597L383.954 275.767C384.343 276.598 384.88 277.255 385.565 277.733L385.794 277.405ZM384.317 275.599C383.964 274.827 383.785 273.945 383.785 272.949H383.385C383.385 273.993 383.573 274.933 383.953 275.765L384.317 275.599ZM383.785 272.949C383.785 271.953 383.964 271.07 384.317 270.298L383.953 270.132C383.573 270.964 383.385 271.904 383.385 272.949H383.785ZM384.316 270.299C384.679 269.515 385.172 268.916 385.792 268.493L385.567 268.163C384.88 268.631 384.343 269.29 383.953 270.131L384.316 270.299ZM385.793 268.493C386.422 268.061 387.135 267.845 387.938 267.845V267.445C387.058 267.445 386.265 267.684 385.567 268.163L385.793 268.493ZM387.938 267.845C388.741 267.845 389.449 268.061 390.067 268.492L390.296 268.164C389.607 267.684 388.818 267.445 387.938 267.445V267.845ZM390.07 268.494C390.699 268.917 391.191 269.515 391.544 270.297L391.909 270.133C391.529 269.29 390.991 268.631 390.293 268.162L390.07 268.494ZM391.546 270.3C391.908 271.072 392.091 271.958 392.091 272.963H392.491C392.491 271.909 392.298 270.963 391.908 270.13L391.546 270.3ZM392.091 272.963C392.091 273.959 391.908 274.84 391.546 275.612L391.908 275.782C392.298 274.949 392.491 274.009 392.491 272.963H392.091ZM391.545 275.613C391.192 276.376 390.7 276.971 390.068 277.404L390.295 277.734C390.99 277.256 391.528 276.603 391.908 275.781L391.545 275.613ZM390.069 277.404C389.45 277.825 388.742 278.038 387.938 278.038V278.438C388.817 278.438 389.605 278.204 390.294 277.734L390.069 277.404ZM387.938 277.413C388.594 277.413 389.185 277.221 389.706 276.839L389.469 276.517C389.018 276.847 388.51 277.013 387.938 277.013V277.413ZM389.706 276.838C390.234 276.448 390.64 275.913 390.93 275.241L390.562 275.083C390.297 275.699 389.931 276.174 389.468 276.517L389.706 276.838ZM390.93 275.24C391.219 274.558 391.362 273.793 391.362 272.949H390.962C390.962 273.748 390.827 274.459 390.562 275.084L390.93 275.24ZM391.362 272.949C391.362 272.104 391.219 271.339 390.93 270.657L390.562 270.813C390.827 271.438 390.962 272.149 390.962 272.949H391.362ZM390.93 270.657C390.641 269.975 390.234 269.435 389.706 269.044L389.468 269.365C389.931 269.708 390.296 270.187 390.562 270.813L390.93 270.657ZM389.708 269.045C389.187 268.652 388.595 268.455 387.938 268.455V268.855C388.509 268.855 389.016 269.024 389.467 269.364L389.708 269.045ZM387.938 268.455C387.281 268.455 386.685 268.652 386.155 269.044L386.393 269.365C386.854 269.024 387.367 268.855 387.938 268.855V268.455ZM386.154 269.045C385.636 269.436 385.235 269.976 384.946 270.657L385.314 270.813C385.58 270.186 385.942 269.706 386.395 269.364L386.154 269.045ZM384.946 270.657C384.657 271.339 384.514 272.104 384.514 272.949H384.914C384.914 272.149 385.049 271.438 385.314 270.813L384.946 270.657ZM384.514 272.949C384.514 273.793 384.657 274.558 384.946 275.24L385.314 275.084C385.049 274.459 384.914 273.748 384.914 272.949H384.514ZM384.946 275.241C385.235 275.912 385.637 276.447 386.154 276.837L386.395 276.518C385.941 276.176 385.579 275.7 385.314 275.083L384.946 275.241ZM386.157 276.84C386.687 277.221 387.282 277.413 387.938 277.413V277.013C387.366 277.013 386.852 276.847 386.391 276.515L386.157 276.84ZM398.937 277.688L398.819 277.85L398.822 277.852L398.937 277.688ZM397.748 276.113L397.662 275.933L397.491 276.014L397.563 276.189L397.748 276.113ZM398.684 275.667L398.875 275.608L398.806 275.388L398.598 275.487L398.684 275.667ZM399.457 276.797L399.336 276.956L399.341 276.96L399.457 276.797ZM402.146 276.618L402.298 276.747L402.3 276.746L402.146 276.618ZM402.636 267.867V267.667H402.436V267.867H402.636ZM403.75 267.867H403.95V267.667H403.75V267.867ZM402.948 277.376L403.094 277.512L403.096 277.511L402.948 277.376ZM400.764 278.038C400.108 278.038 399.54 277.865 399.051 277.524L398.822 277.852C399.383 278.244 400.033 278.438 400.764 278.438V278.038ZM399.055 277.527C398.573 277.175 398.198 276.681 397.933 276.037L397.563 276.189C397.852 276.892 398.27 277.448 398.819 277.849L399.055 277.527ZM397.834 276.294L398.77 275.848L398.598 275.487L397.662 275.933L397.834 276.294ZM398.493 275.727C398.653 276.239 398.933 276.651 399.336 276.956L399.577 276.637C399.247 276.387 399.012 276.047 398.875 275.608L398.493 275.727ZM399.341 276.96C399.751 277.251 400.207 277.398 400.705 277.398V276.998C400.291 276.998 399.915 276.877 399.572 276.634L399.341 276.96ZM400.705 277.398C401.381 277.398 401.924 277.19 402.298 276.747L401.993 276.489C401.714 276.819 401.296 276.998 400.705 276.998V277.398ZM402.3 276.746C402.666 276.302 402.836 275.696 402.836 274.954H402.436C402.436 275.639 402.279 276.142 401.991 276.491L402.3 276.746ZM402.836 274.954V267.867H402.436V274.954H402.836ZM402.636 268.067H403.75V267.667H402.636V268.067ZM403.55 267.867V274.954H403.95V267.867H403.55ZM403.55 274.954C403.55 275.95 403.292 276.703 402.801 277.241L403.096 277.511C403.673 276.88 403.95 276.019 403.95 274.954H403.55ZM402.802 277.24C402.311 277.766 401.64 278.038 400.764 278.038V278.438C401.73 278.438 402.515 278.134 403.094 277.512L402.802 277.24ZM410.571 278H410.371V278.2H410.571V278ZM410.571 267.867V267.667H410.371V267.867H410.571ZM416.247 267.867H416.447V267.667H416.247V267.867ZM416.247 268.803V269.003H416.447V268.803H416.247ZM411.685 268.803V268.603H411.485V268.803H411.685ZM411.685 272.339H411.485V272.539H411.685V272.339ZM415.251 272.339H415.451V272.139H415.251V272.339ZM415.251 273.246V273.446H415.451V273.246H415.251ZM411.685 273.246V273.046H411.485V273.246H411.685ZM411.685 277.079H411.485V277.279H411.685V277.079ZM416.291 277.079H416.491V276.879H416.291V277.079ZM416.291 278V278.2H416.491V278H416.291ZM410.771 278V267.867H410.371V278H410.771ZM410.571 268.067H416.247V267.667H410.571V268.067ZM416.047 267.867V268.803H416.447V267.867H416.047ZM416.247 268.603H411.685V269.003H416.247V268.603ZM411.485 268.803V272.339H411.885V268.803H411.485ZM411.685 272.539H415.251V272.139H411.685V272.539ZM415.051 272.339V273.246H415.451V272.339H415.051ZM415.251 273.046H411.685V273.446H415.251V273.046ZM411.485 273.246V277.079H411.885V273.246H411.485ZM411.685 277.279H416.291V276.879H411.685V277.279ZM416.091 277.079V278H416.491V277.079H416.091ZM416.291 277.8H410.571V278.2H416.291V277.8ZM424.06 277.614L423.946 277.778L423.949 277.78L424.06 277.614ZM422.634 275.801L422.449 275.877L422.45 275.88L422.634 275.801ZM422.619 270.111L422.434 270.035L422.434 270.037L422.619 270.111ZM424.001 268.283L424.116 268.447L424.116 268.447L424.001 268.283ZM428.295 268.209L428.188 268.378L428.191 268.38L428.295 268.209ZM429.706 269.769L429.807 269.942L429.969 269.847L429.885 269.68L429.706 269.769ZM428.815 270.289L428.639 270.384L428.737 270.566L428.915 270.462L428.815 270.289ZM427.7 269.041L427.597 269.212L427.6 269.214L427.7 269.041ZM424.06 269.799L423.894 269.688L423.893 269.689L424.06 269.799ZM423.659 275.237L423.471 275.303L423.471 275.303L423.659 275.237ZM424.64 276.722L424.514 276.877L424.516 276.879L424.64 276.722ZM427.76 276.767L427.884 276.923L427.885 276.923L427.76 276.767ZM428.859 275.296L428.963 275.125L428.778 275.014L428.681 275.205L428.859 275.296ZM429.795 275.861L429.977 275.944L430.052 275.782L429.899 275.689L429.795 275.861ZM428.369 277.629L428.256 277.463L428.255 277.464L428.369 277.629ZM426.274 278.038C425.456 278.038 424.758 277.839 424.171 277.447L423.949 277.78C424.611 278.221 425.388 278.438 426.274 278.438V278.038ZM424.174 277.449C423.595 277.048 423.142 276.475 422.818 275.722L422.45 275.88C422.8 276.692 423.297 277.328 423.946 277.778L424.174 277.449ZM422.819 275.725C422.504 274.962 422.344 274.044 422.344 272.963H421.944C421.944 274.082 422.11 275.055 422.449 275.877L422.819 275.725ZM422.344 272.963C422.344 271.872 422.5 270.948 422.805 270.185L422.434 270.037C422.105 270.859 421.944 271.836 421.944 272.963H422.344ZM422.804 270.186C423.12 269.413 423.559 268.837 424.116 268.447L423.886 268.12C423.255 268.562 422.773 269.204 422.434 270.035L422.804 270.186ZM424.116 268.447C424.683 268.047 425.355 267.845 426.14 267.845V267.445C425.282 267.445 424.527 267.668 423.886 268.12L424.116 268.447ZM426.14 267.845C426.952 267.845 427.631 268.026 428.188 268.378L428.402 268.04C427.77 267.64 427.013 267.445 426.14 267.445V267.845ZM428.191 268.38C428.761 268.726 429.206 269.216 429.527 269.859L429.885 269.68C429.533 268.975 429.037 268.425 428.398 268.038L428.191 268.38ZM429.605 269.596L428.714 270.116L428.915 270.462L429.807 269.942L429.605 269.596ZM428.99 270.194C428.662 269.588 428.268 269.14 427.801 268.868L427.6 269.214C427.985 269.438 428.334 269.821 428.639 270.384L428.99 270.194ZM427.804 268.87C427.34 268.59 426.782 268.455 426.14 268.455V268.855C426.727 268.855 427.209 268.978 427.597 269.212L427.804 268.87ZM426.14 268.455C425.189 268.455 424.434 268.872 423.894 269.688L424.227 269.909C424.697 269.2 425.329 268.855 426.14 268.855V268.455ZM423.893 269.689C423.368 270.487 423.118 271.581 423.118 272.949H423.518C423.518 271.622 423.762 270.616 424.227 269.909L423.893 269.689ZM423.118 272.949C423.118 273.847 423.233 274.633 423.471 275.303L423.848 275.17C423.629 274.553 423.518 273.814 423.518 272.949H423.118ZM423.471 275.303C423.708 275.973 424.053 276.503 424.514 276.877L424.766 276.567C424.375 276.249 424.066 275.787 423.848 275.17L423.471 275.303ZM424.516 276.879C424.978 277.245 425.518 277.427 426.126 277.427V277.027C425.604 277.027 425.153 276.873 424.764 276.565L424.516 276.879ZM426.126 277.427C426.855 277.427 427.45 277.268 427.884 276.923L427.635 276.61C427.297 276.879 426.802 277.027 426.126 277.027V277.427ZM427.885 276.923C428.311 276.582 428.693 276.065 429.038 275.387L428.681 275.205C428.352 275.855 428.001 276.318 427.635 276.611L427.885 276.923ZM428.756 275.467L429.692 276.032L429.899 275.689L428.963 275.125L428.756 275.467ZM429.614 275.777C429.269 276.523 428.816 277.081 428.256 277.463L428.482 277.794C429.111 277.364 429.608 276.744 429.977 275.944L429.614 275.777ZM428.255 277.464C427.709 277.844 427.051 278.038 426.274 278.038V278.438C427.121 278.438 427.861 278.225 428.483 277.793L428.255 277.464ZM438.197 278H437.997V278.2H438.197V278ZM438.197 268.789H438.397V268.589H438.197V268.789ZM435.002 268.789H434.802V268.989H435.002V268.789ZM435.002 267.867V267.667H434.802V267.867H435.002ZM442.49 267.867H442.69V267.667H442.49V267.867ZM442.49 268.789V268.989H442.69V268.789H442.49ZM439.296 268.789V268.589H439.096V268.789H439.296ZM439.296 278V278.2H439.496V278H439.296ZM438.397 278V268.789H437.997V278H438.397ZM438.197 268.589H435.002V268.989H438.197V268.589ZM435.202 268.789V267.867H434.802V268.789H435.202ZM435.002 268.067H442.49V267.667H435.002V268.067ZM442.29 267.867V268.789H442.69V267.867H442.29ZM442.49 268.589H439.296V268.989H442.49V268.589ZM439.096 268.789V278H439.496V268.789H439.096ZM439.296 277.8H438.197V278.2H439.296V277.8Z" fill="white" mask="url(#path-12-outside-1_306_30)"/>
</svg>
