<svg width="800" height="400" viewBox="0 0 800 400" fill="none" xmlns="http://www.w3.org/2000/svg">
<rect width="800" height="400" fill="white"/>
<circle cx="40.4196" cy="68.0578" r="8.41959" fill="#C54846"/>
<circle cx="40.4196" cy="95.696" r="8.41959" fill="#283C57"/>
<circle cx="40.4196" cy="40.4196" r="8.41959" fill="#E5B89F"/>
<circle cx="40.4196" cy="123.334" r="8.41959" fill="#D71A38"/>
<path d="M344.489 165.931H365.059V169.489H344.489V165.931ZM344.934 186H340.82V147.084H367.505V150.642H344.934V186ZM387.119 186V147.084H391.233V186H387.119Z" fill="#283C57"/>
<path d="M432.082 186.334C429.117 186.334 426.374 185.852 423.854 184.888C421.37 183.887 419.202 182.498 417.349 180.719C415.533 178.94 414.106 176.846 413.068 174.436C412.068 172.027 411.567 169.396 411.567 166.542C411.567 163.688 412.068 161.057 413.068 158.648C414.106 156.239 415.552 154.145 417.405 152.366C419.258 150.587 421.426 149.215 423.909 148.252C426.43 147.251 429.172 146.751 432.137 146.751C435.102 146.751 437.808 147.214 440.254 148.14C442.737 149.067 444.85 150.475 446.592 152.366L444.034 154.979C442.404 153.348 440.606 152.18 438.642 151.476C436.677 150.772 434.565 150.42 432.304 150.42C429.895 150.42 427.671 150.828 425.633 151.643C423.631 152.421 421.871 153.552 420.351 155.034C418.869 156.48 417.701 158.184 416.849 160.149C416.033 162.076 415.626 164.207 415.626 166.542C415.626 168.84 416.033 170.971 416.849 172.935C417.701 174.9 418.869 176.623 420.351 178.106C421.871 179.551 423.631 180.682 425.633 181.497C427.671 182.275 429.876 182.664 432.248 182.664C434.472 182.664 436.566 182.331 438.53 181.664C440.532 180.997 442.366 179.866 444.034 178.272L446.369 181.386C444.516 183.016 442.348 184.258 439.865 185.11C437.382 185.926 434.787 186.334 432.082 186.334ZM442.422 180.885V166.542H446.369V181.386L442.422 180.885Z" fill="#E5B89F"/>
<path d="M340.82 254V215.084H344.211L362.001 245.439H360.222L377.846 215.084H381.237V254H377.29V221.255H378.235L362.001 249.052H360.056L343.711 221.255H344.767V254H340.82ZM405.48 254L423.27 215.084H427.329L445.119 254H440.782L424.438 217.475H426.106L409.761 254H405.48ZM412.485 243.604L413.708 240.268H436.335L437.558 243.604H412.485Z" fill="#C54846"/>
<path d="M326 98.0415H474.684V301.682H326" stroke="#D71A38" stroke-width="1.12925"/>
<path d="M638.022 368L641.58 360.217H642.392L645.95 368H645.083L641.814 360.695H642.147L638.878 368H638.022ZM639.423 365.921L639.668 365.254H644.193L644.438 365.921H639.423ZM648.905 368V360.217H649.728V367.288H654.087V368H648.905ZM657.854 363.697H661.968V364.398H657.854V363.697ZM657.943 367.288H662.624V368H657.121V360.217H662.458V360.928H657.943V367.288ZM668.372 368.067C667.794 368.067 667.238 367.974 666.704 367.789C666.178 367.596 665.77 367.351 665.481 367.055L665.804 366.421C666.078 366.688 666.445 366.914 666.905 367.099C667.372 367.277 667.861 367.366 668.372 367.366C668.861 367.366 669.258 367.307 669.562 367.188C669.873 367.062 670.099 366.896 670.24 366.688C670.388 366.48 670.463 366.251 670.463 365.999C670.463 365.695 670.374 365.45 670.196 365.265C670.025 365.079 669.799 364.935 669.517 364.831C669.236 364.72 668.924 364.624 668.583 364.542C668.242 364.461 667.902 364.375 667.561 364.286C667.22 364.19 666.905 364.064 666.615 363.908C666.334 363.753 666.104 363.549 665.926 363.297C665.756 363.037 665.67 362.7 665.67 362.285C665.67 361.899 665.77 361.547 665.971 361.229C666.178 360.903 666.493 360.643 666.916 360.45C667.338 360.25 667.879 360.15 668.539 360.15C668.976 360.15 669.41 360.213 669.84 360.339C670.27 360.458 670.64 360.625 670.952 360.839L670.674 361.496C670.34 361.273 669.984 361.11 669.606 361.006C669.236 360.903 668.876 360.851 668.528 360.851C668.061 360.851 667.675 360.914 667.372 361.04C667.068 361.166 666.842 361.336 666.693 361.551C666.552 361.759 666.482 361.996 666.482 362.263C666.482 362.567 666.567 362.811 666.738 362.997C666.916 363.182 667.145 363.326 667.427 363.43C667.716 363.534 668.031 363.627 668.372 363.708C668.713 363.79 669.05 363.879 669.384 363.975C669.725 364.071 670.036 364.197 670.318 364.353C670.607 364.501 670.837 364.701 671.007 364.953C671.185 365.205 671.274 365.535 671.274 365.943C671.274 366.321 671.17 366.673 670.963 366.999C670.755 367.318 670.437 367.577 670.007 367.778C669.584 367.97 669.039 368.067 668.372 368.067ZM676.881 368.067C676.303 368.067 675.747 367.974 675.213 367.789C674.687 367.596 674.279 367.351 673.99 367.055L674.312 366.421C674.587 366.688 674.953 366.914 675.413 367.099C675.88 367.277 676.369 367.366 676.881 367.366C677.37 367.366 677.766 367.307 678.07 367.188C678.382 367.062 678.608 366.896 678.749 366.688C678.897 366.48 678.971 366.251 678.971 365.999C678.971 365.695 678.882 365.45 678.704 365.265C678.534 365.079 678.308 364.935 678.026 364.831C677.744 364.72 677.433 364.624 677.092 364.542C676.751 364.461 676.41 364.375 676.069 364.286C675.728 364.19 675.413 364.064 675.124 363.908C674.842 363.753 674.612 363.549 674.435 363.297C674.264 363.037 674.179 362.7 674.179 362.285C674.179 361.899 674.279 361.547 674.479 361.229C674.687 360.903 675.002 360.643 675.424 360.45C675.847 360.25 676.388 360.15 677.047 360.15C677.485 360.15 677.918 360.213 678.348 360.339C678.778 360.458 679.149 360.625 679.46 360.839L679.182 361.496C678.849 361.273 678.493 361.11 678.115 361.006C677.744 360.903 677.385 360.851 677.036 360.851C676.569 360.851 676.184 360.914 675.88 361.04C675.576 361.166 675.35 361.336 675.202 361.551C675.061 361.759 674.99 361.996 674.99 362.263C674.99 362.567 675.076 362.811 675.246 362.997C675.424 363.182 675.654 363.326 675.936 363.43C676.225 363.534 676.54 363.627 676.881 363.708C677.222 363.79 677.559 363.879 677.893 363.975C678.233 364.071 678.545 364.197 678.826 364.353C679.116 364.501 679.345 364.701 679.516 364.953C679.694 365.205 679.783 365.535 679.783 365.943C679.783 366.321 679.679 366.673 679.471 366.999C679.264 367.318 678.945 367.577 678.515 367.778C678.093 367.97 677.548 368.067 676.881 368.067ZM681.998 368L685.556 360.217H686.368L689.926 368H689.058L685.789 360.695H686.123L682.854 368H681.998ZM683.399 365.921L683.644 365.254H688.169L688.413 365.921H683.399ZM692.881 368V360.217H693.559L698.93 366.977H698.574V360.217H699.385V368H698.707L693.348 361.24H693.704V368H692.881ZM703.594 368V360.217H706.763C707.593 360.217 708.319 360.384 708.942 360.717C709.572 361.043 710.061 361.499 710.41 362.085C710.758 362.67 710.932 363.345 710.932 364.108C710.932 364.872 710.758 365.546 710.41 366.132C710.061 366.718 709.572 367.177 708.942 367.511C708.319 367.837 707.593 368 706.763 368H703.594ZM704.416 367.288H706.718C707.407 367.288 708.004 367.155 708.508 366.888C709.02 366.614 709.416 366.24 709.698 365.765C709.98 365.283 710.12 364.731 710.12 364.108C710.12 363.478 709.98 362.926 709.698 362.452C709.416 361.977 709.02 361.607 708.508 361.34C708.004 361.066 707.407 360.928 706.718 360.928H704.416V367.288ZM714.448 368V360.217H717.361C718.02 360.217 718.587 360.324 719.062 360.539C719.536 360.747 719.899 361.051 720.151 361.451C720.411 361.844 720.541 362.322 720.541 362.885C720.541 363.434 720.411 363.908 720.151 364.309C719.899 364.701 719.536 365.005 719.062 365.22C718.587 365.428 718.02 365.532 717.361 365.532H714.903L715.27 365.154V368H714.448ZM719.762 368L717.761 365.176H718.65L720.663 368H719.762ZM715.27 365.22L714.903 364.831H717.338C718.117 364.831 718.706 364.661 719.106 364.32C719.514 363.979 719.718 363.501 719.718 362.885C719.718 362.263 719.514 361.781 719.106 361.44C718.706 361.099 718.117 360.928 717.338 360.928H714.903L715.27 360.539V365.22ZM722.905 368L726.463 360.217H727.275L730.833 368H729.966L726.697 360.695H727.03L723.761 368H722.905ZM724.306 365.921L724.551 365.254H729.076L729.321 365.921H724.306ZM738.366 368V360.217H741.279C741.939 360.217 742.506 360.324 742.98 360.539C743.455 360.747 743.818 361.051 744.07 361.451C744.329 361.844 744.459 362.322 744.459 362.885C744.459 363.434 744.329 363.908 744.07 364.309C743.818 364.701 743.455 365.005 742.98 365.22C742.506 365.428 741.939 365.532 741.279 365.532H738.822L739.189 365.154V368H738.366ZM743.681 368L741.679 365.176H742.569L744.581 368H743.681ZM739.189 365.22L738.822 364.831H741.257C742.035 364.831 742.624 364.661 743.025 364.32C743.432 363.979 743.636 363.501 743.636 362.885C743.636 362.263 743.432 361.781 743.025 361.44C742.624 361.099 742.035 360.928 741.257 360.928H738.822L739.189 360.539V365.22ZM748.803 363.697H752.917V364.398H748.803V363.697ZM748.892 367.288H753.573V368H748.069V360.217H753.406V360.928H748.892V367.288ZM757.175 368V360.217H757.997V368H757.175ZM764.343 368.067C763.765 368.067 763.209 367.974 762.676 367.789C762.149 367.596 761.742 367.351 761.453 367.055L761.775 366.421C762.049 366.688 762.416 366.914 762.876 367.099C763.343 367.277 763.832 367.366 764.343 367.366C764.833 367.366 765.229 367.307 765.533 367.188C765.845 367.062 766.071 366.896 766.211 366.688C766.36 366.48 766.434 366.251 766.434 365.999C766.434 365.695 766.345 365.45 766.167 365.265C765.996 365.079 765.77 364.935 765.489 364.831C765.207 364.72 764.896 364.624 764.555 364.542C764.214 364.461 763.873 364.375 763.532 364.286C763.191 364.19 762.876 364.064 762.587 363.908C762.305 363.753 762.075 363.549 761.897 363.297C761.727 363.037 761.642 362.7 761.642 362.285C761.642 361.899 761.742 361.547 761.942 361.229C762.149 360.903 762.464 360.643 762.887 360.45C763.309 360.25 763.851 360.15 764.51 360.15C764.948 360.15 765.381 360.213 765.811 360.339C766.241 360.458 766.612 360.625 766.923 360.839L766.645 361.496C766.312 361.273 765.956 361.11 765.578 361.006C765.207 360.903 764.848 360.851 764.499 360.851C764.032 360.851 763.647 360.914 763.343 361.04C763.039 361.166 762.813 361.336 762.665 361.551C762.524 361.759 762.453 361.996 762.453 362.263C762.453 362.567 762.539 362.811 762.709 362.997C762.887 363.182 763.117 363.326 763.398 363.43C763.687 363.534 764.003 363.627 764.343 363.708C764.684 363.79 765.022 363.879 765.355 363.975C765.696 364.071 766.008 364.197 766.289 364.353C766.578 364.501 766.808 364.701 766.979 364.953C767.157 365.205 767.245 365.535 767.245 365.943C767.245 366.321 767.142 366.673 766.934 366.999C766.727 367.318 766.408 367.577 765.978 367.778C765.555 367.97 765.011 368.067 764.343 368.067Z" fill="#283C57"/>
<path d="M748 32H768.444V60H748" stroke="#D71A38" stroke-width="1.3"/>
<path d="M755.146 46L741.537 56.3923V35.6077L755.146 46Z" fill="#C54846"/>
</svg>
