<svg width="762" height="553" viewBox="0 0 762 553" fill="none" xmlns="http://www.w3.org/2000/svg">
<rect width="762" height="553" fill="white"/>
<circle cx="40.4196" cy="68.0578" r="8.41959" fill="#C54846"/>
<circle cx="40.4196" cy="95.696" r="8.41959" fill="#283C57"/>
<circle cx="40.4196" cy="40.4196" r="8.41959" fill="#E5B89F"/>
<circle cx="40.4196" cy="123.334" r="8.41959" fill="#D71A38"/>
<path d="M588.022 513L591.58 505.217H592.392L595.95 513H595.083L591.814 505.695H592.147L588.878 513H588.022ZM589.423 510.921L589.668 510.254H594.193L594.438 510.921H589.423ZM598.905 513V505.217H599.728V512.288H604.087V513H598.905ZM607.854 508.697H611.968V509.398H607.854V508.697ZM607.943 512.288H612.624V513H607.121V505.217H612.458V505.928H607.943V512.288ZM618.372 513.067C617.794 513.067 617.238 512.974 616.704 512.789C616.178 512.596 615.77 512.351 615.481 512.055L615.804 511.421C616.078 511.688 616.445 511.914 616.905 512.099C617.372 512.277 617.861 512.366 618.372 512.366C618.861 512.366 619.258 512.307 619.562 512.188C619.873 512.062 620.099 511.896 620.24 511.688C620.388 511.48 620.463 511.251 620.463 510.999C620.463 510.695 620.374 510.45 620.196 510.265C620.025 510.079 619.799 509.935 619.517 509.831C619.236 509.72 618.924 509.624 618.583 509.542C618.242 509.461 617.902 509.375 617.561 509.286C617.22 509.19 616.905 509.064 616.615 508.908C616.334 508.753 616.104 508.549 615.926 508.297C615.756 508.037 615.67 507.7 615.67 507.285C615.67 506.899 615.77 506.547 615.971 506.229C616.178 505.903 616.493 505.643 616.916 505.45C617.338 505.25 617.879 505.15 618.539 505.15C618.976 505.15 619.41 505.213 619.84 505.339C620.27 505.458 620.64 505.625 620.952 505.839L620.674 506.496C620.34 506.273 619.984 506.11 619.606 506.006C619.236 505.903 618.876 505.851 618.528 505.851C618.061 505.851 617.675 505.914 617.372 506.04C617.068 506.166 616.842 506.336 616.693 506.551C616.552 506.759 616.482 506.996 616.482 507.263C616.482 507.567 616.567 507.811 616.738 507.997C616.916 508.182 617.145 508.326 617.427 508.43C617.716 508.534 618.031 508.627 618.372 508.708C618.713 508.79 619.05 508.879 619.384 508.975C619.725 509.071 620.036 509.197 620.318 509.353C620.607 509.501 620.837 509.701 621.007 509.953C621.185 510.205 621.274 510.535 621.274 510.943C621.274 511.321 621.17 511.673 620.963 511.999C620.755 512.318 620.437 512.577 620.007 512.778C619.584 512.97 619.039 513.067 618.372 513.067ZM626.881 513.067C626.303 513.067 625.747 512.974 625.213 512.789C624.687 512.596 624.279 512.351 623.99 512.055L624.312 511.421C624.587 511.688 624.953 511.914 625.413 512.099C625.88 512.277 626.369 512.366 626.881 512.366C627.37 512.366 627.766 512.307 628.07 512.188C628.382 512.062 628.608 511.896 628.749 511.688C628.897 511.48 628.971 511.251 628.971 510.999C628.971 510.695 628.882 510.45 628.704 510.265C628.534 510.079 628.308 509.935 628.026 509.831C627.744 509.72 627.433 509.624 627.092 509.542C626.751 509.461 626.41 509.375 626.069 509.286C625.728 509.19 625.413 509.064 625.124 508.908C624.842 508.753 624.612 508.549 624.435 508.297C624.264 508.037 624.179 507.7 624.179 507.285C624.179 506.899 624.279 506.547 624.479 506.229C624.687 505.903 625.002 505.643 625.424 505.45C625.847 505.25 626.388 505.15 627.047 505.15C627.485 505.15 627.918 505.213 628.348 505.339C628.778 505.458 629.149 505.625 629.46 505.839L629.182 506.496C628.849 506.273 628.493 506.11 628.115 506.006C627.744 505.903 627.385 505.851 627.036 505.851C626.569 505.851 626.184 505.914 625.88 506.04C625.576 506.166 625.35 506.336 625.202 506.551C625.061 506.759 624.99 506.996 624.99 507.263C624.99 507.567 625.076 507.811 625.246 507.997C625.424 508.182 625.654 508.326 625.936 508.43C626.225 508.534 626.54 508.627 626.881 508.708C627.222 508.79 627.559 508.879 627.893 508.975C628.233 509.071 628.545 509.197 628.826 509.353C629.116 509.501 629.345 509.701 629.516 509.953C629.694 510.205 629.783 510.535 629.783 510.943C629.783 511.321 629.679 511.673 629.471 511.999C629.264 512.318 628.945 512.577 628.515 512.778C628.093 512.97 627.548 513.067 626.881 513.067ZM631.998 513L635.556 505.217H636.368L639.926 513H639.058L635.789 505.695H636.123L632.854 513H631.998ZM633.399 510.921L633.644 510.254H638.169L638.413 510.921H633.399ZM642.881 513V505.217H643.559L648.93 511.977H648.574V505.217H649.385V513H648.707L643.348 506.24H643.704V513H642.881ZM653.594 513V505.217H656.763C657.593 505.217 658.319 505.384 658.942 505.717C659.572 506.043 660.061 506.499 660.41 507.085C660.758 507.67 660.932 508.345 660.932 509.108C660.932 509.872 660.758 510.546 660.41 511.132C660.061 511.718 659.572 512.177 658.942 512.511C658.319 512.837 657.593 513 656.763 513H653.594ZM654.416 512.288H656.718C657.407 512.288 658.004 512.155 658.508 511.888C659.02 511.614 659.416 511.24 659.698 510.765C659.98 510.283 660.12 509.731 660.12 509.108C660.12 508.478 659.98 507.926 659.698 507.452C659.416 506.977 659.02 506.607 658.508 506.34C658.004 506.066 657.407 505.928 656.718 505.928H654.416V512.288ZM664.448 513V505.217H667.361C668.02 505.217 668.587 505.324 669.062 505.539C669.536 505.747 669.899 506.051 670.151 506.451C670.411 506.844 670.541 507.322 670.541 507.885C670.541 508.434 670.411 508.908 670.151 509.309C669.899 509.701 669.536 510.005 669.062 510.22C668.587 510.428 668.02 510.532 667.361 510.532H664.903L665.27 510.154V513H664.448ZM669.762 513L667.761 510.176H668.65L670.663 513H669.762ZM665.27 510.22L664.903 509.831H667.338C668.117 509.831 668.706 509.661 669.106 509.32C669.514 508.979 669.718 508.501 669.718 507.885C669.718 507.263 669.514 506.781 669.106 506.44C668.706 506.099 668.117 505.928 667.338 505.928H664.903L665.27 505.539V510.22ZM672.905 513L676.463 505.217H677.275L680.833 513H679.966L676.697 505.695H677.03L673.761 513H672.905ZM674.306 510.921L674.551 510.254H679.076L679.321 510.921H674.306ZM688.366 513V505.217H691.279C691.939 505.217 692.506 505.324 692.98 505.539C693.455 505.747 693.818 506.051 694.07 506.451C694.329 506.844 694.459 507.322 694.459 507.885C694.459 508.434 694.329 508.908 694.07 509.309C693.818 509.701 693.455 510.005 692.98 510.22C692.506 510.428 691.939 510.532 691.279 510.532H688.822L689.189 510.154V513H688.366ZM693.681 513L691.679 510.176H692.569L694.581 513H693.681ZM689.189 510.22L688.822 509.831H691.257C692.035 509.831 692.624 509.661 693.025 509.32C693.432 508.979 693.636 508.501 693.636 507.885C693.636 507.263 693.432 506.781 693.025 506.44C692.624 506.099 692.035 505.928 691.257 505.928H688.822L689.189 505.539V510.22ZM698.803 508.697H702.917V509.398H698.803V508.697ZM698.892 512.288H703.573V513H698.069V505.217H703.406V505.928H698.892V512.288ZM707.175 513V505.217H707.997V513H707.175ZM714.343 513.067C713.765 513.067 713.209 512.974 712.676 512.789C712.149 512.596 711.742 512.351 711.453 512.055L711.775 511.421C712.049 511.688 712.416 511.914 712.876 512.099C713.343 512.277 713.832 512.366 714.343 512.366C714.833 512.366 715.229 512.307 715.533 512.188C715.845 512.062 716.071 511.896 716.211 511.688C716.36 511.48 716.434 511.251 716.434 510.999C716.434 510.695 716.345 510.45 716.167 510.265C715.996 510.079 715.77 509.935 715.489 509.831C715.207 509.72 714.896 509.624 714.555 509.542C714.214 509.461 713.873 509.375 713.532 509.286C713.191 509.19 712.876 509.064 712.587 508.908C712.305 508.753 712.075 508.549 711.897 508.297C711.727 508.037 711.642 507.7 711.642 507.285C711.642 506.899 711.742 506.547 711.942 506.229C712.149 505.903 712.464 505.643 712.887 505.45C713.309 505.25 713.851 505.15 714.51 505.15C714.948 505.15 715.381 505.213 715.811 505.339C716.241 505.458 716.612 505.625 716.923 505.839L716.645 506.496C716.312 506.273 715.956 506.11 715.578 506.006C715.207 505.903 714.848 505.851 714.499 505.851C714.032 505.851 713.647 505.914 713.343 506.04C713.039 506.166 712.813 506.336 712.665 506.551C712.524 506.759 712.453 506.996 712.453 507.263C712.453 507.567 712.539 507.811 712.709 507.997C712.887 508.182 713.117 508.326 713.398 508.43C713.687 508.534 714.003 508.627 714.343 508.708C714.684 508.79 715.022 508.879 715.355 508.975C715.696 509.071 716.008 509.197 716.289 509.353C716.578 509.501 716.808 509.701 716.979 509.953C717.157 510.205 717.245 510.535 717.245 510.943C717.245 511.321 717.142 511.673 716.934 511.999C716.727 512.318 716.408 512.577 715.978 512.778C715.555 512.97 715.011 513.067 714.343 513.067Z" fill="#283C57"/>
<path d="M121.29 53.3849H134.22V55.6214H121.29V53.3849ZM121.57 66H118.984V41.5386H135.757V43.7751H121.57V66ZM146.339 66V41.5386H148.925V66H146.339ZM172.854 66.2097C170.99 66.2097 169.266 65.9068 167.682 65.3011C166.121 64.6721 164.758 63.7985 163.593 62.6802C162.452 61.562 161.555 60.2458 160.902 58.7315C160.273 57.2172 159.959 55.5632 159.959 53.7693C159.959 51.9755 160.273 50.3214 160.902 48.8072C161.555 47.2929 162.463 45.9766 163.628 44.8584C164.793 43.7402 166.156 42.8782 167.717 42.2725C169.301 41.6435 171.025 41.329 172.888 41.329C174.752 41.329 176.453 41.6202 177.99 42.2026C179.551 42.785 180.879 43.6703 181.974 44.8584L180.367 46.5008C179.342 45.4758 178.212 44.7419 176.977 44.2993C175.742 43.8567 174.414 43.6353 172.993 43.6353C171.479 43.6353 170.081 43.8916 168.8 44.4041C167.542 44.8933 166.435 45.6039 165.48 46.5358C164.548 47.4443 163.814 48.516 163.279 49.7507C162.766 50.9621 162.51 52.3016 162.51 53.7693C162.51 55.2137 162.766 56.5533 163.279 57.788C163.814 59.0227 164.548 60.106 165.48 61.0378C166.435 61.9464 167.542 62.6569 168.8 63.1695C170.081 63.6587 171.467 63.9033 172.958 63.9033C174.356 63.9033 175.672 63.6936 176.907 63.2743C178.165 62.855 179.318 62.1444 180.367 61.1427L181.834 63.0996C180.67 64.1246 179.307 64.9051 177.746 65.4409C176.185 65.9534 174.554 66.2097 172.854 66.2097ZM179.353 62.7851V53.7693H181.834V63.0996L179.353 62.7851ZM194.395 66V41.5386H196.526L207.709 60.6185H206.591L217.668 41.5386H219.8V66H217.319V45.4175H217.913L207.709 62.8899H206.486L196.212 45.4175H196.876V66H194.395ZM229.098 66L240.28 41.5386H242.831L254.013 66H251.288L241.014 43.0413H242.062L231.788 66H229.098ZM233.501 59.4653L234.27 57.3686H248.492L249.261 59.4653H233.501ZM273.775 66L284.958 41.5386H287.508L298.691 66H295.965L285.691 43.0413H286.74L276.466 66H273.775ZM278.178 59.4653L278.947 57.3686H293.17L293.938 59.4653H278.178ZM307.979 66V41.5386H317.135C319.208 41.5386 320.99 41.8764 322.481 42.552C323.972 43.2044 325.114 44.1595 325.906 45.4175C326.721 46.6522 327.129 48.1549 327.129 49.9254C327.129 51.6493 326.721 53.1403 325.906 54.3983C325.114 55.633 323.972 56.5882 322.481 57.2638C320.99 57.9161 319.208 58.2423 317.135 58.2423H309.412L310.565 57.0541V66H307.979ZM324.683 66L318.393 57.124H321.188L327.513 66H324.683ZM310.565 57.2638L309.412 56.0407H317.065C319.511 56.0407 321.363 55.5049 322.621 54.4333C323.902 53.3616 324.543 51.859 324.543 49.9254C324.543 47.9685 323.902 46.4542 322.621 45.3826C321.363 44.3109 319.511 43.7751 317.065 43.7751H309.412L310.565 42.552V57.2638ZM342.885 66V43.7751H334.289V41.5386H354.067V43.7751H345.471V66H342.885ZM369.809 66.2097C367.992 66.2097 366.245 65.9185 364.567 65.336C362.913 64.7303 361.632 63.9616 360.724 63.0297L361.737 61.0378C362.599 61.8765 363.752 62.5871 365.196 63.1695C366.664 63.7286 368.202 64.0081 369.809 64.0081C371.347 64.0081 372.593 63.8218 373.548 63.449C374.527 63.053 375.237 62.5288 375.68 61.8765C376.146 61.2242 376.379 60.502 376.379 59.7099C376.379 58.7548 376.099 57.986 375.54 57.4036C375.004 56.8212 374.294 56.3669 373.408 56.0407C372.523 55.6913 371.545 55.3884 370.473 55.1322C369.401 54.8759 368.33 54.608 367.258 54.3284C366.187 54.0256 365.196 53.6295 364.288 53.1403C363.403 52.6511 362.68 52.0104 362.121 51.2184C361.586 50.403 361.318 49.343 361.318 48.0384C361.318 46.827 361.632 45.7204 362.261 44.7186C362.913 43.6936 363.904 42.8782 365.231 42.2725C366.559 41.6435 368.26 41.329 370.333 41.329C371.708 41.329 373.071 41.527 374.422 41.923C375.773 42.2958 376.938 42.82 377.916 43.4956L377.043 45.5573C375.994 44.8584 374.876 44.3459 373.688 44.0197C372.523 43.6936 371.393 43.5305 370.298 43.5305C368.831 43.5305 367.619 43.7285 366.664 44.1246C365.709 44.5206 364.998 45.0564 364.533 45.732C364.09 46.3843 363.869 47.1298 363.869 47.9685C363.869 48.9236 364.136 49.6924 364.672 50.2748C365.231 50.8573 365.954 51.3115 366.839 51.6377C367.747 51.9638 368.738 52.2551 369.809 52.5113C370.881 52.7676 371.941 53.0471 372.989 53.35C374.061 53.6528 375.039 54.0489 375.925 54.5381C376.833 55.004 377.555 55.633 378.091 56.4251C378.65 57.2172 378.93 58.2539 378.93 59.5352C378.93 60.7233 378.604 61.8299 377.951 62.855C377.299 63.8567 376.297 64.6721 374.946 65.3011C373.618 65.9068 371.906 66.2097 369.809 66.2097Z" fill="#C54846"/>
<path d="M118.181 229.231C106.689 230.831 142.518 221.484 180.519 228.481C219.062 235.578 228.392 167.078 207.53 181.043C186.668 195.008 147.827 173.518 142.49 158.245C137.153 142.971 129.672 227.63 118.181 229.231Z" fill="#88D2EF"/>
<path d="M161.268 171.684C164.113 173.241 162.982 178.944 160.965 180.154C158.948 181.364 154.31 179.549 148.563 180.154C142.815 180.759 144.297 215.64 143.843 218.424C143.389 221.207 136.975 238.657 135.375 238.305C135.375 238.305 124.762 245.183 128.791 248.785C133.253 252.774 135.256 243.591 139.549 242.32C143.843 241.048 148.741 222.257 150.468 219.84C152.195 217.422 151.841 199.619 151.841 199.619C151.841 199.619 156.244 218.071 153.135 241.048C150.027 264.025 142.596 265.824 130.571 266.718C119.076 268.835 145.103 250.401 154.77 251.291C168.358 250.659 171.407 264.6 189.858 264.6C208.31 264.6 215.064 254.921 213.755 249.476C212.155 242.821 204.134 240.307 196.211 239.494C186.897 238.537 185.013 245.497 176.246 248.785C176.246 248.785 172.574 252.072 163.807 248.785C155.04 245.497 153.157 238.537 143.843 239.494C135.92 240.307 127.898 242.821 126.298 249.476C124.989 254.921 131.743 264.6 150.195 264.6C168.647 264.6 171.695 250.659 185.284 251.291C194.951 250.401 220.977 268.835 209.483 266.718C189.231 265.918 181.118 246.491 181.114 241.048M161.268 171.684C166.943 170.386 174.761 165.882 174.275 164.727C171.772 170.731 165.249 181.206 173.67 180.154C182.09 179.101 183.682 177.31 186.628 179.101C189.574 180.892 189.985 190.449 190.874 189.939C190.874 189.939 196.043 187.341 195.412 183.941C194.938 181.394 191.925 181.469 190.874 179.101C189.581 176.186 193.551 173.702 192.689 170.631C191.829 167.569 188.917 166.821 188.454 163.674C188.012 160.67 190.379 159.147 190.269 156.112C190.13 152.298 187.269 150.802 186.639 147.037C186.152 144.125 187.193 142.376 186.639 139.475C184.979 130.778 179.124 125.627 170.342 124.496C162.74 123.517 156.593 126.185 152.495 132.663C149.253 137.79 146.698 143.514 150.68 148.09C156.059 154.27 158.102 132.133 166.107 133.873C172.736 135.314 176.089 148.09 176.089 148.09C176.089 148.09 172.848 133.97 166.712 132.965C160.342 131.922 154.31 136.898 152.495 145.065C150.68 153.232 150.68 161.702 152.495 164.727C154.31 167.752 157.909 170.606 161.268 171.684Z" stroke="black" stroke-width="0.690822"/>
<path d="M181.114 241.393C177.351 219.666 180.275 194.477 180.275 194.477C180.275 194.477 185.266 208.088 186.023 212.625C186.779 217.163 187.171 217.164 187.171 215.954C187.171 214.743 176.192 200.83 173.108 196.897C170.025 192.964 163.336 190.334 163.336 196.594C163.336 199.619 162.769 191.612 170.444 203.25C178.12 214.888 182.948 222.845 191.467 225.935C199.91 229.769 189.955 181.676 186.023 179.851C182.09 178.027 177.548 180.796 173.472 179.851C173.472 179.851 171.201 179.655 170.293 178.748C169.386 177.84 171.714 176.933 171.503 178.143C171.292 179.352 171.503 180.563 171.503 180.563C172.51 189.408 171.255 194.257 169.688 202.947C169.688 202.947 162.126 214.441 162.428 211.719C162.731 208.996 162.106 205.983 159.404 205.064C157.314 204.354 154.941 204.6 153.959 206.577C153.011 208.484 154.048 210.471 155.774 211.719C157.404 212.898 159.579 213.524 160.916 212.021C162.432 210.317 160.883 207.504 158.799 206.577C157.391 205.95 155.668 205.564 154.866 206.879C154.067 208.19 155.216 209.506 156.379 210.509C158.17 212.054 160.968 212.067 162.428 210.206C164.043 208.149 162.567 205.177 160.311 203.854C158.579 202.839 155.169 203.854 155.169 203.854L163.941 198.107C163.941 198.107 161.225 200.197 160.009 199.619C159.002 199.142 158.906 197.054 157.891 196.594C156.396 195.917 156.993 198.777 155.394 198.409C153.592 197.995 152.144 194.779 152.144 194.779L153.354 198.107C153.354 198.107 145.489 206.879 146.699 205.367C147.909 203.854 147.355 199.784 144.884 198.712C142.992 197.891 140.379 197.96 139.742 199.922C139.203 201.581 140.373 202.941 141.859 203.854C142.885 204.485 143.824 205.032 144.884 204.459C146.497 203.587 145.115 201.056 143.674 199.922C142.189 198.753 140.042 198.468 138.834 199.922C137.446 201.592 139.16 203.837 140.952 205.064C142.427 206.074 143.987 206.638 145.489 205.669C147.595 204.311 146.202 201.228 144.582 199.317C143.386 197.907 140.347 197.199 140.347 197.199L150.026 192.057C153.19 193.222 153.964 194.069 155.938 197.13C153.911 194.084 154.002 192.797 150.494 191.382C150.494 191.382 153.579 189.585 155.169 190.242C156.175 190.658 155.937 192.361 156.984 192.662C158.141 192.995 157.891 191.755 159.404 192.057C160.916 192.36 160.916 194.174 161.521 194.477C162.126 194.779 162.428 194.477 162.428 194.477C162.428 194.477 165.453 190.468 169.083 192.964C172.713 195.459 172.713 195.081 172.713 195.081L174.528 192.662C174.528 192.662 173.417 190.61 171.759 189.636C170.101 188.662 167.268 190.242 167.268 190.242C167.268 190.242 166.177 187.71 164.546 187.216C162.971 186.74 160.916 188.125 160.916 188.125C160.916 188.125 159.61 186.649 158.496 186.612C157.44 186.578 156.076 187.822 156.076 187.822L150.329 190.847C153.809 185.81 156.046 183.124 160.916 178.748" stroke="black" stroke-width="0.690822"/>
<path d="M555.273 219.445C555.273 260.239 531.405 236.305 501.963 236.305C472.521 236.305 448.653 260.239 448.653 219.445C448.653 178.652 472.521 157.625 501.963 157.625C555.273 157.625 584.658 240.801 555.273 219.445Z" fill="#CBAFED"/>
<path d="M490.668 181.093C490.375 184.167 488.091 187.95 485.218 186.821C483.032 185.962 482.471 183.643 482.795 181.317C483.27 177.918 487.266 174.992 490.257 176.675M490.257 176.675C492.303 177.827 493.07 179.863 492.679 182.179C492.231 184.835 487.501 186.735 487.501 186.735C487.501 186.735 483.637 183.958 484.507 181.921C485.115 180.496 486.606 178.938 487.877 179.825C487.877 179.825 488.796 180.605 488.775 181.269C488.744 182.265 487.11 181.756 486.609 182.617C485.662 184.243 489.154 186.709 489.154 186.709C499.786 188.648 510.763 194.104 513.258 198.087C515.753 202.071 516.863 203.843 516.863 210.287C516.863 216.73 513.258 221.058 513.258 221.058C513.258 221.058 510.498 215.67 510.453 211.948C510.383 206.136 516.863 198.516 516.863 198.516L526.722 182.701C526.722 182.701 528.813 188.278 533.45 183.857C538.741 178.814 534.884 173.283 533.044 176.765C531.204 180.247 537.713 179.853 540.201 174.317C542.7 168.753 540.796 162.93 538.741 168.214C536.687 173.498 545.482 170.26 544.615 161.556C543.822 153.604 537.331 153.067 537.651 157.875C537.972 162.683 545.543 158.721 543.466 150.586C541.146 141.502 529.571 142.203 534.037 147.772C538.502 153.34 541.481 142.837 533.064 138.695C526.722 135.574 518.789 139.897 524.795 141.502C530.802 143.108 526.722 135.574 520.004 133.8C513.286 132.026 510.206 135.222 514.891 136.313C519.576 137.405 518.987 130.482 509.281 132.125C507.555 132.417 503.504 135.718 506.419 135.574C509.334 135.43 506.419 129.518 498.493 132.493C492.679 134.675 494.625 142.911 497.246 139.611C499.867 136.312 493.778 135.574 489.191 140.616C485.761 144.387 485.863 151.366 489.265 148.248C492.667 145.131 483.856 143.757 481.737 151.516C480.001 157.875 486.413 161.373 486.002 156.955C485.59 152.537 472.261 159.706 480.989 168.753C483.357 171.208 492.59 167.546 489.258 165.946C485.926 164.347 479.165 174.157 487.515 175.281C495.865 176.405 501.806 187.863 502.77 181.921C503.733 175.98 486.609 185.122 483.245 193.269C482.054 196.155 482.304 198.948 483.296 200.368C483.726 200.983 484.163 201.487 484.625 201.977M490.257 176.675C490.257 176.675 499.644 170.836 510.453 174.795C521.262 178.754 527.77 184.386 527.77 184.386C527.77 184.386 523.907 195.329 523.104 202.645C521.511 217.163 532.645 236.23 532.194 250.827C522.846 273.388 485.378 267.835 479.709 270.103C474.039 272.371 473.437 255.93 473.569 253.378C473.701 250.827 484.241 229.015 478.336 223.898C478.336 223.898 468.886 217.265 467.604 210.768C466.725 206.307 465.356 196.798 469.166 199.231C472.976 201.665 481.098 205.522 481.737 204.05C482.377 202.578 480.45 200.368 480.45 200.368M485.218 220.208C485.218 220.208 488.257 205.473 486.609 204.05C485.876 203.236 485.229 202.618 484.625 201.977M485.218 220.208C485.218 220.208 495.325 232.118 497.229 232.113C499.133 232.108 506.262 222.387 508.851 222.759C511.441 223.132 511.87 231.545 510.453 236.932C508.92 242.756 502.538 243.824 501.013 249.126M485.218 220.208C485.218 220.208 485.376 254.517 486.609 256.213M486.609 256.213C487.841 257.909 487.335 258.481 486.609 256.213ZM486.609 256.213C485.882 253.945 516.863 246.859 516.863 246.859M480.45 200.368C480.45 200.368 480.777 200.084 481.737 200.368C482.698 200.652 484.625 201.977 484.625 201.977M480.45 200.368C480.45 200.368 477.399 187.163 476.275 186.821C475.151 186.478 464.553 190.323 463.751 191.608C462.948 192.893 463.751 194.498 463.751 194.498C463.751 194.498 471.619 190.645 472.261 192.25C472.903 193.856 472.582 194.498 473.545 196.156L472.903 196.798C472.903 196.798 472.743 196.053 471.297 194.498C469.852 192.944 462.787 196.156 461.824 197.922C460.86 199.688 462.787 201.292 461.824 201.613C460.86 201.934 460.218 201.934 458.773 202.577C457.328 203.219 458.452 201.518 457.488 200.368C456.525 199.217 453.635 201.014 452.832 201.977C452.029 202.941 456.364 213.94 457.809 214.313C459.255 214.685 461.824 213.691 461.824 212.534C461.824 211.376 457.007 203.701 458.773 203.701C460.539 203.701 461.824 202.577 461.824 202.577C461.945 204.892 462.723 206.674 463.751 209.001C463.751 209.001 462.157 209.811 461.342 209.804L461.824 210.768C461.824 210.768 463.429 209.804 464.232 209.804C465.035 209.804 464.875 213.176 465.838 213.337C466.801 213.497 468.247 212.534 468.247 212.534" stroke="black" stroke-width="0.642289"/>
<path d="M384.65 235.621C369.407 234.361 339.884 287.35 331.38 280.182C301.96 280.182 314.694 256.836 278.111 235.621C287.102 215.734 311.572 211.238 323.679 185.828C335.785 160.419 399.893 236.88 384.65 235.621Z" fill="#FFBD97"/>
<path d="M323.505 263.897C323.505 263.897 318.303 245.95 321.164 245.43C324.025 244.91 323.114 260.776 325.455 263.897C327.796 267.018 365.304 267.538 366.995 263.897C368.686 260.255 368.372 248.551 364.73 245.43C361.089 242.309 326.236 245.43 326.236 245.43M322.464 263.897C322.499 263.923 322.533 263.949 322.569 263.976M313.751 227.223C313.751 227.223 316.742 229.044 318.953 229.044C321.164 229.044 318.786 214.151 323.505 206.935C328.223 199.719 332.532 222.452 330.267 229.044C328.002 235.635 364.904 234.007 366.995 230.713C369.086 227.418 366.662 221.549 365.189 216.689M313.751 227.223C313.751 227.223 316.742 203.684 320.123 199.392M313.751 227.223L312.58 233.725M320.123 199.392C323.505 195.101 355.497 198.222 358.618 201.083C360.383 202.701 363.272 210.362 365.189 216.689M320.123 199.392L313.751 187.038L320.123 183.136L329.645 193.696C335.647 193.573 342.185 194.127 348.112 194.724L349.5 182.226M320.123 199.392L309.08 194.105C309.08 194.105 309.024 194.323 308.922 194.724M320.123 199.392C334.14 199.392 346.119 192.024 349.5 182.226M355.735 187.038L349.5 182.226M355.735 187.038C355.735 187.038 353.061 202.383 354.196 202.383C355.331 202.383 369.92 229.507 363.04 242.439C363.04 242.439 364.652 258.086 363.82 265.067C362.991 272.017 330.555 269.898 322.569 263.976M355.735 187.038C355.735 187.038 357.042 187.733 358.206 189.554C359.369 191.374 365.189 216.689 365.189 216.689M349.5 182.226C349.5 182.226 338.645 177.262 337.084 175.442M312.58 233.725C312.58 233.725 304.647 232.685 302.827 229.044C302.203 227.796 302.741 223.302 303.717 217.933M312.58 233.725C312.58 233.725 312.751 234.705 310.63 236.716C308.302 238.923 304.325 241.294 302.827 239.317C293.853 227.483 293.104 205.245 290.212 202.383C287.321 199.522 282.819 199.756 280.718 195.751C278.256 191.056 281.889 182.226 281.889 182.226M312.58 233.725C309.399 254.887 312.005 261.429 322.569 263.976M281.889 182.226C281.889 182.226 283.319 189.899 285.79 189.899C288.261 189.899 289.257 186.153 291.643 187.038C294.876 188.236 287.653 193.439 290.212 195.751C294.484 199.611 299.841 218.866 298.015 221.371C296.189 223.875 303.717 217.933 303.717 217.933M281.889 182.226C281.889 182.226 280.743 175.333 279.342 170.63C277.771 165.355 271.409 165.038 269.848 162.827C268.288 160.616 287.889 148.933 309.08 148.502M337.084 175.442C337.084 175.442 359.555 170.826 361.024 155.414C362.442 140.527 356.69 133.257 344.182 125.059C332.182 117.193 312.579 120.622 307.693 134.621C305.038 142.228 309.08 148.502 309.08 148.502M337.084 175.442C337.084 175.442 329.793 176.692 326.167 174.414C323.518 172.75 321.915 171.292 321.164 168.159C320.412 165.025 320.747 161.81 318.877 159.186C316.164 155.379 312.131 152.163 312.131 152.163M312.131 152.163C312.131 152.163 314.033 156.549 313.751 158.065C312.746 163.471 315.366 169.427 317.186 172.028C317.186 172.028 321.231 176.83 323.236 175.442C324.918 174.277 324.778 174.414 324.778 174.414L327.406 178.845C327.406 178.845 311.399 187.93 310.24 189.899C309.08 191.867 308.922 194.724 308.922 194.724M312.131 152.163C312.131 152.163 310.122 150.054 309.08 148.502M303.717 217.933C305.353 208.937 308.221 197.484 308.922 194.724" stroke="black" stroke-width="0.79507"/>
<path d="M487.083 433.357C487.083 433.357 462.143 428.642 449.872 419.063C417.963 394.155 449.872 329.519 445.031 315.523C440.191 301.526 501.302 286.673 513.422 322.289C525.542 357.905 537.526 342.536 526.403 366.181C515.628 389.087 487.083 433.357 487.083 433.357Z" fill="#FFBD97"/>
<path d="M348.897 336.374C338.574 333.114 328.436 325.814 321.176 336.374C313.915 346.935 316.335 373.776 294.334 377.076C272.333 380.376 296.512 426.443 288.724 432.519C280.936 438.595 358.76 450.861 370.128 432.519C376.252 422.638 363.528 400.727 374.968 403.148C386.409 405.568 375.591 344.805 348.897 336.374Z" fill="#88D2EF"/>
<path d="M165.806 355.62C180.169 404.817 200.018 342.64 223.669 346.71C247.32 350.78 248.09 452.645 230.929 431.414C213.768 410.183 132.289 455.541 136.545 438.674C140.801 421.808 151.443 306.424 165.806 355.62Z" fill="#CBAFED"/>
<path d="M493.621 430.864H513.972L497.692 460.896H467L450.279 430.864H480.861C480.861 430.864 443.899 407.763 443.899 403.803C443.899 399.843 453.249 394.122 453.249 394.122H443.899L453.249 391.702L443.899 379.492L454.459 388.842L456.66 381.912V391.702C456.66 391.702 464.688 381.912 468.54 381.912C472.392 381.912 477.231 399.403 477.231 399.403C477.231 399.403 471.405 357.601 474.26 354.85C477.116 352.1 484.051 352.32 484.051 352.32C484.051 352.32 465.68 336.81 465.68 332.739C465.68 328.669 474.26 324.489 474.26 324.489L466.67 321.409H474.26L470.96 312.168L477.231 318.989L480.861 314.589V321.409C480.861 321.409 486.727 316.129 490.797 317.779C494.868 319.429 494.171 348.25 494.171 348.25H490.797C490.797 348.25 495.418 325.919 498.938 325.589C502.458 325.259 506.492 328.669 506.492 328.669L506.052 323.939L508.252 328.669L512.542 324.489L510.232 329.769L514.082 330.539L510.232 331.419C510.232 331.419 519.693 335.71 519.033 340.11C518.373 344.51 494.171 353.86 494.171 353.86C494.171 353.86 519.143 360.241 518.263 365.081C517.382 369.921 477.231 409.083 477.231 409.083L478.881 401.933L488.341 430.864" stroke="black" stroke-width="1.10005"/>
<path d="M210.138 432.325L202.988 460.926H175.706L166.686 432.325H188.797C170.081 422.297 159.531 417.992 140.505 415.164C140.505 415.164 173.905 401.535 175.706 415.164C176.419 420.558 171.966 428.584 171.966 428.584C166.276 397.744 160.682 383.21 146.775 361.811C146.775 361.811 164.481 370.031 171.966 379.412C182.36 392.439 187.917 420.554 187.917 420.554C187.917 420.554 187.308 379.561 202.988 361.811C214.962 348.256 230.379 352.351 230.379 352.351C206.087 383.732 207.628 390.815 200.127 427.264C200.127 427.264 195.666 422.212 195.397 418.244C195.147 414.544 196.755 412.563 198.367 409.223C204.183 397.174 213.419 393.392 226.089 389.092C234.258 386.32 247.98 386.122 247.98 386.122C224.138 398.958 211.952 407.347 200.127 432.325H210.138Z" stroke="black" stroke-width="1.10005"/>
<path d="M332.913 433.932H314.094L325.711 461H344.066L353.824 433.932H336.515V420.573M332.913 433.932C332.913 433.932 328.486 420.491 321.18 417.669C316.356 415.805 312.701 415.657 307.937 417.669C301.918 420.211 297.714 430.912 297.714 430.912M332.913 433.932C332.913 433.932 328.595 422.462 325.827 415.113M297.714 430.912C297.714 430.912 296.002 415.804 302.361 410.931C309.749 405.268 320.85 407.247 325.827 415.113M297.714 430.912C297.714 430.912 288.073 414.342 293.648 406.4C301.128 395.744 324.745 402.139 325.827 415.113M336.515 420.573C346.383 411.455 352.266 408.681 363.35 407.562C362.229 406.969 349.556 402.944 344.995 407.562M336.515 420.573C336.515 420.573 340.556 410.361 344.995 407.562M336.515 420.573C336.515 420.573 335.38 411.598 344.995 407.562M336.515 420.573V399.314M336.515 420.573C336.515 420.573 336.089 408.813 332.857 397.778M344.995 407.562C348.75 405.986 342.432 402.002 332.857 397.778M336.515 399.314C346.481 385.839 356.805 376.683 374.154 371.317C373.628 371.2 353.979 368.461 346.157 375.732C338.869 382.505 336.515 399.314 336.515 399.314ZM336.515 399.314L335.702 383.515M335.702 383.515C335.702 383.515 337.694 370.454 335.702 362.488C334.624 358.181 331.519 351.917 331.519 351.917C331.519 351.917 332.173 358.377 332.797 362.488C334.059 370.793 337.328 383.515 337.328 383.515C337.328 383.515 345.529 371.212 344.995 362.488C344.312 351.31 328.848 338.79 328.848 338.79C328.848 338.79 315.954 359.826 321.994 371.317C325.327 377.66 335.702 383.515 335.702 383.515ZM332.857 397.778C330.987 391.394 327.634 385.821 323.968 381.772C315.791 372.741 290.985 382.764 290.118 384.479C296.289 381.005 319.341 387.78 332.857 397.778Z" stroke="black" stroke-width="1.16065"/>
<path d="M588.023 493L591.73 484.89H592.576L596.284 493H595.38L591.974 485.388H592.321L588.915 493H588.023ZM589.483 490.834L589.738 490.138H594.453L594.708 490.834H589.483ZM599.189 493V484.404H600.012V493H599.189ZM604.038 493V484.404H604.861V493H604.038ZM616.079 493.058C615.499 493.058 614.978 492.927 614.515 492.664C614.059 492.401 613.7 492.038 613.437 491.575C613.175 491.104 613.043 490.563 613.043 489.953C613.043 489.335 613.175 488.795 613.437 488.331C613.7 487.868 614.059 487.509 614.515 487.254C614.978 486.991 615.499 486.86 616.079 486.86C616.612 486.86 617.087 486.979 617.504 487.219C617.928 487.458 618.264 487.81 618.512 488.273C618.766 488.729 618.894 489.289 618.894 489.953C618.894 490.61 618.77 491.17 618.523 491.633C618.276 492.096 617.94 492.452 617.515 492.699C617.098 492.938 616.619 493.058 616.079 493.058ZM616.137 492.328C616.569 492.328 616.955 492.232 617.295 492.038C617.643 491.838 617.913 491.56 618.106 491.204C618.307 490.841 618.407 490.424 618.407 489.953C618.407 489.474 618.307 489.057 618.106 488.702C617.913 488.347 617.643 488.072 617.295 487.879C616.955 487.678 616.569 487.578 616.137 487.578C615.712 487.578 615.329 487.678 614.99 487.879C614.65 488.072 614.379 488.347 614.179 488.702C613.978 489.057 613.877 489.474 613.877 489.953C613.877 490.424 613.978 490.841 614.179 491.204C614.379 491.56 614.65 491.838 614.99 492.038C615.329 492.232 615.712 492.328 616.137 492.328ZM618.43 493V491.17L618.512 489.941L618.396 488.713V484.404H619.218V493H618.43ZM625.83 493.058C625.197 493.058 624.641 492.927 624.162 492.664C623.683 492.394 623.309 492.027 623.038 491.563C622.768 491.092 622.633 490.555 622.633 489.953C622.633 489.351 622.76 488.818 623.015 488.354C623.278 487.891 623.633 487.528 624.081 487.265C624.537 486.995 625.046 486.86 625.61 486.86C626.182 486.86 626.688 486.991 627.128 487.254C627.576 487.509 627.927 487.872 628.182 488.343C628.437 488.806 628.565 489.343 628.565 489.953C628.565 489.992 628.561 490.034 628.553 490.08C628.553 490.119 628.553 490.162 628.553 490.208H623.258V489.594H628.113L627.788 489.837C627.788 489.397 627.692 489.007 627.499 488.667C627.313 488.32 627.058 488.049 626.734 487.856C626.41 487.663 626.035 487.566 625.61 487.566C625.193 487.566 624.819 487.663 624.487 487.856C624.154 488.049 623.896 488.32 623.71 488.667C623.525 489.015 623.432 489.412 623.432 489.86V489.988C623.432 490.451 623.533 490.861 623.733 491.216C623.942 491.563 624.228 491.838 624.591 492.038C624.962 492.232 625.382 492.328 625.854 492.328C626.224 492.328 626.568 492.262 626.885 492.131C627.209 492 627.487 491.799 627.719 491.529L628.182 492.062C627.912 492.386 627.572 492.633 627.163 492.803C626.761 492.973 626.317 493.058 625.83 493.058ZM633.61 493.058C633.108 493.058 632.633 492.988 632.185 492.849C631.737 492.703 631.386 492.521 631.131 492.305L631.502 491.656C631.749 491.841 632.065 492.004 632.452 492.143C632.838 492.274 633.243 492.34 633.668 492.34C634.247 492.34 634.664 492.251 634.919 492.073C635.174 491.888 635.302 491.645 635.302 491.343C635.302 491.119 635.228 490.946 635.082 490.822C634.942 490.691 634.757 490.594 634.525 490.532C634.294 490.463 634.035 490.405 633.749 490.359C633.463 490.312 633.178 490.258 632.892 490.196C632.614 490.135 632.359 490.046 632.127 489.93C631.896 489.806 631.706 489.64 631.56 489.432C631.421 489.223 631.351 488.945 631.351 488.598C631.351 488.265 631.444 487.968 631.629 487.705C631.814 487.443 632.085 487.238 632.44 487.091C632.803 486.937 633.243 486.86 633.761 486.86C634.155 486.86 634.549 486.914 634.942 487.022C635.336 487.122 635.661 487.258 635.916 487.427L635.557 488.088C635.286 487.902 634.997 487.771 634.688 487.694C634.379 487.609 634.07 487.566 633.761 487.566C633.212 487.566 632.807 487.663 632.544 487.856C632.289 488.041 632.162 488.281 632.162 488.574C632.162 488.806 632.232 488.988 632.371 489.119C632.517 489.25 632.707 489.354 632.938 489.432C633.178 489.501 633.436 489.559 633.714 489.605C634 489.652 634.282 489.71 634.56 489.779C634.846 489.841 635.105 489.93 635.336 490.046C635.576 490.154 635.765 490.312 635.904 490.521C636.051 490.722 636.124 490.988 636.124 491.32C636.124 491.675 636.024 491.984 635.823 492.247C635.63 492.502 635.344 492.703 634.966 492.849C634.595 492.988 634.143 493.058 633.61 493.058ZM639.371 493V486.918H640.194V493H639.371ZM639.788 485.574C639.619 485.574 639.476 485.516 639.36 485.4C639.244 485.284 639.186 485.145 639.186 484.983C639.186 484.821 639.244 484.686 639.36 484.577C639.476 484.462 639.619 484.404 639.788 484.404C639.958 484.404 640.101 484.458 640.217 484.566C640.333 484.674 640.391 484.809 640.391 484.971C640.391 485.141 640.333 485.284 640.217 485.4C640.109 485.516 639.966 485.574 639.788 485.574ZM646.816 495.305C646.26 495.305 645.727 495.224 645.217 495.062C644.707 494.9 644.294 494.668 643.977 494.367L644.394 493.741C644.68 493.996 645.031 494.197 645.449 494.344C645.873 494.498 646.321 494.576 646.792 494.576C647.565 494.576 648.132 494.394 648.495 494.031C648.858 493.676 649.04 493.12 649.04 492.363V490.845L649.156 489.802L649.075 488.76V486.918H649.863V492.259C649.863 493.309 649.604 494.077 649.086 494.564C648.577 495.058 647.82 495.305 646.816 495.305ZM646.665 492.768C646.086 492.768 645.564 492.645 645.101 492.398C644.638 492.143 644.271 491.791 644 491.343C643.738 490.895 643.606 490.382 643.606 489.802C643.606 489.223 643.738 488.713 644 488.273C644.271 487.825 644.638 487.478 645.101 487.23C645.564 486.983 646.086 486.86 646.665 486.86C647.206 486.86 647.692 486.972 648.125 487.196C648.557 487.42 648.901 487.752 649.156 488.192C649.411 488.632 649.538 489.169 649.538 489.802C649.538 490.436 649.411 490.973 649.156 491.413C648.901 491.853 648.557 492.189 648.125 492.421C647.692 492.652 647.206 492.768 646.665 492.768ZM646.746 492.038C647.194 492.038 647.592 491.946 647.939 491.76C648.287 491.567 648.561 491.305 648.762 490.973C648.963 490.633 649.063 490.243 649.063 489.802C649.063 489.362 648.963 488.976 648.762 488.644C648.561 488.312 648.287 488.053 647.939 487.868C647.592 487.675 647.194 487.578 646.746 487.578C646.306 487.578 645.908 487.675 645.553 487.868C645.205 488.053 644.931 488.312 644.73 488.644C644.537 488.976 644.441 489.362 644.441 489.802C644.441 490.243 644.537 490.633 644.73 490.973C644.931 491.305 645.205 491.567 645.553 491.76C645.908 491.946 646.306 492.038 646.746 492.038ZM656.994 486.86C657.488 486.86 657.921 486.956 658.292 487.149C658.67 487.335 658.964 487.621 659.172 488.007C659.388 488.393 659.497 488.879 659.497 489.466V493H658.674V489.548C658.674 488.907 658.512 488.424 658.187 488.099C657.871 487.767 657.423 487.601 656.844 487.601C656.411 487.601 656.033 487.69 655.708 487.868C655.392 488.038 655.144 488.289 654.967 488.621C654.797 488.945 654.712 489.339 654.712 489.802V493H653.889V486.918H654.677V488.586L654.55 488.273C654.743 487.833 655.052 487.489 655.476 487.242C655.901 486.987 656.407 486.86 656.994 486.86ZM666.04 493.058C665.406 493.058 664.85 492.927 664.372 492.664C663.893 492.394 663.518 492.027 663.248 491.563C662.977 491.092 662.842 490.555 662.842 489.953C662.842 489.351 662.97 488.818 663.225 488.354C663.487 487.891 663.842 487.528 664.29 487.265C664.746 486.995 665.256 486.86 665.82 486.86C666.391 486.86 666.897 486.991 667.337 487.254C667.785 487.509 668.137 487.872 668.392 488.343C668.647 488.806 668.774 489.343 668.774 489.953C668.774 489.992 668.77 490.034 668.762 490.08C668.762 490.119 668.762 490.162 668.762 490.208H663.468V489.594H668.322L667.998 489.837C667.998 489.397 667.901 489.007 667.708 488.667C667.523 488.32 667.268 488.049 666.943 487.856C666.619 487.663 666.244 487.566 665.82 487.566C665.403 487.566 665.028 487.663 664.696 487.856C664.364 488.049 664.105 488.32 663.92 488.667C663.734 489.015 663.642 489.412 663.642 489.86V489.988C663.642 490.451 663.742 490.861 663.943 491.216C664.151 491.563 664.437 491.838 664.8 492.038C665.171 492.232 665.592 492.328 666.063 492.328C666.434 492.328 666.777 492.262 667.094 492.131C667.418 492 667.697 491.799 667.928 491.529L668.392 492.062C668.121 492.386 667.781 492.633 667.372 492.803C666.971 492.973 666.526 493.058 666.04 493.058ZM674.607 493.058C674.028 493.058 673.507 492.927 673.043 492.664C672.588 492.401 672.229 492.038 671.966 491.575C671.703 491.104 671.572 490.563 671.572 489.953C671.572 489.335 671.703 488.795 671.966 488.331C672.229 487.868 672.588 487.509 673.043 487.254C673.507 486.991 674.028 486.86 674.607 486.86C675.14 486.86 675.615 486.979 676.032 487.219C676.457 487.458 676.793 487.81 677.04 488.273C677.295 488.729 677.423 489.289 677.423 489.953C677.423 490.61 677.299 491.17 677.052 491.633C676.805 492.096 676.469 492.452 676.044 492.699C675.627 492.938 675.148 493.058 674.607 493.058ZM674.665 492.328C675.098 492.328 675.484 492.232 675.824 492.038C676.171 491.838 676.442 491.56 676.635 491.204C676.836 490.841 676.936 490.424 676.936 489.953C676.936 489.474 676.836 489.057 676.635 488.702C676.442 488.347 676.171 488.072 675.824 487.879C675.484 487.678 675.098 487.578 674.665 487.578C674.241 487.578 673.858 487.678 673.518 487.879C673.179 488.072 672.908 488.347 672.707 488.702C672.507 489.057 672.406 489.474 672.406 489.953C672.406 490.424 672.507 490.841 672.707 491.204C672.908 491.56 673.179 491.838 673.518 492.038C673.858 492.232 674.241 492.328 674.665 492.328ZM676.959 493V491.17L677.04 489.941L676.924 488.713V484.404H677.747V493H676.959ZM689.685 493.058C689.152 493.058 688.673 492.938 688.249 492.699C687.824 492.452 687.488 492.096 687.241 491.633C686.994 491.17 686.87 490.61 686.87 489.953C686.87 489.289 686.994 488.729 687.241 488.273C687.496 487.81 687.835 487.458 688.26 487.219C688.685 486.979 689.16 486.86 689.685 486.86C690.264 486.86 690.782 486.991 691.238 487.254C691.701 487.509 692.064 487.868 692.327 488.331C692.589 488.795 692.721 489.335 692.721 489.953C692.721 490.563 692.589 491.104 692.327 491.575C692.064 492.038 691.701 492.401 691.238 492.664C690.782 492.927 690.264 493.058 689.685 493.058ZM686.546 493V484.404H687.368V488.713L687.252 489.941L687.333 491.17V493H686.546ZM689.627 492.328C690.06 492.328 690.446 492.232 690.786 492.038C691.126 491.838 691.396 491.56 691.597 491.204C691.798 490.841 691.898 490.424 691.898 489.953C691.898 489.474 691.798 489.057 691.597 488.702C691.396 488.347 691.126 488.072 690.786 487.879C690.446 487.678 690.06 487.578 689.627 487.578C689.195 487.578 688.805 487.678 688.457 487.879C688.117 488.072 687.847 488.347 687.646 488.702C687.453 489.057 687.357 489.474 687.357 489.953C687.357 490.424 687.453 490.841 687.646 491.204C687.847 491.56 688.117 491.838 688.457 492.038C688.805 492.232 689.195 492.328 689.627 492.328ZM696.012 495.305C695.726 495.305 695.452 495.259 695.189 495.166C694.934 495.074 694.714 494.935 694.529 494.749L694.911 494.135C695.066 494.282 695.232 494.394 695.409 494.471C695.595 494.556 695.799 494.599 696.023 494.599C696.294 494.599 696.525 494.522 696.719 494.367C696.919 494.22 697.109 493.958 697.286 493.579L697.68 492.687L697.773 492.56L700.275 486.918H701.086L698.039 493.73C697.869 494.124 697.68 494.437 697.472 494.668C697.271 494.9 697.051 495.062 696.811 495.155C696.572 495.255 696.305 495.305 696.012 495.305ZM697.634 493.174L694.83 486.918H695.687L698.167 492.502L697.634 493.174Z" fill="#283C57"/>
<path d="M599 166H645V428H599" stroke="#E5B89F" stroke-width="2"/>
</svg>
