<svg width="762" height="553" viewBox="0 0 762 553" fill="none" xmlns="http://www.w3.org/2000/svg">
<rect width="762" height="553" fill="white"/>
<circle cx="40.4196" cy="68.0578" r="8.41959" fill="#C54846"/>
<circle cx="40.4196" cy="95.696" r="8.41959" fill="#283C57"/>
<circle cx="40.4196" cy="40.4196" r="8.41959" fill="#E5B89F"/>
<circle cx="40.4196" cy="123.334" r="8.41959" fill="#D71A38"/>
<path d="M588.022 513L591.58 505.217H592.392L595.95 513H595.083L591.814 505.695H592.147L588.878 513H588.022ZM589.423 510.921L589.668 510.254H594.193L594.438 510.921H589.423ZM598.905 513V505.217H599.728V512.288H604.087V513H598.905ZM607.854 508.697H611.968V509.398H607.854V508.697ZM607.943 512.288H612.624V513H607.121V505.217H612.458V505.928H607.943V512.288ZM618.372 513.067C617.794 513.067 617.238 512.974 616.704 512.789C616.178 512.596 615.77 512.351 615.481 512.055L615.804 511.421C616.078 511.688 616.445 511.914 616.905 512.099C617.372 512.277 617.861 512.366 618.372 512.366C618.861 512.366 619.258 512.307 619.562 512.188C619.873 512.062 620.099 511.896 620.24 511.688C620.388 511.48 620.463 511.251 620.463 510.999C620.463 510.695 620.374 510.45 620.196 510.265C620.025 510.079 619.799 509.935 619.517 509.831C619.236 509.72 618.924 509.624 618.583 509.542C618.242 509.461 617.902 509.375 617.561 509.286C617.22 509.19 616.905 509.064 616.615 508.908C616.334 508.753 616.104 508.549 615.926 508.297C615.756 508.037 615.67 507.7 615.67 507.285C615.67 506.899 615.77 506.547 615.971 506.229C616.178 505.903 616.493 505.643 616.916 505.45C617.338 505.25 617.879 505.15 618.539 505.15C618.976 505.15 619.41 505.213 619.84 505.339C620.27 505.458 620.64 505.625 620.952 505.839L620.674 506.496C620.34 506.273 619.984 506.11 619.606 506.006C619.236 505.903 618.876 505.851 618.528 505.851C618.061 505.851 617.675 505.914 617.372 506.04C617.068 506.166 616.842 506.336 616.693 506.551C616.552 506.759 616.482 506.996 616.482 507.263C616.482 507.567 616.567 507.811 616.738 507.997C616.916 508.182 617.145 508.326 617.427 508.43C617.716 508.534 618.031 508.627 618.372 508.708C618.713 508.79 619.05 508.879 619.384 508.975C619.725 509.071 620.036 509.197 620.318 509.353C620.607 509.501 620.837 509.701 621.007 509.953C621.185 510.205 621.274 510.535 621.274 510.943C621.274 511.321 621.17 511.673 620.963 511.999C620.755 512.318 620.437 512.577 620.007 512.778C619.584 512.97 619.039 513.067 618.372 513.067ZM626.881 513.067C626.303 513.067 625.747 512.974 625.213 512.789C624.687 512.596 624.279 512.351 623.99 512.055L624.312 511.421C624.587 511.688 624.953 511.914 625.413 512.099C625.88 512.277 626.369 512.366 626.881 512.366C627.37 512.366 627.766 512.307 628.07 512.188C628.382 512.062 628.608 511.896 628.749 511.688C628.897 511.48 628.971 511.251 628.971 510.999C628.971 510.695 628.882 510.45 628.704 510.265C628.534 510.079 628.308 509.935 628.026 509.831C627.744 509.72 627.433 509.624 627.092 509.542C626.751 509.461 626.41 509.375 626.069 509.286C625.728 509.19 625.413 509.064 625.124 508.908C624.842 508.753 624.612 508.549 624.435 508.297C624.264 508.037 624.179 507.7 624.179 507.285C624.179 506.899 624.279 506.547 624.479 506.229C624.687 505.903 625.002 505.643 625.424 505.45C625.847 505.25 626.388 505.15 627.047 505.15C627.485 505.15 627.918 505.213 628.348 505.339C628.778 505.458 629.149 505.625 629.46 505.839L629.182 506.496C628.849 506.273 628.493 506.11 628.115 506.006C627.744 505.903 627.385 505.851 627.036 505.851C626.569 505.851 626.184 505.914 625.88 506.04C625.576 506.166 625.35 506.336 625.202 506.551C625.061 506.759 624.99 506.996 624.99 507.263C624.99 507.567 625.076 507.811 625.246 507.997C625.424 508.182 625.654 508.326 625.936 508.43C626.225 508.534 626.54 508.627 626.881 508.708C627.222 508.79 627.559 508.879 627.893 508.975C628.233 509.071 628.545 509.197 628.826 509.353C629.116 509.501 629.345 509.701 629.516 509.953C629.694 510.205 629.783 510.535 629.783 510.943C629.783 511.321 629.679 511.673 629.471 511.999C629.264 512.318 628.945 512.577 628.515 512.778C628.093 512.97 627.548 513.067 626.881 513.067ZM631.998 513L635.556 505.217H636.368L639.926 513H639.058L635.789 505.695H636.123L632.854 513H631.998ZM633.399 510.921L633.644 510.254H638.169L638.413 510.921H633.399ZM642.881 513V505.217H643.559L648.93 511.977H648.574V505.217H649.385V513H648.707L643.348 506.24H643.704V513H642.881ZM653.594 513V505.217H656.763C657.593 505.217 658.319 505.384 658.942 505.717C659.572 506.043 660.061 506.499 660.41 507.085C660.758 507.67 660.932 508.345 660.932 509.108C660.932 509.872 660.758 510.546 660.41 511.132C660.061 511.718 659.572 512.177 658.942 512.511C658.319 512.837 657.593 513 656.763 513H653.594ZM654.416 512.288H656.718C657.407 512.288 658.004 512.155 658.508 511.888C659.02 511.614 659.416 511.24 659.698 510.765C659.98 510.283 660.12 509.731 660.12 509.108C660.12 508.478 659.98 507.926 659.698 507.452C659.416 506.977 659.02 506.607 658.508 506.34C658.004 506.066 657.407 505.928 656.718 505.928H654.416V512.288ZM664.448 513V505.217H667.361C668.02 505.217 668.587 505.324 669.062 505.539C669.536 505.747 669.899 506.051 670.151 506.451C670.411 506.844 670.541 507.322 670.541 507.885C670.541 508.434 670.411 508.908 670.151 509.309C669.899 509.701 669.536 510.005 669.062 510.22C668.587 510.428 668.02 510.532 667.361 510.532H664.903L665.27 510.154V513H664.448ZM669.762 513L667.761 510.176H668.65L670.663 513H669.762ZM665.27 510.22L664.903 509.831H667.338C668.117 509.831 668.706 509.661 669.106 509.32C669.514 508.979 669.718 508.501 669.718 507.885C669.718 507.263 669.514 506.781 669.106 506.44C668.706 506.099 668.117 505.928 667.338 505.928H664.903L665.27 505.539V510.22ZM672.905 513L676.463 505.217H677.275L680.833 513H679.966L676.697 505.695H677.03L673.761 513H672.905ZM674.306 510.921L674.551 510.254H679.076L679.321 510.921H674.306ZM688.366 513V505.217H691.279C691.939 505.217 692.506 505.324 692.98 505.539C693.455 505.747 693.818 506.051 694.07 506.451C694.329 506.844 694.459 507.322 694.459 507.885C694.459 508.434 694.329 508.908 694.07 509.309C693.818 509.701 693.455 510.005 692.98 510.22C692.506 510.428 691.939 510.532 691.279 510.532H688.822L689.189 510.154V513H688.366ZM693.681 513L691.679 510.176H692.569L694.581 513H693.681ZM689.189 510.22L688.822 509.831H691.257C692.035 509.831 692.624 509.661 693.025 509.32C693.432 508.979 693.636 508.501 693.636 507.885C693.636 507.263 693.432 506.781 693.025 506.44C692.624 506.099 692.035 505.928 691.257 505.928H688.822L689.189 505.539V510.22ZM698.803 508.697H702.917V509.398H698.803V508.697ZM698.892 512.288H703.573V513H698.069V505.217H703.406V505.928H698.892V512.288ZM707.175 513V505.217H707.997V513H707.175ZM714.343 513.067C713.765 513.067 713.209 512.974 712.676 512.789C712.149 512.596 711.742 512.351 711.453 512.055L711.775 511.421C712.049 511.688 712.416 511.914 712.876 512.099C713.343 512.277 713.832 512.366 714.343 512.366C714.833 512.366 715.229 512.307 715.533 512.188C715.845 512.062 716.071 511.896 716.211 511.688C716.36 511.48 716.434 511.251 716.434 510.999C716.434 510.695 716.345 510.45 716.167 510.265C715.996 510.079 715.77 509.935 715.489 509.831C715.207 509.72 714.896 509.624 714.555 509.542C714.214 509.461 713.873 509.375 713.532 509.286C713.191 509.19 712.876 509.064 712.587 508.908C712.305 508.753 712.075 508.549 711.897 508.297C711.727 508.037 711.642 507.7 711.642 507.285C711.642 506.899 711.742 506.547 711.942 506.229C712.149 505.903 712.464 505.643 712.887 505.45C713.309 505.25 713.851 505.15 714.51 505.15C714.948 505.15 715.381 505.213 715.811 505.339C716.241 505.458 716.612 505.625 716.923 505.839L716.645 506.496C716.312 506.273 715.956 506.11 715.578 506.006C715.207 505.903 714.848 505.851 714.499 505.851C714.032 505.851 713.647 505.914 713.343 506.04C713.039 506.166 712.813 506.336 712.665 506.551C712.524 506.759 712.453 506.996 712.453 507.263C712.453 507.567 712.539 507.811 712.709 507.997C712.887 508.182 713.117 508.326 713.398 508.43C713.687 508.534 714.003 508.627 714.343 508.708C714.684 508.79 715.022 508.879 715.355 508.975C715.696 509.071 716.008 509.197 716.289 509.353C716.578 509.501 716.808 509.701 716.979 509.953C717.157 510.205 717.245 510.535 717.245 510.943C717.245 511.321 717.142 511.673 716.934 511.999C716.727 512.318 716.408 512.577 715.978 512.778C715.555 512.97 715.011 513.067 714.343 513.067Z" fill="#283C57"/>
<path d="M121.29 53.3849H134.22V55.6214H121.29V53.3849ZM121.57 66H118.984V41.5386H135.757V43.7751H121.57V66ZM146.339 66V41.5386H148.925V66H146.339ZM172.854 66.2097C170.99 66.2097 169.266 65.9068 167.682 65.3011C166.121 64.6721 164.758 63.7985 163.593 62.6802C162.452 61.562 161.555 60.2458 160.902 58.7315C160.273 57.2172 159.959 55.5632 159.959 53.7693C159.959 51.9755 160.273 50.3214 160.902 48.8072C161.555 47.2929 162.463 45.9766 163.628 44.8584C164.793 43.7402 166.156 42.8782 167.717 42.2725C169.301 41.6435 171.025 41.329 172.888 41.329C174.752 41.329 176.453 41.6202 177.99 42.2026C179.551 42.785 180.879 43.6703 181.974 44.8584L180.367 46.5008C179.342 45.4758 178.212 44.7419 176.977 44.2993C175.742 43.8567 174.414 43.6353 172.993 43.6353C171.479 43.6353 170.081 43.8916 168.8 44.4041C167.542 44.8933 166.435 45.6039 165.48 46.5358C164.548 47.4443 163.814 48.516 163.279 49.7507C162.766 50.9621 162.51 52.3016 162.51 53.7693C162.51 55.2137 162.766 56.5533 163.279 57.788C163.814 59.0227 164.548 60.106 165.48 61.0378C166.435 61.9464 167.542 62.6569 168.8 63.1695C170.081 63.6587 171.467 63.9033 172.958 63.9033C174.356 63.9033 175.672 63.6936 176.907 63.2743C178.165 62.855 179.318 62.1444 180.367 61.1427L181.834 63.0996C180.67 64.1246 179.307 64.9051 177.746 65.4409C176.185 65.9534 174.554 66.2097 172.854 66.2097ZM179.353 62.7851V53.7693H181.834V63.0996L179.353 62.7851ZM194.395 66V41.5386H196.526L207.709 60.6185H206.591L217.668 41.5386H219.8V66H217.319V45.4175H217.913L207.709 62.8899H206.486L196.212 45.4175H196.876V66H194.395ZM229.098 66L240.28 41.5386H242.831L254.013 66H251.288L241.014 43.0413H242.062L231.788 66H229.098ZM233.501 59.4653L234.27 57.3686H248.492L249.261 59.4653H233.501ZM273.775 66L284.958 41.5386H287.508L298.691 66H295.965L285.691 43.0413H286.74L276.466 66H273.775ZM278.178 59.4653L278.947 57.3686H293.17L293.938 59.4653H278.178ZM307.979 66V41.5386H317.135C319.208 41.5386 320.99 41.8764 322.481 42.552C323.972 43.2044 325.114 44.1595 325.906 45.4175C326.721 46.6522 327.129 48.1549 327.129 49.9254C327.129 51.6493 326.721 53.1403 325.906 54.3983C325.114 55.633 323.972 56.5882 322.481 57.2638C320.99 57.9161 319.208 58.2423 317.135 58.2423H309.412L310.565 57.0541V66H307.979ZM324.683 66L318.393 57.124H321.188L327.513 66H324.683ZM310.565 57.2638L309.412 56.0407H317.065C319.511 56.0407 321.363 55.5049 322.621 54.4333C323.902 53.3616 324.543 51.859 324.543 49.9254C324.543 47.9685 323.902 46.4542 322.621 45.3826C321.363 44.3109 319.511 43.7751 317.065 43.7751H309.412L310.565 42.552V57.2638ZM342.885 66V43.7751H334.289V41.5386H354.067V43.7751H345.471V66H342.885ZM369.809 66.2097C367.992 66.2097 366.245 65.9185 364.567 65.336C362.913 64.7303 361.632 63.9616 360.724 63.0297L361.737 61.0378C362.599 61.8765 363.752 62.5871 365.196 63.1695C366.664 63.7286 368.202 64.0081 369.809 64.0081C371.347 64.0081 372.593 63.8218 373.548 63.449C374.527 63.053 375.237 62.5288 375.68 61.8765C376.146 61.2242 376.379 60.502 376.379 59.7099C376.379 58.7548 376.099 57.986 375.54 57.4036C375.004 56.8212 374.294 56.3669 373.408 56.0407C372.523 55.6913 371.545 55.3884 370.473 55.1322C369.401 54.8759 368.33 54.608 367.258 54.3284C366.187 54.0256 365.196 53.6295 364.288 53.1403C363.403 52.6511 362.68 52.0104 362.121 51.2184C361.586 50.403 361.318 49.343 361.318 48.0384C361.318 46.827 361.632 45.7204 362.261 44.7186C362.913 43.6936 363.904 42.8782 365.231 42.2725C366.559 41.6435 368.26 41.329 370.333 41.329C371.708 41.329 373.071 41.527 374.422 41.923C375.773 42.2958 376.938 42.82 377.916 43.4956L377.043 45.5573C375.994 44.8584 374.876 44.3459 373.688 44.0197C372.523 43.6936 371.393 43.5305 370.298 43.5305C368.831 43.5305 367.619 43.7285 366.664 44.1246C365.709 44.5206 364.998 45.0564 364.533 45.732C364.09 46.3843 363.869 47.1298 363.869 47.9685C363.869 48.9236 364.136 49.6924 364.672 50.2748C365.231 50.8573 365.954 51.3115 366.839 51.6377C367.747 51.9638 368.738 52.2551 369.809 52.5113C370.881 52.7676 371.941 53.0471 372.989 53.35C374.061 53.6528 375.039 54.0489 375.925 54.5381C376.833 55.004 377.555 55.633 378.091 56.4251C378.65 57.2172 378.93 58.2539 378.93 59.5352C378.93 60.7233 378.604 61.8299 377.951 62.855C377.299 63.8567 376.297 64.6721 374.946 65.3011C373.618 65.9068 371.906 66.2097 369.809 66.2097Z" fill="#C54846"/>
<path d="M67.8083 316.169C58.0637 317.526 88.4463 309.6 120.67 315.534C153.353 321.552 161.265 263.465 143.575 275.307C125.884 287.149 92.948 268.926 88.4222 255.975C83.8964 243.023 77.5529 314.812 67.8083 316.169Z" fill="#88D2EF"/>
<path d="M104.346 267.371C106.759 268.691 105.8 273.527 104.089 274.553C102.379 275.579 98.446 274.04 93.5723 274.553C88.6986 275.066 89.955 304.644 89.5699 307.005C89.1847 309.366 83.7457 324.163 82.389 323.864C82.389 323.864 73.3897 329.696 76.8064 332.751C80.5902 336.134 82.2885 328.347 85.9292 327.268C89.5699 326.19 93.7237 310.256 95.1882 308.206C96.6527 306.155 96.3525 291.059 96.3525 291.059C96.3525 291.059 100.086 306.706 97.4498 326.19C94.8137 345.674 88.5126 347.2 78.3153 347.957C68.5682 349.753 90.6381 334.121 98.8356 334.876C110.359 334.34 112.943 346.162 128.59 346.162C144.237 346.162 149.964 337.954 148.854 333.337C147.497 327.694 140.695 325.562 133.977 324.872C126.079 324.061 124.481 329.963 117.047 332.751C117.047 332.751 113.933 335.539 106.499 332.751C99.0652 329.963 97.4678 324.061 89.5699 324.872C82.8513 325.562 76.0493 327.694 74.6926 333.337C73.5826 337.954 79.3097 346.162 94.9564 346.162C110.603 346.162 113.188 334.34 124.711 334.876C132.908 334.121 154.978 349.753 145.231 347.957C128.058 347.279 121.179 330.806 121.175 326.19M104.346 267.371C109.158 266.271 115.787 262.451 115.375 261.471C113.253 266.563 107.722 275.446 114.862 274.553C122.003 273.661 123.352 272.142 125.85 273.661C128.349 275.179 128.697 283.283 129.451 282.851C129.451 282.851 133.834 280.648 133.299 277.765C132.898 275.605 130.342 275.669 129.451 273.661C128.355 271.188 131.722 269.082 130.99 266.478C130.261 263.882 127.792 263.247 127.399 260.579C127.024 258.031 129.032 256.74 128.938 254.166C128.821 250.932 126.394 249.663 125.86 246.471C125.447 244.001 126.33 242.518 125.86 240.059C124.453 232.683 119.487 228.316 112.041 227.356C105.594 226.526 100.381 228.789 96.907 234.282C94.1572 238.629 91.991 243.483 95.368 247.364C99.9287 252.604 101.661 233.832 108.45 235.308C114.071 236.53 116.914 247.364 116.914 247.364C116.914 247.364 114.165 235.391 108.963 234.538C103.561 233.654 98.446 237.873 96.907 244.799C95.368 251.724 95.368 258.906 96.907 261.471C98.446 264.036 101.498 266.457 104.346 267.371Z" stroke="black" stroke-width="0.585802"/>
<path d="M121.175 326.483C117.984 308.059 120.464 286.699 120.464 286.699C120.464 286.699 124.696 298.241 125.337 302.088C125.979 305.936 126.312 305.937 126.312 304.911C126.312 303.884 117.001 292.086 114.386 288.751C111.771 285.416 106.1 283.185 106.1 288.494C106.1 291.059 105.619 284.269 112.127 294.138C118.636 304.007 122.73 310.754 129.955 313.375C137.113 316.626 128.672 275.844 125.337 274.297C122.003 272.75 118.151 275.098 114.694 274.297C114.694 274.297 112.769 274.13 111.999 273.361C111.23 272.591 113.204 271.822 113.025 272.848C112.846 273.873 113.025 274.9 113.025 274.9C113.879 282.401 112.815 286.513 111.486 293.881C111.486 293.881 105.074 303.628 105.33 301.32C105.587 299.011 105.057 296.455 102.765 295.677C100.993 295.074 98.9807 295.283 98.1479 296.959C97.3442 298.576 98.2237 300.261 99.6869 301.32C101.069 302.319 102.914 302.851 104.047 301.576C105.333 300.131 104.02 297.746 102.252 296.959C101.059 296.428 99.5974 296.1 98.9174 297.216C98.2395 298.327 99.2137 299.443 100.2 300.294C101.719 301.603 104.092 301.615 105.33 300.037C106.699 298.293 105.447 295.772 103.534 294.651C102.065 293.789 99.1739 294.651 99.1739 294.651L106.613 289.777C106.613 289.777 104.31 291.549 103.278 291.059C102.424 290.654 102.343 288.884 101.482 288.494C100.215 287.92 100.721 290.345 99.3646 290.033C97.8366 289.682 96.6089 286.955 96.6089 286.955L97.6349 289.777C97.6349 289.777 90.9658 297.216 91.9918 295.933C93.0178 294.651 92.5483 291.199 90.4528 290.29C88.848 289.594 86.6326 289.652 86.0922 291.316C85.6354 292.723 86.6279 293.876 87.8878 294.651C88.758 295.186 89.5542 295.649 90.4528 295.164C91.8208 294.424 90.6489 292.278 89.4268 291.316C88.1672 290.325 86.347 290.083 85.3227 291.316C84.1458 292.732 85.5987 294.636 87.1183 295.677C88.369 296.533 89.6918 297.011 90.9658 296.19C92.7517 295.038 91.5707 292.424 90.1963 290.803C89.1822 289.607 86.6052 289.007 86.6052 289.007L94.8134 284.647C97.4959 285.634 98.1526 286.353 99.8266 288.948C98.1075 286.366 98.1845 285.274 95.2095 284.075C95.2095 284.075 97.8258 282.55 99.1739 283.108C100.027 283.461 99.8254 284.905 100.713 285.16C101.695 285.442 101.482 284.39 102.765 284.647C104.047 284.903 104.047 286.442 104.561 286.699C105.074 286.955 105.33 286.699 105.33 286.699C105.33 286.699 107.895 283.3 110.973 285.416C114.051 287.532 114.051 287.211 114.051 287.211L115.59 285.16C115.59 285.16 114.648 283.42 113.242 282.594C111.836 281.768 109.434 283.108 109.434 283.108C109.434 283.108 108.508 280.961 107.126 280.542C105.79 280.138 104.047 281.312 104.047 281.312C104.047 281.312 102.94 280.061 101.995 280.03C101.1 280.001 99.9434 281.056 99.9434 281.056L95.0699 283.621C98.0207 279.349 99.9181 277.071 104.047 273.361" stroke="black" stroke-width="0.585802"/>
<path d="M438.454 307.871C438.454 342.463 418.215 322.168 393.248 322.168C368.282 322.168 348.042 342.463 348.042 307.871C348.042 273.279 368.282 255.449 393.248 255.449C438.454 255.449 463.371 325.981 438.454 307.871Z" fill="#CBAFED"/>
<path d="M383.67 275.349C383.421 277.956 381.485 281.164 379.048 280.206C377.195 279.478 376.719 277.511 376.994 275.539C377.396 272.657 380.785 270.176 383.321 271.603M383.321 271.603C385.056 272.58 385.707 274.307 385.375 276.27C384.995 278.522 380.985 280.134 380.985 280.134C380.985 280.134 377.708 277.779 378.445 276.052C378.961 274.843 380.225 273.522 381.303 274.274C381.303 274.274 382.082 274.936 382.064 275.499C382.038 276.343 380.653 275.912 380.228 276.642C379.424 278.021 382.386 280.111 382.386 280.111C391.402 281.756 400.71 286.382 402.826 289.76C404.941 293.138 405.883 294.641 405.883 300.105C405.883 305.569 402.826 309.239 402.826 309.239C402.826 309.239 400.485 304.67 400.447 301.514C400.388 296.585 405.883 290.123 405.883 290.123L414.243 276.713C414.243 276.713 416.016 281.442 419.948 277.694C424.435 273.417 421.164 268.727 419.604 271.68C418.044 274.632 423.563 274.298 425.672 269.603C427.792 264.886 426.177 259.947 424.435 264.428C422.693 268.909 430.151 266.164 429.415 258.782C428.743 252.039 423.239 251.584 423.511 255.661C423.782 259.738 430.203 256.378 428.441 249.48C426.474 241.777 416.659 242.372 420.446 247.094C424.232 251.816 426.758 242.909 419.621 239.397C414.243 236.751 407.516 240.416 412.609 241.777C417.702 243.139 414.243 236.751 408.546 235.246C402.85 233.742 400.237 236.452 404.21 237.377C408.183 238.303 407.684 232.432 399.453 233.826C397.989 234.073 394.554 236.873 397.026 236.751C399.498 236.628 397.026 231.615 390.305 234.138C385.375 235.988 387.025 242.972 389.248 240.174C391.47 237.376 386.307 236.751 382.417 241.026C379.509 244.223 379.595 250.141 382.48 247.498C385.365 244.854 377.894 243.689 376.097 250.269C374.624 255.661 380.062 258.627 379.713 254.881C379.364 251.135 368.061 257.213 375.462 264.886C377.47 266.967 385.299 263.861 382.474 262.505C379.649 261.149 373.916 269.468 380.996 270.421C388.077 271.374 393.115 281.09 393.932 276.052C394.749 271.014 380.228 278.766 377.376 285.675C376.365 288.122 376.577 290.49 377.418 291.694C377.783 292.216 378.154 292.643 378.545 293.059M383.321 271.603C383.321 271.603 391.281 266.652 400.447 270.009C409.612 273.366 415.131 278.142 415.131 278.142C415.131 278.142 411.856 287.422 411.175 293.625C409.824 305.936 419.266 322.104 418.883 334.483C410.956 353.614 379.184 348.905 374.376 350.828C369.569 352.751 369.058 338.809 369.17 336.646C369.282 334.483 378.22 315.986 373.212 311.647C373.212 311.647 365.199 306.022 364.112 300.513C363.366 296.731 362.206 288.667 365.436 290.73C368.667 292.794 375.554 296.065 376.097 294.817C376.639 293.569 375.005 291.694 375.005 291.694M379.048 308.518C379.048 308.518 381.625 296.023 380.228 294.817C379.606 294.126 379.057 293.602 378.545 293.059M379.048 308.518C379.048 308.518 387.619 318.618 389.233 318.614C390.848 318.609 396.893 310.365 399.089 310.681C401.284 310.997 401.649 318.132 400.447 322.7C399.147 327.639 393.735 328.544 392.442 333.04M379.048 308.518C379.048 308.518 379.182 337.612 380.228 339.05M380.228 339.05C381.273 340.488 380.843 340.973 380.228 339.05ZM380.228 339.05C379.612 337.127 405.883 331.117 405.883 331.117M375.005 291.694C375.005 291.694 375.282 291.453 376.097 291.694C376.911 291.935 378.545 293.059 378.545 293.059M375.005 291.694C375.005 291.694 372.418 280.497 371.465 280.206C370.512 279.916 361.525 283.177 360.844 284.266C360.164 285.355 360.844 286.717 360.844 286.717C360.844 286.717 367.516 283.449 368.061 284.811C368.606 286.172 368.333 286.717 369.15 288.122L368.606 288.667C368.606 288.667 368.469 288.035 367.244 286.717C366.018 285.399 360.027 288.122 359.21 289.62C358.393 291.118 360.027 292.478 359.21 292.75C358.393 293.022 357.849 293.022 356.623 293.567C355.398 294.112 356.351 292.67 355.534 291.694C354.717 290.718 352.266 292.242 351.585 293.059C350.905 293.876 354.581 303.203 355.806 303.519C357.032 303.835 359.21 302.992 359.21 302.011C359.21 301.029 355.126 294.52 356.623 294.52C358.121 294.52 359.21 293.567 359.21 293.567C359.314 295.53 359.973 297.042 360.844 299.015C360.844 299.015 359.493 299.702 358.802 299.696L359.21 300.513C359.21 300.513 360.572 299.696 361.253 299.696C361.934 299.696 361.797 302.555 362.614 302.691C363.431 302.828 364.657 302.011 364.657 302.011" stroke="black" stroke-width="0.544647"/>
<path d="M293.769 321.588C280.843 320.52 255.808 365.453 248.597 359.374C223.65 359.374 234.447 339.577 203.426 321.588C211.05 304.725 231.8 300.912 242.067 279.365C252.333 257.818 306.694 322.656 293.769 321.588Z" fill="#FFBD97"/>
<path d="M241.919 345.565C241.919 345.565 237.507 330.347 239.934 329.906C242.36 329.464 241.588 342.918 243.573 345.565C245.558 348.212 277.364 348.653 278.798 345.565C280.231 342.477 279.965 332.552 276.877 329.906C273.789 327.259 244.234 329.906 244.234 329.906M241.036 345.565C241.066 345.588 241.095 345.61 241.125 345.632M233.648 314.467C233.648 314.467 236.184 316.01 238.059 316.01C239.934 316.01 237.918 303.382 241.919 297.263C245.92 291.144 249.574 310.421 247.653 316.01C245.733 321.6 277.025 320.219 278.798 317.426C280.571 314.632 278.515 309.655 277.266 305.534M233.648 314.467C233.648 314.467 236.184 294.506 239.051 290.867M233.648 314.467L232.655 319.98M239.051 290.867C241.919 287.228 269.047 289.874 271.694 292.3C273.191 293.673 275.64 300.169 277.266 305.534M239.051 290.867L233.648 280.39L239.051 277.082L247.126 286.037C252.215 285.933 257.759 286.402 262.785 286.908L263.963 276.31M239.051 290.867L229.687 286.384C229.687 286.384 229.639 286.568 229.553 286.908M239.051 290.867C250.937 290.867 261.095 284.619 263.963 276.31M269.249 280.39L263.963 276.31M269.249 280.39C269.249 280.39 266.982 293.403 267.944 293.403C268.907 293.403 281.278 316.404 275.443 327.369C275.443 327.369 276.811 340.638 276.105 346.558C275.403 352.451 247.897 350.654 241.125 345.632M269.249 280.39C269.249 280.39 270.357 280.98 271.344 282.524C272.331 284.068 277.266 305.534 277.266 305.534M263.963 276.31C263.963 276.31 254.757 272.101 253.434 270.557M232.655 319.98C232.655 319.98 225.928 319.098 224.384 316.01C223.855 314.953 224.311 311.142 225.139 306.589M232.655 319.98C232.655 319.98 232.8 320.811 231.001 322.517C229.028 324.388 225.655 326.398 224.384 324.722C216.775 314.687 216.139 295.829 213.687 293.403C211.235 290.977 207.418 291.175 205.637 287.779C203.549 283.798 206.629 276.31 206.629 276.31M232.655 319.98C229.958 337.925 232.168 343.472 241.125 345.632M206.629 276.31C206.629 276.31 207.842 282.817 209.938 282.817C212.033 282.817 212.878 279.64 214.9 280.39C217.642 281.407 211.518 285.819 213.687 287.779C217.31 291.052 221.852 307.38 220.304 309.504C218.756 311.628 225.139 306.589 225.139 306.589M206.629 276.31C206.629 276.31 205.658 270.465 204.47 266.477C203.137 262.004 197.743 261.735 196.419 259.86C195.096 257.985 211.717 248.078 229.687 247.713M253.434 270.557C253.434 270.557 272.489 266.643 273.734 253.574C274.937 240.95 270.059 234.785 259.453 227.833C249.277 221.163 232.654 224.072 228.511 235.942C226.259 242.392 229.687 247.713 229.687 247.713M253.434 270.557C253.434 270.557 247.251 271.618 244.176 269.686C241.93 268.274 240.571 267.039 239.934 264.382C239.296 261.724 239.58 258.998 237.994 256.772C235.694 253.544 232.274 250.817 232.274 250.817M232.274 250.817C232.274 250.817 233.887 254.536 233.648 255.822C232.796 260.407 235.017 265.457 236.561 267.663C236.561 267.663 239.991 271.734 241.691 270.557C243.117 269.57 242.999 269.686 242.999 269.686L245.227 273.443C245.227 273.443 231.653 281.147 230.67 282.817C229.687 284.486 229.553 286.908 229.553 286.908M232.274 250.817C232.274 250.817 230.57 249.029 229.687 247.713M225.139 306.589C226.527 298.961 228.959 289.248 229.553 286.908" stroke="black" stroke-width="0.674202"/>
<path d="M380.63 489.263C380.63 489.263 359.481 485.265 349.075 477.143C322.018 456.021 349.075 401.211 344.971 389.343C340.866 377.474 392.687 364.879 402.965 395.08C413.243 425.282 423.404 412.25 413.972 432.3C404.835 451.723 380.63 489.263 380.63 489.263Z" fill="#FFBD97"/>
<path d="M263.451 407.025C254.697 404.26 246.101 398.07 239.944 407.025C233.787 415.98 235.84 438.741 217.183 441.539C198.527 444.337 219.029 483.401 212.426 488.553C205.822 493.705 271.815 504.107 281.454 488.553C286.647 480.174 275.858 461.595 285.559 463.647C295.26 465.699 286.087 414.173 263.451 407.025Z" fill="#88D2EF"/>
<path d="M108.194 423.345C120.373 465.062 137.205 412.338 157.26 415.789C177.316 419.24 177.969 505.62 163.417 487.616C148.865 469.613 79.7721 508.075 83.381 493.773C86.9899 479.47 96.0147 381.627 108.194 423.345Z" fill="#CBAFED"/>
<path d="M386.174 487.15H403.431L389.625 512.616H363.6L349.421 487.15H375.353C375.353 487.15 344.01 467.561 344.01 464.202C344.011 460.844 351.939 455.994 351.939 455.994H344.01L351.939 453.941L344.01 443.587L352.966 451.516L354.831 445.639V453.941C354.831 453.941 361.639 445.639 364.906 445.639C368.172 445.639 372.275 460.471 372.275 460.471C372.275 460.471 367.335 425.024 369.756 422.692C372.178 420.36 378.058 420.546 378.058 420.546C378.058 420.546 362.48 407.394 362.48 403.942C362.48 400.491 369.756 396.946 369.756 396.946L363.32 394.334H369.756L366.958 386.498L372.275 392.282L375.353 388.551V394.334C375.353 394.334 380.328 389.857 383.779 391.256C387.231 392.655 386.64 417.095 386.64 417.095H383.779C383.779 417.095 387.697 398.159 390.682 397.879C393.667 397.599 397.088 400.491 397.088 400.491L396.715 396.48L398.58 400.491L402.218 396.946L400.26 401.424L403.524 402.077L400.26 402.823C400.26 402.823 408.282 406.461 407.722 410.192C407.162 413.923 386.64 421.852 386.64 421.852C386.64 421.852 407.815 427.263 407.069 431.367C406.323 435.472 372.275 468.68 372.275 468.68L373.674 462.617L381.696 487.15" stroke="black" stroke-width="0.932821"/>
<path d="M145.786 488.388L139.723 512.642H116.589L108.94 488.388H127.689C111.819 479.885 102.873 476.235 86.7385 473.836C86.7385 473.836 115.061 462.279 116.589 473.836C117.193 478.41 113.417 485.217 113.417 485.217C108.592 459.065 103.848 446.74 92.0556 428.594C92.0556 428.594 107.07 435.565 113.417 443.52C122.231 454.566 126.943 478.407 126.943 478.407C126.943 478.407 126.427 443.646 139.723 428.594C149.876 417.1 162.95 420.572 162.95 420.572C142.351 447.183 143.658 453.189 137.297 484.097C137.297 484.097 133.514 479.813 133.286 476.448C133.074 473.31 134.438 471.631 135.805 468.799C140.736 458.582 148.568 455.374 159.312 451.728C166.24 449.377 177.875 449.21 177.875 449.21C157.658 460.094 147.324 467.208 137.297 488.388H145.786Z" stroke="black" stroke-width="0.932821"/>
<path d="M249.897 489.752H233.939L243.789 512.704H259.354L267.629 489.752H252.951V478.423M249.897 489.752C249.897 489.752 246.143 478.354 239.948 475.96C235.857 474.38 232.758 474.254 228.718 475.96C223.614 478.116 220.049 487.19 220.049 487.19M249.897 489.752C249.897 489.752 246.235 480.025 243.888 473.793M220.049 487.19C220.049 487.19 218.597 474.379 223.989 470.247C230.254 465.445 239.668 467.123 243.888 473.793M220.049 487.19C220.049 487.19 211.874 473.14 216.601 466.405C222.944 457.369 242.971 462.792 243.888 473.793M252.951 478.423C261.319 470.691 266.308 468.339 275.706 467.39C274.756 466.887 264.009 463.474 260.142 467.39M252.951 478.423C252.951 478.423 256.377 469.763 260.142 467.39M252.951 478.423C252.951 478.423 251.988 470.813 260.142 467.39M252.951 478.423V460.396M252.951 478.423C252.951 478.423 252.59 468.451 249.849 459.094M260.142 467.39C263.326 466.054 257.969 462.676 249.849 459.094M252.951 460.396C261.402 448.969 270.156 441.206 284.868 436.655C284.422 436.556 267.76 434.233 261.127 440.399C254.947 446.143 252.951 460.396 252.951 460.396ZM252.951 460.396L252.261 446.999M252.261 446.999C252.261 446.999 253.951 435.924 252.261 429.169C251.348 425.516 248.715 420.204 248.715 420.204C248.715 420.204 249.269 425.682 249.798 429.169C250.868 436.211 253.64 446.999 253.64 446.999C253.64 446.999 260.594 436.566 260.142 429.169C259.562 419.69 246.449 409.073 246.449 409.073C246.449 409.073 235.516 426.911 240.637 436.655C243.464 442.034 252.261 446.999 252.261 446.999ZM249.849 459.094C248.263 453.68 245.42 448.954 242.312 445.521C235.378 437.863 214.343 446.362 213.607 447.816C218.84 444.871 238.388 450.615 249.849 459.094Z" stroke="black" stroke-width="0.984204"/>
<path d="M588.023 493L591.73 484.89H592.576L596.284 493H595.38L591.974 485.388H592.321L588.915 493H588.023ZM589.483 490.834L589.738 490.138H594.453L594.708 490.834H589.483ZM599.189 493V484.404H600.012V493H599.189ZM604.038 493V484.404H604.861V493H604.038ZM616.079 493.058C615.499 493.058 614.978 492.927 614.515 492.664C614.059 492.401 613.7 492.038 613.437 491.575C613.175 491.104 613.043 490.563 613.043 489.953C613.043 489.335 613.175 488.795 613.437 488.331C613.7 487.868 614.059 487.509 614.515 487.254C614.978 486.991 615.499 486.86 616.079 486.86C616.612 486.86 617.087 486.979 617.504 487.219C617.928 487.458 618.264 487.81 618.512 488.273C618.766 488.729 618.894 489.289 618.894 489.953C618.894 490.61 618.77 491.17 618.523 491.633C618.276 492.096 617.94 492.452 617.515 492.699C617.098 492.938 616.619 493.058 616.079 493.058ZM616.137 492.328C616.569 492.328 616.955 492.232 617.295 492.038C617.643 491.838 617.913 491.56 618.106 491.204C618.307 490.841 618.407 490.424 618.407 489.953C618.407 489.474 618.307 489.057 618.106 488.702C617.913 488.347 617.643 488.072 617.295 487.879C616.955 487.678 616.569 487.578 616.137 487.578C615.712 487.578 615.329 487.678 614.99 487.879C614.65 488.072 614.379 488.347 614.179 488.702C613.978 489.057 613.877 489.474 613.877 489.953C613.877 490.424 613.978 490.841 614.179 491.204C614.379 491.56 614.65 491.838 614.99 492.038C615.329 492.232 615.712 492.328 616.137 492.328ZM618.43 493V491.17L618.512 489.941L618.396 488.713V484.404H619.218V493H618.43ZM625.83 493.058C625.197 493.058 624.641 492.927 624.162 492.664C623.683 492.394 623.309 492.027 623.038 491.563C622.768 491.092 622.633 490.555 622.633 489.953C622.633 489.351 622.76 488.818 623.015 488.354C623.278 487.891 623.633 487.528 624.081 487.265C624.537 486.995 625.046 486.86 625.61 486.86C626.182 486.86 626.688 486.991 627.128 487.254C627.576 487.509 627.927 487.872 628.182 488.343C628.437 488.806 628.565 489.343 628.565 489.953C628.565 489.992 628.561 490.034 628.553 490.08C628.553 490.119 628.553 490.162 628.553 490.208H623.258V489.594H628.113L627.788 489.837C627.788 489.397 627.692 489.007 627.499 488.667C627.313 488.32 627.058 488.049 626.734 487.856C626.41 487.663 626.035 487.566 625.61 487.566C625.193 487.566 624.819 487.663 624.487 487.856C624.154 488.049 623.896 488.32 623.71 488.667C623.525 489.015 623.432 489.412 623.432 489.86V489.988C623.432 490.451 623.533 490.861 623.733 491.216C623.942 491.563 624.228 491.838 624.591 492.038C624.962 492.232 625.382 492.328 625.854 492.328C626.224 492.328 626.568 492.262 626.885 492.131C627.209 492 627.487 491.799 627.719 491.529L628.182 492.062C627.912 492.386 627.572 492.633 627.163 492.803C626.761 492.973 626.317 493.058 625.83 493.058ZM633.61 493.058C633.108 493.058 632.633 492.988 632.185 492.849C631.737 492.703 631.386 492.521 631.131 492.305L631.502 491.656C631.749 491.841 632.065 492.004 632.452 492.143C632.838 492.274 633.243 492.34 633.668 492.34C634.247 492.34 634.664 492.251 634.919 492.073C635.174 491.888 635.302 491.645 635.302 491.343C635.302 491.119 635.228 490.946 635.082 490.822C634.942 490.691 634.757 490.594 634.525 490.532C634.294 490.463 634.035 490.405 633.749 490.359C633.463 490.312 633.178 490.258 632.892 490.196C632.614 490.135 632.359 490.046 632.127 489.93C631.896 489.806 631.706 489.64 631.56 489.432C631.421 489.223 631.351 488.945 631.351 488.598C631.351 488.265 631.444 487.968 631.629 487.705C631.814 487.443 632.085 487.238 632.44 487.091C632.803 486.937 633.243 486.86 633.761 486.86C634.155 486.86 634.549 486.914 634.942 487.022C635.336 487.122 635.661 487.258 635.916 487.427L635.557 488.088C635.286 487.902 634.997 487.771 634.688 487.694C634.379 487.609 634.07 487.566 633.761 487.566C633.212 487.566 632.807 487.663 632.544 487.856C632.289 488.041 632.162 488.281 632.162 488.574C632.162 488.806 632.232 488.988 632.371 489.119C632.517 489.25 632.707 489.354 632.938 489.432C633.178 489.501 633.436 489.559 633.714 489.605C634 489.652 634.282 489.71 634.56 489.779C634.846 489.841 635.105 489.93 635.336 490.046C635.576 490.154 635.765 490.312 635.904 490.521C636.051 490.722 636.124 490.988 636.124 491.32C636.124 491.675 636.024 491.984 635.823 492.247C635.63 492.502 635.344 492.703 634.966 492.849C634.595 492.988 634.143 493.058 633.61 493.058ZM639.371 493V486.918H640.194V493H639.371ZM639.788 485.574C639.619 485.574 639.476 485.516 639.36 485.4C639.244 485.284 639.186 485.145 639.186 484.983C639.186 484.821 639.244 484.686 639.36 484.577C639.476 484.462 639.619 484.404 639.788 484.404C639.958 484.404 640.101 484.458 640.217 484.566C640.333 484.674 640.391 484.809 640.391 484.971C640.391 485.141 640.333 485.284 640.217 485.4C640.109 485.516 639.966 485.574 639.788 485.574ZM646.816 495.305C646.26 495.305 645.727 495.224 645.217 495.062C644.707 494.9 644.294 494.668 643.977 494.367L644.394 493.741C644.68 493.996 645.031 494.197 645.449 494.344C645.873 494.498 646.321 494.576 646.792 494.576C647.565 494.576 648.132 494.394 648.495 494.031C648.858 493.676 649.04 493.12 649.04 492.363V490.845L649.156 489.802L649.075 488.76V486.918H649.863V492.259C649.863 493.309 649.604 494.077 649.086 494.564C648.577 495.058 647.82 495.305 646.816 495.305ZM646.665 492.768C646.086 492.768 645.564 492.645 645.101 492.398C644.638 492.143 644.271 491.791 644 491.343C643.738 490.895 643.606 490.382 643.606 489.802C643.606 489.223 643.738 488.713 644 488.273C644.271 487.825 644.638 487.478 645.101 487.23C645.564 486.983 646.086 486.86 646.665 486.86C647.206 486.86 647.692 486.972 648.125 487.196C648.557 487.42 648.901 487.752 649.156 488.192C649.411 488.632 649.538 489.169 649.538 489.802C649.538 490.436 649.411 490.973 649.156 491.413C648.901 491.853 648.557 492.189 648.125 492.421C647.692 492.652 647.206 492.768 646.665 492.768ZM646.746 492.038C647.194 492.038 647.592 491.946 647.939 491.76C648.287 491.567 648.561 491.305 648.762 490.973C648.963 490.633 649.063 490.243 649.063 489.802C649.063 489.362 648.963 488.976 648.762 488.644C648.561 488.312 648.287 488.053 647.939 487.868C647.592 487.675 647.194 487.578 646.746 487.578C646.306 487.578 645.908 487.675 645.553 487.868C645.205 488.053 644.931 488.312 644.73 488.644C644.537 488.976 644.441 489.362 644.441 489.802C644.441 490.243 644.537 490.633 644.73 490.973C644.931 491.305 645.205 491.567 645.553 491.76C645.908 491.946 646.306 492.038 646.746 492.038ZM656.994 486.86C657.488 486.86 657.921 486.956 658.292 487.149C658.67 487.335 658.964 487.621 659.172 488.007C659.388 488.393 659.497 488.879 659.497 489.466V493H658.674V489.548C658.674 488.907 658.512 488.424 658.187 488.099C657.871 487.767 657.423 487.601 656.844 487.601C656.411 487.601 656.033 487.69 655.708 487.868C655.392 488.038 655.144 488.289 654.967 488.621C654.797 488.945 654.712 489.339 654.712 489.802V493H653.889V486.918H654.677V488.586L654.55 488.273C654.743 487.833 655.052 487.489 655.476 487.242C655.901 486.987 656.407 486.86 656.994 486.86ZM666.04 493.058C665.406 493.058 664.85 492.927 664.372 492.664C663.893 492.394 663.518 492.027 663.248 491.563C662.977 491.092 662.842 490.555 662.842 489.953C662.842 489.351 662.97 488.818 663.225 488.354C663.487 487.891 663.842 487.528 664.29 487.265C664.746 486.995 665.256 486.86 665.82 486.86C666.391 486.86 666.897 486.991 667.337 487.254C667.785 487.509 668.137 487.872 668.392 488.343C668.647 488.806 668.774 489.343 668.774 489.953C668.774 489.992 668.77 490.034 668.762 490.08C668.762 490.119 668.762 490.162 668.762 490.208H663.468V489.594H668.322L667.998 489.837C667.998 489.397 667.901 489.007 667.708 488.667C667.523 488.32 667.268 488.049 666.943 487.856C666.619 487.663 666.244 487.566 665.82 487.566C665.403 487.566 665.028 487.663 664.696 487.856C664.364 488.049 664.105 488.32 663.92 488.667C663.734 489.015 663.642 489.412 663.642 489.86V489.988C663.642 490.451 663.742 490.861 663.943 491.216C664.151 491.563 664.437 491.838 664.8 492.038C665.171 492.232 665.592 492.328 666.063 492.328C666.434 492.328 666.777 492.262 667.094 492.131C667.418 492 667.697 491.799 667.928 491.529L668.392 492.062C668.121 492.386 667.781 492.633 667.372 492.803C666.971 492.973 666.526 493.058 666.04 493.058ZM674.607 493.058C674.028 493.058 673.507 492.927 673.043 492.664C672.588 492.401 672.229 492.038 671.966 491.575C671.703 491.104 671.572 490.563 671.572 489.953C671.572 489.335 671.703 488.795 671.966 488.331C672.229 487.868 672.588 487.509 673.043 487.254C673.507 486.991 674.028 486.86 674.607 486.86C675.14 486.86 675.615 486.979 676.032 487.219C676.457 487.458 676.793 487.81 677.04 488.273C677.295 488.729 677.423 489.289 677.423 489.953C677.423 490.61 677.299 491.17 677.052 491.633C676.805 492.096 676.469 492.452 676.044 492.699C675.627 492.938 675.148 493.058 674.607 493.058ZM674.665 492.328C675.098 492.328 675.484 492.232 675.824 492.038C676.171 491.838 676.442 491.56 676.635 491.204C676.836 490.841 676.936 490.424 676.936 489.953C676.936 489.474 676.836 489.057 676.635 488.702C676.442 488.347 676.171 488.072 675.824 487.879C675.484 487.678 675.098 487.578 674.665 487.578C674.241 487.578 673.858 487.678 673.518 487.879C673.179 488.072 672.908 488.347 672.707 488.702C672.507 489.057 672.406 489.474 672.406 489.953C672.406 490.424 672.507 490.841 672.707 491.204C672.908 491.56 673.179 491.838 673.518 492.038C673.858 492.232 674.241 492.328 674.665 492.328ZM676.959 493V491.17L677.04 489.941L676.924 488.713V484.404H677.747V493H676.959ZM689.685 493.058C689.152 493.058 688.673 492.938 688.249 492.699C687.824 492.452 687.488 492.096 687.241 491.633C686.994 491.17 686.87 490.61 686.87 489.953C686.87 489.289 686.994 488.729 687.241 488.273C687.496 487.81 687.835 487.458 688.26 487.219C688.685 486.979 689.16 486.86 689.685 486.86C690.264 486.86 690.782 486.991 691.238 487.254C691.701 487.509 692.064 487.868 692.327 488.331C692.589 488.795 692.721 489.335 692.721 489.953C692.721 490.563 692.589 491.104 692.327 491.575C692.064 492.038 691.701 492.401 691.238 492.664C690.782 492.927 690.264 493.058 689.685 493.058ZM686.546 493V484.404H687.368V488.713L687.252 489.941L687.333 491.17V493H686.546ZM689.627 492.328C690.06 492.328 690.446 492.232 690.786 492.038C691.126 491.838 691.396 491.56 691.597 491.204C691.798 490.841 691.898 490.424 691.898 489.953C691.898 489.474 691.798 489.057 691.597 488.702C691.396 488.347 691.126 488.072 690.786 487.879C690.446 487.678 690.06 487.578 689.627 487.578C689.195 487.578 688.805 487.678 688.457 487.879C688.117 488.072 687.847 488.347 687.646 488.702C687.453 489.057 687.357 489.474 687.357 489.953C687.357 490.424 687.453 490.841 687.646 491.204C687.847 491.56 688.117 491.838 688.457 492.038C688.805 492.232 689.195 492.328 689.627 492.328ZM696.012 495.305C695.726 495.305 695.452 495.259 695.189 495.166C694.934 495.074 694.714 494.935 694.529 494.749L694.911 494.135C695.066 494.282 695.232 494.394 695.409 494.471C695.595 494.556 695.799 494.599 696.023 494.599C696.294 494.599 696.525 494.522 696.719 494.367C696.919 494.22 697.109 493.958 697.286 493.579L697.68 492.687L697.773 492.56L700.275 486.918H701.086L698.039 493.73C697.869 494.124 697.68 494.437 697.472 494.668C697.271 494.9 697.051 495.062 696.811 495.155C696.572 495.255 696.305 495.305 696.012 495.305ZM697.634 493.174L694.83 486.918H695.687L698.167 492.502L697.634 493.174Z" fill="#283C57"/>
<path d="M470 271H506V489H470" stroke="#E5B89F" stroke-width="2.5"/>
<path d="M555 152H532V237H555" stroke="#E5B89F" stroke-width="2.5"/>
<path d="M430 121H448V171H430" stroke="#E5B89F" stroke-width="2.5"/>
<path d="M700.61 129.909L711.954 172.841L698.88 177.59C698.88 177.59 695.954 181.391 692.151 185.759C685.037 193.927 677.347 195.364 677.347 195.364C677.347 195.364 675.332 197.938 674.144 198.676C662.158 206.124 635.465 207.367 635.884 209.124L630.435 215.013C630.435 215.013 631.244 222.298 630.435 226.601C630.267 227.491 629.089 227.551 629.089 227.551L633.319 237.999C633.786 241.462 632.742 246.927 632.742 246.927C633.355 246.387 631.471 254.9 627.166 255.095C623.945 255.241 622.744 247.497 622.744 247.497C622.744 247.497 620.291 247.05 617.938 246.072C614.099 244.477 612.939 236.764 612.939 236.764C612.939 236.764 613.167 242.393 611.401 244.268C608.538 247.307 605.393 246.072 605.393 246.072C603.422 245.59 602.557 243.318 602.557 243.318L590.252 253.576L586.984 255.855L587.286 255.461C587.619 254.956 587.943 254.146 586.599 254.146C584.648 254.146 572.372 245.597 573.333 243.318C573.333 243.318 574.787 238.704 576.41 236.099C578.009 233.532 579.706 232.254 581.458 230.21C581.458 230.21 575.06 226.309 573.333 222.232C566.576 206.275 561.029 196.207 561.029 196.207C560.067 191.268 583.715 158.784 583.715 158.784C583.715 158.784 584.484 149.476 590.252 146.056C596.02 142.637 630.088 147.31 655.044 143.017C667.209 140.924 674.135 139.782 685.806 135.798C691.697 133.788 700.61 129.909 700.61 129.909Z" fill="#F7C2B4"/>
<path d="M585.417 216.152L590.224 219.572L615.602 192.977C615.602 192.977 616.553 190.832 616.756 189.367C616.919 188.191 617.051 187.478 616.756 186.328C616.218 184.238 613.103 182.149 613.103 182.149L607.527 172.651C607.527 172.651 606.49 176.417 604.835 178.16C601.5 181.673 592.531 180.249 592.531 180.249C592.531 180.249 591.818 185.073 590.224 187.658C587.427 192.191 578.688 195.066 578.688 195.066C578.688 195.066 583.404 201.729 584.648 206.654C585.56 210.265 585.417 216.152 585.417 216.152Z" fill="#D88D78"/>
<path d="M585.417 216.152L590.224 219.572L591.185 218.564L586.378 215.582C586.378 215.582 586.317 210.046 585.417 206.654C584.182 202.001 579.842 195.636 579.842 195.636C579.842 195.636 588.421 192.85 591.185 188.418C592.792 185.84 593.492 181.009 593.492 181.009C593.492 181.009 604.262 182.471 608.085 179.299C610.603 177.21 608.085 173.6 608.085 173.6L607.527 172.651C607.527 172.651 606.49 176.037 604.835 177.78C601.5 181.293 592.531 179.869 592.531 179.869C592.531 179.869 591.434 184.693 589.839 187.278C587.042 191.811 578.688 195.066 578.688 195.066C578.688 195.066 583.404 201.729 584.648 206.654C585.56 210.265 585.417 216.152 585.417 216.152Z" fill="#BF7759"/>
<path d="M606.181 184.999L603.681 180.25C603.681 180.25 600.844 189.645 597.914 192.977C595.697 195.497 590.992 198.106 590.992 198.106C590.992 198.106 595.024 198.47 596.375 200.956C597.727 203.441 597.914 210.834 597.914 210.834C597.914 210.834 599.227 207.691 599.259 203.805C599.274 202.017 597.52 199.623 597.914 198.106C599.43 192.264 606.181 184.999 606.181 184.999Z" fill="#BC775A"/>
<path d="M606.565 222.232C604.066 220.163 602.528 215.013 602.528 215.013C602.528 215.013 606.444 217.714 608.68 219.762C610.706 221.618 613.487 224.891 613.487 224.891C613.487 224.891 608.789 224.072 606.565 222.232Z" fill="#D2A393"/>
<path d="M605.027 246.167C603.574 245.662 602.528 243.318 602.528 243.318C602.528 243.318 615.602 229.26 623.869 220.142C632.136 211.024 630.982 215.013 630.982 215.013V225.081C630.982 225.081 631.009 227.211 630.021 227.551C629.596 227.697 628.868 227.551 628.868 227.551C628.868 227.551 632.299 233.074 633.097 237.049C633.813 240.615 633.097 246.357 633.097 246.357C633.097 246.357 631.403 255.725 627.33 255.095C623.933 254.57 622.715 247.687 622.715 247.687C622.715 247.687 618.559 247.001 616.563 245.217C614.018 242.944 612.91 237.049 612.91 237.049C612.91 237.049 612.91 241.798 611.756 243.698C610.603 245.597 607.501 247.028 605.027 246.167Z" fill="#D88D78"/>
<path d="M583.987 233.249C583.987 233.249 572.151 242.246 572.151 245.253C572.151 248.26 583.268 257.751 587.513 255.777C591.757 253.804 597.529 242.646 597.529 242.646L583.987 233.249Z" fill="#FCDED3"/>
<rect width="14.6791" height="55.4455" transform="matrix(0.95854 -0.284958 0.29131 0.956629 691.109 126.985)" fill="#E5E5E5"/>
<path d="M697.116 123.026L742.611 104L742.612 166.997L714.598 180.435L697.116 123.026Z" fill="#2E3A49"/>
<path d="M726.344 167.902C726.344 169.79 724.795 171.321 722.884 171.321C720.972 171.321 719.423 169.79 719.423 167.902C719.423 166.013 720.972 164.482 722.884 164.482C724.795 164.482 726.344 166.013 726.344 167.902Z" fill="#E5E5E5"/>
<path d="M581.255 230.079C584.724 225.768 586.682 223.437 590.234 219.678L588.067 218.148C588.067 218.148 587.798 219.617 586.519 221.207C584.349 223.905 578.159 227.632 578.159 227.632L581.255 230.079Z" fill="#F5B4A5"/>
<path d="M684.978 188.473C688.617 185.147 690.551 177.076 690.551 177.076C690.551 177.076 686.718 184.833 682.995 188.473C680.302 191.105 676.618 196.122 676.618 196.122C676.618 196.122 681.623 191.54 684.978 188.473Z" fill="#D39878"/>
<path d="M600.761 244.763L589.962 305.462H593.01H596.539L607.882 237.421L600.761 244.763Z" fill="#0C1636"/>
<path d="M569.841 333.041C569.841 345.193 579.787 355.074 592.094 355.074C604.401 355.074 614.347 345.193 614.347 333.041C614.347 320.89 604.401 311.009 592.094 311.009C579.787 311.009 569.841 320.89 569.841 333.041Z" fill="#FFD174" stroke="#F8BC44" stroke-width="3.8527"/>
<path d="M573.168 333.058C573.168 322.703 581.641 314.308 592.093 314.308C602.545 314.308 611.019 322.703 611.019 333.058" stroke="#ECA020" stroke-width="0.770541"/>
<path d="M573.168 333.059C573.168 343.414 581.641 351.809 592.093 351.809C602.545 351.809 611.019 343.414 611.019 333.059" stroke="#FEE36E" stroke-width="0.770541"/>
<rect width="4.08751" height="24.2321" transform="matrix(-1 0 0 1 593.886 318.509)" fill="#FEAE00"/>
<rect width="3.4652" height="11.975" transform="matrix(-0.933164 -0.359451 -0.367031 0.930209 602.204 327.203)" fill="#FEAE00"/>
<rect width="3.53806" height="12.0439" transform="matrix(0.933164 -0.359451 0.367031 0.930209 581.933 322.076)" fill="#FEAE00"/>
<rect width="4.552" height="3.21258" transform="matrix(-1 0 0 1 597.789 335.122)" fill="#FEAE00"/>
<rect width="4.08751" height="3.21258" transform="matrix(-1 0 0 1 590.449 330.074)" fill="#FEAE00"/>
<path d="M593.843 343.291H589.755L590.876 345.77H592.722L593.843 343.291Z" fill="#FEAE00"/>
<path d="M591.845 347.605L591.322 346.297H592.368L591.845 347.605Z" fill="#FEAE00"/>
<rect x="-0.642118" y="0.642118" width="14.5473" height="4.93174" rx="0.642118" transform="matrix(-1 0 0 1 598.432 305.497)" stroke="#F8BC44" stroke-width="1.28424" stroke-linecap="round" stroke-linejoin="round"/>
<path d="M593.949 215.394L595.239 307.511H587.514L586.209 223.654L593.949 215.394Z" fill="#1B3172"/>
<path d="M373.14 178.401C357.714 178.357 344.542 157.349 338.935 146.881C337.095 143.447 337.872 139.279 340.635 136.531L366.691 110.624C370.371 106.966 376.319 106.983 379.977 110.662L405.885 136.718C408.632 139.482 409.385 143.654 407.525 147.078C401.858 157.513 388.565 178.446 373.14 178.401Z" fill="#9AEF92"/>
<path d="M407.583 159.434C413.731 153.9 379.749 120.381 365.734 122.327C351.72 124.274 337.89 142.528 352.109 152.887C365.734 162.814 401.436 164.969 407.583 159.434Z" fill="#FA7822"/>
<path d="M352.178 111.709C357.239 111.709 354.709 127.476 354.125 127.865C353.541 128.254 351.235 130.496 349.375 133.121C349.375 133.121 330.312 135.448 333.291 130.006C335.393 126.167 343.802 126.113 343.802 126.113C343.802 126.113 342.727 122.994 343.95 121.442C345.502 119.471 350.373 121.442 350.373 121.442C350.373 121.442 347.117 111.709 352.178 111.709Z" fill="#5CAD2B"/>
<path d="M352.645 111.904C357.161 111.904 354.903 125.721 354.382 126.062C353.861 126.403 351.179 128.879 349.519 131.179C349.519 131.179 332.792 134.242 335.451 129.473C337.326 126.109 344.829 126.062 344.829 126.062C344.829 126.062 343.738 122.987 344.829 121.627C346.215 119.9 350.561 121.627 350.561 121.627C350.561 121.627 348.13 111.904 352.645 111.904Z" fill="#6CBD36"/>
<ellipse cx="0.973237" cy="1.94647" rx="0.973237" ry="1.94647" transform="matrix(-1 0 0 1 354.241 113.072)" fill="#80CD44"/>
<ellipse cx="0.778589" cy="0.973237" rx="0.778589" ry="0.973237" transform="matrix(-1 0 0 1 346.844 122.026)" fill="#80CD44"/>
<ellipse cx="1.55718" cy="0.973237" rx="1.55718" ry="0.973237" transform="matrix(-1 0 0 1 340.615 128.644)" fill="#80CD44"/>
<path d="M397.852 144.952C397.852 144.952 395.639 147.636 394.8 149.66C394.104 151.338 393.684 154.176 393.684 154.176C393.684 154.176 395.506 151.807 396.336 150.354C397.166 148.902 397.852 144.952 397.852 144.952Z" fill="#F96716"/>
<path d="M356.976 133.273C356.976 133.273 354.763 135.957 353.924 137.981C353.228 139.659 352.809 142.497 352.809 142.497C352.809 142.497 354.661 140.306 355.46 138.675C356.425 136.708 356.976 133.273 356.976 133.273Z" fill="#F96716"/>
<path d="M377.219 150.013C377.219 150.013 375.006 152.697 374.167 154.721C373.472 156.399 373.052 159.237 373.052 159.237C373.052 159.237 374.904 157.046 375.703 155.415C376.668 153.448 377.219 150.013 377.219 150.013Z" fill="#F96716"/>
<path d="M385.785 145.474C385.785 145.474 391.419 135.846 391.419 135.651C391.419 135.456 391.66 135.763 391.808 135.846C392.592 136.282 393.493 137.407 393.493 137.407L385.785 145.474Z" fill="#F96716"/>
<path d="M362.009 138.248L373.206 123.809C373.206 123.809 373.177 123.634 373.916 124.078C379.903 127.676 362.009 138.248 362.009 138.248Z" fill="#F96716"/>
<path d="M364.473 142.35L355.618 155.105L353.267 153.753L364.473 142.35Z" fill="#F96716"/>
<path d="M401.929 152.196C407.318 147.344 378.206 120.708 365.919 122.415C353.632 124.121 341.393 141.101 351.71 146.746C363.655 155.449 396.539 157.048 401.929 152.196Z" fill="#F9C643" fill-opacity="0.17"/>
<ellipse cx="1.94647" cy="1.75183" rx="1.94647" ry="1.75183" transform="matrix(-1 0 0 1 385.773 134.094)" fill="#FAD168" fill-opacity="0.48"/>
<path d="M380.891 133.196C382.66 131.369 373.901 125.859 370.689 125.208C367.478 124.556 365.336 123.778 364.752 124.751C364.168 125.724 365.726 128.11 368.974 128.11C372.222 128.11 379.122 135.022 380.891 133.196Z" fill="#FFD362" fill-opacity="0.47"/>
<path d="M258.408 178.401C242.983 178.357 229.81 157.349 224.203 146.881C222.363 143.447 223.14 139.279 225.903 136.531L251.959 110.624C255.639 106.966 261.587 106.983 265.245 110.662L291.153 136.718C293.9 139.482 294.653 143.654 292.794 147.078C287.127 157.513 273.834 178.446 258.408 178.401Z" fill="#94687A"/>
<path d="M284.825 120.729C284.773 119.969 284.022 119.144 283.583 118.722C283.483 118.626 283.328 118.717 283.353 118.853C283.449 119.357 283.587 120.213 283.552 120.801C283.504 121.626 282.965 122.504 282.549 123.067C282.454 123.196 282.599 123.375 282.737 123.292C283.578 122.781 284.899 121.803 284.825 120.729Z" fill="#6D8026"/>
<path d="M264.725 164.622C257.541 169.503 245.257 175.383 232.48 161.992C226.648 153.408 227.837 147.667 235.483 139.985C240.272 137.436 244.13 137.918 250.883 138.263C277.532 135.219 270.213 113.918 283.802 125.673C293.216 133.816 271.908 159.741 264.725 164.622Z" fill="#94A62E"/>
<path d="M261.884 160.453C254.7 165.335 242.571 171.448 231.199 160.127C226.166 152.72 227.67 147.44 235.476 139.99C240.221 137.375 243.882 137.566 250.321 137.447C276.014 132.989 270.913 115.329 283.166 125.116C291.654 131.896 269.069 155.572 261.884 160.453Z" fill="#B3BE34"/>
<path d="M246.721 156.396C251.876 158.657 259.667 152.347 263.101 149.197C263.236 149.073 263.416 149.239 263.295 149.375C260.161 152.91 252.711 160.124 245.465 158.307C242.009 157.441 238.106 160.82 237.536 159.622C237.521 159.59 237.52 159.555 237.534 159.522C237.777 158.959 240.295 153.578 246.721 156.396Z" fill="#95A72D"/>
<path d="M247.693 150.178C248.648 151.582 252.904 150.556 255.146 149.895C255.452 149.805 255.661 150.184 255.408 150.378C253.502 151.84 249.681 154.335 247.895 152.419C247.543 152.041 247.517 151.506 247.035 151.153C245.286 149.875 246.383 148.249 247.693 150.178Z" fill="#94A630"/>
<path d="M241.462 141.913C239.662 142.46 237.625 144.003 236.33 145.103C236.194 145.219 236.34 145.404 236.491 145.308C237.769 144.489 239.649 143.371 241.187 142.804C242.541 142.305 244.435 141.937 245.745 141.721C245.92 141.693 245.907 141.454 245.731 141.454C244.483 141.451 242.726 141.529 241.462 141.913Z" fill="#95A42D"/>
<path d="M234.413 142.882C235.508 141.498 236.886 140.329 239.116 139.63C244.417 137.966 236.964 141.245 235.802 141.882C235.32 142.146 234.855 142.489 234.413 142.882C232.904 144.787 231.93 147.102 230.005 149.167C230.005 149.167 231.832 145.173 234.413 142.882Z" fill="#DFE431"/>
<path d="M256.351 139.195C254.403 139.762 251.758 139.917 249.742 139.941C249.39 139.945 249.335 140.42 249.683 140.476C251.92 140.839 255.001 141.128 257.252 140.521C260.597 139.619 263.966 136.237 266.029 133.819C266.26 133.548 265.904 133.219 265.634 133.45C263.29 135.455 259.614 138.246 256.351 139.195Z" fill="#DFE431"/>
<path d="M270.812 124.436C266.833 122.04 278.534 120.411 282.578 122.696C286.941 125.161 289.304 139.146 286.767 134.825C285.363 132.432 283.861 128.343 283.861 128.343C283.861 128.343 282.831 132.443 281.124 131.964C279.48 131.504 280.318 127.667 280.318 127.667C280.318 127.667 273.981 133.455 273.21 130.559C272.599 128.263 276.865 125.697 276.865 125.697C276.865 125.697 272.88 125.682 270.812 124.436Z" fill="#6D8026"/>
<path d="M272.891 123.851C269.436 121.575 279.211 120.664 282.716 122.846C286.496 125.199 289.103 137.563 286.777 133.663C285.49 131.504 284.045 127.853 284.045 127.853C284.045 127.853 283.359 131.401 281.902 130.906C280.498 130.429 281.034 127.103 281.034 127.103C281.034 127.103 275.957 131.896 275.18 129.324C274.564 127.285 278.041 125.224 278.041 125.224C278.041 125.224 274.687 125.035 272.891 123.851Z" fill="#94AC38" fill-opacity="0.57"/>
<path d="M150.272 177.686C134.995 177.642 121.949 156.836 116.396 146.469C114.573 143.067 115.343 138.94 118.079 136.219L143.885 110.56C147.529 106.937 153.42 106.954 157.043 110.598L182.701 136.404C185.422 139.141 186.168 143.273 184.326 146.664C178.714 156.999 165.549 177.73 150.272 177.686Z" fill="#FCAA43"/>
<path d="M180.798 158.659C185.739 149.338 176.507 137.928 165.958 137.757C161.964 137.692 158.126 137.18 154.902 135.958C150.34 134.228 145.804 130.623 141.764 126.553C134.984 119.723 122.216 121.036 118.805 130.036V130.036C118.137 131.796 117.9 133.7 118.463 135.496C120.052 140.578 125.17 151.556 140.831 159.312C155.784 166.718 168.727 165.095 174.94 163.545C177.532 162.899 179.547 161.019 180.798 158.659V158.659Z" fill="#301027"/>
<path d="M118.687 117.875C117.976 117.599 116.908 117.927 116.339 118.145C116.209 118.195 116.226 118.374 116.36 118.409C116.857 118.537 117.691 118.777 118.21 119.059C118.937 119.454 119.502 120.317 119.835 120.933C119.911 121.075 120.135 121.019 120.118 120.859C120.015 119.879 119.691 118.267 118.687 117.875Z" fill="#6D8026"/>
<path d="M181.117 155.184C185.354 147.613 178.435 138.038 169.76 137.963C164.77 137.92 159.76 137.355 155.696 135.815C150.512 133.85 145.23 129.676 140.723 125.329C135.046 119.853 124.879 121.311 122.083 128.687V128.687C121.424 130.426 121.261 132.324 121.994 134.033C123.873 138.42 129.279 147.327 143.771 154.234C157.89 160.963 169.74 160.341 175.495 159.392C177.94 158.989 179.907 157.345 181.117 155.184V155.184Z" fill="#581248"/>
<path d="M142.478 158.448C137.001 155.762 130.486 149.493 128.341 147.346C128.267 147.272 128.364 147.162 128.448 147.224C130.874 148.996 138.115 154.164 143.585 156.787C149.191 159.475 157.98 161.909 160.956 162.696C161.057 162.722 161.033 162.867 160.929 162.856C157.778 162.514 148.268 161.287 142.478 158.448Z" fill="#8F4A67"/>
<path d="M167.085 147.427C170.021 146.832 171.925 146.184 173.103 144.388C175.858 140.191 160.682 142.924 154.063 139.906C148.293 137.274 141.968 131.197 141.968 131.197C141.968 131.197 144.434 139.427 150.334 142.941C155.652 146.11 160.976 148.665 167.085 147.427Z" fill="#8F4A67"/>
<path d="M134.685 122.135C138.614 118.245 125.502 116.683 120.792 119.567C115.135 123.031 115.804 142.252 119.177 136.525C120.907 133.588 121.868 128.215 121.868 128.215C121.868 128.215 126.946 134.452 129.404 132.201C131.848 129.963 126.275 124.297 126.275 124.297C126.275 124.297 132.271 124.525 134.685 122.135Z" fill="#6D8026"/>
<path d="M132.72 121.639C136.222 118.225 124.534 116.854 120.335 119.386C115.293 122.425 115.89 139.297 118.896 134.27C120.438 131.692 121.295 126.976 121.295 126.976C121.295 126.976 125.821 132.451 128.012 130.475C130.19 128.51 125.223 123.537 125.223 123.537C125.223 123.537 130.568 123.737 132.72 121.639Z" fill="#839930"/>
<ellipse cx="1.53288" cy="1.40514" rx="1.53288" ry="1.40514" transform="matrix(-1 0 0 1 170.069 154.786)" fill="#301027"/>
<ellipse cx="1.10708" cy="0.72386" rx="1.10708" ry="0.72386" transform="matrix(-1 0 0 1 164.194 153.338)" fill="#301027"/>
<ellipse cx="1.10708" cy="0.72386" rx="1.10708" ry="0.72386" transform="matrix(-1 0 0 1 133.365 135.199)" fill="#301027"/>
</svg>
