<svg width="762" height="553" viewBox="0 0 762 553" fill="none" xmlns="http://www.w3.org/2000/svg">
<rect width="762" height="553" fill="white"/>
<circle cx="40.4196" cy="68.0578" r="8.41959" fill="#C54846"/>
<circle cx="40.4196" cy="95.696" r="8.41959" fill="#283C57"/>
<circle cx="40.4196" cy="40.4196" r="8.41959" fill="#E5B89F"/>
<circle cx="40.4196" cy="123.334" r="8.41959" fill="#D71A38"/>
<path d="M571.026 511L575.186 501.9H576.135L580.295 511H579.281L575.459 502.459H575.849L572.027 511H571.026ZM572.664 508.569L572.95 507.789H578.241L578.527 508.569H572.664ZM583.75 511V501.9H584.712V510.168H589.808V511H583.75ZM594.214 505.969H599.024V506.788H594.214V505.969ZM594.318 510.168H599.791V511H593.356V501.9H599.596V502.732H594.318V510.168ZM606.511 511.078C605.835 511.078 605.185 510.97 604.561 510.753C603.946 510.528 603.469 510.242 603.131 509.895L603.508 509.154C603.829 509.466 604.258 509.73 604.795 509.947C605.341 510.155 605.913 510.259 606.511 510.259C607.083 510.259 607.547 510.19 607.902 510.051C608.266 509.904 608.53 509.709 608.695 509.466C608.868 509.223 608.955 508.955 608.955 508.66C608.955 508.305 608.851 508.019 608.643 507.802C608.444 507.585 608.179 507.416 607.85 507.295C607.521 507.165 607.157 507.052 606.758 506.957C606.359 506.862 605.961 506.762 605.562 506.658C605.163 506.545 604.795 506.398 604.457 506.216C604.128 506.034 603.859 505.796 603.651 505.501C603.452 505.198 603.352 504.803 603.352 504.318C603.352 503.867 603.469 503.456 603.703 503.083C603.946 502.702 604.314 502.398 604.808 502.173C605.302 501.939 605.935 501.822 606.706 501.822C607.217 501.822 607.724 501.896 608.227 502.043C608.73 502.182 609.163 502.377 609.527 502.628L609.202 503.395C608.812 503.135 608.396 502.944 607.954 502.823C607.521 502.702 607.1 502.641 606.693 502.641C606.147 502.641 605.696 502.715 605.341 502.862C604.986 503.009 604.721 503.209 604.548 503.46C604.383 503.703 604.301 503.98 604.301 504.292C604.301 504.647 604.401 504.933 604.6 505.15C604.808 505.367 605.077 505.536 605.406 505.657C605.744 505.778 606.112 505.887 606.511 505.982C606.91 506.077 607.304 506.181 607.694 506.294C608.093 506.407 608.457 506.554 608.786 506.736C609.124 506.909 609.393 507.143 609.592 507.438C609.8 507.733 609.904 508.118 609.904 508.595C609.904 509.037 609.783 509.449 609.54 509.83C609.297 510.203 608.925 510.506 608.422 510.74C607.928 510.965 607.291 511.078 606.511 511.078ZM616.459 511.078C615.783 511.078 615.133 510.97 614.509 510.753C613.894 510.528 613.417 510.242 613.079 509.895L613.456 509.154C613.777 509.466 614.206 509.73 614.743 509.947C615.289 510.155 615.861 510.259 616.459 510.259C617.031 510.259 617.495 510.19 617.85 510.051C618.214 509.904 618.478 509.709 618.643 509.466C618.816 509.223 618.903 508.955 618.903 508.66C618.903 508.305 618.799 508.019 618.591 507.802C618.392 507.585 618.127 507.416 617.798 507.295C617.469 507.165 617.105 507.052 616.706 506.957C616.307 506.862 615.909 506.762 615.51 506.658C615.111 506.545 614.743 506.398 614.405 506.216C614.076 506.034 613.807 505.796 613.599 505.501C613.4 505.198 613.3 504.803 613.3 504.318C613.3 503.867 613.417 503.456 613.651 503.083C613.894 502.702 614.262 502.398 614.756 502.173C615.25 501.939 615.883 501.822 616.654 501.822C617.165 501.822 617.672 501.896 618.175 502.043C618.678 502.182 619.111 502.377 619.475 502.628L619.15 503.395C618.76 503.135 618.344 502.944 617.902 502.823C617.469 502.702 617.048 502.641 616.641 502.641C616.095 502.641 615.644 502.715 615.289 502.862C614.934 503.009 614.669 503.209 614.496 503.46C614.331 503.703 614.249 503.98 614.249 504.292C614.249 504.647 614.349 504.933 614.548 505.15C614.756 505.367 615.025 505.536 615.354 505.657C615.692 505.778 616.06 505.887 616.459 505.982C616.858 506.077 617.252 506.181 617.642 506.294C618.041 506.407 618.405 506.554 618.734 506.736C619.072 506.909 619.341 507.143 619.54 507.438C619.748 507.733 619.852 508.118 619.852 508.595C619.852 509.037 619.731 509.449 619.488 509.83C619.245 510.203 618.873 510.506 618.37 510.74C617.876 510.965 617.239 511.078 616.459 511.078ZM622.442 511L626.602 501.9H627.551L631.711 511H630.697L626.875 502.459H627.265L623.443 511H622.442ZM624.08 508.569L624.366 507.789H629.657L629.943 508.569H624.08ZM635.166 511V501.9H635.959L642.238 509.804H641.822V501.9H642.771V511H641.978L635.712 503.096H636.128V511H635.166ZM647.692 511V501.9H651.397C652.367 501.9 653.217 502.095 653.945 502.485C654.681 502.866 655.253 503.399 655.661 504.084C656.068 504.769 656.272 505.557 656.272 506.45C656.272 507.343 656.068 508.131 655.661 508.816C655.253 509.501 654.681 510.038 653.945 510.428C653.217 510.809 652.367 511 651.397 511H647.692ZM648.654 510.168H651.345C652.151 510.168 652.848 510.012 653.438 509.7C654.036 509.379 654.499 508.942 654.829 508.387C655.158 507.824 655.323 507.178 655.323 506.45C655.323 505.713 655.158 505.068 654.829 504.513C654.499 503.958 654.036 503.525 653.438 503.213C652.848 502.892 652.151 502.732 651.345 502.732H648.654V510.168ZM660.382 511V501.9H663.788C664.559 501.9 665.222 502.026 665.777 502.277C666.331 502.52 666.756 502.875 667.051 503.343C667.354 503.802 667.506 504.361 667.506 505.02C667.506 505.661 667.354 506.216 667.051 506.684C666.756 507.143 666.331 507.499 665.777 507.75C665.222 507.993 664.559 508.114 663.788 508.114H660.915L661.344 507.672V511H660.382ZM666.596 511L664.256 507.698H665.296L667.649 511H666.596ZM661.344 507.75L660.915 507.295H663.762C664.672 507.295 665.361 507.096 665.829 506.697C666.305 506.298 666.544 505.739 666.544 505.02C666.544 504.292 666.305 503.729 665.829 503.33C665.361 502.931 664.672 502.732 663.762 502.732H660.915L661.344 502.277V507.75ZM670.27 511L674.43 501.9H675.379L679.539 511H678.525L674.703 502.459H675.093L671.271 511H670.27ZM671.908 508.569L672.194 507.789H677.485L677.771 508.569H671.908ZM688.347 511V501.9H691.753C692.524 501.9 693.187 502.026 693.742 502.277C694.297 502.52 694.721 502.875 695.016 503.343C695.319 503.802 695.471 504.361 695.471 505.02C695.471 505.661 695.319 506.216 695.016 506.684C694.721 507.143 694.297 507.499 693.742 507.75C693.187 507.993 692.524 508.114 691.753 508.114H688.88L689.309 507.672V511H688.347ZM694.561 511L692.221 507.698H693.261L695.614 511H694.561ZM689.309 507.75L688.88 507.295H691.727C692.637 507.295 693.326 507.096 693.794 506.697C694.271 506.298 694.509 505.739 694.509 505.02C694.509 504.292 694.271 503.729 693.794 503.33C693.326 502.931 692.637 502.732 691.727 502.732H688.88L689.309 502.277V507.75ZM700.55 505.969H705.36V506.788H700.55V505.969ZM700.654 510.168H706.127V511H699.692V501.9H705.932V502.732H700.654V510.168ZM710.338 511V501.9H711.3V511H710.338ZM718.72 511.078C718.044 511.078 717.394 510.97 716.77 510.753C716.154 510.528 715.678 510.242 715.34 509.895L715.717 509.154C716.037 509.466 716.466 509.73 717.004 509.947C717.55 510.155 718.122 510.259 718.72 510.259C719.292 510.259 719.755 510.19 720.111 510.051C720.475 509.904 720.739 509.709 720.904 509.466C721.077 509.223 721.164 508.955 721.164 508.66C721.164 508.305 721.06 508.019 720.852 507.802C720.652 507.585 720.388 507.416 720.059 507.295C719.729 507.165 719.365 507.052 718.967 506.957C718.568 506.862 718.169 506.762 717.771 506.658C717.372 506.545 717.004 506.398 716.666 506.216C716.336 506.034 716.068 505.796 715.86 505.501C715.66 505.198 715.561 504.803 715.561 504.318C715.561 503.867 715.678 503.456 715.912 503.083C716.154 502.702 716.523 502.398 717.017 502.173C717.511 501.939 718.143 501.822 718.915 501.822C719.426 501.822 719.933 501.896 720.436 502.043C720.938 502.182 721.372 502.377 721.736 502.628L721.411 503.395C721.021 503.135 720.605 502.944 720.163 502.823C719.729 502.702 719.309 502.641 718.902 502.641C718.356 502.641 717.905 502.715 717.55 502.862C717.194 503.009 716.93 503.209 716.757 503.46C716.592 503.703 716.51 503.98 716.51 504.292C716.51 504.647 716.609 504.933 716.809 505.15C717.017 505.367 717.285 505.536 717.615 505.657C717.953 505.778 718.321 505.887 718.72 505.982C719.118 506.077 719.513 506.181 719.903 506.294C720.301 506.407 720.665 506.554 720.995 506.736C721.333 506.909 721.601 507.143 721.801 507.438C722.009 507.733 722.113 508.118 722.113 508.595C722.113 509.037 721.991 509.449 721.749 509.83C721.506 510.203 721.133 510.506 720.631 510.74C720.137 510.965 719.5 511.078 718.72 511.078Z" fill="#283C57"/>
<path d="M115.07 66L126.252 41.5386H128.803L139.986 66H137.26L126.986 43.0413H128.034L117.761 66H115.07ZM119.473 59.4653L120.242 57.3686H134.464L135.233 59.4653H119.473ZM149.274 66V41.5386H158.429C160.503 41.5386 162.285 41.8764 163.776 42.552C165.267 43.2044 166.408 44.1595 167.2 45.4175C168.016 46.6522 168.423 48.1549 168.423 49.9254C168.423 51.6493 168.016 53.1403 167.2 54.3983C166.408 55.633 165.267 56.5882 163.776 57.2638C162.285 57.9161 160.503 58.2423 158.429 58.2423H150.706L151.86 57.0541V66H149.274ZM165.977 66L159.687 57.124H162.483L168.808 66H165.977ZM151.86 57.2638L150.706 56.0407H158.359C160.806 56.0407 162.658 55.5049 163.916 54.4333C165.197 53.3616 165.838 51.859 165.838 49.9254C165.838 47.9685 165.197 46.4542 163.916 45.3826C162.658 44.3109 160.806 43.7751 158.359 43.7751H150.706L151.86 42.552V57.2638ZM184.18 66V43.7751H175.583V41.5386H195.362V43.7751H186.766V66H184.18ZM207.041 52.4764H219.971V54.6779H207.041V52.4764ZM207.321 63.7635H222.033V66H204.735V41.5386H221.508V43.7751H207.321V63.7635ZM240.097 66.2097C238.28 66.2097 236.533 65.9185 234.855 65.336C233.201 64.7303 231.92 63.9616 231.011 63.0297L232.025 61.0378C232.887 61.8765 234.04 62.5871 235.484 63.1695C236.952 63.7286 238.49 64.0081 240.097 64.0081C241.635 64.0081 242.881 63.8218 243.836 63.449C244.815 63.053 245.525 62.5288 245.968 61.8765C246.434 61.2242 246.667 60.502 246.667 59.7099C246.667 58.7548 246.387 57.986 245.828 57.4036C245.292 56.8212 244.582 56.3669 243.696 56.0407C242.811 55.6913 241.833 55.3884 240.761 55.1322C239.689 54.8759 238.618 54.608 237.546 54.3284C236.475 54.0256 235.484 53.6295 234.576 53.1403C233.691 52.6511 232.968 52.0104 232.409 51.2184C231.873 50.403 231.606 49.343 231.606 48.0384C231.606 46.827 231.92 45.7204 232.549 44.7186C233.201 43.6936 234.191 42.8782 235.519 42.2725C236.847 41.6435 238.548 41.329 240.621 41.329C241.996 41.329 243.359 41.527 244.71 41.923C246.061 42.2958 247.226 42.82 248.204 43.4956L247.331 45.5573C246.282 44.8584 245.164 44.3459 243.976 44.0197C242.811 43.6936 241.681 43.5305 240.586 43.5305C239.119 43.5305 237.907 43.7285 236.952 44.1246C235.997 44.5206 235.286 45.0564 234.82 45.732C234.378 46.3843 234.157 47.1298 234.157 47.9685C234.157 48.9236 234.424 49.6924 234.96 50.2748C235.519 50.8573 236.242 51.3115 237.127 51.6377C238.035 51.9638 239.026 52.2551 240.097 52.5113C241.169 52.7676 242.229 53.0471 243.277 53.35C244.349 53.6528 245.327 54.0489 246.212 54.5381C247.121 55.004 247.843 55.633 248.379 56.4251C248.938 57.2172 249.218 58.2539 249.218 59.5352C249.218 60.7233 248.892 61.8299 248.239 62.855C247.587 63.8567 246.585 64.6721 245.234 65.3011C243.906 65.9068 242.194 66.2097 240.097 66.2097ZM276.788 53.3849H289.717V55.6214H276.788V53.3849ZM277.067 66H274.481V41.5386H291.255V43.7751H277.067V66ZM301.836 66V41.5386H304.422V66H301.836ZM328.351 66.2097C326.487 66.2097 324.763 65.9068 323.179 65.3011C321.618 64.6721 320.255 63.7985 319.091 62.6802C317.949 61.562 317.052 60.2458 316.4 58.7315C315.771 57.2172 315.456 55.5632 315.456 53.7693C315.456 51.9755 315.771 50.3214 316.4 48.8072C317.052 47.2929 317.961 45.9766 319.126 44.8584C320.29 43.7402 321.653 42.8782 323.214 42.2725C324.798 41.6435 326.522 41.329 328.386 41.329C330.25 41.329 331.95 41.6202 333.488 42.2026C335.049 42.785 336.377 43.6703 337.472 44.8584L335.864 46.5008C334.839 45.4758 333.709 44.7419 332.475 44.2993C331.24 43.8567 329.912 43.6353 328.491 43.6353C326.977 43.6353 325.579 43.8916 324.297 44.4041C323.039 44.8933 321.933 45.6039 320.978 46.5358C320.046 47.4443 319.312 48.516 318.776 49.7507C318.264 50.9621 318.007 52.3016 318.007 53.7693C318.007 55.2137 318.264 56.5533 318.776 57.788C319.312 59.0227 320.046 60.106 320.978 61.0378C321.933 61.9464 323.039 62.6569 324.297 63.1695C325.579 63.6587 326.965 63.9033 328.456 63.9033C329.854 63.9033 331.17 63.6936 332.405 63.2743C333.663 62.855 334.816 62.1444 335.864 61.1427L337.332 63.0996C336.167 64.1246 334.804 64.9051 333.243 65.4409C331.682 65.9534 330.052 66.2097 328.351 66.2097ZM334.851 62.7851V53.7693H337.332V63.0996L334.851 62.7851ZM349.892 66V41.5386H352.024L363.206 60.6185H362.088L373.166 41.5386H375.297V66H372.816V45.4175H373.41L363.206 62.8899H361.983L351.709 45.4175H352.373V66H349.892ZM384.595 66L395.778 41.5386H398.328L409.511 66H406.785L396.511 43.0413H397.56L387.286 66H384.595ZM388.998 59.4653L389.767 57.3686H403.99L404.758 59.4653H388.998Z" fill="#C54846"/>
<path d="M67.8083 316.169C58.0637 317.526 88.4463 309.6 120.67 315.534C153.353 321.552 161.265 263.465 143.575 275.307C125.884 287.149 92.948 268.926 88.4222 255.975C83.8964 243.023 77.5529 314.812 67.8083 316.169Z" fill="#88D2EF"/>
<path d="M104.346 267.371C106.759 268.691 105.8 273.527 104.089 274.553C102.379 275.579 98.446 274.04 93.5723 274.553C88.6986 275.066 89.955 304.644 89.5699 307.005C89.1847 309.366 83.7457 324.163 82.389 323.864C82.389 323.864 73.3897 329.696 76.8064 332.751C80.5902 336.134 82.2885 328.347 85.9292 327.268C89.5699 326.19 93.7237 310.256 95.1882 308.206C96.6527 306.155 96.3525 291.059 96.3525 291.059C96.3525 291.059 100.086 306.706 97.4498 326.19C94.8137 345.674 88.5126 347.2 78.3153 347.957C68.5682 349.753 90.6381 334.121 98.8356 334.876C110.359 334.34 112.943 346.162 128.59 346.162C144.237 346.162 149.964 337.954 148.854 333.337C147.497 327.694 140.695 325.562 133.977 324.872C126.079 324.061 124.481 329.963 117.047 332.751C117.047 332.751 113.933 335.539 106.499 332.751C99.0652 329.963 97.4678 324.061 89.5699 324.872C82.8513 325.562 76.0493 327.694 74.6926 333.337C73.5826 337.954 79.3097 346.162 94.9564 346.162C110.603 346.162 113.188 334.34 124.711 334.876C132.908 334.121 154.978 349.753 145.231 347.957C128.058 347.279 121.179 330.806 121.175 326.19M104.346 267.371C109.158 266.271 115.787 262.451 115.375 261.471C113.253 266.563 107.722 275.446 114.862 274.553C122.003 273.661 123.352 272.142 125.85 273.661C128.349 275.179 128.697 283.283 129.451 282.851C129.451 282.851 133.834 280.648 133.299 277.765C132.898 275.605 130.342 275.669 129.451 273.661C128.355 271.188 131.722 269.082 130.99 266.478C130.261 263.882 127.792 263.247 127.399 260.579C127.024 258.031 129.032 256.74 128.938 254.166C128.821 250.932 126.394 249.663 125.86 246.471C125.447 244.001 126.33 242.518 125.86 240.059C124.453 232.683 119.487 228.316 112.041 227.356C105.594 226.526 100.381 228.789 96.907 234.282C94.1572 238.629 91.991 243.483 95.368 247.364C99.9287 252.604 101.661 233.832 108.45 235.308C114.071 236.53 116.914 247.364 116.914 247.364C116.914 247.364 114.165 235.391 108.963 234.538C103.561 233.654 98.446 237.873 96.907 244.799C95.368 251.724 95.368 258.906 96.907 261.471C98.446 264.036 101.498 266.457 104.346 267.371Z" stroke="black" stroke-width="0.585802"/>
<path d="M121.175 326.483C117.984 308.059 120.464 286.699 120.464 286.699C120.464 286.699 124.696 298.241 125.337 302.088C125.979 305.936 126.312 305.937 126.312 304.911C126.312 303.884 117.001 292.086 114.386 288.751C111.771 285.416 106.1 283.185 106.1 288.494C106.1 291.059 105.619 284.269 112.127 294.138C118.636 304.007 122.73 310.754 129.955 313.375C137.113 316.626 128.672 275.844 125.337 274.297C122.003 272.75 118.151 275.098 114.694 274.297C114.694 274.297 112.769 274.13 111.999 273.361C111.23 272.591 113.204 271.822 113.025 272.848C112.846 273.873 113.025 274.9 113.025 274.9C113.879 282.401 112.815 286.513 111.486 293.881C111.486 293.881 105.074 303.628 105.33 301.32C105.587 299.011 105.057 296.455 102.765 295.677C100.993 295.074 98.9807 295.283 98.1479 296.959C97.3442 298.576 98.2237 300.261 99.6869 301.32C101.069 302.319 102.914 302.851 104.047 301.576C105.333 300.131 104.02 297.746 102.252 296.959C101.059 296.428 99.5974 296.1 98.9174 297.216C98.2395 298.327 99.2137 299.443 100.2 300.294C101.719 301.603 104.092 301.615 105.33 300.037C106.699 298.293 105.447 295.772 103.534 294.651C102.065 293.789 99.1739 294.651 99.1739 294.651L106.613 289.777C106.613 289.777 104.31 291.549 103.278 291.059C102.424 290.654 102.343 288.884 101.482 288.494C100.215 287.92 100.721 290.345 99.3646 290.033C97.8366 289.682 96.6089 286.955 96.6089 286.955L97.6349 289.777C97.6349 289.777 90.9658 297.216 91.9918 295.933C93.0178 294.651 92.5483 291.199 90.4528 290.29C88.848 289.594 86.6326 289.652 86.0922 291.316C85.6354 292.723 86.6279 293.876 87.8878 294.651C88.758 295.186 89.5542 295.649 90.4528 295.164C91.8208 294.424 90.6489 292.278 89.4268 291.316C88.1672 290.325 86.347 290.083 85.3227 291.316C84.1458 292.732 85.5987 294.636 87.1183 295.677C88.369 296.533 89.6918 297.011 90.9658 296.19C92.7517 295.038 91.5707 292.424 90.1963 290.803C89.1822 289.607 86.6052 289.007 86.6052 289.007L94.8134 284.647C97.4959 285.634 98.1526 286.353 99.8266 288.948C98.1075 286.366 98.1845 285.274 95.2095 284.075C95.2095 284.075 97.8258 282.55 99.1739 283.108C100.027 283.461 99.8254 284.905 100.713 285.16C101.695 285.442 101.482 284.39 102.765 284.647C104.047 284.903 104.047 286.442 104.561 286.699C105.074 286.955 105.33 286.699 105.33 286.699C105.33 286.699 107.895 283.3 110.973 285.416C114.051 287.532 114.051 287.211 114.051 287.211L115.59 285.16C115.59 285.16 114.648 283.42 113.242 282.594C111.836 281.768 109.434 283.108 109.434 283.108C109.434 283.108 108.508 280.961 107.126 280.542C105.79 280.138 104.047 281.312 104.047 281.312C104.047 281.312 102.94 280.061 101.995 280.03C101.1 280.001 99.9434 281.056 99.9434 281.056L95.0699 283.621C98.0207 279.349 99.9181 277.071 104.047 273.361" stroke="black" stroke-width="0.585802"/>
<path d="M438.454 307.871C438.454 342.463 418.215 322.168 393.248 322.168C368.282 322.168 348.042 342.463 348.042 307.871C348.042 273.279 368.282 255.449 393.248 255.449C438.454 255.449 463.371 325.981 438.454 307.871Z" fill="#CBAFED"/>
<path d="M383.67 275.349C383.421 277.956 381.485 281.164 379.048 280.206C377.195 279.478 376.719 277.511 376.994 275.539C377.397 272.657 380.786 270.176 383.321 271.603M383.321 271.603C385.057 272.58 385.707 274.307 385.375 276.27C384.995 278.522 380.985 280.134 380.985 280.134C380.985 280.134 377.708 277.779 378.445 276.052C378.962 274.843 380.225 273.522 381.303 274.274C381.303 274.274 382.082 274.936 382.065 275.499C382.038 276.343 380.653 275.912 380.228 276.642C379.425 278.021 382.386 280.111 382.386 280.111C391.402 281.756 400.71 286.382 402.826 289.76C404.942 293.138 405.883 294.641 405.883 300.105C405.883 305.569 402.826 309.239 402.826 309.239C402.826 309.239 400.485 304.67 400.447 301.514C400.388 296.585 405.883 290.123 405.883 290.123L414.243 276.713C414.243 276.713 416.016 281.442 419.948 277.694C424.435 273.417 421.164 268.727 419.604 271.68C418.044 274.632 423.563 274.298 425.673 269.603C427.792 264.886 426.177 259.947 424.435 264.428C422.693 268.909 430.151 266.164 429.415 258.782C428.744 252.039 423.239 251.584 423.511 255.661C423.782 259.738 430.203 256.378 428.441 249.48C426.474 241.777 416.659 242.372 420.446 247.094C424.232 251.816 426.759 242.909 419.621 239.397C414.243 236.751 407.516 240.416 412.609 241.777C417.702 243.139 414.243 236.751 408.546 235.246C402.85 233.742 400.237 236.452 404.21 237.377C408.183 238.303 407.684 232.432 399.453 233.826C397.99 234.073 394.555 236.873 397.026 236.751C399.498 236.628 397.026 231.615 390.305 234.138C385.375 235.988 387.025 242.972 389.248 240.174C391.471 237.376 386.307 236.751 382.418 241.026C379.509 244.223 379.596 250.141 382.48 247.498C385.365 244.854 377.894 243.689 376.097 250.269C374.624 255.661 380.062 258.627 379.713 254.881C379.364 251.135 368.061 257.213 375.462 264.886C377.47 266.967 385.3 263.861 382.474 262.505C379.649 261.149 373.916 269.468 380.996 270.421C388.077 271.374 393.115 281.09 393.932 276.052C394.749 271.014 380.228 278.766 377.376 285.675C376.365 288.122 376.577 290.49 377.419 291.694C377.784 292.216 378.154 292.643 378.546 293.059M383.321 271.603C383.321 271.603 391.281 266.652 400.447 270.009C409.613 273.366 415.132 278.142 415.132 278.142C415.132 278.142 411.856 287.422 411.175 293.625C409.824 305.936 419.266 322.104 418.883 334.483C410.956 353.614 379.184 348.905 374.377 350.828C369.569 352.751 369.059 338.809 369.171 336.646C369.283 334.483 378.22 315.986 373.212 311.647C373.212 311.647 365.199 306.022 364.112 300.513C363.366 296.731 362.206 288.667 365.437 290.73C368.667 292.794 375.555 296.065 376.097 294.817C376.639 293.569 375.005 291.694 375.005 291.694M379.048 308.518C379.048 308.518 381.626 296.023 380.228 294.817C379.606 294.126 379.058 293.602 378.546 293.059M379.048 308.518C379.048 308.518 387.619 318.618 389.234 318.614C390.848 318.609 396.893 310.365 399.089 310.681C401.285 310.997 401.649 318.132 400.447 322.7C399.148 327.639 393.735 328.544 392.442 333.04M379.048 308.518C379.048 308.518 379.182 337.612 380.228 339.05M380.228 339.05C381.273 340.488 380.844 340.973 380.228 339.05ZM380.228 339.05C379.612 337.127 405.883 331.117 405.883 331.117M375.005 291.694C375.005 291.694 375.282 291.453 376.097 291.694C376.912 291.935 378.546 293.059 378.546 293.059M375.005 291.694C375.005 291.694 372.418 280.497 371.465 280.206C370.512 279.916 361.525 283.177 360.845 284.266C360.164 285.355 360.845 286.717 360.845 286.717C360.845 286.717 367.516 283.449 368.061 284.811C368.606 286.172 368.333 286.717 369.15 288.122L368.606 288.667C368.606 288.667 368.47 288.035 367.244 286.717C366.019 285.399 360.028 288.122 359.211 289.62C358.394 291.118 360.028 292.478 359.211 292.75C358.394 293.022 357.849 293.022 356.624 293.567C355.398 294.112 356.351 292.67 355.534 291.694C354.717 290.718 352.266 292.242 351.586 293.059C350.905 293.876 354.581 303.203 355.807 303.519C357.032 303.835 359.211 302.992 359.211 302.011C359.211 301.029 355.126 294.52 356.624 294.52C358.121 294.52 359.211 293.567 359.211 293.567C359.314 295.53 359.973 297.042 360.845 299.015C360.845 299.015 359.493 299.702 358.802 299.696L359.211 300.513C359.211 300.513 360.572 299.696 361.253 299.696C361.934 299.696 361.798 302.555 362.615 302.691C363.432 302.828 364.657 302.011 364.657 302.011" stroke="black" stroke-width="0.544647"/>
<path d="M293.769 321.588C280.843 320.52 255.809 365.453 248.598 359.374C223.65 359.374 234.448 339.577 203.426 321.588C211.051 304.725 231.801 300.912 242.067 279.365C252.333 257.818 306.694 322.656 293.769 321.588Z" fill="#FFBD97"/>
<path d="M241.919 345.565C241.919 345.565 237.507 330.347 239.934 329.906C242.36 329.464 241.588 342.918 243.573 345.565C245.558 348.212 277.364 348.653 278.798 345.565C280.231 342.477 279.965 332.552 276.877 329.906C273.789 327.259 244.234 329.906 244.234 329.906M241.036 345.565C241.066 345.588 241.095 345.61 241.125 345.632M233.648 314.467C233.648 314.467 236.184 316.01 238.059 316.01C239.934 316.01 237.918 303.382 241.919 297.263C245.92 291.144 249.574 310.421 247.653 316.01C245.733 321.6 277.025 320.219 278.798 317.426C280.571 314.632 278.515 309.655 277.266 305.534M233.648 314.467C233.648 314.467 236.184 294.506 239.051 290.867M233.648 314.467L232.655 319.98M239.051 290.867C241.919 287.228 269.047 289.874 271.694 292.3C273.191 293.673 275.64 300.169 277.266 305.534M239.051 290.867L233.648 280.39L239.051 277.082L247.126 286.037C252.215 285.933 257.759 286.402 262.785 286.908L263.963 276.31M239.051 290.867L229.687 286.384C229.687 286.384 229.639 286.568 229.553 286.908M239.051 290.867C250.937 290.867 261.095 284.619 263.963 276.31M269.249 280.39L263.963 276.31M269.249 280.39C269.249 280.39 266.982 293.403 267.944 293.403C268.907 293.403 281.278 316.404 275.443 327.369C275.443 327.369 276.811 340.638 276.105 346.558C275.403 352.451 247.897 350.654 241.125 345.632M269.249 280.39C269.249 280.39 270.357 280.98 271.344 282.524C272.331 284.068 277.266 305.534 277.266 305.534M263.963 276.31C263.963 276.31 254.757 272.101 253.434 270.557M232.655 319.98C232.655 319.98 225.928 319.098 224.384 316.01C223.855 314.953 224.311 311.142 225.139 306.589M232.655 319.98C232.655 319.98 232.8 320.811 231.001 322.517C229.028 324.388 225.655 326.398 224.384 324.722C216.775 314.687 216.139 295.829 213.687 293.403C211.235 290.977 207.418 291.175 205.637 287.779C203.549 283.798 206.629 276.31 206.629 276.31M232.655 319.98C229.958 337.925 232.168 343.472 241.125 345.632M206.629 276.31C206.629 276.31 207.842 282.817 209.938 282.817C212.033 282.817 212.878 279.64 214.9 280.39C217.642 281.407 211.518 285.819 213.687 287.779C217.31 291.052 221.852 307.38 220.304 309.504C218.756 311.628 225.139 306.589 225.139 306.589M206.629 276.31C206.629 276.31 205.658 270.465 204.47 266.477C203.137 262.004 197.743 261.735 196.419 259.86C195.096 257.985 211.717 248.078 229.687 247.713M253.434 270.557C253.434 270.557 272.489 266.643 273.734 253.574C274.937 240.95 270.059 234.785 259.453 227.833C249.277 221.163 232.654 224.072 228.511 235.942C226.259 242.392 229.687 247.713 229.687 247.713M253.434 270.557C253.434 270.557 247.251 271.618 244.176 269.686C241.93 268.274 240.571 267.039 239.934 264.382C239.296 261.724 239.58 258.998 237.994 256.772C235.694 253.544 232.274 250.817 232.274 250.817M232.274 250.817C232.274 250.817 233.887 254.536 233.648 255.822C232.796 260.407 235.017 265.457 236.561 267.663C236.561 267.663 239.991 271.734 241.691 270.557C243.117 269.57 242.999 269.686 242.999 269.686L245.227 273.443C245.227 273.443 231.653 281.147 230.67 282.817C229.687 284.486 229.553 286.908 229.553 286.908M232.274 250.817C232.274 250.817 230.57 249.029 229.687 247.713M225.139 306.589C226.527 298.961 228.959 289.248 229.553 286.908" stroke="black" stroke-width="0.674202"/>
<path d="M380.63 489.263C380.63 489.263 359.481 485.265 349.075 477.143C322.018 456.021 349.075 401.211 344.971 389.343C340.866 377.474 392.687 364.879 402.965 395.08C413.243 425.282 423.404 412.25 413.972 432.3C404.835 451.723 380.63 489.263 380.63 489.263Z" fill="#FFBD97"/>
<path d="M263.451 407.025C254.697 404.26 246.101 398.07 239.944 407.025C233.787 415.98 235.84 438.741 217.183 441.539C198.527 444.337 219.029 483.401 212.426 488.553C205.822 493.705 271.815 504.107 281.454 488.553C286.647 480.174 275.858 461.595 285.559 463.647C295.26 465.699 286.087 414.173 263.451 407.025Z" fill="#88D2EF"/>
<path d="M108.194 423.345C120.373 465.062 137.205 412.338 157.26 415.789C177.316 419.24 177.969 505.62 163.417 487.616C148.865 469.613 79.7721 508.075 83.381 493.773C86.9899 479.47 96.0147 381.627 108.194 423.345Z" fill="#CBAFED"/>
<path d="M386.174 487.15H403.431L389.625 512.616H363.599L349.421 487.15H375.353C375.353 487.15 344.01 467.561 344.01 464.202C344.01 460.844 351.939 455.994 351.939 455.994H344.01L351.939 453.941L344.01 443.587L352.965 451.516L354.831 445.639V453.941C354.831 453.941 361.639 445.639 364.905 445.639C368.172 445.639 372.275 460.471 372.275 460.471C372.275 460.471 367.334 425.024 369.756 422.692C372.178 420.36 378.058 420.546 378.058 420.546C378.058 420.546 362.48 407.394 362.48 403.942C362.48 400.491 369.756 396.946 369.756 396.946L363.32 394.334H369.756L366.958 386.498L372.275 392.282L375.353 388.551V394.334C375.353 394.334 380.328 389.857 383.779 391.256C387.231 392.655 386.64 417.095 386.64 417.095H383.779C383.779 417.095 387.697 398.159 390.682 397.879C393.667 397.599 397.088 400.491 397.088 400.491L396.715 396.48L398.58 400.491L402.218 396.946L400.259 401.424L403.524 402.077L400.259 402.823C400.259 402.823 408.282 406.461 407.722 410.192C407.162 413.923 386.64 421.852 386.64 421.852C386.64 421.852 407.815 427.263 407.069 431.367C406.323 435.472 372.275 468.68 372.275 468.68L373.674 462.617L381.696 487.15" stroke="black" stroke-width="0.932821"/>
<path d="M145.786 488.388L139.723 512.642H116.589L108.94 488.388H127.69C111.819 479.885 102.873 476.235 86.7388 473.836C86.7388 473.836 115.062 462.279 116.589 473.836C117.194 478.41 113.417 485.217 113.417 485.217C108.592 459.065 103.849 446.74 92.0558 428.594C92.0558 428.594 107.07 435.565 113.417 443.52C122.231 454.566 126.943 478.407 126.943 478.407C126.943 478.407 126.427 443.646 139.723 428.594C149.877 417.1 162.95 420.572 162.95 420.572C142.351 447.183 143.658 453.189 137.298 484.097C137.298 484.097 133.514 479.813 133.287 476.448C133.074 473.31 134.438 471.631 135.805 468.799C140.737 458.582 148.569 455.374 159.312 451.728C166.24 449.377 177.875 449.21 177.875 449.21C157.659 460.094 147.324 467.208 137.298 488.388H145.786Z" stroke="black" stroke-width="0.932821"/>
<path d="M249.897 489.752H233.939L243.789 512.704H259.354L267.629 489.752H252.951V478.423M249.897 489.752C249.897 489.752 246.143 478.354 239.948 475.96C235.857 474.38 232.758 474.254 228.718 475.96C223.614 478.116 220.049 487.19 220.049 487.19M249.897 489.752C249.897 489.752 246.235 480.025 243.888 473.793M220.049 487.19C220.049 487.19 218.597 474.379 223.989 470.247C230.254 465.445 239.668 467.123 243.888 473.793M220.049 487.19C220.049 487.19 211.874 473.14 216.601 466.405C222.944 457.369 242.971 462.792 243.888 473.793M252.951 478.423C261.319 470.691 266.308 468.339 275.706 467.39C274.756 466.887 264.009 463.474 260.142 467.39M252.951 478.423C252.951 478.423 256.377 469.763 260.142 467.39M252.951 478.423C252.951 478.423 251.988 470.813 260.142 467.39M252.951 478.423V460.396M252.951 478.423C252.951 478.423 252.59 468.451 249.849 459.094M260.142 467.39C263.326 466.054 257.969 462.676 249.849 459.094M252.951 460.396C261.402 448.969 270.156 441.206 284.868 436.655C284.422 436.556 267.76 434.233 261.127 440.399C254.947 446.143 252.951 460.396 252.951 460.396ZM252.951 460.396L252.261 446.999M252.261 446.999C252.261 446.999 253.951 435.924 252.261 429.169C251.348 425.516 248.715 420.204 248.715 420.204C248.715 420.204 249.269 425.682 249.798 429.169C250.868 436.211 253.64 446.999 253.64 446.999C253.64 446.999 260.594 436.566 260.142 429.169C259.562 419.69 246.449 409.073 246.449 409.073C246.449 409.073 235.516 426.911 240.637 436.655C243.464 442.034 252.261 446.999 252.261 446.999ZM249.849 459.094C248.263 453.68 245.42 448.954 242.312 445.521C235.378 437.863 214.343 446.362 213.607 447.816C218.84 444.871 238.388 450.615 249.849 459.094Z" stroke="black" stroke-width="0.984204"/>
<path d="M470 271H506V489H470" stroke="#E5B89F" stroke-width="2.5"/>
<path d="M555 152H532V237H555" stroke="#E5B89F" stroke-width="2.5"/>
<path d="M430 121H448V171H430" stroke="#E5B89F" stroke-width="2.5"/>
<path d="M700.61 129.909L711.954 172.841L698.88 177.59C698.88 177.59 695.954 181.391 692.151 185.759C685.037 193.927 677.347 195.364 677.347 195.364C677.347 195.364 675.332 197.938 674.144 198.676C662.158 206.124 635.465 207.367 635.884 209.124L630.435 215.013C630.435 215.013 631.244 222.298 630.435 226.601C630.267 227.491 629.089 227.551 629.089 227.551L633.319 237.999C633.786 241.462 632.742 246.927 632.742 246.927C633.355 246.387 631.471 254.9 627.166 255.095C623.945 255.241 622.744 247.497 622.744 247.497C622.744 247.497 620.291 247.05 617.938 246.072C614.099 244.477 612.939 236.764 612.939 236.764C612.939 236.764 613.167 242.393 611.401 244.268C608.538 247.307 605.393 246.072 605.393 246.072C603.422 245.59 602.557 243.318 602.557 243.318L590.252 253.576L586.984 255.855L587.286 255.461C587.619 254.956 587.943 254.146 586.599 254.146C584.648 254.146 572.372 245.597 573.333 243.318C573.333 243.318 574.787 238.704 576.41 236.099C578.009 233.532 579.706 232.254 581.458 230.21C581.458 230.21 575.06 226.309 573.333 222.232C566.576 206.275 561.029 196.207 561.029 196.207C560.067 191.268 583.715 158.784 583.715 158.784C583.715 158.784 584.484 149.476 590.252 146.056C596.02 142.637 630.088 147.31 655.044 143.017C667.209 140.924 674.135 139.782 685.806 135.798C691.697 133.788 700.61 129.909 700.61 129.909Z" fill="#F7C2B4"/>
<path d="M585.417 216.152L590.224 219.572L615.602 192.977C615.602 192.977 616.553 190.832 616.756 189.367C616.919 188.191 617.051 187.478 616.756 186.328C616.218 184.238 613.103 182.149 613.103 182.149L607.527 172.651C607.527 172.651 606.49 176.417 604.835 178.16C601.5 181.673 592.531 180.249 592.531 180.249C592.531 180.249 591.818 185.073 590.224 187.658C587.427 192.191 578.688 195.066 578.688 195.066C578.688 195.066 583.404 201.729 584.648 206.654C585.56 210.265 585.417 216.152 585.417 216.152Z" fill="#D88D78"/>
<path d="M585.417 216.152L590.224 219.572L591.185 218.564L586.378 215.582C586.378 215.582 586.317 210.046 585.417 206.654C584.182 202.001 579.842 195.636 579.842 195.636C579.842 195.636 588.421 192.85 591.185 188.418C592.792 185.84 593.492 181.009 593.492 181.009C593.492 181.009 604.262 182.471 608.085 179.299C610.603 177.21 608.085 173.6 608.085 173.6L607.527 172.651C607.527 172.651 606.49 176.037 604.835 177.78C601.5 181.293 592.531 179.869 592.531 179.869C592.531 179.869 591.434 184.693 589.839 187.278C587.042 191.811 578.688 195.066 578.688 195.066C578.688 195.066 583.404 201.729 584.648 206.654C585.56 210.265 585.417 216.152 585.417 216.152Z" fill="#BF7759"/>
<path d="M606.181 184.999L603.681 180.25C603.681 180.25 600.844 189.645 597.914 192.977C595.697 195.497 590.992 198.106 590.992 198.106C590.992 198.106 595.024 198.47 596.375 200.956C597.727 203.441 597.914 210.834 597.914 210.834C597.914 210.834 599.227 207.691 599.259 203.805C599.274 202.017 597.52 199.623 597.914 198.106C599.43 192.264 606.181 184.999 606.181 184.999Z" fill="#BC775A"/>
<path d="M606.565 222.232C604.066 220.163 602.528 215.013 602.528 215.013C602.528 215.013 606.444 217.714 608.68 219.762C610.706 221.618 613.487 224.891 613.487 224.891C613.487 224.891 608.789 224.072 606.565 222.232Z" fill="#D2A393"/>
<path d="M605.027 246.167C603.574 245.662 602.528 243.318 602.528 243.318C602.528 243.318 615.602 229.26 623.869 220.142C632.136 211.024 630.982 215.013 630.982 215.013V225.081C630.982 225.081 631.009 227.211 630.021 227.551C629.596 227.697 628.868 227.551 628.868 227.551C628.868 227.551 632.299 233.074 633.097 237.049C633.813 240.615 633.097 246.357 633.097 246.357C633.097 246.357 631.403 255.725 627.33 255.095C623.933 254.57 622.715 247.687 622.715 247.687C622.715 247.687 618.559 247.001 616.563 245.217C614.018 242.944 612.91 237.049 612.91 237.049C612.91 237.049 612.91 241.798 611.756 243.698C610.603 245.597 607.501 247.028 605.027 246.167Z" fill="#D88D78"/>
<path d="M583.987 233.249C583.987 233.249 572.151 242.246 572.151 245.253C572.151 248.26 583.268 257.751 587.513 255.777C591.757 253.804 597.529 242.646 597.529 242.646L583.987 233.249Z" fill="#FCDED3"/>
<rect width="14.6791" height="55.4455" transform="matrix(0.95854 -0.284958 0.29131 0.956629 691.109 126.985)" fill="#E5E5E5"/>
<path d="M697.116 123.026L742.611 104L742.612 166.997L714.598 180.435L697.116 123.026Z" fill="#2E3A49"/>
<path d="M726.344 167.902C726.344 169.79 724.795 171.321 722.884 171.321C720.972 171.321 719.423 169.79 719.423 167.902C719.423 166.013 720.972 164.482 722.884 164.482C724.795 164.482 726.344 166.013 726.344 167.902Z" fill="#E5E5E5"/>
<path d="M581.255 230.079C584.724 225.768 586.682 223.437 590.234 219.678L588.067 218.148C588.067 218.148 587.798 219.617 586.519 221.207C584.349 223.905 578.159 227.632 578.159 227.632L581.255 230.079Z" fill="#F5B4A5"/>
<path d="M684.978 188.473C688.617 185.147 690.551 177.076 690.551 177.076C690.551 177.076 686.718 184.833 682.995 188.473C680.302 191.105 676.618 196.122 676.618 196.122C676.618 196.122 681.623 191.54 684.978 188.473Z" fill="#D39878"/>
<path d="M600.761 244.764L589.962 305.462H593.01H596.539L607.882 237.421L600.761 244.764Z" fill="#0C1636"/>
<path d="M569.841 333.041C569.841 345.193 579.787 355.074 592.094 355.074C604.401 355.074 614.347 345.193 614.347 333.041C614.347 320.89 604.401 311.009 592.094 311.009C579.787 311.009 569.841 320.89 569.841 333.041Z" fill="#FFD174" stroke="#F8BC44" stroke-width="3.8527"/>
<path d="M573.168 333.058C573.168 322.703 581.641 314.308 592.093 314.308C602.545 314.308 611.019 322.703 611.019 333.058" stroke="#ECA020" stroke-width="0.770541"/>
<path d="M573.168 333.059C573.168 343.414 581.641 351.809 592.093 351.809C602.545 351.809 611.019 343.414 611.019 333.059" stroke="#FEE36E" stroke-width="0.770541"/>
<rect width="4.08751" height="24.2321" transform="matrix(-1 0 0 1 593.886 318.509)" fill="#FEAE00"/>
<rect width="3.4652" height="11.975" transform="matrix(-0.933164 -0.359451 -0.367031 0.930209 602.204 327.203)" fill="#FEAE00"/>
<rect width="3.53806" height="12.0439" transform="matrix(0.933164 -0.359451 0.367031 0.930209 581.933 322.076)" fill="#FEAE00"/>
<rect width="4.552" height="3.21258" transform="matrix(-1 0 0 1 597.789 335.122)" fill="#FEAE00"/>
<rect width="4.08751" height="3.21258" transform="matrix(-1 0 0 1 590.449 330.074)" fill="#FEAE00"/>
<path d="M593.843 343.292H589.755L590.876 345.77H592.722L593.843 343.292Z" fill="#FEAE00"/>
<path d="M591.845 347.605L591.322 346.298H592.368L591.845 347.605Z" fill="#FEAE00"/>
<rect x="-0.642118" y="0.642118" width="14.5473" height="4.93174" rx="0.642118" transform="matrix(-1 0 0 1 598.432 305.497)" stroke="#F8BC44" stroke-width="1.28424" stroke-linecap="round" stroke-linejoin="round"/>
<path d="M593.949 215.394L595.239 307.511H587.514L586.209 223.654L593.949 215.394Z" fill="#1B3172"/>
<path d="M373.14 178.401C357.714 178.357 344.542 157.349 338.935 146.881C337.095 143.447 337.872 139.279 340.635 136.531L366.691 110.624C370.371 106.966 376.319 106.983 379.977 110.662L405.885 136.718C408.632 139.482 409.385 143.654 407.525 147.078C401.858 157.513 388.565 178.446 373.14 178.401Z" fill="#9AEF92"/>
<path d="M407.583 159.434C413.731 153.9 379.749 120.381 365.734 122.327C351.72 124.274 337.89 142.528 352.109 152.887C365.734 162.814 401.436 164.969 407.583 159.434Z" fill="#FA7822"/>
<path d="M352.178 111.709C357.239 111.709 354.708 127.476 354.124 127.865C353.54 128.254 351.235 130.496 349.375 133.12C349.375 133.12 330.312 135.448 333.291 130.006C335.393 126.167 343.802 126.113 343.802 126.113C343.802 126.113 342.726 122.994 343.95 121.442C345.502 119.471 350.373 121.442 350.373 121.442C350.373 121.442 347.117 111.709 352.178 111.709Z" fill="#5CAD2B"/>
<path d="M352.646 111.904C357.161 111.904 354.903 125.721 354.382 126.062C353.861 126.403 351.179 128.879 349.519 131.179C349.519 131.179 332.792 134.242 335.451 129.473C337.327 126.109 344.83 126.062 344.83 126.062C344.83 126.062 343.738 122.987 344.83 121.627C346.215 119.9 350.561 121.627 350.561 121.627C350.561 121.627 348.13 111.904 352.646 111.904Z" fill="#6CBD36"/>
<ellipse cx="0.973237" cy="1.94647" rx="0.973237" ry="1.94647" transform="matrix(-1 0 0 1 354.241 113.072)" fill="#80CD44"/>
<ellipse cx="0.778589" cy="0.973237" rx="0.778589" ry="0.973237" transform="matrix(-1 0 0 1 346.844 122.025)" fill="#80CD44"/>
<ellipse cx="1.55718" cy="0.973237" rx="1.55718" ry="0.973237" transform="matrix(-1 0 0 1 340.615 128.644)" fill="#80CD44"/>
<path d="M397.852 144.952C397.852 144.952 395.639 147.636 394.8 149.66C394.104 151.338 393.685 154.176 393.685 154.176C393.685 154.176 395.506 151.807 396.336 150.354C397.166 148.902 397.852 144.952 397.852 144.952Z" fill="#F96716"/>
<path d="M356.976 133.273C356.976 133.273 354.763 135.957 353.924 137.981C353.228 139.659 352.809 142.497 352.809 142.497C352.809 142.497 354.661 140.306 355.46 138.675C356.425 136.708 356.976 133.273 356.976 133.273Z" fill="#F96716"/>
<path d="M377.22 150.013C377.22 150.013 375.007 152.697 374.168 154.721C373.472 156.399 373.052 159.237 373.052 159.237C373.052 159.237 374.904 157.046 375.704 155.415C376.668 153.448 377.22 150.013 377.22 150.013Z" fill="#F96716"/>
<path d="M385.785 145.474C385.785 145.474 391.419 135.846 391.419 135.651C391.419 135.456 391.66 135.763 391.808 135.846C392.592 136.282 393.493 137.407 393.493 137.407L385.785 145.474Z" fill="#F96716"/>
<path d="M362.009 138.248L373.206 123.809C373.206 123.809 373.177 123.634 373.916 124.078C379.903 127.676 362.009 138.248 362.009 138.248Z" fill="#F96716"/>
<path d="M364.473 142.35L355.618 155.105L353.267 153.753L364.473 142.35Z" fill="#F96716"/>
<path d="M401.929 152.196C407.318 147.344 378.206 120.708 365.919 122.415C353.632 124.121 341.394 141.101 351.71 146.746C363.656 155.449 396.539 157.048 401.929 152.196Z" fill="#F9C643" fill-opacity="0.17"/>
<ellipse cx="1.94647" cy="1.75183" rx="1.94647" ry="1.75183" transform="matrix(-1 0 0 1 385.773 134.094)" fill="#FAD168" fill-opacity="0.48"/>
<path d="M380.891 133.196C382.66 131.369 373.901 125.859 370.689 125.208C367.478 124.556 365.336 123.778 364.752 124.751C364.168 125.724 365.726 128.11 368.974 128.11C372.222 128.11 379.122 135.022 380.891 133.196Z" fill="#FFD362" fill-opacity="0.47"/>
<path d="M258.408 178.401C242.983 178.357 229.81 157.349 224.203 146.881C222.363 143.447 223.14 139.279 225.903 136.531L251.96 110.624C255.639 106.966 261.587 106.983 265.246 110.662L291.153 136.718C293.901 139.482 294.654 143.654 292.794 147.078C287.127 157.513 273.834 178.446 258.408 178.401Z" fill="#94687A"/>
<path d="M284.825 120.729C284.773 119.969 284.023 119.144 283.583 118.722C283.483 118.626 283.328 118.717 283.354 118.853C283.449 119.357 283.587 120.213 283.553 120.801C283.505 121.626 282.966 122.504 282.55 123.067C282.454 123.196 282.6 123.375 282.737 123.292C283.579 122.781 284.899 121.803 284.825 120.729Z" fill="#6D8026"/>
<path d="M264.725 164.622C257.542 169.503 245.258 175.383 232.481 161.992C226.648 153.408 227.838 147.667 235.484 139.985C240.272 137.436 244.131 137.918 250.883 138.263C277.532 135.219 270.214 113.918 283.803 125.673C293.216 133.816 271.909 159.741 264.725 164.622Z" fill="#94A62E"/>
<path d="M261.885 160.453C254.7 165.335 242.571 171.448 231.199 160.127C226.166 152.72 227.671 147.44 235.477 139.99C240.221 137.375 243.882 137.566 250.321 137.447C276.014 132.989 270.914 115.329 283.167 125.116C291.655 131.896 269.069 155.572 261.885 160.453Z" fill="#B3BE34"/>
<path d="M246.722 156.396C251.876 158.657 259.668 152.347 263.102 149.197C263.237 149.073 263.417 149.239 263.296 149.375C260.161 152.91 252.712 160.124 245.466 158.307C242.01 157.441 238.106 160.82 237.537 159.622C237.521 159.59 237.52 159.555 237.534 159.522C237.777 158.959 240.296 153.578 246.722 156.396Z" fill="#95A72D"/>
<path d="M247.694 150.178C248.648 151.582 252.905 150.556 255.147 149.895C255.452 149.805 255.662 150.184 255.409 150.378C253.502 151.84 249.682 154.335 247.896 152.419C247.544 152.041 247.518 151.506 247.036 151.153C245.287 149.875 246.384 148.249 247.694 150.178Z" fill="#94A630"/>
<path d="M241.462 141.913C239.662 142.46 237.625 144.003 236.331 145.103C236.194 145.219 236.341 145.404 236.491 145.308C237.77 144.489 239.649 143.371 241.187 142.804C242.542 142.305 244.435 141.937 245.746 141.721C245.92 141.693 245.907 141.454 245.731 141.454C244.483 141.451 242.726 141.529 241.462 141.913Z" fill="#95A42D"/>
<path d="M234.413 142.882C235.509 141.498 236.887 140.329 239.117 139.63C244.417 137.966 236.965 141.245 235.802 141.882C235.321 142.146 234.856 142.489 234.413 142.882C232.904 144.787 231.931 147.102 230.006 149.167C230.006 149.167 231.832 145.173 234.413 142.882Z" fill="#DFE431"/>
<path d="M256.352 139.195C254.403 139.762 251.758 139.917 249.743 139.941C249.39 139.945 249.336 140.42 249.683 140.476C251.921 140.839 255.001 141.128 257.253 140.521C260.598 139.619 263.967 136.237 266.03 133.819C266.26 133.548 265.905 133.219 265.635 133.45C263.29 135.455 259.614 138.246 256.352 139.195Z" fill="#DFE431"/>
<path d="M270.812 124.436C266.833 122.04 278.534 120.411 282.579 122.696C286.942 125.161 289.304 139.146 286.768 134.825C285.363 132.432 283.861 128.343 283.861 128.343C283.861 128.343 282.831 132.443 281.124 131.964C279.48 131.504 280.319 127.667 280.319 127.667C280.319 127.667 273.982 133.455 273.21 130.559C272.599 128.263 276.866 125.697 276.866 125.697C276.866 125.697 272.881 125.682 270.812 124.436Z" fill="#6D8026"/>
<path d="M272.891 123.851C269.437 121.575 279.212 120.664 282.716 122.846C286.497 125.199 289.103 137.563 286.778 133.663C285.49 131.504 284.045 127.853 284.045 127.853C284.045 127.853 283.36 131.401 281.902 130.906C280.498 130.429 281.034 127.103 281.034 127.103C281.034 127.103 275.957 131.896 275.18 129.324C274.564 127.285 278.041 125.224 278.041 125.224C278.041 125.224 274.687 125.035 272.891 123.851Z" fill="#94AC38" fill-opacity="0.57"/>
<path d="M150.272 177.686C134.995 177.642 121.949 156.836 116.396 146.469C114.574 143.067 115.343 138.94 118.08 136.219L143.885 110.56C147.529 106.937 153.42 106.954 157.043 110.598L182.702 136.404C185.423 139.141 186.168 143.273 184.327 146.664C178.714 156.999 165.549 177.73 150.272 177.686Z" fill="#FCAA43"/>
<path d="M180.798 158.659C185.739 149.338 176.507 137.928 165.958 137.757C161.964 137.692 158.127 137.18 154.902 135.958C150.341 134.228 145.804 130.623 141.764 126.553C134.984 119.723 122.217 121.036 118.805 130.036V130.036C118.138 131.796 117.901 133.7 118.463 135.496C120.053 140.578 125.17 151.556 140.831 159.312C155.785 166.718 168.727 165.095 174.94 163.545C177.532 162.899 179.547 161.019 180.798 158.659V158.659Z" fill="#301027"/>
<path d="M118.687 117.875C117.977 117.599 116.909 117.927 116.34 118.145C116.21 118.195 116.226 118.374 116.361 118.409C116.858 118.537 117.692 118.777 118.21 119.059C118.937 119.454 119.503 120.317 119.835 120.933C119.912 121.075 120.136 121.019 120.119 120.859C120.015 119.879 119.692 118.267 118.687 117.875Z" fill="#6D8026"/>
<path d="M181.118 155.184C185.354 147.613 178.435 138.038 169.76 137.963C164.771 137.92 159.761 137.355 155.697 135.815C150.513 133.85 145.23 129.676 140.724 125.329C135.047 119.853 124.88 121.311 122.084 128.687V128.687C121.424 130.426 121.262 132.324 121.994 134.033C123.874 138.42 129.279 147.327 143.772 154.234C157.89 160.963 169.741 160.341 175.496 159.392C177.94 158.989 179.908 157.345 181.118 155.184V155.184Z" fill="#581248"/>
<path d="M142.477 158.448C137.001 155.762 130.486 149.493 128.341 147.346C128.267 147.272 128.364 147.162 128.448 147.224C130.873 148.996 138.115 154.164 143.584 156.787C149.19 159.475 157.98 161.909 160.955 162.696C161.057 162.722 161.033 162.867 160.928 162.856C157.777 162.514 148.268 161.287 142.477 158.448Z" fill="#8F4A67"/>
<path d="M167.085 147.427C170.021 146.832 171.925 146.184 173.103 144.388C175.858 140.191 160.682 142.924 154.063 139.906C148.293 137.274 141.968 131.197 141.968 131.197C141.968 131.197 144.434 139.427 150.334 142.941C155.652 146.11 160.976 148.665 167.085 147.427Z" fill="#8F4A67"/>
<path d="M134.685 122.135C138.614 118.245 125.502 116.683 120.792 119.567C115.135 123.031 115.805 142.252 119.177 136.525C120.907 133.588 121.868 128.215 121.868 128.215C121.868 128.215 126.946 134.452 129.404 132.201C131.848 129.963 126.275 124.297 126.275 124.297C126.275 124.297 132.271 124.525 134.685 122.135Z" fill="#6D8026"/>
<path d="M132.72 121.639C136.222 118.225 124.535 116.854 120.336 119.386C115.294 122.425 115.89 139.297 118.897 134.27C120.439 131.692 121.295 126.976 121.295 126.976C121.295 126.976 125.822 132.451 128.013 130.475C130.191 128.51 125.224 123.537 125.224 123.537C125.224 123.537 130.568 123.737 132.72 121.639Z" fill="#839930"/>
<ellipse cx="1.53288" cy="1.40514" rx="1.53288" ry="1.40514" transform="matrix(-1 0 0 1 170.07 154.786)" fill="#301027"/>
<ellipse cx="1.10708" cy="0.72386" rx="1.10708" ry="0.72386" transform="matrix(-1 0 0 1 164.194 153.338)" fill="#301027"/>
<ellipse cx="1.10708" cy="0.72386" rx="1.10708" ry="0.72386" transform="matrix(-1 0 0 1 133.366 135.199)" fill="#301027"/>
</svg>
