<svg width="762" height="553" viewBox="0 0 762 553" fill="none" xmlns="http://www.w3.org/2000/svg">
<g clip-path="url(#clip0_355_650)">
<rect width="762" height="553" fill="white"/>
<circle cx="40.4196" cy="68.0578" r="8.41959" fill="#C54846"/>
<circle cx="40.4196" cy="95.696" r="8.41959" fill="#283C57"/>
<circle cx="40.4196" cy="40.4196" r="8.41959" fill="#E5B89F"/>
<circle cx="40.4196" cy="123.334" r="8.41959" fill="#D71A38"/>
<rect x="97" y="108" width="568.585" height="338" fill="#D74743"/>
<circle cx="706.832" cy="301.577" r="121.253" stroke="white" stroke-width="4.11139" stroke-linecap="round" stroke-dasharray="8.22 8.22"/>
<circle cx="706.454" cy="301.199" r="111.007" stroke="white" stroke-width="4.11139" stroke-linecap="round" stroke-dasharray="0.16 8.49"/>
<circle cx="706.453" cy="301.199" r="129.098" stroke="white" stroke-width="4.78139" stroke-linecap="round" stroke-dasharray="0.19 9.87"/>
<path d="M334.372 264.127V217.497H318.202V212.834H356.108V217.497H339.938V264.127H334.372ZM419.824 265.33C413.506 265.33 408.768 263.626 405.609 260.216C402.45 256.756 400.871 251.717 400.871 245.099V212.834H406.512V245.099C406.512 255.177 410.949 260.216 419.824 260.216C423.835 260.216 426.994 258.912 429.3 256.305C431.657 253.698 432.835 249.963 432.835 245.099V212.834H438.476V245.099C438.476 251.617 436.821 256.631 433.512 260.141C430.253 263.6 425.69 265.33 419.824 265.33ZM326.21 363.127V311.834H354.94V316.572H331.851V334.472H349.901V339.06H331.851V358.464H355.166V363.127H326.21ZM418.788 364.33C414.476 364.33 410.741 363.277 407.582 361.172C404.473 359.016 402.066 355.957 400.362 351.996C398.707 347.985 397.88 343.196 397.88 337.631C397.88 332.015 398.707 327.202 400.362 323.191C402.066 319.129 404.473 316.046 407.582 313.94C410.741 311.784 414.476 310.706 418.788 310.706C422.749 310.706 426.159 311.608 429.017 313.413C431.925 315.168 434.407 317.776 436.462 321.235L432.025 324.394C428.866 318.678 424.454 315.82 418.788 315.82C414.075 315.82 410.39 317.751 407.732 321.611C405.125 325.422 403.821 330.737 403.821 337.556C403.821 344.325 405.15 349.639 407.807 353.5C410.465 357.311 414.125 359.216 418.788 359.216C421.395 359.216 423.727 358.589 425.783 357.336C427.888 356.082 429.543 354.227 430.746 351.77C431.95 349.313 432.551 346.305 432.551 342.745H420.443V338.082H438.117V342.745C438.117 347.408 437.29 351.369 435.635 354.628C433.98 357.837 431.674 360.269 428.716 361.924C425.808 363.528 422.498 364.33 418.788 364.33Z" fill="white"/>
<path d="M437.827 326.594L424.964 321.275L436.002 312.795L437.827 326.594Z" fill="white"/>
<mask id="path-11-outside-1_355_650" maskUnits="userSpaceOnUse" x="320" y="173" width="122" height="17" fill="black">
<rect fill="white" x="320" y="173" width="122" height="17"/>
<path d="M320.427 174.488H325.279C326.584 174.488 327.626 174.885 328.407 175.68C329.187 176.474 329.577 177.573 329.577 178.978C329.577 180.368 329.166 181.46 328.343 182.255C327.534 183.049 326.456 183.446 325.109 183.446H322.023V189H320.427V174.488ZM325.066 182.127C326.016 182.127 326.74 181.865 327.236 181.34C327.733 180.801 327.981 180.013 327.981 178.978C327.981 177.942 327.733 177.155 327.236 176.616C326.74 176.077 326.016 175.807 325.066 175.807H322.023V182.127H325.066ZM346.326 189L342.645 182.595H339.773V189H338.177V174.488H343.028C343.908 174.488 344.681 174.658 345.348 174.999C346.014 175.339 346.525 175.822 346.88 176.446C347.234 177.056 347.412 177.758 347.412 178.552C347.412 179.517 347.121 180.347 346.539 181.042C345.958 181.723 345.185 182.184 344.22 182.425L348.007 189H346.326ZM339.773 181.276H342.816C343.752 181.276 344.468 181.028 344.965 180.531C345.475 180.035 345.731 179.375 345.731 178.552C345.731 177.73 345.475 177.07 344.965 176.573C344.468 176.063 343.752 175.807 342.816 175.807H339.773V181.276ZM362.627 189.34C361.422 189.34 360.344 189.021 359.393 188.383C358.457 187.73 357.719 186.83 357.18 185.681C356.655 184.532 356.393 183.226 356.393 181.765C356.393 180.304 356.655 178.999 357.18 177.85C357.719 176.687 358.457 175.786 359.393 175.148C360.344 174.495 361.422 174.169 362.627 174.169C363.833 174.169 364.904 174.495 365.84 175.148C366.791 175.786 367.529 176.687 368.053 177.85C368.592 178.999 368.862 180.311 368.862 181.787C368.862 183.248 368.592 184.553 368.053 185.702C367.529 186.837 366.791 187.73 365.84 188.383C364.904 189.021 363.833 189.34 362.627 189.34ZM362.627 187.872C363.507 187.872 364.294 187.617 364.989 187.106C365.699 186.581 366.252 185.858 366.649 184.936C367.046 184 367.245 182.943 367.245 181.765C367.245 180.588 367.046 179.531 366.649 178.595C366.252 177.659 365.699 176.928 364.989 176.403C364.294 175.878 363.507 175.616 362.627 175.616C361.748 175.616 360.954 175.878 360.244 176.403C359.549 176.928 359.003 177.659 358.606 178.595C358.209 179.531 358.01 180.588 358.01 181.765C358.01 182.943 358.209 184 358.606 184.936C359.003 185.858 359.549 186.581 360.244 187.106C360.954 187.617 361.748 187.872 362.627 187.872ZM380.997 189.34C380.004 189.34 379.131 189.078 378.38 188.553C377.642 188.014 377.075 187.262 376.677 186.298L378.018 185.659C378.231 186.34 378.599 186.879 379.124 187.276C379.663 187.659 380.259 187.851 380.912 187.851C381.82 187.851 382.508 187.574 382.976 187.021C383.444 186.454 383.678 185.659 383.678 184.638V174.488H385.274V184.638C385.274 186.113 384.891 187.269 384.125 188.106C383.359 188.929 382.316 189.34 380.997 189.34ZM395.043 189V174.488H403.171V175.829H396.639V180.893H401.745V182.191H396.639V187.681H403.235V189H395.043ZM415.341 189V175.807H410.766V174.488H421.49V175.807H416.915V189H415.341ZM434.542 189.34C433.336 189.34 432.258 189.021 431.308 188.383C430.371 187.73 429.634 186.83 429.095 185.681C428.57 184.532 428.307 183.226 428.307 181.765C428.307 180.304 428.57 178.999 429.095 177.85C429.634 176.687 430.371 175.786 431.308 175.148C432.258 174.495 433.336 174.169 434.542 174.169C435.748 174.169 436.819 174.495 437.755 175.148C438.705 175.786 439.443 176.687 439.968 177.85C440.507 178.999 440.777 180.311 440.777 181.787C440.777 183.248 440.507 184.553 439.968 185.702C439.443 186.837 438.705 187.73 437.755 188.383C436.819 189.021 435.748 189.34 434.542 189.34ZM434.542 187.872C435.421 187.872 436.209 187.617 436.904 187.106C437.613 186.581 438.166 185.858 438.564 184.936C438.961 184 439.159 182.943 439.159 181.765C439.159 180.588 438.961 179.531 438.564 178.595C438.166 177.659 437.613 176.928 436.904 176.403C436.209 175.878 435.421 175.616 434.542 175.616C433.662 175.616 432.868 175.878 432.159 176.403C431.464 176.928 430.917 177.659 430.52 178.595C430.123 179.531 429.925 180.588 429.925 181.765C429.925 182.943 430.123 184 430.52 184.936C430.917 185.858 431.464 186.581 432.159 187.106C432.868 187.617 433.662 187.872 434.542 187.872Z"/>
</mask>
<path d="M320.427 174.488H325.279C326.584 174.488 327.626 174.885 328.407 175.68C329.187 176.474 329.577 177.573 329.577 178.978C329.577 180.368 329.166 181.46 328.343 182.255C327.534 183.049 326.456 183.446 325.109 183.446H322.023V189H320.427V174.488ZM325.066 182.127C326.016 182.127 326.74 181.865 327.236 181.34C327.733 180.801 327.981 180.013 327.981 178.978C327.981 177.942 327.733 177.155 327.236 176.616C326.74 176.077 326.016 175.807 325.066 175.807H322.023V182.127H325.066ZM346.326 189L342.645 182.595H339.773V189H338.177V174.488H343.028C343.908 174.488 344.681 174.658 345.348 174.999C346.014 175.339 346.525 175.822 346.88 176.446C347.234 177.056 347.412 177.758 347.412 178.552C347.412 179.517 347.121 180.347 346.539 181.042C345.958 181.723 345.185 182.184 344.22 182.425L348.007 189H346.326ZM339.773 181.276H342.816C343.752 181.276 344.468 181.028 344.965 180.531C345.475 180.035 345.731 179.375 345.731 178.552C345.731 177.73 345.475 177.07 344.965 176.573C344.468 176.063 343.752 175.807 342.816 175.807H339.773V181.276ZM362.627 189.34C361.422 189.34 360.344 189.021 359.393 188.383C358.457 187.73 357.719 186.83 357.18 185.681C356.655 184.532 356.393 183.226 356.393 181.765C356.393 180.304 356.655 178.999 357.18 177.85C357.719 176.687 358.457 175.786 359.393 175.148C360.344 174.495 361.422 174.169 362.627 174.169C363.833 174.169 364.904 174.495 365.84 175.148C366.791 175.786 367.529 176.687 368.053 177.85C368.592 178.999 368.862 180.311 368.862 181.787C368.862 183.248 368.592 184.553 368.053 185.702C367.529 186.837 366.791 187.73 365.84 188.383C364.904 189.021 363.833 189.34 362.627 189.34ZM362.627 187.872C363.507 187.872 364.294 187.617 364.989 187.106C365.699 186.581 366.252 185.858 366.649 184.936C367.046 184 367.245 182.943 367.245 181.765C367.245 180.588 367.046 179.531 366.649 178.595C366.252 177.659 365.699 176.928 364.989 176.403C364.294 175.878 363.507 175.616 362.627 175.616C361.748 175.616 360.954 175.878 360.244 176.403C359.549 176.928 359.003 177.659 358.606 178.595C358.209 179.531 358.01 180.588 358.01 181.765C358.01 182.943 358.209 184 358.606 184.936C359.003 185.858 359.549 186.581 360.244 187.106C360.954 187.617 361.748 187.872 362.627 187.872ZM380.997 189.34C380.004 189.34 379.131 189.078 378.38 188.553C377.642 188.014 377.075 187.262 376.677 186.298L378.018 185.659C378.231 186.34 378.599 186.879 379.124 187.276C379.663 187.659 380.259 187.851 380.912 187.851C381.82 187.851 382.508 187.574 382.976 187.021C383.444 186.454 383.678 185.659 383.678 184.638V174.488H385.274V184.638C385.274 186.113 384.891 187.269 384.125 188.106C383.359 188.929 382.316 189.34 380.997 189.34ZM395.043 189V174.488H403.171V175.829H396.639V180.893H401.745V182.191H396.639V187.681H403.235V189H395.043ZM415.341 189V175.807H410.766V174.488H421.49V175.807H416.915V189H415.341ZM434.542 189.34C433.336 189.34 432.258 189.021 431.308 188.383C430.371 187.73 429.634 186.83 429.095 185.681C428.57 184.532 428.307 183.226 428.307 181.765C428.307 180.304 428.57 178.999 429.095 177.85C429.634 176.687 430.371 175.786 431.308 175.148C432.258 174.495 433.336 174.169 434.542 174.169C435.748 174.169 436.819 174.495 437.755 175.148C438.705 175.786 439.443 176.687 439.968 177.85C440.507 178.999 440.777 180.311 440.777 181.787C440.777 183.248 440.507 184.553 439.968 185.702C439.443 186.837 438.705 187.73 437.755 188.383C436.819 189.021 435.748 189.34 434.542 189.34ZM434.542 187.872C435.421 187.872 436.209 187.617 436.904 187.106C437.613 186.581 438.166 185.858 438.564 184.936C438.961 184 439.159 182.943 439.159 181.765C439.159 180.588 438.961 179.531 438.564 178.595C438.166 177.659 437.613 176.928 436.904 176.403C436.209 175.878 435.421 175.616 434.542 175.616C433.662 175.616 432.868 175.878 432.159 176.403C431.464 176.928 430.917 177.659 430.52 178.595C430.123 179.531 429.925 180.588 429.925 181.765C429.925 182.943 430.123 184 430.52 184.936C430.917 185.858 431.464 186.581 432.159 187.106C432.868 187.617 433.662 187.872 434.542 187.872Z" fill="white"/>
<path d="M320.427 174.488V174.202H320.141V174.488H320.427ZM328.407 175.68L328.202 175.88L328.202 175.88L328.407 175.68ZM328.343 182.255L328.144 182.049L328.142 182.05L328.343 182.255ZM322.023 183.446V183.16H321.737V183.446H322.023ZM322.023 189V189.286H322.31V189H322.023ZM320.427 189H320.141V189.286H320.427V189ZM327.236 181.34L327.444 181.537L327.447 181.534L327.236 181.34ZM327.236 176.616L327.026 176.81L327.026 176.81L327.236 176.616ZM322.023 175.807V175.521H321.737V175.807H322.023ZM322.023 182.127H321.737V182.414H322.023V182.127ZM320.427 174.775H325.279V174.202H320.427V174.775ZM325.279 174.775C326.521 174.775 327.485 175.15 328.202 175.88L328.611 175.479C327.768 174.62 326.646 174.202 325.279 174.202V174.775ZM328.202 175.88C328.917 176.608 329.291 177.628 329.291 178.978H329.863C329.863 177.519 329.457 176.34 328.611 175.479L328.202 175.88ZM329.291 178.978C329.291 180.308 328.899 181.32 328.144 182.049L328.542 182.461C329.432 181.601 329.863 180.428 329.863 178.978H329.291ZM328.142 182.05C327.397 182.782 326.396 183.16 325.109 183.16V183.733C326.516 183.733 327.672 183.316 328.544 182.459L328.142 182.05ZM325.109 183.16H322.023V183.733H325.109V183.16ZM321.737 183.446V189H322.31V183.446H321.737ZM322.023 188.714H320.427V189.286H322.023V188.714ZM320.714 189V174.488H320.141V189H320.714ZM325.066 182.414C326.069 182.414 326.878 182.135 327.444 181.537L327.028 181.143C326.601 181.594 325.964 181.841 325.066 181.841V182.414ZM327.447 181.534C328.009 180.923 328.268 180.056 328.268 178.978H327.695C327.695 179.971 327.457 180.678 327.026 181.146L327.447 181.534ZM328.268 178.978C328.268 177.9 328.009 177.032 327.447 176.422L327.026 176.81C327.457 177.278 327.695 177.985 327.695 178.978H328.268ZM327.447 176.422C326.881 175.808 326.071 175.521 325.066 175.521V176.094C325.961 176.094 326.598 176.346 327.026 176.81L327.447 176.422ZM325.066 175.521H322.023V176.094H325.066V175.521ZM321.737 175.807V182.127H322.31V175.807H321.737ZM322.023 182.414H325.066V181.841H322.023V182.414ZM346.326 189L346.078 189.143L346.161 189.286H346.326V189ZM342.645 182.595L342.894 182.452L342.811 182.309H342.645V182.595ZM339.773 182.595V182.309H339.486V182.595H339.773ZM339.773 189V189.286H340.059V189H339.773ZM338.177 189H337.89V189.286H338.177V189ZM338.177 174.488V174.202H337.89V174.488H338.177ZM345.348 174.999L345.478 174.744L345.478 174.744L345.348 174.999ZM346.88 176.446L346.631 176.587L346.632 176.59L346.88 176.446ZM346.539 181.042L346.757 181.228L346.759 181.226L346.539 181.042ZM344.22 182.425L344.15 182.147L343.782 182.239L343.972 182.568L344.22 182.425ZM348.007 189V189.286H348.503L348.256 188.857L348.007 189ZM339.773 181.276H339.486V181.562H339.773V181.276ZM344.965 180.531L344.765 180.326L344.762 180.329L344.965 180.531ZM344.965 176.573L344.759 176.773L344.765 176.779L344.965 176.573ZM339.773 175.807V175.521H339.486V175.807H339.773ZM346.575 188.857L342.894 182.452L342.397 182.738L346.078 189.143L346.575 188.857ZM342.645 182.309H339.773V182.882H342.645V182.309ZM339.486 182.595V189H340.059V182.595H339.486ZM339.773 188.714H338.177V189.286H339.773V188.714ZM338.463 189V174.488H337.89V189H338.463ZM338.177 174.775H343.028V174.202H338.177V174.775ZM343.028 174.775C343.87 174.775 344.597 174.937 345.217 175.254L345.478 174.744C344.764 174.379 343.945 174.202 343.028 174.202V174.775ZM345.217 175.254C345.837 175.57 346.305 176.014 346.631 176.587L347.129 176.304C346.745 175.629 346.192 175.108 345.478 174.744L345.217 175.254ZM346.632 176.59C346.958 177.151 347.125 177.802 347.125 178.552H347.698C347.698 177.714 347.51 176.961 347.127 176.302L346.632 176.59ZM347.125 178.552C347.125 179.454 346.855 180.218 346.32 180.858L346.759 181.226C347.387 180.476 347.698 179.579 347.698 178.552H347.125ZM346.321 180.856C345.783 181.486 345.064 181.919 344.15 182.147L344.289 182.703C345.305 182.449 346.133 181.959 346.757 181.228L346.321 180.856ZM343.972 182.568L347.759 189.143L348.256 188.857L344.468 182.282L343.972 182.568ZM348.007 188.714H346.326V189.286H348.007V188.714ZM339.773 181.562H342.816V180.989H339.773V181.562ZM342.816 181.562C343.802 181.562 344.601 181.3 345.167 180.734L344.762 180.329C344.335 180.755 343.702 180.989 342.816 180.989V181.562ZM345.164 180.737C345.739 180.178 346.017 179.439 346.017 178.552H345.444C345.444 179.311 345.211 179.892 344.765 180.326L345.164 180.737ZM346.017 178.552C346.017 177.665 345.739 176.927 345.164 176.368L344.765 176.779C345.211 177.213 345.444 177.794 345.444 178.552H346.017ZM345.17 176.374C344.604 175.792 343.804 175.521 342.816 175.521V176.094C343.7 176.094 344.332 176.334 344.759 176.773L345.17 176.374ZM342.816 175.521H339.773V176.094H342.816V175.521ZM339.486 175.807V181.276H340.059V175.807H339.486ZM359.393 188.383L359.229 188.618L359.233 188.621L359.393 188.383ZM357.18 185.681L356.92 185.8L356.921 185.802L357.18 185.681ZM357.18 177.85L356.92 177.73L356.92 177.731L357.18 177.85ZM359.393 175.148L359.554 175.384L359.555 175.384L359.393 175.148ZM365.84 175.148L365.677 175.383L365.681 175.386L365.84 175.148ZM368.053 177.85L367.792 177.968L367.794 177.972L368.053 177.85ZM368.053 185.702L367.794 185.58L367.793 185.582L368.053 185.702ZM365.84 188.383L366.002 188.62L366.003 188.619L365.84 188.383ZM364.989 187.106L365.159 187.337L365.16 187.336L364.989 187.106ZM366.649 184.936L366.912 185.049L366.913 185.048L366.649 184.936ZM366.649 178.595L366.913 178.483L366.913 178.483L366.649 178.595ZM364.989 176.403L364.817 176.632L364.819 176.633L364.989 176.403ZM360.244 176.403L360.074 176.173L360.072 176.175L360.244 176.403ZM358.606 178.595L358.342 178.483L358.342 178.483L358.606 178.595ZM358.606 184.936L358.342 185.048L358.343 185.049L358.606 184.936ZM360.244 187.106L360.072 187.335L360.077 187.339L360.244 187.106ZM362.627 189.054C361.475 189.054 360.453 188.75 359.553 188.145L359.233 188.621C360.234 189.293 361.368 189.627 362.627 189.627V189.054ZM359.557 188.148C358.666 187.527 357.96 186.668 357.439 185.559L356.921 185.802C357.479 186.992 358.247 187.934 359.229 188.618L359.557 188.148ZM357.441 185.562C356.935 184.455 356.679 183.192 356.679 181.765H356.106C356.106 183.261 356.375 184.608 356.92 185.8L357.441 185.562ZM356.679 181.765C356.679 180.339 356.935 179.075 357.441 177.969L356.92 177.731C356.375 178.923 356.106 180.27 356.106 181.765H356.679ZM357.44 177.971C357.96 176.848 358.666 175.99 359.554 175.384L359.232 174.911C358.247 175.582 357.478 176.526 356.92 177.73L357.44 177.971ZM359.555 175.384C360.456 174.766 361.477 174.455 362.627 174.455V173.882C361.367 173.882 360.231 174.225 359.231 174.912L359.555 175.384ZM362.627 174.455C363.778 174.455 364.791 174.766 365.677 175.383L366.004 174.913C365.017 174.225 363.888 173.882 362.627 173.882V174.455ZM365.681 175.386C366.582 175.991 367.287 176.848 367.792 177.968L368.315 177.732C367.77 176.526 367 175.581 366 174.91L365.681 175.386ZM367.794 177.972C368.313 179.077 368.576 180.347 368.576 181.787H369.148C369.148 180.276 368.872 178.921 368.313 177.728L367.794 177.972ZM368.576 181.787C368.576 183.212 368.313 184.475 367.794 185.58L368.313 185.823C368.872 184.631 369.148 183.283 369.148 181.787H368.576ZM367.793 185.582C367.288 186.674 366.583 187.526 365.678 188.147L366.003 188.619C366.999 187.935 367.769 187 368.313 185.822L367.793 185.582ZM365.679 188.146C364.794 188.75 363.78 189.054 362.627 189.054V189.627C363.887 189.627 365.015 189.292 366.002 188.62L365.679 188.146ZM362.627 188.159C363.567 188.159 364.414 187.885 365.159 187.337L364.82 186.875C364.175 187.349 363.447 187.586 362.627 187.586V188.159ZM365.16 187.336C365.915 186.778 366.498 186.011 366.912 185.049L366.386 184.822C366.006 185.705 365.482 186.385 364.819 186.876L365.16 187.336ZM366.913 185.048C367.327 184.071 367.531 182.975 367.531 181.765H366.958C366.958 182.91 366.765 183.928 366.385 184.824L366.913 185.048ZM367.531 181.765C367.531 180.555 367.327 179.46 366.913 178.483L366.385 178.707C366.765 179.602 366.958 180.62 366.958 181.765H367.531ZM366.913 178.483C366.499 177.507 365.916 176.733 365.16 176.173L364.819 176.633C365.481 177.123 366.005 177.81 366.385 178.707L366.913 178.483ZM365.162 176.175C364.417 175.612 363.569 175.329 362.627 175.329V175.902C363.445 175.902 364.172 176.145 364.817 176.632L365.162 176.175ZM362.627 175.329C361.686 175.329 360.832 175.612 360.074 176.173L360.415 176.633C361.075 176.145 361.809 175.902 362.627 175.902V175.329ZM360.072 176.175C359.33 176.734 358.756 177.508 358.342 178.483L358.869 178.707C359.25 177.809 359.768 177.122 360.417 176.632L360.072 176.175ZM358.342 178.483C357.928 179.46 357.724 180.555 357.724 181.765H358.296C358.296 180.62 358.489 179.602 358.869 178.707L358.342 178.483ZM357.724 181.765C357.724 182.975 357.928 184.071 358.342 185.048L358.869 184.824C358.489 183.928 358.296 182.91 358.296 181.765H357.724ZM358.343 185.049C358.757 186.01 359.331 186.776 360.072 187.335L360.417 186.878C359.767 186.387 359.249 185.706 358.869 184.822L358.343 185.049ZM360.077 187.339C360.835 187.885 361.688 188.159 362.627 188.159V187.586C361.808 187.586 361.072 187.349 360.412 186.874L360.077 187.339ZM378.38 188.553L378.211 188.784L378.216 188.788L378.38 188.553ZM376.677 186.298L376.554 186.039L376.309 186.156L376.412 186.407L376.677 186.298ZM378.018 185.659L378.291 185.574L378.193 185.259L377.895 185.401L378.018 185.659ZM379.124 187.276L378.951 187.505L378.958 187.51L379.124 187.276ZM382.976 187.021L383.194 187.206L383.197 187.203L382.976 187.021ZM383.678 174.488V174.202H383.392V174.488H383.678ZM385.274 174.488H385.56V174.202H385.274V174.488ZM384.125 188.106L384.334 188.301L384.336 188.3L384.125 188.106ZM380.997 189.054C380.057 189.054 379.243 188.807 378.544 188.318L378.216 188.788C379.02 189.349 379.95 189.627 380.997 189.627V189.054ZM378.549 188.322C377.859 187.818 377.322 187.111 376.942 186.189L376.412 186.407C376.827 187.413 377.425 188.21 378.211 188.784L378.549 188.322ZM376.8 186.556L378.141 185.918L377.895 185.401L376.554 186.039L376.8 186.556ZM377.744 185.745C377.973 186.478 378.375 187.069 378.952 187.505L379.297 187.048C378.824 186.69 378.488 186.203 378.291 185.574L377.744 185.745ZM378.958 187.51C379.545 187.927 380.199 188.137 380.912 188.137V187.565C380.32 187.565 379.782 187.392 379.29 187.043L378.958 187.51ZM380.912 188.137C381.881 188.137 382.659 187.839 383.194 187.206L382.757 186.836C382.357 187.309 381.758 187.565 380.912 187.565V188.137ZM383.197 187.203C383.721 186.568 383.964 185.7 383.964 184.638H383.392C383.392 185.618 383.167 186.339 382.755 186.839L383.197 187.203ZM383.964 184.638V174.488H383.392V184.638H383.964ZM383.678 174.775H385.274V174.202H383.678V174.775ZM384.987 174.488V184.638H385.56V174.488H384.987ZM384.987 184.638C384.987 186.064 384.618 187.143 383.913 187.913L384.336 188.3C385.164 187.396 385.56 186.163 385.56 184.638H384.987ZM383.915 187.911C383.213 188.666 382.252 189.054 380.997 189.054V189.627C382.381 189.627 383.505 189.193 384.334 188.301L383.915 187.911ZM395.043 189H394.756V189.286H395.043V189ZM395.043 174.488V174.202H394.756V174.488H395.043ZM403.171 174.488H403.457V174.202H403.171V174.488ZM403.171 175.829V176.115H403.457V175.829H403.171ZM396.639 175.829V175.542H396.352V175.829H396.639ZM396.639 180.893H396.352V181.179H396.639V180.893ZM401.745 180.893H402.032V180.606H401.745V180.893ZM401.745 182.191V182.477H402.032V182.191H401.745ZM396.639 182.191V181.904H396.352V182.191H396.639ZM396.639 187.681H396.352V187.967H396.639V187.681ZM403.235 187.681H403.521V187.394H403.235V187.681ZM403.235 189V189.286H403.521V189H403.235ZM395.329 189V174.488H394.756V189H395.329ZM395.043 174.775H403.171V174.202H395.043V174.775ZM402.885 174.488V175.829H403.457V174.488H402.885ZM403.171 175.542H396.639V176.115H403.171V175.542ZM396.352 175.829V180.893H396.925V175.829H396.352ZM396.639 181.179H401.745V180.606H396.639V181.179ZM401.459 180.893V182.191H402.032V180.893H401.459ZM401.745 181.904H396.639V182.477H401.745V181.904ZM396.352 182.191V187.681H396.925V182.191H396.352ZM396.639 187.967H403.235V187.394H396.639V187.967ZM402.948 187.681V189H403.521V187.681H402.948ZM403.235 188.714H395.043V189.286H403.235V188.714ZM415.341 189H415.054V189.286H415.341V189ZM415.341 175.807H415.627V175.521H415.341V175.807ZM410.766 175.807H410.479V176.094H410.766V175.807ZM410.766 174.488V174.202H410.479V174.488H410.766ZM421.49 174.488H421.777V174.202H421.49V174.488ZM421.49 175.807V176.094H421.777V175.807H421.49ZM416.915 175.807V175.521H416.629V175.807H416.915ZM416.915 189V189.286H417.202V189H416.915ZM415.627 189V175.807H415.054V189H415.627ZM415.341 175.521H410.766V176.094H415.341V175.521ZM411.052 175.807V174.488H410.479V175.807H411.052ZM410.766 174.775H421.49V174.202H410.766V174.775ZM421.204 174.488V175.807H421.777V174.488H421.204ZM421.49 175.521H416.915V176.094H421.49V175.521ZM416.629 175.807V189H417.202V175.807H416.629ZM416.915 188.714H415.341V189.286H416.915V188.714ZM431.308 188.383L431.144 188.618L431.148 188.621L431.308 188.383ZM429.095 185.681L428.834 185.8L428.835 185.802L429.095 185.681ZM429.095 177.85L428.835 177.73L428.834 177.731L429.095 177.85ZM431.308 175.148L431.469 175.384L431.47 175.384L431.308 175.148ZM437.755 175.148L437.591 175.383L437.595 175.386L437.755 175.148ZM439.968 177.85L439.707 177.968L439.709 177.972L439.968 177.85ZM439.968 185.702L439.709 185.58L439.708 185.582L439.968 185.702ZM437.755 188.383L437.916 188.62L437.917 188.619L437.755 188.383ZM436.904 187.106L437.073 187.337L437.074 187.336L436.904 187.106ZM438.564 184.936L438.827 185.049L438.827 185.048L438.564 184.936ZM438.564 178.595L438.827 178.483L438.827 178.483L438.564 178.595ZM436.904 176.403L436.731 176.632L436.733 176.633L436.904 176.403ZM432.159 176.403L431.988 176.173L431.986 176.175L432.159 176.403ZM430.52 178.595L430.257 178.483L430.257 178.483L430.52 178.595ZM430.52 184.936L430.257 185.048L430.257 185.049L430.52 184.936ZM432.159 187.106L431.986 187.335L431.991 187.339L432.159 187.106ZM434.542 189.054C433.39 189.054 432.368 188.75 431.467 188.145L431.148 188.621C432.148 189.293 433.282 189.627 434.542 189.627V189.054ZM431.471 188.148C430.581 187.527 429.874 186.668 429.354 185.559L428.835 185.802C429.393 186.992 430.162 187.934 431.144 188.618L431.471 188.148ZM429.355 185.562C428.85 184.455 428.594 183.192 428.594 181.765H428.021C428.021 183.261 428.29 184.608 428.834 185.8L429.355 185.562ZM428.594 181.765C428.594 180.339 428.85 179.075 429.355 177.969L428.834 177.731C428.29 178.923 428.021 180.27 428.021 181.765H428.594ZM429.355 177.971C429.875 176.848 430.581 175.99 431.469 175.384L431.146 174.911C430.162 175.582 429.393 176.526 428.835 177.73L429.355 177.971ZM431.47 175.384C432.37 174.766 433.391 174.455 434.542 174.455V173.882C433.281 173.882 432.146 174.225 431.145 174.912L431.47 175.384ZM434.542 174.455C435.693 174.455 436.706 174.766 437.591 175.383L437.919 174.913C436.932 174.225 435.803 173.882 434.542 173.882V174.455ZM437.595 175.386C438.496 175.991 439.201 176.848 439.707 177.968L440.229 177.732C439.685 176.526 438.914 175.581 437.915 174.91L437.595 175.386ZM439.709 177.972C440.227 179.077 440.49 180.347 440.49 181.787H441.063C441.063 180.276 440.787 178.921 440.227 177.728L439.709 177.972ZM440.49 181.787C440.49 183.212 440.227 184.475 439.709 185.58L440.227 185.823C440.787 184.631 441.063 183.283 441.063 181.787H440.49ZM439.708 185.582C439.203 186.674 438.497 187.526 437.593 188.147L437.917 188.619C438.914 187.935 439.683 187 440.228 185.822L439.708 185.582ZM437.594 188.146C436.708 188.75 435.694 189.054 434.542 189.054V189.627C435.801 189.627 436.929 189.292 437.916 188.62L437.594 188.146ZM434.542 188.159C435.481 188.159 436.328 187.885 437.073 187.337L436.734 186.875C436.089 187.349 435.362 187.586 434.542 187.586V188.159ZM437.074 187.336C437.83 186.778 438.412 186.011 438.827 185.049L438.3 184.822C437.92 185.705 437.397 186.385 436.733 186.876L437.074 187.336ZM438.827 185.048C439.242 184.071 439.446 182.975 439.446 181.765H438.873C438.873 182.91 438.68 183.928 438.3 184.824L438.827 185.048ZM439.446 181.765C439.446 180.555 439.242 179.46 438.827 178.483L438.3 178.707C438.68 179.602 438.873 180.62 438.873 181.765H439.446ZM438.827 178.483C438.413 177.507 437.831 176.733 437.074 176.173L436.733 176.633C437.396 177.123 437.92 177.81 438.3 178.707L438.827 178.483ZM437.076 176.175C436.331 175.612 435.483 175.329 434.542 175.329V175.902C435.36 175.902 436.086 176.145 436.731 176.632L437.076 176.175ZM434.542 175.329C433.601 175.329 432.747 175.612 431.988 176.173L432.329 176.633C432.989 176.145 433.724 175.902 434.542 175.902V175.329ZM431.986 176.175C431.245 176.734 430.67 177.508 430.257 178.483L430.784 178.707C431.165 177.809 431.683 177.122 432.331 176.632L431.986 176.175ZM430.257 178.483C429.842 179.46 429.638 180.555 429.638 181.765H430.211C430.211 180.62 430.404 179.602 430.784 178.707L430.257 178.483ZM429.638 181.765C429.638 182.975 429.842 184.071 430.257 185.048L430.784 184.824C430.404 183.928 430.211 182.91 430.211 181.765H429.638ZM430.257 185.049C430.671 186.01 431.246 186.776 431.986 187.335L432.331 186.878C431.682 186.387 431.164 185.706 430.783 184.822L430.257 185.049ZM431.991 187.339C432.75 187.885 433.603 188.159 434.542 188.159V187.586C433.722 187.586 432.986 187.349 432.326 186.874L431.991 187.339Z" fill="white" mask="url(#path-11-outside-1_355_650)"/>
<path d="M571.026 511L575.186 501.9H576.135L580.295 511H579.281L575.459 502.459H575.849L572.027 511H571.026ZM572.664 508.569L572.95 507.789H578.241L578.527 508.569H572.664ZM583.75 511V501.9H584.712V510.168H589.808V511H583.75ZM594.214 505.969H599.024V506.788H594.214V505.969ZM594.318 510.168H599.791V511H593.356V501.9H599.596V502.732H594.318V510.168ZM606.511 511.078C605.835 511.078 605.185 510.97 604.561 510.753C603.946 510.528 603.469 510.242 603.131 509.895L603.508 509.154C603.829 509.466 604.258 509.73 604.795 509.947C605.341 510.155 605.913 510.259 606.511 510.259C607.083 510.259 607.547 510.19 607.902 510.051C608.266 509.904 608.53 509.709 608.695 509.466C608.868 509.223 608.955 508.955 608.955 508.66C608.955 508.305 608.851 508.019 608.643 507.802C608.444 507.585 608.179 507.416 607.85 507.295C607.521 507.165 607.157 507.052 606.758 506.957C606.359 506.862 605.961 506.762 605.562 506.658C605.163 506.545 604.795 506.398 604.457 506.216C604.128 506.034 603.859 505.796 603.651 505.501C603.452 505.198 603.352 504.803 603.352 504.318C603.352 503.867 603.469 503.456 603.703 503.083C603.946 502.702 604.314 502.398 604.808 502.173C605.302 501.939 605.935 501.822 606.706 501.822C607.217 501.822 607.724 501.896 608.227 502.043C608.73 502.182 609.163 502.377 609.527 502.628L609.202 503.395C608.812 503.135 608.396 502.944 607.954 502.823C607.521 502.702 607.1 502.641 606.693 502.641C606.147 502.641 605.696 502.715 605.341 502.862C604.986 503.009 604.721 503.209 604.548 503.46C604.383 503.703 604.301 503.98 604.301 504.292C604.301 504.647 604.401 504.933 604.6 505.15C604.808 505.367 605.077 505.536 605.406 505.657C605.744 505.778 606.112 505.887 606.511 505.982C606.91 506.077 607.304 506.181 607.694 506.294C608.093 506.407 608.457 506.554 608.786 506.736C609.124 506.909 609.393 507.143 609.592 507.438C609.8 507.733 609.904 508.118 609.904 508.595C609.904 509.037 609.783 509.449 609.54 509.83C609.297 510.203 608.925 510.506 608.422 510.74C607.928 510.965 607.291 511.078 606.511 511.078ZM616.459 511.078C615.783 511.078 615.133 510.97 614.509 510.753C613.894 510.528 613.417 510.242 613.079 509.895L613.456 509.154C613.777 509.466 614.206 509.73 614.743 509.947C615.289 510.155 615.861 510.259 616.459 510.259C617.031 510.259 617.495 510.19 617.85 510.051C618.214 509.904 618.478 509.709 618.643 509.466C618.816 509.223 618.903 508.955 618.903 508.66C618.903 508.305 618.799 508.019 618.591 507.802C618.392 507.585 618.127 507.416 617.798 507.295C617.469 507.165 617.105 507.052 616.706 506.957C616.307 506.862 615.909 506.762 615.51 506.658C615.111 506.545 614.743 506.398 614.405 506.216C614.076 506.034 613.807 505.796 613.599 505.501C613.4 505.198 613.3 504.803 613.3 504.318C613.3 503.867 613.417 503.456 613.651 503.083C613.894 502.702 614.262 502.398 614.756 502.173C615.25 501.939 615.883 501.822 616.654 501.822C617.165 501.822 617.672 501.896 618.175 502.043C618.678 502.182 619.111 502.377 619.475 502.628L619.15 503.395C618.76 503.135 618.344 502.944 617.902 502.823C617.469 502.702 617.048 502.641 616.641 502.641C616.095 502.641 615.644 502.715 615.289 502.862C614.934 503.009 614.669 503.209 614.496 503.46C614.331 503.703 614.249 503.98 614.249 504.292C614.249 504.647 614.349 504.933 614.548 505.15C614.756 505.367 615.025 505.536 615.354 505.657C615.692 505.778 616.06 505.887 616.459 505.982C616.858 506.077 617.252 506.181 617.642 506.294C618.041 506.407 618.405 506.554 618.734 506.736C619.072 506.909 619.341 507.143 619.54 507.438C619.748 507.733 619.852 508.118 619.852 508.595C619.852 509.037 619.731 509.449 619.488 509.83C619.245 510.203 618.873 510.506 618.37 510.74C617.876 510.965 617.239 511.078 616.459 511.078ZM622.442 511L626.602 501.9H627.551L631.711 511H630.697L626.875 502.459H627.265L623.443 511H622.442ZM624.08 508.569L624.366 507.789H629.657L629.943 508.569H624.08ZM635.166 511V501.9H635.959L642.238 509.804H641.822V501.9H642.771V511H641.978L635.712 503.096H636.128V511H635.166ZM647.692 511V501.9H651.397C652.367 501.9 653.217 502.095 653.945 502.485C654.681 502.866 655.253 503.399 655.661 504.084C656.068 504.769 656.272 505.557 656.272 506.45C656.272 507.343 656.068 508.131 655.661 508.816C655.253 509.501 654.681 510.038 653.945 510.428C653.217 510.809 652.367 511 651.397 511H647.692ZM648.654 510.168H651.345C652.151 510.168 652.848 510.012 653.438 509.7C654.036 509.379 654.499 508.942 654.829 508.387C655.158 507.824 655.323 507.178 655.323 506.45C655.323 505.713 655.158 505.068 654.829 504.513C654.499 503.958 654.036 503.525 653.438 503.213C652.848 502.892 652.151 502.732 651.345 502.732H648.654V510.168ZM660.382 511V501.9H663.788C664.559 501.9 665.222 502.026 665.777 502.277C666.331 502.52 666.756 502.875 667.051 503.343C667.354 503.802 667.506 504.361 667.506 505.02C667.506 505.661 667.354 506.216 667.051 506.684C666.756 507.143 666.331 507.499 665.777 507.75C665.222 507.993 664.559 508.114 663.788 508.114H660.915L661.344 507.672V511H660.382ZM666.596 511L664.256 507.698H665.296L667.649 511H666.596ZM661.344 507.75L660.915 507.295H663.762C664.672 507.295 665.361 507.096 665.829 506.697C666.305 506.298 666.544 505.739 666.544 505.02C666.544 504.292 666.305 503.729 665.829 503.33C665.361 502.931 664.672 502.732 663.762 502.732H660.915L661.344 502.277V507.75ZM670.27 511L674.43 501.9H675.379L679.539 511H678.525L674.703 502.459H675.093L671.271 511H670.27ZM671.908 508.569L672.194 507.789H677.485L677.771 508.569H671.908ZM688.347 511V501.9H691.753C692.524 501.9 693.187 502.026 693.742 502.277C694.297 502.52 694.721 502.875 695.016 503.343C695.319 503.802 695.471 504.361 695.471 505.02C695.471 505.661 695.319 506.216 695.016 506.684C694.721 507.143 694.297 507.499 693.742 507.75C693.187 507.993 692.524 508.114 691.753 508.114H688.88L689.309 507.672V511H688.347ZM694.561 511L692.221 507.698H693.261L695.614 511H694.561ZM689.309 507.75L688.88 507.295H691.727C692.637 507.295 693.326 507.096 693.794 506.697C694.271 506.298 694.509 505.739 694.509 505.02C694.509 504.292 694.271 503.729 693.794 503.33C693.326 502.931 692.637 502.732 691.727 502.732H688.88L689.309 502.277V507.75ZM700.55 505.969H705.36V506.788H700.55V505.969ZM700.654 510.168H706.127V511H699.692V501.9H705.932V502.732H700.654V510.168ZM710.338 511V501.9H711.3V511H710.338ZM718.72 511.078C718.044 511.078 717.394 510.97 716.77 510.753C716.154 510.528 715.678 510.242 715.34 509.895L715.717 509.154C716.037 509.466 716.466 509.73 717.004 509.947C717.55 510.155 718.122 510.259 718.72 510.259C719.292 510.259 719.755 510.19 720.111 510.051C720.475 509.904 720.739 509.709 720.904 509.466C721.077 509.223 721.164 508.955 721.164 508.66C721.164 508.305 721.06 508.019 720.852 507.802C720.652 507.585 720.388 507.416 720.059 507.295C719.729 507.165 719.365 507.052 718.967 506.957C718.568 506.862 718.169 506.762 717.771 506.658C717.372 506.545 717.004 506.398 716.666 506.216C716.336 506.034 716.068 505.796 715.86 505.501C715.66 505.198 715.561 504.803 715.561 504.318C715.561 503.867 715.678 503.456 715.912 503.083C716.154 502.702 716.523 502.398 717.017 502.173C717.511 501.939 718.143 501.822 718.915 501.822C719.426 501.822 719.933 501.896 720.436 502.043C720.938 502.182 721.372 502.377 721.736 502.628L721.411 503.395C721.021 503.135 720.605 502.944 720.163 502.823C719.729 502.702 719.309 502.641 718.902 502.641C718.356 502.641 717.905 502.715 717.55 502.862C717.194 503.009 716.93 503.209 716.757 503.46C716.592 503.703 716.51 503.98 716.51 504.292C716.51 504.647 716.609 504.933 716.809 505.15C717.017 505.367 717.285 505.536 717.615 505.657C717.953 505.778 718.321 505.887 718.72 505.982C719.118 506.077 719.513 506.181 719.903 506.294C720.301 506.407 720.665 506.554 720.995 506.736C721.333 506.909 721.601 507.143 721.801 507.438C722.009 507.733 722.113 508.118 722.113 508.595C722.113 509.037 721.991 509.449 721.749 509.83C721.506 510.203 721.133 510.506 720.631 510.74C720.137 510.965 719.5 511.078 718.72 511.078Z" fill="#CF3535"/>
</g>
<defs>
<clipPath id="clip0_355_650">
<rect width="762" height="553" fill="white"/>
</clipPath>
</defs>
</svg>
