<svg width="762" height="553" viewBox="0 0 762 553" fill="none" xmlns="http://www.w3.org/2000/svg">
<g clip-path="url(#clip0_334_527)">
<rect width="762" height="553" fill="white"/>
<circle cx="40.4196" cy="68.0578" r="8.41959" fill="#C54846"/>
<circle cx="40.4196" cy="95.696" r="8.41959" fill="#283C57"/>
<circle cx="40.4196" cy="40.4196" r="8.41959" fill="#E5B89F"/>
<circle cx="40.4196" cy="123.334" r="8.41959" fill="#D71A38"/>
<rect x="97" y="108" width="568.585" height="338" fill="#D74743"/>
<circle cx="706.832" cy="301.577" r="121.253" stroke="white" stroke-width="4.11139" stroke-linecap="round" stroke-dasharray="8.22 8.22"/>
<circle cx="706.454" cy="301.199" r="111.007" stroke="white" stroke-width="4.11139" stroke-linecap="round" stroke-dasharray="0.16 8.49"/>
<circle cx="706.453" cy="301.199" r="129.098" stroke="white" stroke-width="4.78139" stroke-linecap="round" stroke-dasharray="0.19 9.87"/>
<path d="M334.83 237.127V190.497H318.66V185.834H356.565V190.497H340.395V237.127H334.83ZM420.281 238.33C413.964 238.33 409.225 236.626 406.067 233.216C402.908 229.756 401.328 224.717 401.328 218.099V185.834H406.969V218.099C406.969 228.177 411.406 233.216 420.281 233.216C424.292 233.216 427.451 231.912 429.758 229.305C432.114 226.698 433.292 222.963 433.292 218.099V185.834H438.933V218.099C438.933 224.617 437.278 229.631 433.969 233.141C430.71 236.6 426.147 238.33 420.281 238.33ZM326.668 336.127V284.834H355.398V289.572H332.309V307.472H350.359V312.06H332.309V331.464H355.624V336.127H326.668ZM419.246 337.33C414.934 337.33 411.198 336.277 408.039 334.172C404.931 332.016 402.524 328.957 400.819 324.996C399.165 320.985 398.337 316.196 398.337 310.631C398.337 305.015 399.165 300.202 400.819 296.191C402.524 292.129 404.931 289.046 408.039 286.94C411.198 284.784 414.934 283.706 419.246 283.706C423.207 283.706 426.616 284.608 429.474 286.413C432.382 288.168 434.864 290.776 436.92 294.235L432.482 297.394C429.324 291.678 424.911 288.82 419.246 288.82C414.532 288.82 410.847 290.751 408.19 294.611C405.583 298.422 404.279 303.737 404.279 310.556C404.279 317.325 405.608 322.639 408.265 326.5C410.922 330.311 414.583 332.216 419.246 332.216C421.853 332.216 424.184 331.589 426.24 330.336C428.346 329.082 430.001 327.227 431.204 324.77C432.407 322.313 433.009 319.305 433.009 315.745H420.9V311.082H438.574V315.745C438.574 320.408 437.747 324.369 436.092 327.628C434.438 330.837 432.131 333.269 429.173 334.924C426.265 336.528 422.956 337.33 419.246 337.33Z" fill="white"/>
<path d="M438.284 299.594L425.421 294.275L436.459 285.795L438.284 299.594Z" fill="white"/>
<mask id="path-11-outside-1_334_527" maskUnits="userSpaceOnUse" x="320.237" y="373.229" width="122" height="17" fill="black">
<rect fill="white" x="320.237" y="373.229" width="122" height="17"/>
<path d="M321.101 374.717H325.952C327.258 374.717 328.3 375.114 329.08 375.909C329.861 376.703 330.251 377.802 330.251 379.207C330.251 380.597 329.839 381.689 329.017 382.484C328.208 383.278 327.13 383.675 325.782 383.675H322.697V389.229H321.101V374.717ZM325.74 382.356C326.69 382.356 327.414 382.094 327.91 381.569C328.407 381.03 328.655 380.242 328.655 379.207C328.655 378.171 328.407 377.384 327.91 376.845C327.414 376.306 326.69 376.036 325.74 376.036H322.697V382.356H325.74ZM347 389.229L343.319 382.824H340.446V389.229H338.85V374.717H343.702C344.581 374.717 345.355 374.887 346.021 375.228C346.688 375.568 347.199 376.051 347.553 376.675C347.908 377.285 348.085 377.987 348.085 378.781C348.085 379.746 347.795 380.576 347.213 381.271C346.631 381.952 345.858 382.413 344.894 382.654L348.681 389.229H347ZM340.446 381.505H343.489C344.425 381.505 345.142 381.257 345.638 380.76C346.149 380.264 346.404 379.604 346.404 378.781C346.404 377.959 346.149 377.299 345.638 376.802C345.142 376.292 344.425 376.036 343.489 376.036H340.446V381.505ZM363.301 389.569C362.095 389.569 361.017 389.25 360.067 388.612C359.131 387.959 358.393 387.059 357.854 385.91C357.329 384.761 357.067 383.455 357.067 381.994C357.067 380.533 357.329 379.228 357.854 378.079C358.393 376.916 359.131 376.015 360.067 375.377C361.017 374.724 362.095 374.398 363.301 374.398C364.507 374.398 365.578 374.724 366.514 375.377C367.465 376.015 368.202 376.916 368.727 378.079C369.266 379.228 369.536 380.54 369.536 382.016C369.536 383.477 369.266 384.782 368.727 385.931C368.202 387.066 367.465 387.959 366.514 388.612C365.578 389.25 364.507 389.569 363.301 389.569ZM363.301 388.101C364.181 388.101 364.968 387.846 365.663 387.335C366.372 386.81 366.926 386.087 367.323 385.165C367.72 384.229 367.919 383.172 367.919 381.994C367.919 380.817 367.72 379.76 367.323 378.824C366.926 377.888 366.372 377.157 365.663 376.632C364.968 376.107 364.181 375.845 363.301 375.845C362.422 375.845 361.627 376.107 360.918 376.632C360.223 377.157 359.677 377.888 359.279 378.824C358.882 379.76 358.684 380.817 358.684 381.994C358.684 383.172 358.882 384.229 359.279 385.165C359.677 386.087 360.223 386.81 360.918 387.335C361.627 387.846 362.422 388.101 363.301 388.101ZM381.671 389.569C380.678 389.569 379.805 389.307 379.053 388.782C378.316 388.243 377.748 387.491 377.351 386.527L378.692 385.888C378.904 386.569 379.273 387.108 379.798 387.505C380.337 387.888 380.933 388.08 381.585 388.08C382.493 388.08 383.181 387.803 383.649 387.25C384.118 386.683 384.352 385.888 384.352 384.867V374.717H385.948V384.867C385.948 386.342 385.565 387.498 384.798 388.335C384.032 389.158 382.99 389.569 381.671 389.569ZM395.716 389.229V374.717H403.845V376.058H397.312V381.122H402.419V382.42H397.312V387.91H403.909V389.229H395.716ZM418.206 389.569C416.986 389.569 415.929 389.272 415.036 388.676C414.156 388.066 413.475 387.2 412.993 386.08C412.525 384.945 412.291 383.59 412.291 382.016C412.291 380.427 412.518 379.065 412.972 377.93C413.44 376.781 414.099 375.909 414.951 375.313C415.816 374.703 416.837 374.398 418.015 374.398C419.22 374.398 420.249 374.667 421.1 375.207C421.965 375.731 422.639 376.476 423.121 377.441L421.845 378.185C421.391 377.349 420.859 376.753 420.249 376.398C419.639 376.029 418.894 375.845 418.015 375.845C416.752 375.845 415.759 376.391 415.036 377.483C414.326 378.561 413.972 380.065 413.972 381.994C413.972 383.257 414.135 384.349 414.461 385.271C414.787 386.193 415.256 386.903 415.866 387.399C416.475 387.881 417.185 388.123 417.993 388.123C419.001 388.123 419.781 387.903 420.334 387.463C420.901 387.009 421.426 386.307 421.909 385.356L423.249 386.165C422.738 387.271 422.058 388.115 421.206 388.697C420.369 389.279 419.369 389.569 418.206 389.569ZM435.281 389.229V376.036H430.707V374.717H441.431V376.036H436.856V389.229H435.281Z"/>
</mask>
<path d="M321.101 374.717H325.952C327.258 374.717 328.3 375.114 329.08 375.909C329.861 376.703 330.251 377.802 330.251 379.207C330.251 380.597 329.839 381.689 329.017 382.484C328.208 383.278 327.13 383.675 325.782 383.675H322.697V389.229H321.101V374.717ZM325.74 382.356C326.69 382.356 327.414 382.094 327.91 381.569C328.407 381.03 328.655 380.242 328.655 379.207C328.655 378.171 328.407 377.384 327.91 376.845C327.414 376.306 326.69 376.036 325.74 376.036H322.697V382.356H325.74ZM347 389.229L343.319 382.824H340.446V389.229H338.85V374.717H343.702C344.581 374.717 345.355 374.887 346.021 375.228C346.688 375.568 347.199 376.051 347.553 376.675C347.908 377.285 348.085 377.987 348.085 378.781C348.085 379.746 347.795 380.576 347.213 381.271C346.631 381.952 345.858 382.413 344.894 382.654L348.681 389.229H347ZM340.446 381.505H343.489C344.425 381.505 345.142 381.257 345.638 380.76C346.149 380.264 346.404 379.604 346.404 378.781C346.404 377.959 346.149 377.299 345.638 376.802C345.142 376.292 344.425 376.036 343.489 376.036H340.446V381.505ZM363.301 389.569C362.095 389.569 361.017 389.25 360.067 388.612C359.131 387.959 358.393 387.059 357.854 385.91C357.329 384.761 357.067 383.455 357.067 381.994C357.067 380.533 357.329 379.228 357.854 378.079C358.393 376.916 359.131 376.015 360.067 375.377C361.017 374.724 362.095 374.398 363.301 374.398C364.507 374.398 365.578 374.724 366.514 375.377C367.465 376.015 368.202 376.916 368.727 378.079C369.266 379.228 369.536 380.54 369.536 382.016C369.536 383.477 369.266 384.782 368.727 385.931C368.202 387.066 367.465 387.959 366.514 388.612C365.578 389.25 364.507 389.569 363.301 389.569ZM363.301 388.101C364.181 388.101 364.968 387.846 365.663 387.335C366.372 386.81 366.926 386.087 367.323 385.165C367.72 384.229 367.919 383.172 367.919 381.994C367.919 380.817 367.72 379.76 367.323 378.824C366.926 377.888 366.372 377.157 365.663 376.632C364.968 376.107 364.181 375.845 363.301 375.845C362.422 375.845 361.627 376.107 360.918 376.632C360.223 377.157 359.677 377.888 359.279 378.824C358.882 379.76 358.684 380.817 358.684 381.994C358.684 383.172 358.882 384.229 359.279 385.165C359.677 386.087 360.223 386.81 360.918 387.335C361.627 387.846 362.422 388.101 363.301 388.101ZM381.671 389.569C380.678 389.569 379.805 389.307 379.053 388.782C378.316 388.243 377.748 387.491 377.351 386.527L378.692 385.888C378.904 386.569 379.273 387.108 379.798 387.505C380.337 387.888 380.933 388.08 381.585 388.08C382.493 388.08 383.181 387.803 383.649 387.25C384.118 386.683 384.352 385.888 384.352 384.867V374.717H385.948V384.867C385.948 386.342 385.565 387.498 384.798 388.335C384.032 389.158 382.99 389.569 381.671 389.569ZM395.716 389.229V374.717H403.845V376.058H397.312V381.122H402.419V382.42H397.312V387.91H403.909V389.229H395.716ZM418.206 389.569C416.986 389.569 415.929 389.272 415.036 388.676C414.156 388.066 413.475 387.2 412.993 386.08C412.525 384.945 412.291 383.59 412.291 382.016C412.291 380.427 412.518 379.065 412.972 377.93C413.44 376.781 414.099 375.909 414.951 375.313C415.816 374.703 416.837 374.398 418.015 374.398C419.22 374.398 420.249 374.667 421.1 375.207C421.965 375.731 422.639 376.476 423.121 377.441L421.845 378.185C421.391 377.349 420.859 376.753 420.249 376.398C419.639 376.029 418.894 375.845 418.015 375.845C416.752 375.845 415.759 376.391 415.036 377.483C414.326 378.561 413.972 380.065 413.972 381.994C413.972 383.257 414.135 384.349 414.461 385.271C414.787 386.193 415.256 386.903 415.866 387.399C416.475 387.881 417.185 388.123 417.993 388.123C419.001 388.123 419.781 387.903 420.334 387.463C420.901 387.009 421.426 386.307 421.909 385.356L423.249 386.165C422.738 387.271 422.058 388.115 421.206 388.697C420.369 389.279 419.369 389.569 418.206 389.569ZM435.281 389.229V376.036H430.707V374.717H441.431V376.036H436.856V389.229H435.281Z" fill="white"/>
<path d="M321.101 374.717V374.431H320.814V374.717H321.101ZM329.08 375.909L328.876 376.109L328.876 376.109L329.08 375.909ZM329.017 382.484L328.818 382.278L328.816 382.279L329.017 382.484ZM322.697 383.675V383.389H322.41V383.675H322.697ZM322.697 389.229V389.515H322.983V389.229H322.697ZM321.101 389.229H320.814V389.515H321.101V389.229ZM327.91 381.569L328.118 381.766L328.121 381.763L327.91 381.569ZM327.91 376.845L327.699 377.039L327.699 377.039L327.91 376.845ZM322.697 376.036V375.75H322.41V376.036H322.697ZM322.697 382.356H322.41V382.643H322.697V382.356ZM321.101 375.004H325.952V374.431H321.101V375.004ZM325.952 375.004C327.195 375.004 328.159 375.379 328.876 376.109L329.285 375.708C328.441 374.849 327.32 374.431 325.952 374.431V375.004ZM328.876 376.109C329.591 376.837 329.964 377.857 329.964 379.207H330.537C330.537 377.748 330.13 376.569 329.285 375.708L328.876 376.109ZM329.964 379.207C329.964 380.537 329.573 381.549 328.818 382.278L329.215 382.69C330.106 381.83 330.537 380.657 330.537 379.207H329.964ZM328.816 382.279C328.071 383.011 327.07 383.389 325.782 383.389V383.962C327.19 383.962 328.345 383.545 329.217 382.688L328.816 382.279ZM325.782 383.389H322.697V383.962H325.782V383.389ZM322.41 383.675V389.229H322.983V383.675H322.41ZM322.697 388.943H321.101V389.515H322.697V388.943ZM321.387 389.229V374.717H320.814V389.229H321.387ZM325.74 382.643C326.743 382.643 327.552 382.364 328.118 381.766L327.702 381.372C327.275 381.823 326.637 382.07 325.74 382.07V382.643ZM328.121 381.763C328.683 381.152 328.941 380.285 328.941 379.207H328.368C328.368 380.2 328.13 380.907 327.699 381.375L328.121 381.763ZM328.941 379.207C328.941 378.129 328.683 377.261 328.121 376.651L327.699 377.039C328.13 377.507 328.368 378.214 328.368 379.207H328.941ZM328.121 376.651C327.555 376.037 326.745 375.75 325.74 375.75V376.323C326.635 376.323 327.272 376.575 327.699 377.039L328.121 376.651ZM325.74 375.75H322.697V376.323H325.74V375.75ZM322.41 376.036V382.356H322.983V376.036H322.41ZM322.697 382.643H325.74V382.07H322.697V382.643ZM347 389.229L346.752 389.372L346.834 389.515H347V389.229ZM343.319 382.824L343.567 382.681L343.485 382.538H343.319V382.824ZM340.446 382.824V382.538H340.16V382.824H340.446ZM340.446 389.229V389.515H340.733V389.229H340.446ZM338.85 389.229H338.564V389.515H338.85V389.229ZM338.85 374.717V374.431H338.564V374.717H338.85ZM346.021 375.228L346.152 374.973L346.152 374.973L346.021 375.228ZM347.553 376.675L347.304 376.816L347.306 376.819L347.553 376.675ZM347.213 381.271L347.431 381.457L347.433 381.455L347.213 381.271ZM344.894 382.654L344.824 382.376L344.456 382.468L344.645 382.797L344.894 382.654ZM348.681 389.229V389.515H349.177L348.929 389.086L348.681 389.229ZM340.446 381.505H340.16V381.791H340.446V381.505ZM345.638 380.76L345.439 380.555L345.436 380.558L345.638 380.76ZM345.638 376.802L345.433 377.002L345.439 377.008L345.638 376.802ZM340.446 376.036V375.75H340.16V376.036H340.446ZM347.248 389.086L343.567 382.681L343.071 382.967L346.752 389.372L347.248 389.086ZM343.319 382.538H340.446V383.111H343.319V382.538ZM340.16 382.824V389.229H340.733V382.824H340.16ZM340.446 388.943H338.85V389.515H340.446V388.943ZM339.137 389.229V374.717H338.564V389.229H339.137ZM338.85 375.004H343.702V374.431H338.85V375.004ZM343.702 375.004C344.544 375.004 345.271 375.166 345.891 375.483L346.152 374.973C345.438 374.608 344.619 374.431 343.702 374.431V375.004ZM345.891 375.483C346.51 375.799 346.979 376.243 347.304 376.816L347.802 376.533C347.419 375.858 346.866 375.337 346.152 374.973L345.891 375.483ZM347.306 376.819C347.632 377.38 347.799 378.031 347.799 378.781H348.372C348.372 377.943 348.184 377.19 347.801 376.531L347.306 376.819ZM347.799 378.781C347.799 379.683 347.529 380.447 346.993 381.087L347.433 381.455C348.06 380.705 348.372 379.808 348.372 378.781H347.799ZM346.995 381.085C346.456 381.715 345.738 382.148 344.824 382.376L344.963 382.932C345.979 382.678 346.806 382.188 347.431 381.457L346.995 381.085ZM344.645 382.797L348.433 389.372L348.929 389.086L345.142 382.511L344.645 382.797ZM348.681 388.943H347V389.515H348.681V388.943ZM340.446 381.791H343.489V381.218H340.446V381.791ZM343.489 381.791C344.475 381.791 345.275 381.529 345.841 380.963L345.436 380.558C345.009 380.984 344.376 381.218 343.489 381.218V381.791ZM345.838 380.966C346.413 380.407 346.691 379.668 346.691 378.781H346.118C346.118 379.54 345.885 380.121 345.439 380.555L345.838 380.966ZM346.691 378.781C346.691 377.894 346.413 377.156 345.838 376.597L345.439 377.008C345.885 377.442 346.118 378.023 346.118 378.781H346.691ZM345.844 376.603C345.278 376.021 344.477 375.75 343.489 375.75V376.323C344.373 376.323 345.006 376.563 345.433 377.002L345.844 376.603ZM343.489 375.75H340.446V376.323H343.489V375.75ZM340.16 376.036V381.505H340.733V376.036H340.16ZM360.067 388.612L359.903 388.847L359.907 388.85L360.067 388.612ZM357.854 385.91L357.593 386.029L357.594 386.031L357.854 385.91ZM357.854 378.079L357.594 377.959L357.593 377.96L357.854 378.079ZM360.067 375.377L360.228 375.613L360.229 375.613L360.067 375.377ZM366.514 375.377L366.35 375.612L366.354 375.615L366.514 375.377ZM368.727 378.079L368.466 378.197L368.468 378.201L368.727 378.079ZM368.727 385.931L368.468 385.809L368.467 385.811L368.727 385.931ZM366.514 388.612L366.676 388.849L366.676 388.848L366.514 388.612ZM365.663 387.335L365.833 387.566L365.833 387.565L365.663 387.335ZM367.323 385.165L367.586 385.278L367.586 385.277L367.323 385.165ZM367.323 378.824L367.586 378.712L367.586 378.712L367.323 378.824ZM365.663 376.632L365.49 376.861L365.493 376.862L365.663 376.632ZM360.918 376.632L360.748 376.402L360.745 376.404L360.918 376.632ZM359.279 378.824L359.016 378.712L359.016 378.712L359.279 378.824ZM359.279 385.165L359.016 385.277L359.016 385.278L359.279 385.165ZM360.918 387.335L360.745 387.564L360.751 387.568L360.918 387.335ZM363.301 389.283C362.149 389.283 361.127 388.979 360.226 388.374L359.907 388.85C360.907 389.522 362.042 389.856 363.301 389.856V389.283ZM360.231 388.377C359.34 387.756 358.633 386.897 358.113 385.788L357.594 386.031C358.152 387.221 358.921 388.163 359.903 388.847L360.231 388.377ZM358.114 385.791C357.609 384.684 357.353 383.421 357.353 381.994H356.78C356.78 383.49 357.049 384.837 357.593 386.029L358.114 385.791ZM357.353 381.994C357.353 380.568 357.609 379.304 358.114 378.198L357.593 377.96C357.049 379.152 356.78 380.499 356.78 381.994H357.353ZM358.114 378.2C358.634 377.077 359.34 376.219 360.228 375.613L359.905 375.14C358.921 375.811 358.152 376.755 357.594 377.959L358.114 378.2ZM360.229 375.613C361.129 374.995 362.15 374.684 363.301 374.684V374.111C362.04 374.111 360.905 374.454 359.905 375.141L360.229 375.613ZM363.301 374.684C364.452 374.684 365.465 374.995 366.35 375.612L366.678 375.142C365.691 374.454 364.562 374.111 363.301 374.111V374.684ZM366.354 375.615C367.256 376.22 367.961 377.077 368.466 378.197L368.988 377.961C368.444 376.755 367.674 375.81 366.674 375.139L366.354 375.615ZM368.468 378.201C368.986 379.306 369.249 380.576 369.249 382.016H369.822C369.822 380.505 369.546 379.15 368.986 377.957L368.468 378.201ZM369.249 382.016C369.249 383.441 368.986 384.704 368.468 385.809L368.986 386.053C369.546 384.86 369.822 383.512 369.822 382.016H369.249ZM368.467 385.811C367.962 386.903 367.256 387.755 366.352 388.376L366.676 388.848C367.673 388.164 368.442 387.229 368.987 386.051L368.467 385.811ZM366.353 388.375C365.467 388.979 364.453 389.283 363.301 389.283V389.856C364.561 389.856 365.689 389.521 366.676 388.849L366.353 388.375ZM363.301 388.388C364.24 388.388 365.087 388.114 365.833 387.566L365.493 387.104C364.849 387.578 364.121 387.815 363.301 387.815V388.388ZM365.833 387.565C366.589 387.007 367.171 386.24 367.586 385.278L367.06 385.051C366.68 385.934 366.156 386.614 365.493 387.105L365.833 387.565ZM367.586 385.277C368.001 384.3 368.205 383.204 368.205 381.994H367.632C367.632 383.139 367.439 384.157 367.059 385.053L367.586 385.277ZM368.205 381.994C368.205 380.784 368.001 379.689 367.586 378.712L367.059 378.936C367.439 379.831 367.632 380.849 367.632 381.994H368.205ZM367.586 378.712C367.172 377.736 366.59 376.962 365.833 376.402L365.493 376.862C366.155 377.352 366.679 378.039 367.059 378.936L367.586 378.712ZM365.836 376.404C365.09 375.841 364.242 375.558 363.301 375.558V376.131C364.119 376.131 364.846 376.374 365.49 376.861L365.836 376.404ZM363.301 375.558C362.36 375.558 361.506 375.841 360.748 376.402L361.088 376.862C361.748 376.374 362.483 376.131 363.301 376.131V375.558ZM360.745 376.404C360.004 376.963 359.429 377.737 359.016 378.712L359.543 378.936C359.924 378.038 360.442 377.351 361.091 376.861L360.745 376.404ZM359.016 378.712C358.601 379.689 358.397 380.784 358.397 381.994H358.97C358.97 380.849 359.163 379.831 359.543 378.936L359.016 378.712ZM358.397 381.994C358.397 383.204 358.601 384.3 359.016 385.277L359.543 385.053C359.163 384.157 358.97 383.139 358.97 381.994H358.397ZM359.016 385.278C359.43 386.239 360.005 387.005 360.745 387.564L361.091 387.107C360.441 386.616 359.923 385.935 359.543 385.051L359.016 385.278ZM360.751 387.568C361.509 388.114 362.362 388.388 363.301 388.388V387.815C362.481 387.815 361.745 387.578 361.085 387.103L360.751 387.568ZM379.053 388.782L378.884 389.013L378.889 389.017L379.053 388.782ZM377.351 386.527L377.228 386.268L376.983 386.385L377.086 386.636L377.351 386.527ZM378.692 385.888L378.965 385.803L378.866 385.488L378.568 385.63L378.692 385.888ZM379.798 387.505L379.625 387.734L379.632 387.739L379.798 387.505ZM383.649 387.25L383.868 387.435L383.87 387.432L383.649 387.25ZM384.352 374.717V374.431H384.065V374.717H384.352ZM385.948 374.717H386.234V374.431H385.948V374.717ZM384.798 388.335L385.008 388.531L385.01 388.529L384.798 388.335ZM381.671 389.283C380.731 389.283 379.917 389.036 379.217 388.547L378.889 389.017C379.693 389.578 380.624 389.856 381.671 389.856V389.283ZM379.222 388.551C378.533 388.047 377.996 387.34 377.616 386.418L377.086 386.636C377.501 387.642 378.098 388.439 378.884 389.013L379.222 388.551ZM377.474 386.785L378.815 386.147L378.568 385.63L377.228 386.268L377.474 386.785ZM378.418 385.974C378.647 386.707 379.049 387.298 379.625 387.734L379.971 387.277C379.498 386.919 379.162 386.432 378.965 385.803L378.418 385.974ZM379.632 387.739C380.219 388.156 380.873 388.366 381.585 388.366V387.794C380.993 387.794 380.455 387.621 379.964 387.272L379.632 387.739ZM381.585 388.366C382.554 388.366 383.332 388.068 383.868 387.435L383.431 387.065C383.03 387.538 382.432 387.794 381.585 387.794V388.366ZM383.87 387.432C384.395 386.797 384.638 385.929 384.638 384.867H384.065C384.065 385.847 383.84 386.568 383.428 387.068L383.87 387.432ZM384.638 384.867V374.717H384.065V384.867H384.638ZM384.352 375.004H385.948V374.431H384.352V375.004ZM385.661 374.717V384.867H386.234V374.717H385.661ZM385.661 384.867C385.661 386.293 385.292 387.372 384.587 388.142L385.01 388.529C385.837 387.625 386.234 386.392 386.234 384.867H385.661ZM384.589 388.14C383.886 388.895 382.925 389.283 381.671 389.283V389.856C383.054 389.856 384.178 389.422 385.008 388.53L384.589 388.14ZM395.716 389.229H395.43V389.515H395.716V389.229ZM395.716 374.717V374.431H395.43V374.717H395.716ZM403.845 374.717H404.131V374.431H403.845V374.717ZM403.845 376.058V376.344H404.131V376.058H403.845ZM397.312 376.058V375.771H397.026V376.058H397.312ZM397.312 381.122H397.026V381.408H397.312V381.122ZM402.419 381.122H402.705V380.835H402.419V381.122ZM402.419 382.42V382.706H402.705V382.42H402.419ZM397.312 382.42V382.133H397.026V382.42H397.312ZM397.312 387.91H397.026V388.196H397.312V387.91ZM403.909 387.91H404.195V387.623H403.909V387.91ZM403.909 389.229V389.515H404.195V389.229H403.909ZM396.003 389.229V374.717H395.43V389.229H396.003ZM395.716 375.004H403.845V374.431H395.716V375.004ZM403.558 374.717V376.058H404.131V374.717H403.558ZM403.845 375.771H397.312V376.344H403.845V375.771ZM397.026 376.058V381.122H397.599V376.058H397.026ZM397.312 381.408H402.419V380.835H397.312V381.408ZM402.133 381.122V382.42H402.705V381.122H402.133ZM402.419 382.133H397.312V382.706H402.419V382.133ZM397.026 382.42V387.91H397.599V382.42H397.026ZM397.312 388.196H403.909V387.623H397.312V388.196ZM403.622 387.91V389.229H404.195V387.91H403.622ZM403.909 388.943H395.716V389.515H403.909V388.943ZM415.036 388.676L414.872 388.911L414.877 388.914L415.036 388.676ZM412.993 386.08L412.728 386.189L412.73 386.193L412.993 386.08ZM412.972 377.93L412.706 377.822L412.706 377.824L412.972 377.93ZM414.951 375.313L415.115 375.548L415.116 375.547L414.951 375.313ZM421.1 375.207L420.947 375.449L420.951 375.451L421.1 375.207ZM423.121 377.441L423.266 377.688L423.498 377.553L423.378 377.313L423.121 377.441ZM421.845 378.185L421.593 378.322L421.734 378.582L421.989 378.433L421.845 378.185ZM420.249 376.398L420.101 376.643L420.105 376.646L420.249 376.398ZM415.036 377.483L414.797 377.325L414.796 377.326L415.036 377.483ZM414.461 385.271L414.191 385.367L414.191 385.367L414.461 385.271ZM415.866 387.399L415.685 387.621L415.688 387.624L415.866 387.399ZM420.334 387.463L420.512 387.687L420.513 387.687L420.334 387.463ZM421.909 385.356L422.057 385.111L421.793 384.952L421.653 385.227L421.909 385.356ZM423.249 386.165L423.509 386.285L423.617 386.052L423.397 385.92L423.249 386.165ZM421.206 388.697L421.045 388.461L421.043 388.462L421.206 388.697ZM418.206 389.283C417.035 389.283 416.035 388.998 415.195 388.437L414.877 388.914C415.824 389.545 416.938 389.856 418.206 389.856V389.283ZM415.199 388.44C414.369 387.865 413.72 387.045 413.256 385.967L412.73 386.193C413.23 387.356 413.943 388.266 414.872 388.911L415.199 388.44ZM413.258 385.971C412.807 384.879 412.577 383.563 412.577 382.016H412.004C412.004 383.618 412.242 385.011 412.728 386.189L413.258 385.971ZM412.577 382.016C412.577 380.453 412.801 379.129 413.238 378.037L412.706 377.824C412.235 379.001 412.004 380.401 412.004 382.016H412.577ZM413.237 378.038C413.688 376.93 414.317 376.106 415.115 375.548L414.786 375.078C413.882 375.711 413.191 376.632 412.706 377.822L413.237 378.038ZM415.116 375.547C415.927 374.975 416.889 374.684 418.015 374.684V374.111C416.785 374.111 415.704 374.431 414.786 375.079L415.116 375.547ZM418.015 374.684C419.177 374.684 420.15 374.944 420.947 375.448L421.253 374.965C420.348 374.391 419.264 374.111 418.015 374.111V374.684ZM420.951 375.451C421.768 375.946 422.405 376.649 422.865 377.569L423.378 377.313C422.873 376.303 422.163 375.516 421.249 374.962L420.951 375.451ZM422.977 377.193L421.7 377.938L421.989 378.433L423.266 377.688L422.977 377.193ZM422.097 378.049C421.626 377.181 421.062 376.539 420.393 376.15L420.105 376.646C420.656 376.966 421.156 377.516 421.593 378.322L422.097 378.049ZM420.397 376.153C419.733 375.751 418.934 375.558 418.015 375.558V376.131C418.854 376.131 419.545 376.307 420.101 376.643L420.397 376.153ZM418.015 375.558C416.652 375.558 415.571 376.156 414.797 377.325L415.274 377.641C415.947 376.626 416.852 376.131 418.015 376.131V375.558ZM414.796 377.326C414.045 378.469 413.685 380.035 413.685 381.994H414.258C414.258 380.095 414.608 378.654 415.275 377.641L414.796 377.326ZM413.685 381.994C413.685 383.28 413.851 384.407 414.191 385.367L414.731 385.176C414.418 384.292 414.258 383.233 414.258 381.994H413.685ZM414.191 385.367C414.531 386.326 415.025 387.084 415.685 387.621L416.046 387.177C415.486 386.721 415.044 386.06 414.731 385.176L414.191 385.367ZM415.688 387.624C416.351 388.148 417.123 388.409 417.993 388.409V387.836C417.246 387.836 416.6 387.615 416.043 387.174L415.688 387.624ZM417.993 388.409C419.038 388.409 419.891 388.181 420.512 387.687L420.156 387.239C419.671 387.624 418.963 387.836 417.993 387.836V388.409ZM420.513 387.687C421.124 387.198 421.671 386.457 422.164 385.486L421.653 385.227C421.181 386.156 420.679 386.82 420.155 387.239L420.513 387.687ZM421.761 385.602L423.101 386.41L423.397 385.92L422.057 385.111L421.761 385.602ZM422.989 386.045C422.496 387.113 421.846 387.913 421.045 388.461L421.368 388.934C422.269 388.318 422.981 387.43 423.509 386.285L422.989 386.045ZM421.043 388.462C420.261 389.006 419.319 389.283 418.206 389.283V389.856C419.419 389.856 420.478 389.552 421.37 388.932L421.043 388.462ZM435.281 389.229H434.995V389.515H435.281V389.229ZM435.281 376.036H435.568V375.75H435.281V376.036ZM430.707 376.036H430.42V376.323H430.707V376.036ZM430.707 374.717V374.431H430.42V374.717H430.707ZM441.431 374.717H441.717V374.431H441.431V374.717ZM441.431 376.036V376.323H441.717V376.036H441.431ZM436.856 376.036V375.75H436.57V376.036H436.856ZM436.856 389.229V389.515H437.142V389.229H436.856ZM435.568 389.229V376.036H434.995V389.229H435.568ZM435.281 375.75H430.707V376.323H435.281V375.75ZM430.993 376.036V374.717H430.42V376.036H430.993ZM430.707 375.004H441.431V374.431H430.707V375.004ZM441.144 374.717V376.036H441.717V374.717H441.144ZM441.431 375.75H436.856V376.323H441.431V375.75ZM436.57 376.036V389.229H437.142V376.036H436.57ZM436.856 388.943H435.281V389.515H436.856V388.943Z" fill="white" mask="url(#path-11-outside-1_334_527)"/>
<path d="M571.026 511L575.186 501.9H576.135L580.295 511H579.281L575.459 502.459H575.849L572.027 511H571.026ZM572.664 508.569L572.95 507.789H578.241L578.527 508.569H572.664ZM583.75 511V501.9H584.712V510.168H589.808V511H583.75ZM594.214 505.969H599.024V506.788H594.214V505.969ZM594.318 510.168H599.791V511H593.356V501.9H599.596V502.732H594.318V510.168ZM606.511 511.078C605.835 511.078 605.185 510.97 604.561 510.753C603.946 510.528 603.469 510.242 603.131 509.895L603.508 509.154C603.829 509.466 604.258 509.73 604.795 509.947C605.341 510.155 605.913 510.259 606.511 510.259C607.083 510.259 607.547 510.19 607.902 510.051C608.266 509.904 608.53 509.709 608.695 509.466C608.868 509.223 608.955 508.955 608.955 508.66C608.955 508.305 608.851 508.019 608.643 507.802C608.444 507.585 608.179 507.416 607.85 507.295C607.521 507.165 607.157 507.052 606.758 506.957C606.359 506.862 605.961 506.762 605.562 506.658C605.163 506.545 604.795 506.398 604.457 506.216C604.128 506.034 603.859 505.796 603.651 505.501C603.452 505.198 603.352 504.803 603.352 504.318C603.352 503.867 603.469 503.456 603.703 503.083C603.946 502.702 604.314 502.398 604.808 502.173C605.302 501.939 605.935 501.822 606.706 501.822C607.217 501.822 607.724 501.896 608.227 502.043C608.73 502.182 609.163 502.377 609.527 502.628L609.202 503.395C608.812 503.135 608.396 502.944 607.954 502.823C607.521 502.702 607.1 502.641 606.693 502.641C606.147 502.641 605.696 502.715 605.341 502.862C604.986 503.009 604.721 503.209 604.548 503.46C604.383 503.703 604.301 503.98 604.301 504.292C604.301 504.647 604.401 504.933 604.6 505.15C604.808 505.367 605.077 505.536 605.406 505.657C605.744 505.778 606.112 505.887 606.511 505.982C606.91 506.077 607.304 506.181 607.694 506.294C608.093 506.407 608.457 506.554 608.786 506.736C609.124 506.909 609.393 507.143 609.592 507.438C609.8 507.733 609.904 508.118 609.904 508.595C609.904 509.037 609.783 509.449 609.54 509.83C609.297 510.203 608.925 510.506 608.422 510.74C607.928 510.965 607.291 511.078 606.511 511.078ZM616.459 511.078C615.783 511.078 615.133 510.97 614.509 510.753C613.894 510.528 613.417 510.242 613.079 509.895L613.456 509.154C613.777 509.466 614.206 509.73 614.743 509.947C615.289 510.155 615.861 510.259 616.459 510.259C617.031 510.259 617.495 510.19 617.85 510.051C618.214 509.904 618.478 509.709 618.643 509.466C618.816 509.223 618.903 508.955 618.903 508.66C618.903 508.305 618.799 508.019 618.591 507.802C618.392 507.585 618.127 507.416 617.798 507.295C617.469 507.165 617.105 507.052 616.706 506.957C616.307 506.862 615.909 506.762 615.51 506.658C615.111 506.545 614.743 506.398 614.405 506.216C614.076 506.034 613.807 505.796 613.599 505.501C613.4 505.198 613.3 504.803 613.3 504.318C613.3 503.867 613.417 503.456 613.651 503.083C613.894 502.702 614.262 502.398 614.756 502.173C615.25 501.939 615.883 501.822 616.654 501.822C617.165 501.822 617.672 501.896 618.175 502.043C618.678 502.182 619.111 502.377 619.475 502.628L619.15 503.395C618.76 503.135 618.344 502.944 617.902 502.823C617.469 502.702 617.048 502.641 616.641 502.641C616.095 502.641 615.644 502.715 615.289 502.862C614.934 503.009 614.669 503.209 614.496 503.46C614.331 503.703 614.249 503.98 614.249 504.292C614.249 504.647 614.349 504.933 614.548 505.15C614.756 505.367 615.025 505.536 615.354 505.657C615.692 505.778 616.06 505.887 616.459 505.982C616.858 506.077 617.252 506.181 617.642 506.294C618.041 506.407 618.405 506.554 618.734 506.736C619.072 506.909 619.341 507.143 619.54 507.438C619.748 507.733 619.852 508.118 619.852 508.595C619.852 509.037 619.731 509.449 619.488 509.83C619.245 510.203 618.873 510.506 618.37 510.74C617.876 510.965 617.239 511.078 616.459 511.078ZM622.442 511L626.602 501.9H627.551L631.711 511H630.697L626.875 502.459H627.265L623.443 511H622.442ZM624.08 508.569L624.366 507.789H629.657L629.943 508.569H624.08ZM635.166 511V501.9H635.959L642.238 509.804H641.822V501.9H642.771V511H641.978L635.712 503.096H636.128V511H635.166ZM647.692 511V501.9H651.397C652.367 501.9 653.217 502.095 653.945 502.485C654.681 502.866 655.253 503.399 655.661 504.084C656.068 504.769 656.272 505.557 656.272 506.45C656.272 507.343 656.068 508.131 655.661 508.816C655.253 509.501 654.681 510.038 653.945 510.428C653.217 510.809 652.367 511 651.397 511H647.692ZM648.654 510.168H651.345C652.151 510.168 652.848 510.012 653.438 509.7C654.036 509.379 654.499 508.942 654.829 508.387C655.158 507.824 655.323 507.178 655.323 506.45C655.323 505.713 655.158 505.068 654.829 504.513C654.499 503.958 654.036 503.525 653.438 503.213C652.848 502.892 652.151 502.732 651.345 502.732H648.654V510.168ZM660.382 511V501.9H663.788C664.559 501.9 665.222 502.026 665.777 502.277C666.331 502.52 666.756 502.875 667.051 503.343C667.354 503.802 667.506 504.361 667.506 505.02C667.506 505.661 667.354 506.216 667.051 506.684C666.756 507.143 666.331 507.499 665.777 507.75C665.222 507.993 664.559 508.114 663.788 508.114H660.915L661.344 507.672V511H660.382ZM666.596 511L664.256 507.698H665.296L667.649 511H666.596ZM661.344 507.75L660.915 507.295H663.762C664.672 507.295 665.361 507.096 665.829 506.697C666.305 506.298 666.544 505.739 666.544 505.02C666.544 504.292 666.305 503.729 665.829 503.33C665.361 502.931 664.672 502.732 663.762 502.732H660.915L661.344 502.277V507.75ZM670.27 511L674.43 501.9H675.379L679.539 511H678.525L674.703 502.459H675.093L671.271 511H670.27ZM671.908 508.569L672.194 507.789H677.485L677.771 508.569H671.908ZM688.347 511V501.9H691.753C692.524 501.9 693.187 502.026 693.742 502.277C694.297 502.52 694.721 502.875 695.016 503.343C695.319 503.802 695.471 504.361 695.471 505.02C695.471 505.661 695.319 506.216 695.016 506.684C694.721 507.143 694.297 507.499 693.742 507.75C693.187 507.993 692.524 508.114 691.753 508.114H688.88L689.309 507.672V511H688.347ZM694.561 511L692.221 507.698H693.261L695.614 511H694.561ZM689.309 507.75L688.88 507.295H691.727C692.637 507.295 693.326 507.096 693.794 506.697C694.271 506.298 694.509 505.739 694.509 505.02C694.509 504.292 694.271 503.729 693.794 503.33C693.326 502.931 692.637 502.732 691.727 502.732H688.88L689.309 502.277V507.75ZM700.55 505.969H705.36V506.788H700.55V505.969ZM700.654 510.168H706.127V511H699.692V501.9H705.932V502.732H700.654V510.168ZM710.338 511V501.9H711.3V511H710.338ZM718.72 511.078C718.044 511.078 717.394 510.97 716.77 510.753C716.154 510.528 715.678 510.242 715.34 509.895L715.717 509.154C716.037 509.466 716.466 509.73 717.004 509.947C717.55 510.155 718.122 510.259 718.72 510.259C719.292 510.259 719.755 510.19 720.111 510.051C720.475 509.904 720.739 509.709 720.904 509.466C721.077 509.223 721.164 508.955 721.164 508.66C721.164 508.305 721.06 508.019 720.852 507.802C720.652 507.585 720.388 507.416 720.059 507.295C719.729 507.165 719.365 507.052 718.967 506.957C718.568 506.862 718.169 506.762 717.771 506.658C717.372 506.545 717.004 506.398 716.666 506.216C716.336 506.034 716.068 505.796 715.86 505.501C715.66 505.198 715.561 504.803 715.561 504.318C715.561 503.867 715.678 503.456 715.912 503.083C716.154 502.702 716.523 502.398 717.017 502.173C717.511 501.939 718.143 501.822 718.915 501.822C719.426 501.822 719.933 501.896 720.436 502.043C720.938 502.182 721.372 502.377 721.736 502.628L721.411 503.395C721.021 503.135 720.605 502.944 720.163 502.823C719.729 502.702 719.309 502.641 718.902 502.641C718.356 502.641 717.905 502.715 717.55 502.862C717.194 503.009 716.93 503.209 716.757 503.46C716.592 503.703 716.51 503.98 716.51 504.292C716.51 504.647 716.609 504.933 716.809 505.15C717.017 505.367 717.285 505.536 717.615 505.657C717.953 505.778 718.321 505.887 718.72 505.982C719.118 506.077 719.513 506.181 719.903 506.294C720.301 506.407 720.665 506.554 720.995 506.736C721.333 506.909 721.601 507.143 721.801 507.438C722.009 507.733 722.113 508.118 722.113 508.595C722.113 509.037 721.991 509.449 721.749 509.83C721.506 510.203 721.133 510.506 720.631 510.74C720.137 510.965 719.5 511.078 718.72 511.078Z" fill="#CF3535"/>
</g>
<defs>
<clipPath id="clip0_334_527">
<rect width="762" height="553" fill="white"/>
</clipPath>
</defs>
</svg>
