<svg width="206" height="230" viewBox="0 0 206 230" fill="none" xmlns="http://www.w3.org/2000/svg">
<path d="M91.4923 23.4286C104.328 50.7789 96.0904 69.0716 98.4622 106.64C101.983 131.718 92.7974 146.327 91.059 169.011C75.1812 152.382 57.928 139.948 56.3009 108.575C57.9162 62.8546 68.8793 47.1614 91.4923 23.4286Z" fill="#283C57"/>
<path d="M185.241 60.1797C168.612 58.6822 157.406 55.6567 152.796 57.2582C135.825 63.1539 140.783 59.081 125.632 82.9136C110.48 106.746 102.422 132.325 91.9875 169.237L174.128 113.02C189.938 92.0638 186.701 74.5678 185.241 60.1797Z" fill="#283C57"/>
<path d="M82.7419 58.1028C75.6309 110.142 99.1626 159.13 103.293 209.783L97.4037 210.666C95.0306 161.156 69.8532 110.205 82.7419 58.1028Z" fill="#D71A38"/>
<path d="M150.477 89.8408L91.5865 167.019L97.0343 170.38L150.477 89.8408Z" fill="#D71A38"/>
</svg>
