<svg width="117" height="169" viewBox="0 0 117 169" fill="none" xmlns="http://www.w3.org/2000/svg">
<path d="M17.1922 35.7222C10.6273 60.7854 9.04589 75.8325 25.4131 108.074C38.5362 129.151 55.2251 131.154 72.5664 136.583C58.4548 92.4444 47.3018 69.7482 17.1922 35.7222Z" fill="#F5E2B0"/>
<path d="M102.917 1.50002C109.429 10.8935 111.532 45.5476 108.611 66.0891C105.69 86.6305 73.295 136.385 73.295 136.385C66.3963 106.863 63.5538 83.5 63.5538 63.811C63.5538 44.1219 85.2949 32.7577 102.917 1.50002Z" fill="#F5E2B0"/>
<path d="M24.3996 63.0515C39.3822 101.765 74.3924 126.65 96.6202 160.106L92.8846 162.969C72.3092 129.631 35.4098 104.018 24.3996 63.0515Z" fill="#283C57"/>
<path d="M83.3882 59.1011L72.17 135.005L77.2233 135.245L83.3882 59.1011Z" fill="#283C57"/>
</svg>
