<svg width="738" height="1070" viewBox="0 0 738 1070" fill="none" xmlns="http://www.w3.org/2000/svg">
<path d="M518.148 47.6835C439.8 104.442 434.542 168.469 369.686 270.076C320.964 334.899 305.58 384.238 275.305 450.5C345.565 428.502 431.671 426.22 484.841 340.823C551.154 210.194 544.747 149.229 518.148 47.6835Z" fill="#283C57"/>
<path d="M198.486 5.41735C247.408 26.9865 206.805 47.502 293.937 47.502C332.362 90.3194 324.776 71.2225 330.311 161.487C335.846 251.752 305.303 336.386 277.353 455.995L147.758 170.717C135.921 87.4918 172.1 43.4759 198.486 5.41735Z" fill="#283C57"/>
<path d="M488.949 158.411C354.329 304.06 290.431 433.887 200.373 569.439L289.505 1069.81C244.936 433.711 97.0532 723.4 488.949 158.411Z" fill="#D71A38"/>
<path d="M249.95 142.405L281.405 451.943L273.301 462.072L249.95 142.405Z" fill="#D71A38"/>
</svg>
