<svg width="1920" height="1080" viewBox="0 0 1920 1080" fill="none" xmlns="http://www.w3.org/2000/svg">
<rect width="1920" height="1080" fill="#FE9900"/>
<g filter="url(#filter0_dd)">
<path d="M831.642 677.979C809.408 649.52 774.768 631.224 735.855 631.224C668.762 631.224 614.372 685.614 614.372 752.708C614.372 819.802 668.762 874.192 735.855 874.192C795.473 874.192 845.061 831.247 855.371 774.605H735.855" stroke="white" stroke-width="62.3393"/>
<circle cx="1153.61" cy="752.786" r="112.888" stroke="white" stroke-width="79.6859"/>
<path d="M734.894 521.091H871.002" stroke="white" stroke-width="41.5595"/>
<path d="M797.234 521.092L928.146 689.408L1047.63 592.782" stroke="white" stroke-width="41.5595" stroke-linejoin="round"/>
<path d="M1152.57 747.591L995.68 531.481L1139.14 414.011" stroke="white" stroke-width="41.5595" stroke-linejoin="round"/>
</g>
<path d="M673.619 256C668.965 256 664.964 254.326 661.617 250.979C658.269 247.631 656.595 243.63 656.595 238.976V184.843C656.595 180.189 658.269 176.188 661.617 172.84C664.964 169.493 668.965 167.819 673.619 167.819H727.63C732.366 167.819 736.407 169.493 739.755 172.84C743.102 176.188 744.776 180.189 744.776 184.843V191.701H728.487V188.395C728.487 186.108 728.324 184.843 727.997 184.598C727.671 184.271 726.405 184.108 724.201 184.108H677.048C674.762 184.108 673.456 184.271 673.129 184.598C672.884 184.843 672.762 186.108 672.762 188.395V235.424C672.762 237.711 672.884 239.017 673.129 239.344C673.456 239.589 674.762 239.711 677.048 239.711H724.201C726.405 239.711 727.671 239.589 727.997 239.344C728.324 239.017 728.487 237.711 728.487 235.424V222.32H708.524V206.031H744.776V238.976C744.776 243.63 743.102 247.631 739.755 250.979C736.407 254.326 732.366 256 727.63 256H673.619ZM775.037 256C770.383 256 766.382 254.326 763.034 250.979C759.687 247.631 758.013 243.63 758.013 238.976V184.843C758.013 180.189 759.687 176.188 763.034 172.84C766.382 169.493 770.383 167.819 775.037 167.819H829.17C833.824 167.819 837.825 169.493 841.173 172.84C844.52 176.188 846.194 180.189 846.194 184.843V238.976C846.194 243.63 844.52 247.631 841.173 250.979C837.825 254.326 833.824 256 829.17 256H775.037ZM778.466 239.711H825.618C827.823 239.711 829.089 239.589 829.415 239.344C829.742 239.017 829.905 237.711 829.905 235.424V188.395C829.905 186.108 829.742 184.843 829.415 184.598C829.089 184.271 827.823 184.108 825.618 184.108H778.466C776.18 184.108 774.874 184.271 774.547 184.598C774.302 184.843 774.18 186.108 774.18 188.395V235.424C774.18 237.711 774.302 239.017 774.547 239.344C774.874 239.589 776.18 239.711 778.466 239.711ZM934.92 256V167.819H1002.53C1007.18 167.819 1011.18 169.493 1014.53 172.84C1017.88 176.188 1019.55 180.189 1019.55 184.843V202.112C1019.55 203.173 1019.47 204.194 1019.3 205.173C1019.14 206.153 1018.86 207.092 1018.45 207.99C1019.84 209.868 1020.94 211.828 1021.75 213.869C1022.65 215.91 1023.1 217.952 1023.1 219.993V238.976C1023.1 243.63 1021.43 247.631 1018.08 250.979C1014.73 254.326 1010.69 256 1005.96 256H934.92ZM955.373 239.711H1002.53C1004.73 239.711 1006 239.589 1006.32 239.344C1006.65 239.017 1006.81 237.711 1006.81 235.424V223.545C1006.81 221.258 1006.65 219.993 1006.32 219.748C1006 219.421 1004.73 219.258 1002.53 219.258H955.373C953.087 219.258 951.781 219.421 951.454 219.748C951.209 219.993 951.087 221.258 951.087 223.545V235.424C951.087 237.711 951.209 239.017 951.454 239.344C951.781 239.589 953.087 239.711 955.373 239.711ZM955.373 202.969H998.974C1001.18 202.969 1002.4 202.846 1002.65 202.602C1002.97 202.275 1003.14 200.969 1003.14 198.682V188.395C1003.14 186.108 1002.97 184.843 1002.65 184.598C1002.4 184.271 1001.18 184.108 998.974 184.108H955.373C953.087 184.108 951.781 184.271 951.454 184.598C951.209 184.843 951.087 186.108 951.087 188.395V198.682C951.087 200.969 951.209 202.275 951.454 202.602C951.781 202.846 953.087 202.969 955.373 202.969ZM1035.96 256V167.819H1052.01V256H1035.96ZM1063.61 256V167.819H1079.9V203.704H1100.59L1130.72 167.819H1148.36V172.473L1115.29 211.91L1148.48 251.346V256H1130.72L1100.59 219.993H1079.9V256H1063.61ZM1161.33 256V167.819H1242.53V184.108H1177.62V203.704H1229.79V219.993H1177.62V239.711H1242.53V256H1161.33Z" fill="black"/>
<path d="M877.523 166.916H856.979C855.188 166.916 853.892 168.627 854.378 170.351L870.04 225.941C870.854 228.832 875.07 228.436 875.333 225.445L880.214 169.854C880.353 168.275 879.108 166.916 877.523 166.916Z" fill="black"/>
<path d="M866.808 242.864C866.808 241.626 867.649 240.546 868.849 240.244L877.665 238.021C879.372 237.59 881.028 238.881 881.028 240.641V252.846C881.028 254.338 879.818 255.548 878.326 255.548H869.51C868.017 255.548 866.808 254.338 866.808 252.846V242.864Z" fill="black"/>
<circle cx="1284.48" cy="157.515" r="24.4781" stroke="black" stroke-width="2.07442"/>
<path d="M1270.61 172.037V143.997H1293.23C1294.74 143.997 1296.02 144.543 1297.09 145.635C1298.15 146.701 1298.69 147.962 1298.69 149.418V156.984C1298.69 158.466 1298.15 159.739 1297.09 160.805C1296.02 161.871 1294.74 162.404 1293.23 162.404H1291.71L1298.65 170.594V172.037H1293.03L1284.96 162.404L1275.76 162.443V172.037H1270.61ZM1277.12 157.218H1292.14C1292.84 157.218 1293.23 157.179 1293.31 157.101C1293.41 157.023 1293.46 156.62 1293.46 155.892V150.51C1293.46 149.782 1293.41 149.379 1293.31 149.301C1293.23 149.197 1292.84 149.145 1292.14 149.145H1277.12C1276.39 149.145 1275.98 149.197 1275.87 149.301C1275.79 149.379 1275.76 149.782 1275.76 150.51V155.892C1275.76 156.62 1275.79 157.023 1275.87 157.101C1275.98 157.179 1276.39 157.218 1277.12 157.218Z" fill="black"/>
<defs>
<filter id="filter0_dd" x="574.89" y="395.182" width="739.76" height="526.959" filterUnits="userSpaceOnUse" color-interpolation-filters="sRGB">
<feFlood flood-opacity="0" result="BackgroundImageFix"/>
<feColorMatrix in="SourceAlpha" type="matrix" values="0 0 0 0 0 0 0 0 0 0 0 0 0 0 0 0 0 0 127 0" result="hardAlpha"/>
<feOffset dy="8.31191"/>
<feGaussianBlur stdDeviation="4.15595"/>
<feColorMatrix type="matrix" values="0 0 0 0 0 0 0 0 0 0 0 0 0 0 0 0 0 0 0.25 0"/>
<feBlend mode="normal" in2="BackgroundImageFix" result="effect1_dropShadow"/>
<feColorMatrix in="SourceAlpha" type="matrix" values="0 0 0 0 0 0 0 0 0 0 0 0 0 0 0 0 0 0 127 0" result="hardAlpha"/>
<feOffset dy="8.31191"/>
<feGaussianBlur stdDeviation="4.15595"/>
<feColorMatrix type="matrix" values="0 0 0 0 0 0 0 0 0 0 0 0 0 0 0 0 0 0 0.25 0"/>
<feBlend mode="normal" in2="effect1_dropShadow" result="effect2_dropShadow"/>
<feBlend mode="normal" in="SourceGraphic" in2="effect2_dropShadow" result="shape"/>
</filter>
</defs>
</svg>
