<svg width="255" height="246" viewBox="0 0 255 246" fill="none" xmlns="http://www.w3.org/2000/svg">
<path d="M206.245 46.3574C213.253 95.5917 199.06 158.279 157.728 179.347C116.396 200.416 77.8425 195.178 42.465 192.978C42.465 192.978 31.123 100.708 74.7248 86.6299C118.327 72.5513 163.213 76.9023 206.245 46.3574Z" fill="#D71A38"/>
<path d="M151.226 98.3627C105.327 131.956 78.2808 150.144 46.022 198.384L37.6696 188.79C75.1365 144.587 103.171 128.868 151.226 98.3627Z" fill="#F5E2B0"/>
<path d="M78.208 184.639C70.9001 179.55 66.9065 177.865 58.1145 179.075L60.6904 172.65C69.0388 175.167 72.6473 178.114 78.208 184.639Z" fill="#F5E2B0"/>
<path d="M114.32 149.528C106.215 144.156 102.815 142.336 93.6129 142.593L94.9068 136.844C103.919 139.958 107.954 143.009 114.32 149.528Z" fill="#F5E2B0"/>
<path d="M64.1234 138.393C68.0178 145.749 69.2248 149.629 67.7471 157.544L73.2821 155.999C71.6048 148.017 69.3169 144.329 64.1234 138.393Z" fill="#F5E2B0"/>
</svg>
