<svg width="284" height="292" viewBox="0 0 284 292" fill="none" xmlns="http://www.w3.org/2000/svg">
<path d="M28.5057 146.622C44.9684 181.809 54.5596 202.679 83.8121 231.805C94.2067 242.61 108.7 246.302 140.758 257.339C130.484 230.66 129.373 212.712 117.019 198.138C91.1479 169.436 66.5097 163.442 28.5057 146.622Z" fill="#F5E2B0"/>
<path d="M256.15 92.967C216.118 119.628 192.341 135.229 162.094 176.427C150.788 191.151 148.949 209.577 141.366 250.864C172.127 233.353 193.893 228.673 209.451 210.854C239.805 173.874 242.586 142.603 256.15 92.967Z" fill="#F5E2B0"/>
<path d="M73.3911 191.945L140.026 260.878L144.109 256.745L73.3911 191.945Z" fill="#283C57"/>
<path d="M215.126 142.494C176.219 181.209 155.46 203.806 136.499 259.423L143.001 262.499C158.417 210.545 177.755 185.686 215.126 142.494Z" fill="#283C57"/>
</svg>
