<svg width="800" height="400" viewBox="0 0 800 400" fill="none" xmlns="http://www.w3.org/2000/svg">
<rect width="800" height="400" fill="white"/>
<circle cx="40.4196" cy="68.0578" r="8.41959" fill="#C54846"/>
<circle cx="40.4196" cy="95.696" r="8.41959" fill="#283C57"/>
<circle cx="40.4196" cy="40.4196" r="8.41959" fill="#E5B89F"/>
<circle cx="40.4196" cy="123.334" r="8.41959" fill="#D71A38"/>
<path d="M638.022 368L641.58 360.217H642.392L645.95 368H645.083L641.814 360.695H642.147L638.878 368H638.022ZM639.423 365.921L639.668 365.254H644.193L644.438 365.921H639.423ZM648.905 368V360.217H649.728V367.288H654.087V368H648.905ZM657.854 363.697H661.968V364.398H657.854V363.697ZM657.943 367.288H662.624V368H657.121V360.217H662.458V360.928H657.943V367.288ZM668.372 368.067C667.794 368.067 667.238 367.974 666.704 367.789C666.178 367.596 665.77 367.351 665.481 367.055L665.804 366.421C666.078 366.688 666.445 366.914 666.905 367.099C667.372 367.277 667.861 367.366 668.372 367.366C668.861 367.366 669.258 367.307 669.562 367.188C669.873 367.062 670.099 366.896 670.24 366.688C670.388 366.48 670.463 366.251 670.463 365.999C670.463 365.695 670.374 365.45 670.196 365.265C670.025 365.079 669.799 364.935 669.517 364.831C669.236 364.72 668.924 364.624 668.583 364.542C668.242 364.461 667.902 364.375 667.561 364.286C667.22 364.19 666.905 364.064 666.615 363.908C666.334 363.753 666.104 363.549 665.926 363.297C665.756 363.037 665.67 362.7 665.67 362.285C665.67 361.899 665.77 361.547 665.971 361.229C666.178 360.903 666.493 360.643 666.916 360.45C667.338 360.25 667.879 360.15 668.539 360.15C668.976 360.15 669.41 360.213 669.84 360.339C670.27 360.458 670.64 360.625 670.952 360.839L670.674 361.496C670.34 361.273 669.984 361.11 669.606 361.006C669.236 360.903 668.876 360.851 668.528 360.851C668.061 360.851 667.675 360.914 667.372 361.04C667.068 361.166 666.842 361.336 666.693 361.551C666.552 361.759 666.482 361.996 666.482 362.263C666.482 362.567 666.567 362.811 666.738 362.997C666.916 363.182 667.145 363.326 667.427 363.43C667.716 363.534 668.031 363.627 668.372 363.708C668.713 363.79 669.05 363.879 669.384 363.975C669.725 364.071 670.036 364.197 670.318 364.353C670.607 364.501 670.837 364.701 671.007 364.953C671.185 365.205 671.274 365.535 671.274 365.943C671.274 366.321 671.17 366.673 670.963 366.999C670.755 367.318 670.437 367.577 670.007 367.778C669.584 367.97 669.039 368.067 668.372 368.067ZM676.881 368.067C676.303 368.067 675.747 367.974 675.213 367.789C674.687 367.596 674.279 367.351 673.99 367.055L674.312 366.421C674.587 366.688 674.953 366.914 675.413 367.099C675.88 367.277 676.369 367.366 676.881 367.366C677.37 367.366 677.766 367.307 678.07 367.188C678.382 367.062 678.608 366.896 678.749 366.688C678.897 366.48 678.971 366.251 678.971 365.999C678.971 365.695 678.882 365.45 678.704 365.265C678.534 365.079 678.308 364.935 678.026 364.831C677.744 364.72 677.433 364.624 677.092 364.542C676.751 364.461 676.41 364.375 676.069 364.286C675.728 364.19 675.413 364.064 675.124 363.908C674.842 363.753 674.612 363.549 674.435 363.297C674.264 363.037 674.179 362.7 674.179 362.285C674.179 361.899 674.279 361.547 674.479 361.229C674.687 360.903 675.002 360.643 675.424 360.45C675.847 360.25 676.388 360.15 677.047 360.15C677.485 360.15 677.918 360.213 678.348 360.339C678.778 360.458 679.149 360.625 679.46 360.839L679.182 361.496C678.849 361.273 678.493 361.11 678.115 361.006C677.744 360.903 677.385 360.851 677.036 360.851C676.569 360.851 676.184 360.914 675.88 361.04C675.576 361.166 675.35 361.336 675.202 361.551C675.061 361.759 674.99 361.996 674.99 362.263C674.99 362.567 675.076 362.811 675.246 362.997C675.424 363.182 675.654 363.326 675.936 363.43C676.225 363.534 676.54 363.627 676.881 363.708C677.222 363.79 677.559 363.879 677.893 363.975C678.233 364.071 678.545 364.197 678.826 364.353C679.116 364.501 679.345 364.701 679.516 364.953C679.694 365.205 679.783 365.535 679.783 365.943C679.783 366.321 679.679 366.673 679.471 366.999C679.264 367.318 678.945 367.577 678.515 367.778C678.093 367.97 677.548 368.067 676.881 368.067ZM681.998 368L685.556 360.217H686.368L689.926 368H689.058L685.789 360.695H686.123L682.854 368H681.998ZM683.399 365.921L683.644 365.254H688.169L688.413 365.921H683.399ZM692.881 368V360.217H693.559L698.93 366.977H698.574V360.217H699.385V368H698.707L693.348 361.24H693.704V368H692.881ZM703.594 368V360.217H706.763C707.593 360.217 708.319 360.384 708.942 360.717C709.572 361.043 710.061 361.499 710.41 362.085C710.758 362.67 710.932 363.345 710.932 364.108C710.932 364.872 710.758 365.546 710.41 366.132C710.061 366.718 709.572 367.177 708.942 367.511C708.319 367.837 707.593 368 706.763 368H703.594ZM704.416 367.288H706.718C707.407 367.288 708.004 367.155 708.508 366.888C709.02 366.614 709.416 366.24 709.698 365.765C709.98 365.283 710.12 364.731 710.12 364.108C710.12 363.478 709.98 362.926 709.698 362.452C709.416 361.977 709.02 361.607 708.508 361.34C708.004 361.066 707.407 360.928 706.718 360.928H704.416V367.288ZM714.448 368V360.217H717.361C718.02 360.217 718.587 360.324 719.062 360.539C719.536 360.747 719.899 361.051 720.151 361.451C720.411 361.844 720.541 362.322 720.541 362.885C720.541 363.434 720.411 363.908 720.151 364.309C719.899 364.701 719.536 365.005 719.062 365.22C718.587 365.428 718.02 365.532 717.361 365.532H714.903L715.27 365.154V368H714.448ZM719.762 368L717.761 365.176H718.65L720.663 368H719.762ZM715.27 365.22L714.903 364.831H717.338C718.117 364.831 718.706 364.661 719.106 364.32C719.514 363.979 719.718 363.501 719.718 362.885C719.718 362.263 719.514 361.781 719.106 361.44C718.706 361.099 718.117 360.928 717.338 360.928H714.903L715.27 360.539V365.22ZM722.905 368L726.463 360.217H727.275L730.833 368H729.966L726.697 360.695H727.03L723.761 368H722.905ZM724.306 365.921L724.551 365.254H729.076L729.321 365.921H724.306ZM738.366 368V360.217H741.279C741.939 360.217 742.506 360.324 742.98 360.539C743.455 360.747 743.818 361.051 744.07 361.451C744.329 361.844 744.459 362.322 744.459 362.885C744.459 363.434 744.329 363.908 744.07 364.309C743.818 364.701 743.455 365.005 742.98 365.22C742.506 365.428 741.939 365.532 741.279 365.532H738.822L739.189 365.154V368H738.366ZM743.681 368L741.679 365.176H742.569L744.581 368H743.681ZM739.189 365.22L738.822 364.831H741.257C742.035 364.831 742.624 364.661 743.025 364.32C743.432 363.979 743.636 363.501 743.636 362.885C743.636 362.263 743.432 361.781 743.025 361.44C742.624 361.099 742.035 360.928 741.257 360.928H738.822L739.189 360.539V365.22ZM748.803 363.697H752.917V364.398H748.803V363.697ZM748.892 367.288H753.573V368H748.069V360.217H753.406V360.928H748.892V367.288ZM757.175 368V360.217H757.997V368H757.175ZM764.343 368.067C763.765 368.067 763.209 367.974 762.676 367.789C762.149 367.596 761.742 367.351 761.453 367.055L761.775 366.421C762.049 366.688 762.416 366.914 762.876 367.099C763.343 367.277 763.832 367.366 764.343 367.366C764.833 367.366 765.229 367.307 765.533 367.188C765.845 367.062 766.071 366.896 766.211 366.688C766.36 366.48 766.434 366.251 766.434 365.999C766.434 365.695 766.345 365.45 766.167 365.265C765.996 365.079 765.77 364.935 765.489 364.831C765.207 364.72 764.896 364.624 764.555 364.542C764.214 364.461 763.873 364.375 763.532 364.286C763.191 364.19 762.876 364.064 762.587 363.908C762.305 363.753 762.075 363.549 761.897 363.297C761.727 363.037 761.642 362.7 761.642 362.285C761.642 361.899 761.742 361.547 761.942 361.229C762.149 360.903 762.464 360.643 762.887 360.45C763.309 360.25 763.851 360.15 764.51 360.15C764.948 360.15 765.381 360.213 765.811 360.339C766.241 360.458 766.612 360.625 766.923 360.839L766.645 361.496C766.312 361.273 765.956 361.11 765.578 361.006C765.207 360.903 764.848 360.851 764.499 360.851C764.032 360.851 763.647 360.914 763.343 361.04C763.039 361.166 762.813 361.336 762.665 361.551C762.524 361.759 762.453 361.996 762.453 362.263C762.453 362.567 762.539 362.811 762.709 362.997C762.887 363.182 763.117 363.326 763.398 363.43C763.687 363.534 764.003 363.627 764.343 363.708C764.684 363.79 765.022 363.879 765.355 363.975C765.696 364.071 766.008 364.197 766.289 364.353C766.578 364.501 766.808 364.701 766.979 364.953C767.157 365.205 767.245 365.535 767.245 365.943C767.245 366.321 767.142 366.673 766.934 366.999C766.727 367.318 766.408 367.577 765.978 367.778C765.555 367.97 765.011 368.067 764.343 368.067Z" fill="#283C57"/>
<path d="M121.29 53.3849H134.22V55.6214H121.29V53.3849ZM121.57 66H118.984V41.5386H135.757V43.7751H121.57V66ZM146.339 66V41.5386H148.925V66H146.339ZM172.854 66.2097C170.99 66.2097 169.266 65.9068 167.682 65.3011C166.121 64.6721 164.758 63.7985 163.593 62.6802C162.452 61.562 161.555 60.2458 160.902 58.7315C160.273 57.2172 159.959 55.5632 159.959 53.7693C159.959 51.9755 160.273 50.3214 160.902 48.8072C161.555 47.2929 162.463 45.9766 163.628 44.8584C164.793 43.7402 166.156 42.8782 167.717 42.2725C169.301 41.6435 171.025 41.329 172.888 41.329C174.752 41.329 176.453 41.6202 177.99 42.2026C179.551 42.785 180.879 43.6703 181.974 44.8584L180.367 46.5008C179.342 45.4758 178.212 44.7419 176.977 44.2993C175.742 43.8567 174.414 43.6353 172.993 43.6353C171.479 43.6353 170.081 43.8916 168.8 44.4041C167.542 44.8933 166.435 45.6039 165.48 46.5358C164.548 47.4443 163.814 48.516 163.279 49.7507C162.766 50.9621 162.51 52.3016 162.51 53.7693C162.51 55.2137 162.766 56.5533 163.279 57.788C163.814 59.0227 164.548 60.106 165.48 61.0378C166.435 61.9464 167.542 62.6569 168.8 63.1695C170.081 63.6587 171.467 63.9033 172.958 63.9033C174.356 63.9033 175.672 63.6936 176.907 63.2743C178.165 62.855 179.318 62.1444 180.367 61.1427L181.834 63.0996C180.67 64.1246 179.307 64.9051 177.746 65.4409C176.185 65.9534 174.554 66.2097 172.854 66.2097ZM179.353 62.7851V53.7693H181.834V63.0996L179.353 62.7851ZM194.395 66V41.5386H196.526L207.709 60.6185H206.591L217.668 41.5386H219.8V66H217.319V45.4175H217.913L207.709 62.8899H206.486L196.212 45.4175H196.876V66H194.395ZM229.098 66L240.28 41.5386H242.831L254.013 66H251.288L241.014 43.0413H242.062L231.788 66H229.098ZM233.501 59.4653L234.27 57.3686H248.492L249.261 59.4653H233.501ZM273.775 66L284.958 41.5386H287.508L298.691 66H295.965L285.691 43.0413H286.74L276.466 66H273.775ZM278.178 59.4653L278.947 57.3686H293.17L293.938 59.4653H278.178ZM307.979 66V41.5386H317.135C319.208 41.5386 320.99 41.8764 322.481 42.552C323.972 43.2044 325.114 44.1595 325.906 45.4175C326.721 46.6522 327.129 48.1549 327.129 49.9254C327.129 51.6493 326.721 53.1403 325.906 54.3983C325.114 55.633 323.972 56.5882 322.481 57.2638C320.99 57.9161 319.208 58.2423 317.135 58.2423H309.412L310.565 57.0541V66H307.979ZM324.683 66L318.393 57.124H321.188L327.513 66H324.683ZM310.565 57.2638L309.412 56.0407H317.065C319.511 56.0407 321.363 55.5049 322.621 54.4333C323.902 53.3616 324.543 51.859 324.543 49.9254C324.543 47.9685 323.902 46.4542 322.621 45.3826C321.363 44.3109 319.511 43.7751 317.065 43.7751H309.412L310.565 42.552V57.2638ZM342.885 66V43.7751H334.289V41.5386H354.067V43.7751H345.471V66H342.885ZM369.809 66.2097C367.992 66.2097 366.245 65.9185 364.567 65.336C362.913 64.7303 361.632 63.9616 360.724 63.0297L361.737 61.0378C362.599 61.8765 363.752 62.5871 365.196 63.1695C366.664 63.7286 368.202 64.0081 369.809 64.0081C371.347 64.0081 372.593 63.8218 373.548 63.449C374.527 63.053 375.237 62.5288 375.68 61.8765C376.146 61.2242 376.379 60.502 376.379 59.7099C376.379 58.7548 376.099 57.986 375.54 57.4036C375.004 56.8212 374.294 56.3669 373.408 56.0407C372.523 55.6913 371.545 55.3884 370.473 55.1322C369.401 54.8759 368.33 54.608 367.258 54.3284C366.187 54.0256 365.196 53.6295 364.288 53.1403C363.403 52.6511 362.68 52.0104 362.121 51.2184C361.586 50.403 361.318 49.343 361.318 48.0384C361.318 46.827 361.632 45.7204 362.261 44.7186C362.913 43.6936 363.904 42.8782 365.231 42.2725C366.559 41.6435 368.26 41.329 370.333 41.329C371.708 41.329 373.071 41.527 374.422 41.923C375.773 42.2958 376.938 42.82 377.916 43.4956L377.043 45.5573C375.994 44.8584 374.876 44.3459 373.688 44.0197C372.523 43.6936 371.393 43.5305 370.298 43.5305C368.831 43.5305 367.619 43.7285 366.664 44.1246C365.709 44.5206 364.998 45.0564 364.533 45.732C364.09 46.3843 363.869 47.1298 363.869 47.9685C363.869 48.9236 364.136 49.6924 364.672 50.2748C365.231 50.8573 365.954 51.3115 366.839 51.6377C367.747 51.9638 368.738 52.2551 369.809 52.5113C370.881 52.7676 371.941 53.0471 372.989 53.35C374.061 53.6528 375.039 54.0489 375.925 54.5381C376.833 55.004 377.555 55.633 378.091 56.4251C378.65 57.2172 378.93 58.2539 378.93 59.5352C378.93 60.7233 378.604 61.8299 377.951 62.855C377.299 63.8567 376.297 64.6721 374.946 65.3011C373.618 65.9068 371.906 66.2097 369.809 66.2097Z" fill="#C54846"/>
<path d="M116.891 165.289C109.694 166.291 132.134 160.437 155.934 164.819C180.072 169.264 185.916 126.363 172.85 135.11C159.785 143.856 135.459 130.397 132.116 120.831C128.774 111.265 124.088 164.286 116.891 165.289Z" fill="#88D2EF"/>
<path d="M143.876 129.248C145.659 130.223 144.95 133.795 143.687 134.552C142.424 135.31 139.519 134.173 135.919 134.552C132.32 134.931 133.248 156.777 132.963 158.52C132.679 160.264 128.662 171.192 127.66 170.972C127.66 170.972 121.013 175.279 123.537 177.535C126.331 180.034 127.586 174.282 130.274 173.486C132.963 172.69 136.031 160.921 137.113 159.407C138.195 157.893 137.973 146.743 137.973 146.743C137.973 146.743 140.73 158.299 138.783 172.69C136.836 187.08 132.182 188.207 124.651 188.766C117.452 190.092 133.752 178.547 139.807 179.105C148.317 178.709 150.226 187.44 161.782 187.44C173.339 187.44 177.568 181.378 176.749 177.968C175.747 173.8 170.723 172.226 165.761 171.716C159.928 171.117 158.748 175.476 153.257 177.535C153.257 177.535 150.957 179.594 145.467 177.535C139.976 175.476 138.797 171.117 132.963 171.716C128.001 172.226 122.978 173.8 121.976 177.968C121.156 181.378 125.386 187.44 136.942 187.44C148.498 187.44 150.407 178.709 158.917 179.105C164.972 178.547 181.272 190.092 174.073 188.766C161.389 188.265 156.309 176.099 156.306 172.69M143.876 129.248C147.431 128.435 152.327 125.614 152.022 124.891C150.455 128.651 146.37 135.212 151.644 134.552C156.917 133.893 157.914 132.771 159.759 133.893C161.604 135.015 161.861 141 162.419 140.681C162.419 140.681 165.656 139.053 165.26 136.924C164.964 135.329 163.077 135.376 162.419 133.893C161.609 132.067 164.095 130.512 163.555 128.589C163.017 126.671 161.193 126.202 160.903 124.231C160.626 122.35 162.109 121.396 162.04 119.495C161.953 117.106 160.161 116.17 159.766 113.812C159.461 111.988 160.113 110.893 159.766 109.076C158.727 103.629 155.059 100.403 149.56 99.6943C144.799 99.081 140.948 100.752 138.382 104.809C136.351 108.02 134.752 111.605 137.246 114.471C140.614 118.342 141.893 104.477 146.907 105.567C151.059 106.47 153.159 114.471 153.159 114.471C153.159 114.471 151.129 105.628 147.286 104.999C143.297 104.345 139.519 107.462 138.382 112.577C137.246 117.692 137.246 122.996 138.382 124.891C139.519 126.785 141.773 128.572 143.876 129.248Z" stroke="black" stroke-width="0.432654"/>
<path d="M156.306 172.906C153.949 159.299 155.781 143.523 155.781 143.523C155.781 143.523 158.906 152.048 159.38 154.889C159.854 157.731 160.1 157.732 160.1 156.974C160.1 156.216 153.223 147.502 151.292 145.039C149.361 142.575 145.172 140.928 145.172 144.849C145.172 146.744 144.817 141.729 149.624 149.017C154.431 156.306 157.455 161.289 162.79 163.225C168.077 165.626 161.843 135.506 159.38 134.363C156.917 133.221 154.072 134.955 151.52 134.363C151.52 134.363 150.097 134.24 149.529 133.672C148.961 133.104 150.419 132.536 150.287 133.293C150.155 134.05 150.287 134.809 150.287 134.809C150.917 140.349 150.131 143.385 149.15 148.827C149.15 148.827 144.414 156.026 144.603 154.321C144.793 152.616 144.402 150.729 142.709 150.154C141.4 149.709 139.914 149.863 139.299 151.101C138.705 152.295 139.355 153.54 140.436 154.321C141.456 155.06 142.819 155.452 143.656 154.511C144.606 153.443 143.635 151.682 142.33 151.101C141.449 150.709 140.369 150.467 139.867 151.29C139.367 152.111 140.086 152.936 140.814 153.564C141.937 154.531 143.689 154.54 144.603 153.374C145.614 152.086 144.69 150.224 143.277 149.396C142.192 148.76 140.057 149.396 140.057 149.396L145.551 145.796C145.551 145.796 143.85 147.105 143.088 146.744C142.457 146.444 142.397 145.137 141.762 144.849C140.825 144.425 141.199 146.216 140.198 145.986C139.069 145.726 138.162 143.712 138.162 143.712L138.92 145.796C138.92 145.796 133.994 151.29 134.752 150.343C135.51 149.396 135.163 146.847 133.616 146.175C132.43 145.661 130.794 145.704 130.395 146.933C130.058 147.972 130.791 148.824 131.721 149.396C132.364 149.791 132.952 150.134 133.616 149.775C134.626 149.229 133.76 147.643 132.858 146.933C131.928 146.201 130.583 146.023 129.827 146.933C128.957 147.979 130.03 149.385 131.153 150.154C132.077 150.786 133.053 151.139 133.994 150.532C135.313 149.682 134.441 147.751 133.426 146.554C132.677 145.671 130.774 145.228 130.774 145.228L136.836 142.007C138.817 142.737 139.302 143.268 140.539 145.184C139.269 143.277 139.326 142.471 137.129 141.585C137.129 141.585 139.061 140.459 140.057 140.871C140.687 141.131 140.538 142.198 141.193 142.386C141.918 142.595 141.762 141.818 142.709 142.007C143.656 142.197 143.656 143.334 144.035 143.523C144.414 143.712 144.603 143.523 144.603 143.523C144.603 143.523 146.498 141.012 148.771 142.575C151.045 144.138 151.045 143.901 151.045 143.901L152.181 142.386C152.181 142.386 151.486 141.101 150.447 140.491C149.409 139.881 147.635 140.871 147.635 140.871C147.635 140.871 146.951 139.285 145.93 138.976C144.943 138.677 143.656 139.545 143.656 139.545C143.656 139.545 142.838 138.62 142.141 138.597C141.479 138.576 140.625 139.355 140.625 139.355L137.026 141.25C139.205 138.095 140.606 136.412 143.656 133.672" stroke="black" stroke-width="0.432654"/>
<path d="M390.638 159.16C390.638 184.709 375.69 169.72 357.25 169.72C338.811 169.72 323.863 184.709 323.863 159.16C323.863 133.612 338.811 120.443 357.25 120.443C390.638 120.443 409.041 172.535 390.638 159.16Z" fill="#CBAFED"/>
<path d="M350.176 135.141C349.993 137.066 348.563 139.435 346.763 138.728C345.394 138.19 345.042 136.738 345.246 135.281C345.543 133.152 348.046 131.32 349.919 132.374M349.919 132.374C351.2 133.095 351.681 134.371 351.436 135.821C351.155 137.484 348.193 138.674 348.193 138.674C348.193 138.674 345.773 136.935 346.318 135.66C346.699 134.767 347.632 133.791 348.428 134.347C348.428 134.347 349.004 134.835 348.991 135.251C348.971 135.875 347.948 135.556 347.634 136.095C347.041 137.114 349.228 138.658 349.228 138.658C355.887 139.872 362.762 143.289 364.324 145.784C365.887 148.279 366.582 149.389 366.582 153.424C366.582 157.46 364.324 160.171 364.324 160.171C364.324 160.171 362.595 156.796 362.567 154.465C362.523 150.825 366.582 146.052 366.582 146.052L372.756 136.148C372.756 136.148 374.066 139.64 376.97 136.872C380.284 133.713 377.868 130.25 376.716 132.43C375.564 134.611 379.64 134.364 381.198 130.897C382.764 127.412 381.571 123.765 380.284 127.075C378.997 130.384 384.506 128.356 383.962 122.905C383.466 117.925 379.401 117.588 379.601 120.6C379.802 123.611 384.544 121.129 383.243 116.034C381.79 110.346 374.541 110.785 377.338 114.272C380.134 117.759 382 111.181 376.729 108.588C372.756 106.633 367.788 109.34 371.55 110.346C375.311 111.351 372.756 106.633 368.549 105.522C364.342 104.411 362.412 106.412 365.347 107.096C368.281 107.779 367.912 103.443 361.833 104.473C360.752 104.656 358.215 106.723 360.041 106.633C361.866 106.543 360.041 102.84 355.077 104.703C351.436 106.069 352.654 111.228 354.296 109.161C355.937 107.095 352.124 106.633 349.251 109.79C347.103 112.152 347.167 116.523 349.298 114.57C351.428 112.618 345.91 111.758 344.583 116.617C343.495 120.6 347.511 122.79 347.254 120.023C346.996 117.257 338.648 121.746 344.114 127.412C345.597 128.95 351.38 126.656 349.293 125.654C347.206 124.653 342.972 130.797 348.202 131.501C353.431 132.205 357.152 139.38 357.755 135.66C358.359 131.939 347.634 137.664 345.528 142.767C344.781 144.574 344.938 146.323 345.559 147.212C345.829 147.598 346.102 147.913 346.392 148.22M349.919 132.374C349.919 132.374 355.798 128.717 362.567 131.196C369.337 133.676 373.413 137.203 373.413 137.203C373.413 137.203 370.993 144.057 370.491 148.639C369.493 157.731 376.466 169.672 376.184 178.815C370.329 192.944 346.863 189.466 343.312 190.887C339.762 192.307 339.385 182.01 339.467 180.412C339.55 178.815 346.151 165.154 342.453 161.949C342.453 161.949 336.534 157.795 335.732 153.726C335.181 150.932 334.324 144.977 336.71 146.501C339.096 148.025 344.182 150.44 344.583 149.519C344.984 148.597 343.777 147.212 343.777 147.212M346.763 159.638C346.763 159.638 348.666 150.409 347.634 149.519C347.175 149.008 346.77 148.622 346.392 148.22M346.763 159.638C346.763 159.638 353.093 167.097 354.285 167.094C355.478 167.091 359.943 161.002 361.564 161.236C363.186 161.469 363.455 166.739 362.567 170.112C361.607 173.76 357.61 174.428 356.655 177.749M346.763 159.638C346.763 159.638 346.862 181.126 347.634 182.188M347.634 182.188C348.406 183.25 348.089 183.608 347.634 182.188ZM347.634 182.188C347.179 180.767 366.582 176.329 366.582 176.329M343.777 147.212C343.777 147.212 343.981 147.035 344.583 147.212C345.185 147.39 346.392 148.22 346.392 148.22M343.777 147.212C343.777 147.212 341.866 138.943 341.162 138.728C340.458 138.513 333.821 140.922 333.318 141.726C332.815 142.531 333.318 143.536 333.318 143.536C333.318 143.536 338.246 141.123 338.648 142.128C339.05 143.134 338.849 143.536 339.453 144.574L339.05 144.977C339.05 144.977 338.95 144.51 338.045 143.536C337.14 142.563 332.715 144.574 332.111 145.68C331.508 146.787 332.715 147.791 332.111 147.992C331.508 148.193 331.106 148.193 330.201 148.596C329.296 148.998 329.999 147.933 329.396 147.212C328.793 146.492 326.983 147.617 326.48 148.22C325.977 148.824 328.692 155.713 329.597 155.946C330.502 156.179 332.111 155.557 332.111 154.832C332.111 154.107 329.094 149.3 330.201 149.3C331.307 149.3 332.111 148.596 332.111 148.596C332.188 150.046 332.674 151.162 333.318 152.619C333.318 152.619 332.32 153.127 331.81 153.122L332.111 153.726C332.111 153.726 333.117 153.122 333.62 153.122C334.123 153.122 334.022 155.234 334.625 155.335C335.229 155.435 336.134 154.832 336.134 154.832" stroke="black" stroke-width="0.402258"/>
<path d="M283.778 169.291C274.232 168.502 255.742 201.689 250.416 197.199C231.991 197.199 239.965 182.578 217.054 169.291C222.685 156.836 238.01 154.021 245.593 138.107C253.175 122.193 293.325 170.08 283.778 169.291Z" fill="#FFBD97"/>
<path d="M245.484 187C245.484 187 242.226 175.76 244.018 175.434C245.809 175.109 245.239 185.045 246.705 187C248.171 188.955 271.662 189.281 272.721 187C273.78 184.719 273.583 177.389 271.303 175.434C269.022 173.48 247.194 175.434 247.194 175.434M244.832 187C244.854 187.017 244.875 187.033 244.898 187.049M239.375 164.032C239.375 164.032 241.248 165.172 242.633 165.172C244.018 165.172 242.529 155.845 245.484 151.326C248.439 146.806 251.137 161.044 249.719 165.172C248.301 169.3 271.412 168.28 272.721 166.217C274.031 164.154 272.513 160.478 271.59 157.434M239.375 164.032C239.375 164.032 241.248 149.289 243.366 146.602M239.375 164.032L238.642 168.104M243.366 146.602C245.484 143.914 265.52 145.869 267.475 147.66C268.58 148.674 270.389 153.472 271.59 157.434M243.366 146.602L239.375 138.864L243.366 136.421L249.33 143.034C253.089 142.957 257.183 143.304 260.895 143.678L261.765 135.85M243.366 146.602L236.45 143.29C236.45 143.29 236.415 143.427 236.351 143.678M243.366 146.602C252.144 146.602 259.647 141.987 261.765 135.85M265.669 138.864L261.765 135.85M265.669 138.864C265.669 138.864 263.995 148.475 264.705 148.475C265.416 148.475 274.553 165.462 270.244 173.561C270.244 173.561 271.254 183.361 270.733 187.733C270.214 192.086 249.899 190.759 244.898 187.049M265.669 138.864C265.669 138.864 266.488 139.299 267.216 140.44C267.945 141.58 271.59 157.434 271.59 157.434M261.765 135.85C261.765 135.85 254.966 132.742 253.988 131.602M238.642 168.104C238.642 168.104 233.674 167.452 232.533 165.172C232.143 164.391 232.479 161.576 233.091 158.213M238.642 168.104C238.642 168.104 238.749 168.717 237.42 169.977C235.963 171.359 233.472 172.844 232.533 171.606C226.913 164.194 226.444 150.267 224.633 148.475C222.822 146.683 220.003 146.829 218.687 144.321C217.145 141.381 219.42 135.85 219.42 135.85M238.642 168.104C236.65 181.357 238.282 185.454 244.898 187.049M219.42 135.85C219.42 135.85 220.316 140.656 221.864 140.656C223.411 140.656 224.035 138.31 225.529 138.864C227.554 139.615 223.03 142.873 224.633 144.321C227.308 146.738 230.663 158.798 229.52 160.366C228.376 161.935 233.091 158.213 233.091 158.213M219.42 135.85C219.42 135.85 218.702 131.534 217.825 128.588C216.841 125.284 212.857 125.086 211.879 123.701C210.902 122.316 223.178 114.999 236.45 114.73M253.988 131.602C253.988 131.602 268.062 128.711 268.981 119.059C269.87 109.735 266.267 105.182 258.434 100.047C250.918 95.1208 238.641 97.2688 235.581 106.036C233.918 110.8 236.45 114.73 236.45 114.73M253.988 131.602C253.988 131.602 249.422 132.385 247.151 130.958C245.492 129.916 244.488 129.003 244.018 127.04C243.547 125.078 243.757 123.064 242.585 121.421C240.886 119.036 238.361 117.022 238.361 117.022M238.361 117.022C238.361 117.022 239.551 119.769 239.375 120.719C238.746 124.105 240.386 127.835 241.527 129.464C241.527 129.464 244.06 132.471 245.315 131.602C246.369 130.872 246.281 130.958 246.281 130.958L247.927 133.733C247.927 133.733 237.902 139.423 237.176 140.656C236.45 141.889 236.351 143.678 236.351 143.678M238.361 117.022C238.361 117.022 237.102 115.702 236.45 114.73M233.091 158.213C234.116 152.579 235.912 145.406 236.351 143.678" stroke="black" stroke-width="0.497944"/>
<path d="M350.014 311.893C350.014 311.893 333.586 308.787 325.502 302.477C304.484 286.069 325.502 243.492 322.314 234.272C319.126 225.053 359.381 215.268 367.365 238.73C375.349 262.191 383.243 252.067 375.916 267.642C368.818 282.731 350.014 311.893 350.014 311.893Z" fill="#FFBD97"/>
<path d="M258.988 248.008C252.188 245.86 245.51 241.052 240.727 248.008C235.944 254.964 237.539 272.646 223.046 274.819C208.553 276.993 224.48 307.338 219.35 311.341C214.22 315.343 265.485 323.423 272.973 311.341C277.007 304.832 268.625 290.399 276.162 291.993C283.698 293.587 276.572 253.561 258.988 248.008Z" fill="#88D2EF"/>
<path d="M138.381 260.686C147.842 293.093 160.917 252.135 176.497 254.816C192.076 257.497 192.584 324.598 181.279 310.613C169.975 296.628 116.302 326.506 119.106 315.396C121.909 304.285 128.92 228.279 138.381 260.686Z" fill="#CBAFED"/>
<path d="M354.322 310.251H367.727L357.003 330.033H336.785L325.771 310.251H345.916C345.916 310.251 321.568 295.033 321.568 292.425C321.568 289.816 327.727 286.048 327.727 286.048H321.568L327.727 284.454L321.568 276.41L328.525 282.57L329.974 278.005V284.454C329.974 284.454 335.262 278.005 337.8 278.005C340.337 278.005 343.524 289.526 343.524 289.526C343.524 289.526 339.687 261.99 341.568 260.179C343.449 258.367 348.017 258.512 348.017 258.512C348.017 258.512 335.916 248.295 335.916 245.613C335.916 242.932 341.568 240.179 341.568 240.179L336.568 238.15H341.568L339.394 232.063L343.524 236.556L345.916 233.657V238.15C345.916 238.15 349.78 234.672 352.461 235.758C355.143 236.845 354.684 255.831 354.684 255.831H352.461C352.461 255.831 355.505 241.121 357.824 240.903C360.142 240.686 362.8 242.932 362.8 242.932L362.51 239.816L363.959 242.932L366.785 240.179L365.263 243.657L367.8 244.164L365.263 244.744C365.263 244.744 371.495 247.57 371.061 250.469C370.626 253.367 354.684 259.526 354.684 259.526C354.684 259.526 371.133 263.729 370.553 266.918C369.974 270.106 343.524 295.903 343.524 295.903L344.611 291.193L350.843 310.251" stroke="black" stroke-width="0.724633"/>
<path d="M167.584 311.213L162.874 330.053H144.903L138.961 311.213H153.526C141.197 304.608 134.248 301.772 121.714 299.909C121.714 299.909 143.716 290.931 144.903 299.909C145.372 303.462 142.439 308.749 142.439 308.749C138.691 288.434 135.006 278.86 125.845 264.764C125.845 264.764 137.508 270.179 142.439 276.358C149.286 284.939 152.946 303.459 152.946 303.459C152.946 303.459 152.545 276.456 162.874 264.764C170.761 255.835 180.917 258.532 180.917 258.532C164.915 279.204 165.93 283.87 160.99 307.88C160.99 307.88 158.051 304.552 157.874 301.938C157.709 299.5 158.768 298.196 159.83 295.996C163.661 288.058 169.745 285.567 178.091 282.735C183.472 280.909 192.511 280.778 192.511 280.778C176.806 289.234 168.779 294.76 160.99 311.213H167.584Z" stroke="black" stroke-width="0.724633"/>
<path d="M248.459 312.272H236.062L243.715 330.102H255.805L262.233 312.272H250.831V303.472M248.459 312.272C248.459 312.272 245.543 303.418 240.73 301.559C237.552 300.331 235.145 300.233 232.007 301.559C228.042 303.233 225.272 310.282 225.272 310.282M248.459 312.272C248.459 312.272 245.614 304.716 243.791 299.875M225.272 310.282C225.272 310.282 224.145 300.33 228.333 297.12C233.2 293.39 240.513 294.693 243.791 299.875M225.272 310.282C225.272 310.282 218.922 299.367 222.594 294.136C227.521 287.116 243.078 291.329 243.791 299.875M250.831 303.472C257.332 297.465 261.207 295.638 268.508 294.901C267.77 294.51 259.422 291.859 256.418 294.901M250.831 303.472C250.831 303.472 253.493 296.745 256.418 294.901M250.831 303.472C250.831 303.472 250.084 297.56 256.418 294.901M250.831 303.472V289.468M250.831 303.472C250.831 303.472 250.551 295.725 248.422 288.456M256.418 294.901C258.891 293.863 254.729 291.239 248.422 288.456M250.831 289.468C257.397 280.591 264.197 274.56 275.625 271.026C275.279 270.948 262.336 269.144 257.183 273.934C252.382 278.396 250.831 289.468 250.831 289.468ZM250.831 289.468L250.296 279.061M250.296 279.061C250.296 279.061 251.608 270.457 250.296 265.21C249.586 262.373 247.541 258.246 247.541 258.246C247.541 258.246 247.971 262.502 248.383 265.21C249.213 270.68 251.367 279.061 251.367 279.061C251.367 279.061 256.769 270.957 256.418 265.21C255.967 257.847 245.781 249.599 245.781 249.599C245.781 249.599 237.288 263.456 241.266 271.026C243.462 275.204 250.296 279.061 250.296 279.061ZM248.422 288.456C247.19 284.251 244.982 280.58 242.567 277.913C237.18 271.964 220.84 278.566 220.269 279.696C224.334 277.407 239.519 281.87 248.422 288.456Z" stroke="black" stroke-width="0.764548"/>
<path d="M518.117 258.908C499.38 258.854 483.379 233.336 476.568 220.62C474.333 216.448 475.276 211.385 478.633 208.048L510.284 176.578C514.753 172.134 521.979 172.155 526.423 176.624L557.893 208.275C561.23 211.632 562.145 216.7 559.886 220.859C553.002 233.535 536.855 258.962 518.117 258.908Z" fill="#9AEF92"/>
<path d="M559.954 235.868C567.421 229.146 526.143 188.43 509.119 190.794C492.095 193.158 475.297 215.332 492.568 227.915C509.119 239.974 552.487 242.591 559.954 235.868Z" fill="#FA7822"/>
<path d="M492.652 177.896C498.799 177.896 495.726 197.048 495.016 197.521C494.307 197.994 491.506 200.717 489.247 203.905C489.247 203.905 466.091 206.732 469.71 200.122C472.263 195.458 482.478 195.393 482.478 195.393C482.478 195.393 481.171 191.604 482.657 189.718C484.543 187.325 490.459 189.718 490.459 189.718C490.459 189.718 486.504 177.896 492.652 177.896Z" fill="#5CAD2B"/>
<path d="M493.221 178.133C498.707 178.133 495.964 194.916 495.331 195.33C494.698 195.745 491.44 198.753 489.424 201.546C489.424 201.546 469.105 205.267 472.335 199.474C474.613 195.387 483.727 195.33 483.727 195.33C483.727 195.33 482.402 191.595 483.727 189.943C485.41 187.845 490.69 189.943 490.69 189.943C490.69 189.943 487.736 178.133 493.221 178.133Z" fill="#6CBD36"/>
<ellipse cx="1.18221" cy="2.36441" rx="1.18221" ry="2.36441" transform="matrix(-1 0 0 1 495.158 179.551)" fill="#80CD44"/>
<ellipse cx="0.945765" cy="1.18221" rx="0.945765" ry="1.18221" transform="matrix(-1 0 0 1 486.173 190.427)" fill="#80CD44"/>
<ellipse cx="1.89153" cy="1.18221" rx="1.89153" ry="1.18221" transform="matrix(-1 0 0 1 478.607 198.466)" fill="#80CD44"/>
<path d="M548.133 218.276C548.133 218.276 545.445 221.537 544.426 223.996C543.581 226.034 543.071 229.481 543.071 229.481C543.071 229.481 545.283 226.603 546.292 224.839C547.3 223.074 548.133 218.276 548.133 218.276Z" fill="#F96716"/>
<path d="M498.481 204.09C498.481 204.09 495.792 207.35 494.773 209.809C493.928 211.847 493.418 215.294 493.418 215.294C493.418 215.294 495.668 212.633 496.639 210.652C497.811 208.262 498.481 204.09 498.481 204.09Z" fill="#F96716"/>
<path d="M523.071 224.424C523.071 224.424 520.382 227.684 519.363 230.143C518.518 232.181 518.008 235.628 518.008 235.628C518.008 235.628 520.258 232.967 521.229 230.986C522.401 228.596 523.071 224.424 523.071 224.424Z" fill="#F96716"/>
<path d="M533.475 218.91C533.475 218.91 540.318 207.215 540.318 206.978C540.318 206.742 540.611 207.114 540.791 207.215C541.743 207.745 542.838 209.112 542.838 209.112L533.475 218.91Z" fill="#F96716"/>
<path d="M504.596 210.133L518.198 192.593C518.198 192.593 518.163 192.381 519.06 192.92C526.332 197.291 504.596 210.133 504.596 210.133Z" fill="#F96716"/>
<path d="M507.588 215.116L496.831 230.61L493.976 228.967L507.588 215.116Z" fill="#F96716"/>
<path d="M553.086 227.076C559.632 221.182 524.27 188.827 509.344 190.9C494.419 192.973 479.553 213.599 492.084 220.456C506.595 231.027 546.539 232.97 553.086 227.076Z" fill="#F9C643" fill-opacity="0.17"/>
<ellipse cx="2.36441" cy="2.12797" rx="2.36441" ry="2.12797" transform="matrix(-1 0 0 1 533.462 205.087)" fill="#FAD168" fill-opacity="0.48"/>
<path d="M527.529 203.996C529.678 201.777 519.038 195.084 515.137 194.293C511.236 193.501 508.635 192.555 507.926 193.738C507.216 194.92 509.108 197.818 513.053 197.818C516.999 197.818 525.38 206.215 527.529 203.996Z" fill="#FFD362" fill-opacity="0.47"/>
<path d="M560.427 187.925C546.764 187.886 535.096 169.278 530.13 160.007C528.5 156.964 529.188 153.273 531.636 150.839L554.715 127.892C557.974 124.652 563.242 124.667 566.483 127.926L589.43 151.005C591.863 153.452 592.53 157.148 590.883 160.181C585.863 169.424 574.089 187.964 560.427 187.925Z" fill="#94687A"/>
<path d="M583.824 136.843C583.778 136.17 583.113 135.438 582.724 135.065C582.636 134.98 582.498 135.06 582.521 135.181C582.605 135.627 582.728 136.385 582.697 136.906C582.654 137.637 582.177 138.415 581.809 138.913C581.724 139.028 581.853 139.186 581.975 139.112C582.72 138.66 583.89 137.794 583.824 136.843Z" fill="#6D8026"/>
<path d="M566.021 175.72C559.658 180.043 548.778 185.251 537.461 173.391C532.295 165.788 533.348 160.703 540.12 153.898C544.362 151.641 547.779 152.068 553.76 152.373C577.364 149.677 570.882 130.81 582.918 141.222C591.256 148.434 572.383 171.397 566.021 175.72Z" fill="#94A62E"/>
<path d="M563.505 172.027C557.141 176.351 546.398 181.766 536.326 171.739C531.868 165.177 533.2 160.501 540.114 153.903C544.316 151.586 547.559 151.755 553.263 151.65C576.02 147.701 571.502 132.06 582.355 140.728C589.873 146.733 569.868 167.704 563.505 172.027Z" fill="#B3BE34"/>
<path d="M550.075 168.434C554.64 170.437 561.541 164.848 564.583 162.057C564.703 161.948 564.862 162.095 564.755 162.216C561.979 165.347 555.381 171.736 548.962 170.127C545.902 169.359 542.444 172.353 541.939 171.292C541.926 171.263 541.925 171.232 541.937 171.203C542.153 170.704 544.384 165.938 550.075 168.434Z" fill="#95A72D"/>
<path d="M550.936 162.926C551.781 164.17 555.551 163.261 557.537 162.676C557.808 162.596 557.993 162.931 557.769 163.103C556.08 164.399 552.696 166.608 551.114 164.911C550.802 164.577 550.78 164.102 550.353 163.79C548.803 162.658 549.775 161.218 550.936 162.926Z" fill="#94A630"/>
<path d="M545.416 155.606C543.822 156.09 542.017 157.457 540.871 158.431C540.75 158.534 540.88 158.698 541.013 158.613C542.146 157.888 543.81 156.897 545.172 156.396C546.372 155.953 548.049 155.627 549.21 155.436C549.365 155.411 549.353 155.199 549.197 155.199C548.092 155.197 546.536 155.266 545.416 155.606Z" fill="#95A42D"/>
<path d="M539.173 156.464C540.144 155.238 541.364 154.203 543.34 153.583C548.034 152.11 541.433 155.014 540.404 155.578C539.977 155.812 539.565 156.116 539.173 156.464C537.837 158.152 536.975 160.202 535.27 162.031C535.27 162.031 536.887 158.493 539.173 156.464Z" fill="#DFE431"/>
<path d="M558.604 153.198C556.878 153.701 554.536 153.838 552.75 153.859C552.438 153.863 552.39 154.283 552.698 154.333C554.679 154.654 557.408 154.911 559.402 154.373C562.365 153.574 565.349 150.578 567.176 148.436C567.381 148.197 567.065 147.905 566.826 148.11C564.75 149.886 561.494 152.358 558.604 153.198Z" fill="#DFE431"/>
<path d="M571.413 140.126C567.888 138.004 578.252 136.561 581.834 138.585C585.699 140.768 587.792 153.155 585.545 149.328C584.301 147.209 582.97 143.587 582.97 143.587C582.97 143.587 582.058 147.218 580.546 146.794C579.09 146.386 579.833 142.988 579.833 142.988C579.833 142.988 574.22 148.114 573.537 145.549C572.995 143.516 576.774 141.243 576.774 141.243C576.774 141.243 573.245 141.23 571.413 140.126Z" fill="#6D8026"/>
<path d="M573.255 139.608C570.195 137.592 578.853 136.785 581.957 138.718C585.305 140.802 587.614 151.753 585.554 148.299C584.414 146.386 583.134 143.152 583.134 143.152C583.134 143.152 582.527 146.295 581.236 145.857C579.992 145.435 580.467 142.489 580.467 142.489C580.467 142.489 575.97 146.734 575.282 144.456C574.736 142.649 577.816 140.824 577.816 140.824C577.816 140.824 574.845 140.656 573.255 139.608Z" fill="#94AC38" fill-opacity="0.57"/>
<path d="M510.204 150.071C500.445 150.043 492.111 136.752 488.564 130.13C487.4 127.956 487.891 125.32 489.639 123.581L506.124 107.191C508.452 104.876 512.215 104.887 514.53 107.215L530.92 123.7C532.659 125.448 533.135 128.088 531.958 130.254C528.373 136.856 519.963 150.099 510.204 150.071Z" fill="#FCAA43"/>
<path d="M529.704 137.916C532.86 131.962 526.963 124.673 520.224 124.564C517.673 124.523 515.221 124.196 513.161 123.415C510.247 122.31 507.35 120.007 504.769 117.407C500.437 113.044 492.282 113.883 490.102 119.632C489.676 120.756 489.524 121.972 489.884 123.12C490.899 126.366 494.168 133.379 504.172 138.334C513.725 143.065 521.993 142.028 525.962 141.038C527.618 140.625 528.905 139.424 529.704 137.916Z" fill="#301027"/>
<path d="M490.027 111.864C489.573 111.687 488.891 111.897 488.527 112.036C488.444 112.068 488.455 112.182 488.541 112.205C488.858 112.286 489.391 112.44 489.722 112.62C490.186 112.872 490.548 113.423 490.76 113.817C490.809 113.908 490.952 113.872 490.941 113.77C490.875 113.144 490.669 112.113 490.027 111.864Z" fill="#6D8026"/>
<path d="M529.908 135.696C532.615 130.86 528.195 124.744 522.653 124.696C519.466 124.668 516.265 124.308 513.669 123.323C510.358 122.068 506.983 119.402 504.104 116.625C500.478 113.127 493.983 114.058 492.196 118.77C491.775 119.881 491.672 121.093 492.14 122.185C493.34 124.988 496.793 130.677 506.051 135.09C515.07 139.388 522.64 138.991 526.317 138.385C527.878 138.127 529.135 137.077 529.908 135.696Z" fill="#581248"/>
<path d="M505.225 137.782C501.726 136.066 497.564 132.061 496.194 130.69C496.147 130.643 496.209 130.572 496.263 130.612C497.812 131.744 502.438 135.045 505.932 136.721C509.513 138.438 515.128 139.992 517.028 140.495C517.093 140.512 517.078 140.605 517.011 140.597C514.998 140.379 508.924 139.596 505.225 137.782Z" fill="#8F4A67"/>
<path d="M520.944 130.741C522.82 130.361 524.036 129.947 524.789 128.8C526.548 126.119 516.854 127.865 512.626 125.937C508.94 124.256 504.899 120.373 504.899 120.373C504.899 120.373 506.474 125.631 510.243 127.876C513.641 129.9 517.041 131.532 520.944 130.741Z" fill="#8F4A67"/>
<path d="M500.247 114.584C502.756 112.1 494.381 111.102 491.372 112.944C487.758 115.157 488.186 127.435 490.34 123.777C491.445 121.901 492.059 118.469 492.059 118.469C492.059 118.469 495.303 122.453 496.873 121.015C498.434 119.585 494.874 115.965 494.874 115.965C494.874 115.965 498.704 116.111 500.247 114.584Z" fill="#6D8026"/>
<path d="M498.991 114.268C501.228 112.087 493.762 111.211 491.08 112.828C487.859 114.77 488.24 125.548 490.16 122.337C491.146 120.69 491.693 117.677 491.693 117.677C491.693 117.677 494.585 121.174 495.984 119.912C497.376 118.657 494.202 115.48 494.202 115.48C494.202 115.48 497.617 115.608 498.991 114.268Z" fill="#839930"/>
<ellipse cx="0.979218" cy="0.897616" rx="0.979218" ry="0.897616" transform="matrix(-1 0 0 1 522.851 135.442)" fill="#301027"/>
<ellipse cx="0.707213" cy="0.462408" rx="0.707213" ry="0.462408" transform="matrix(-1 0 0 1 519.097 134.518)" fill="#301027"/>
<ellipse cx="0.707213" cy="0.462408" rx="0.707213" ry="0.462408" transform="matrix(-1 0 0 1 499.404 122.93)" fill="#301027"/>
<path d="M365 86H411V348H365" stroke="#E5B89F" stroke-width="2"/>
<path d="M723 228H767.878V348H723" stroke="#E5B89F" stroke-width="2"/>
<path d="M500 87H454V270H500" stroke="#E5B89F" stroke-width="2"/>
<path d="M563.676 309.436H600.795L595.454 331.333H568.616L563.676 309.436Z" fill="#EF400E"/>
<path d="M582.236 309.436H600.795L595.454 331.333H582.236V309.436Z" fill="#C73810"/>
<rect x="557" y="297.419" width="50.4715" height="14.6875" fill="#C73810"/>
<rect x="582.102" y="297.419" width="25.3693" height="14.6875" fill="#AB2E0A"/>
<path d="M563.676 309.436H600.795L595.454 331.333H568.616L563.676 309.436Z" fill="#EF400E"/>
<path d="M582.236 309.436H600.795L595.454 331.333H582.236V309.436Z" fill="#C73810"/>
<rect x="557" y="297.419" width="50.4715" height="14.6875" fill="#C73810"/>
<rect x="582.102" y="297.419" width="25.3693" height="14.6875" fill="#AB2E0A"/>
<path d="M575.091 266.4C575.237 265.914 575.833 265.735 576.223 266.06C576.313 266.135 576.384 266.232 576.427 266.341L577.185 268.236C577.448 268.892 577.188 269.641 576.576 269.994C575.462 270.637 574.135 269.587 574.505 268.355L575.091 266.4Z" fill="#FEAE00"/>
<path d="M587.144 279.69C586.544 280.121 585.835 279.319 586.337 278.777L589.153 275.739C589.486 275.379 590.027 275.306 590.444 275.562L590.575 275.643C591.357 276.125 591.341 277.268 590.545 277.727L587.144 279.69Z" fill="#FEAE00"/>
<path d="M577.47 285.277C577.442 285.184 577.399 285.096 577.343 285.017L576.237 283.464C575.841 282.908 575.074 282.769 574.507 283.15C573.753 283.659 573.769 284.775 574.538 285.26L576.15 286.278C576.841 286.715 577.704 286.06 577.47 285.277Z" fill="#FEAE00"/>
<path d="M701.738 261.804L730.312 250.953L724.023 307.567L711.718 306.151L701.738 261.804Z" fill="#39B54A"/>
<path d="M715.358 256.561L730.446 250.953L724.157 307.567L715.358 304.896V256.561Z" fill="#288A36"/>
<line x1="716.018" y1="240.538" x2="716.018" y2="257.096" stroke="#FEAE00" stroke-width="0.871465"/>
<line x1="720.753" y1="249.035" x2="715.96" y2="257.314" stroke="#FEAE00" stroke-width="0.871465"/>
<line x1="709.833" y1="248.559" x2="715.934" y2="256.838" stroke="#FEAE00" stroke-width="0.871465"/>
<path d="M696.931 309.436H734.051L728.71 331.333H701.872L696.931 309.436Z" fill="#EF400E"/>
<path d="M715.491 309.436H734.051L728.71 331.333H715.491V309.436Z" fill="#C73810"/>
<rect x="690.255" y="297.419" width="50.4715" height="14.6875" fill="#C73810"/>
<rect x="715.358" y="297.419" width="25.3693" height="14.6875" fill="#AB2E0A"/>
<path d="M696.931 309.436H734.051L728.71 331.333H701.872L696.931 309.436Z" fill="#EF400E"/>
<path d="M715.491 309.436H734.051L728.71 331.333H715.491V309.436Z" fill="#C73810"/>
<rect x="690.255" y="297.419" width="50.4715" height="14.6875" fill="#C73810"/>
<rect x="715.358" y="297.419" width="25.3693" height="14.6875" fill="#AB2E0A"/>
<path d="M725.275 281.969L741.528 269.112L737.633 281.969L719.096 295.817L725.275 281.969Z" fill="#288A36"/>
<path d="M704.617 272.356L689.855 266.842L695.997 277.524H706.278L704.617 272.356Z" fill="#39B54A"/>
<path d="M634.977 278.441L658.21 271.789L653.096 306.492L643.092 305.624L634.977 278.441Z" fill="#39B54A"/>
<path d="M630.437 309.436H667.557L662.216 331.333H635.378L630.437 309.436Z" fill="#EF400E"/>
<path d="M648.997 309.436H667.557L662.216 331.333H648.997V309.436Z" fill="#C73810"/>
<rect x="623.761" y="297.419" width="50.4715" height="14.6875" fill="#C73810"/>
<rect x="648.863" y="297.419" width="25.3693" height="14.6875" fill="#AB2E0A"/>
<path d="M630.437 309.436H667.557L662.216 331.333H635.378L630.437 309.436Z" fill="#EF400E"/>
<path d="M648.997 309.436H667.557L662.216 331.333H648.997V309.436Z" fill="#C73810"/>
<rect x="623.761" y="297.419" width="50.4715" height="14.6875" fill="#C73810"/>
<rect x="648.863" y="297.419" width="25.3693" height="14.6875" fill="#AB2E0A"/>
<path d="M644.324 279.984L646.193 275.254L648.863 279.26V297.419H647.234L644.324 279.984Z" fill="#288A36"/>
<path d="M646.46 280.061L646.193 275.254L648.863 279.26V297.419H647.234L646.46 280.061Z" fill="#1E6C29"/>
<path d="M639.25 279.984L639.948 277.123L641.461 279.984L643.79 297.419H642.16L639.25 279.984Z" fill="#288A36"/>
<path d="M640.318 280.461L639.948 277.123L641.461 279.984L643.79 297.419H642.988L640.318 280.461Z" fill="#1E6C29"/>
<path d="M654.738 276.543L654.04 273.118L652.527 276.543L650.199 297.419H651.828L654.738 276.543Z" fill="#288A36"/>
<path d="M654.738 276.543L654.04 273.118L653.537 276.543L651 297.419H651.828L654.738 276.543Z" fill="#1E6C29"/>
<line x1="646.193" y1="265.908" x2="646.193" y2="276.055" stroke="#FEAE00" stroke-width="0.53409"/>
<line x1="649.095" y1="271.115" x2="646.157" y2="276.189" stroke="#FEAE00" stroke-width="0.53409"/>
<line x1="642.402" y1="270.823" x2="646.141" y2="275.897" stroke="#FEAE00" stroke-width="0.53409"/>
<path d="M516.023 368L519.73 359.89H520.576L524.284 368H523.38L519.974 360.388H520.321L516.915 368H516.023ZM517.483 365.834L517.738 365.138H522.453L522.708 365.834H517.483ZM527.189 368V359.404H528.012V368H527.189ZM532.038 368V359.404H532.861V368H532.038ZM544.079 368.058C543.499 368.058 542.978 367.927 542.515 367.664C542.059 367.401 541.7 367.038 541.437 366.575C541.175 366.104 541.043 365.563 541.043 364.953C541.043 364.335 541.175 363.795 541.437 363.331C541.7 362.868 542.059 362.509 542.515 362.254C542.978 361.991 543.499 361.86 544.079 361.86C544.612 361.86 545.087 361.979 545.504 362.219C545.928 362.458 546.264 362.81 546.512 363.273C546.766 363.729 546.894 364.289 546.894 364.953C546.894 365.61 546.77 366.17 546.523 366.633C546.276 367.096 545.94 367.452 545.515 367.699C545.098 367.938 544.619 368.058 544.079 368.058ZM544.137 367.328C544.569 367.328 544.955 367.232 545.295 367.038C545.643 366.838 545.913 366.56 546.106 366.204C546.307 365.841 546.407 365.424 546.407 364.953C546.407 364.474 546.307 364.057 546.106 363.702C545.913 363.347 545.643 363.072 545.295 362.879C544.955 362.678 544.569 362.578 544.137 362.578C543.712 362.578 543.329 362.678 542.99 362.879C542.65 363.072 542.379 363.347 542.179 363.702C541.978 364.057 541.877 364.474 541.877 364.953C541.877 365.424 541.978 365.841 542.179 366.204C542.379 366.56 542.65 366.838 542.99 367.038C543.329 367.232 543.712 367.328 544.137 367.328ZM546.43 368V366.17L546.512 364.941L546.396 363.713V359.404H547.218V368H546.43ZM553.83 368.058C553.197 368.058 552.641 367.927 552.162 367.664C551.683 367.394 551.309 367.027 551.038 366.563C550.768 366.092 550.633 365.555 550.633 364.953C550.633 364.351 550.76 363.818 551.015 363.354C551.278 362.891 551.633 362.528 552.081 362.265C552.537 361.995 553.046 361.86 553.61 361.86C554.182 361.86 554.688 361.991 555.128 362.254C555.576 362.509 555.927 362.872 556.182 363.343C556.437 363.806 556.565 364.343 556.565 364.953C556.565 364.992 556.561 365.034 556.553 365.08C556.553 365.119 556.553 365.162 556.553 365.208H551.258V364.594H556.113L555.788 364.837C555.788 364.397 555.692 364.007 555.499 363.667C555.313 363.32 555.058 363.049 554.734 362.856C554.41 362.663 554.035 362.566 553.61 362.566C553.193 362.566 552.819 362.663 552.487 362.856C552.154 363.049 551.896 363.32 551.71 363.667C551.525 364.015 551.432 364.412 551.432 364.86V364.988C551.432 365.451 551.533 365.861 551.733 366.216C551.942 366.563 552.228 366.838 552.591 367.038C552.962 367.232 553.382 367.328 553.854 367.328C554.224 367.328 554.568 367.262 554.885 367.131C555.209 367 555.487 366.799 555.719 366.529L556.182 367.062C555.912 367.386 555.572 367.633 555.163 367.803C554.761 367.973 554.317 368.058 553.83 368.058ZM561.61 368.058C561.108 368.058 560.633 367.988 560.185 367.849C559.737 367.703 559.386 367.521 559.131 367.305L559.502 366.656C559.749 366.841 560.065 367.004 560.452 367.143C560.838 367.274 561.243 367.34 561.668 367.34C562.247 367.34 562.664 367.251 562.919 367.073C563.174 366.888 563.302 366.645 563.302 366.343C563.302 366.119 563.228 365.946 563.082 365.822C562.942 365.691 562.757 365.594 562.525 365.532C562.294 365.463 562.035 365.405 561.749 365.359C561.463 365.312 561.178 365.258 560.892 365.196C560.614 365.135 560.359 365.046 560.127 364.93C559.896 364.806 559.706 364.64 559.56 364.432C559.421 364.223 559.351 363.945 559.351 363.598C559.351 363.265 559.444 362.968 559.629 362.705C559.814 362.443 560.085 362.238 560.44 362.091C560.803 361.937 561.243 361.86 561.761 361.86C562.155 361.86 562.549 361.914 562.942 362.022C563.336 362.122 563.661 362.258 563.916 362.427L563.557 363.088C563.286 362.902 562.997 362.771 562.688 362.694C562.379 362.609 562.07 362.566 561.761 362.566C561.212 362.566 560.807 362.663 560.544 362.856C560.289 363.041 560.162 363.281 560.162 363.574C560.162 363.806 560.232 363.988 560.371 364.119C560.517 364.25 560.707 364.354 560.938 364.432C561.178 364.501 561.436 364.559 561.714 364.605C562 364.652 562.282 364.71 562.56 364.779C562.846 364.841 563.105 364.93 563.336 365.046C563.576 365.154 563.765 365.312 563.904 365.521C564.051 365.722 564.124 365.988 564.124 366.32C564.124 366.675 564.024 366.984 563.823 367.247C563.63 367.502 563.344 367.703 562.966 367.849C562.595 367.988 562.143 368.058 561.61 368.058ZM567.371 368V361.918H568.194V368H567.371ZM567.788 360.574C567.619 360.574 567.476 360.516 567.36 360.4C567.244 360.284 567.186 360.145 567.186 359.983C567.186 359.821 567.244 359.686 567.36 359.577C567.476 359.462 567.619 359.404 567.788 359.404C567.958 359.404 568.101 359.458 568.217 359.566C568.333 359.674 568.391 359.809 568.391 359.971C568.391 360.141 568.333 360.284 568.217 360.4C568.109 360.516 567.966 360.574 567.788 360.574ZM574.816 370.305C574.26 370.305 573.727 370.224 573.217 370.062C572.707 369.9 572.294 369.668 571.977 369.367L572.394 368.741C572.68 368.996 573.031 369.197 573.449 369.344C573.873 369.498 574.321 369.576 574.792 369.576C575.565 369.576 576.132 369.394 576.495 369.031C576.858 368.676 577.04 368.12 577.04 367.363V365.845L577.156 364.802L577.075 363.76V361.918H577.863V367.259C577.863 368.309 577.604 369.077 577.086 369.564C576.577 370.058 575.82 370.305 574.816 370.305ZM574.665 367.768C574.086 367.768 573.564 367.645 573.101 367.398C572.638 367.143 572.271 366.791 572 366.343C571.738 365.895 571.606 365.382 571.606 364.802C571.606 364.223 571.738 363.713 572 363.273C572.271 362.825 572.638 362.478 573.101 362.23C573.564 361.983 574.086 361.86 574.665 361.86C575.206 361.86 575.692 361.972 576.125 362.196C576.557 362.42 576.901 362.752 577.156 363.192C577.411 363.632 577.538 364.169 577.538 364.802C577.538 365.436 577.411 365.973 577.156 366.413C576.901 366.853 576.557 367.189 576.125 367.421C575.692 367.652 575.206 367.768 574.665 367.768ZM574.746 367.038C575.194 367.038 575.592 366.946 575.939 366.76C576.287 366.567 576.561 366.305 576.762 365.973C576.963 365.633 577.063 365.243 577.063 364.802C577.063 364.362 576.963 363.976 576.762 363.644C576.561 363.312 576.287 363.053 575.939 362.868C575.592 362.675 575.194 362.578 574.746 362.578C574.306 362.578 573.908 362.675 573.553 362.868C573.205 363.053 572.931 363.312 572.73 363.644C572.537 363.976 572.441 364.362 572.441 364.802C572.441 365.243 572.537 365.633 572.73 365.973C572.931 366.305 573.205 366.567 573.553 366.76C573.908 366.946 574.306 367.038 574.746 367.038ZM584.994 361.86C585.488 361.86 585.921 361.956 586.292 362.149C586.67 362.335 586.964 362.621 587.172 363.007C587.388 363.393 587.497 363.879 587.497 364.466V368H586.674V364.548C586.674 363.907 586.512 363.424 586.187 363.099C585.871 362.767 585.423 362.601 584.844 362.601C584.411 362.601 584.033 362.69 583.708 362.868C583.392 363.038 583.144 363.289 582.967 363.621C582.797 363.945 582.712 364.339 582.712 364.802V368H581.889V361.918H582.677V363.586L582.55 363.273C582.743 362.833 583.052 362.489 583.476 362.242C583.901 361.987 584.407 361.86 584.994 361.86ZM594.04 368.058C593.406 368.058 592.85 367.927 592.372 367.664C591.893 367.394 591.518 367.027 591.248 366.563C590.977 366.092 590.842 365.555 590.842 364.953C590.842 364.351 590.97 363.818 591.225 363.354C591.487 362.891 591.842 362.528 592.29 362.265C592.746 361.995 593.256 361.86 593.82 361.86C594.391 361.86 594.897 361.991 595.337 362.254C595.785 362.509 596.137 362.872 596.392 363.343C596.647 363.806 596.774 364.343 596.774 364.953C596.774 364.992 596.77 365.034 596.762 365.08C596.762 365.119 596.762 365.162 596.762 365.208H591.468V364.594H596.322L595.998 364.837C595.998 364.397 595.901 364.007 595.708 363.667C595.523 363.32 595.268 363.049 594.943 362.856C594.619 362.663 594.244 362.566 593.82 362.566C593.403 362.566 593.028 362.663 592.696 362.856C592.364 363.049 592.105 363.32 591.92 363.667C591.734 364.015 591.642 364.412 591.642 364.86V364.988C591.642 365.451 591.742 365.861 591.943 366.216C592.151 366.563 592.437 366.838 592.8 367.038C593.171 367.232 593.592 367.328 594.063 367.328C594.434 367.328 594.777 367.262 595.094 367.131C595.418 367 595.697 366.799 595.928 366.529L596.392 367.062C596.121 367.386 595.781 367.633 595.372 367.803C594.971 367.973 594.526 368.058 594.04 368.058ZM602.607 368.058C602.028 368.058 601.507 367.927 601.043 367.664C600.588 367.401 600.229 367.038 599.966 366.575C599.703 366.104 599.572 365.563 599.572 364.953C599.572 364.335 599.703 363.795 599.966 363.331C600.229 362.868 600.588 362.509 601.043 362.254C601.507 361.991 602.028 361.86 602.607 361.86C603.14 361.86 603.615 361.979 604.032 362.219C604.457 362.458 604.793 362.81 605.04 363.273C605.295 363.729 605.423 364.289 605.423 364.953C605.423 365.61 605.299 366.17 605.052 366.633C604.805 367.096 604.469 367.452 604.044 367.699C603.627 367.938 603.148 368.058 602.607 368.058ZM602.665 367.328C603.098 367.328 603.484 367.232 603.824 367.038C604.171 366.838 604.442 366.56 604.635 366.204C604.836 365.841 604.936 365.424 604.936 364.953C604.936 364.474 604.836 364.057 604.635 363.702C604.442 363.347 604.171 363.072 603.824 362.879C603.484 362.678 603.098 362.578 602.665 362.578C602.241 362.578 601.858 362.678 601.518 362.879C601.179 363.072 600.908 363.347 600.707 363.702C600.507 364.057 600.406 364.474 600.406 364.953C600.406 365.424 600.507 365.841 600.707 366.204C600.908 366.56 601.179 366.838 601.518 367.038C601.858 367.232 602.241 367.328 602.665 367.328ZM604.959 368V366.17L605.04 364.941L604.924 363.713V359.404H605.747V368H604.959ZM617.685 368.058C617.152 368.058 616.673 367.938 616.249 367.699C615.824 367.452 615.488 367.096 615.241 366.633C614.994 366.17 614.87 365.61 614.87 364.953C614.87 364.289 614.994 363.729 615.241 363.273C615.496 362.81 615.835 362.458 616.26 362.219C616.685 361.979 617.16 361.86 617.685 361.86C618.264 361.86 618.782 361.991 619.238 362.254C619.701 362.509 620.064 362.868 620.327 363.331C620.589 363.795 620.721 364.335 620.721 364.953C620.721 365.563 620.589 366.104 620.327 366.575C620.064 367.038 619.701 367.401 619.238 367.664C618.782 367.927 618.264 368.058 617.685 368.058ZM614.546 368V359.404H615.368V363.713L615.252 364.941L615.333 366.17V368H614.546ZM617.627 367.328C618.06 367.328 618.446 367.232 618.786 367.038C619.126 366.838 619.396 366.56 619.597 366.204C619.798 365.841 619.898 365.424 619.898 364.953C619.898 364.474 619.798 364.057 619.597 363.702C619.396 363.347 619.126 363.072 618.786 362.879C618.446 362.678 618.06 362.578 617.627 362.578C617.195 362.578 616.805 362.678 616.457 362.879C616.117 363.072 615.847 363.347 615.646 363.702C615.453 364.057 615.357 364.474 615.357 364.953C615.357 365.424 615.453 365.841 615.646 366.204C615.847 366.56 616.117 366.838 616.457 367.038C616.805 367.232 617.195 367.328 617.627 367.328ZM624.012 370.305C623.726 370.305 623.452 370.259 623.189 370.166C622.934 370.074 622.714 369.935 622.529 369.749L622.911 369.135C623.066 369.282 623.232 369.394 623.409 369.471C623.595 369.556 623.799 369.599 624.023 369.599C624.294 369.599 624.525 369.522 624.719 369.367C624.919 369.22 625.109 368.958 625.286 368.579L625.68 367.687L625.773 367.56L628.275 361.918H629.086L626.039 368.73C625.869 369.124 625.68 369.437 625.472 369.668C625.271 369.9 625.051 370.062 624.811 370.155C624.572 370.255 624.305 370.305 624.012 370.305ZM625.634 368.174L622.83 361.918H623.687L626.167 367.502L625.634 368.174Z" fill="#283C57"/>
</svg>
