<svg width="425" height="425" viewBox="0 0 425 425" fill="none" xmlns="http://www.w3.org/2000/svg">
<circle cx="212.5" cy="212.5" r="212.5" fill="#F5E2B0"/>
<path d="M204.184 77.1089C203.378 108.036 202.561 124.905 206.992 162.601C211.779 187.619 206.138 201.729 205.819 224.726C189.852 209.147 172.832 197.898 169.465 166.393C168.325 120.183 184.21 102.719 204.184 77.1089Z" fill="#283C57"/>
<path d="M204.184 77.1089C203.378 108.036 202.561 124.905 206.992 162.601C211.779 187.619 206.138 201.729 205.819 224.726C189.852 209.147 172.832 197.898 169.465 166.393C168.325 120.183 184.21 102.719 204.184 77.1089Z" fill="#283C57"/>
<path d="M312.239 319.204C286.397 302.193 272.501 292.595 238.146 276.461C214.37 267.322 205.363 255.082 186 242.672C207.66 237.335 226.198 228.816 254.733 242.587C294.583 266.01 301.031 288.72 312.239 319.204Z" fill="#283C57"/>
<path d="M206.491 346.112C201.229 315.625 198.729 298.922 187.007 262.823C177.417 239.225 180.187 224.284 176 201.669C194.706 213.822 213.599 221.523 223.066 251.76C233.227 296.854 221.067 317.088 206.491 346.112Z" fill="#283C57"/>
<path d="M326.539 293.818C300.145 277.679 285.937 268.55 251.063 253.57C226.995 245.228 217.585 233.295 197.819 221.538C219.289 215.481 237.533 206.349 266.511 219.161C307.12 241.243 314.321 263.726 326.539 293.818Z" fill="#283C57"/>
<path d="M305.14 120.742C277.648 130.895 270.197 149.655 242.355 174.46C222.51 189.639 218.254 206.475 203.504 223.707C225.466 223.279 245.387 226.786 268.408 205.821C299.365 172.432 303.225 153.566 305.14 120.742Z" fill="#283C57"/>
<path d="M246.792 79.5378C248.919 84.9946 247.866 90.6341 249.096 95.1632C253.624 111.836 268.974 117.188 258.024 143.439C247.075 169.69 230.834 191.548 206.743 222.173L201 143.439C209.267 118.442 225.831 90.7174 246.792 79.5378Z" fill="#283C57"/>
<path d="M342.98 201.304C338.906 205.51 333.34 206.902 329.735 209.907C316.464 220.969 317.992 237.153 289.566 238.134C261.14 239.115 234.503 233.455 196.627 224.311L285.572 184.032C311.741 181.134 324.085 186.905 342.98 201.304Z" fill="#283C57"/>
<path d="M289.012 244.979C254.805 233.266 242.986 229.835 208.5 225L213 218.5C246.529 224.214 255.385 229.825 289.012 244.979Z" fill="#F5E2B0"/>
<path d="M287.565 152.49C264.322 182.004 229.928 196.036 202.728 219.735L209 224C234.897 200.078 266.683 184.664 287.565 152.49Z" fill="#F5E2B0"/>
<path d="M310.5 206.5L251 214L198.905 225.367L197.819 219.381C197.819 219.381 230.067 212.327 251 210C272.203 207.643 310.5 206.5 310.5 206.5Z" fill="#F5E2B0"/>
<path d="M294.147 297.213C262.016 265.709 245.067 250.856 209.768 225.514L211.682 221.729C245.579 247.299 264.078 262.892 294.147 297.213Z" fill="#F5E2B0"/>
<path d="M96.7219 141.331C102.018 141.108 106.538 143.662 110.777 143.936C126.38 144.943 135.46 133.368 154.73 150.434C174 167.501 187.959 187.812 207.124 217.413L123.644 188.436C104.661 174.034 100.154 162.555 96.7219 141.331Z" fill="#283C57"/>
<path d="M135.974 332.138C151.021 308.526 159.52 295.822 173.66 264.518C181.612 242.88 192.567 234.566 203.537 216.877C208.657 236.406 216.614 253.067 204.535 279.074C183.873 315.449 163.409 321.587 135.974 332.138Z" fill="#283C57"/>
<path d="M78.013 251.221C104.071 256.164 118.598 245.087 151.76 238.83C174.23 236.31 185.382 225.235 204.858 218.746C187.622 208.838 173.806 196.829 146.175 202.357C106.594 213.82 94.8034 226.654 78.013 251.221Z" fill="#283C57"/>
<path d="M104.058 310.387C104.952 305.163 108.399 301.28 109.557 297.193C113.818 282.149 104.408 270.841 125.141 255.585C145.874 240.329 168.664 230.947 201.63 218.426L155.767 293.959C137.699 309.493 125.529 311.49 104.058 310.387Z" fill="#283C57"/>
<path d="M273.161 337.174C268.14 335.085 264.921 330.72 261.078 328.623C246.931 320.905 233.966 327.859 222.65 303.435C211.333 279.011 206.228 253.838 199.885 217.663L266.401 281.157C278.486 302.949 278.221 315.709 273.161 337.174Z" fill="#283C57"/>
<path d="M180.797 299C191.968 268.244 196.467 252.527 201.421 221.403L207 225C201.267 255.243 195.073 268.827 180.797 299Z" fill="#F5E2B0"/>
<path d="M106.448 234.79C138.238 222.736 167.352 230.2 199.5 224.5L199.5 217C168.259 223.48 137.648 219.572 106.448 234.79Z" fill="#F5E2B0"/>
<path d="M119.524 293.993L203.044 216.819L206.146 218.684L205.309 224.251L119.524 293.993Z" fill="#F5E2B0"/>
<path d="M260.22 318.72L201.456 221.364L203.908 218.701L209.192 220.643L260.22 318.72Z" fill="#F5E2B0"/>
<path d="M180.602 134.008C187.531 169.494 195.472 185.205 208.5 217.5L201.525 221.207C189.737 189.303 184.26 170.71 180.602 134.008Z" fill="#F5E2B0"/>
<path d="M233.855 129.617L209 222.501L203 219L233.855 129.617Z" fill="#F5E2B0"/>
<path d="M115.999 153.009L208.993 218.458L207.821 221.883L202.202 222.233L115.999 153.009Z" fill="#F5E2B0"/>
<path d="M209.02 312.5C216.19 275.077 204.512 256.694 204.825 219.969L209.019 219.518C207.709 255.369 219.678 275.187 209.02 312.5Z" fill="#F5E2B0"/>
</svg>
