<svg width="511" height="653" viewBox="0 0 511 653" fill="none" xmlns="http://www.w3.org/2000/svg">
<path d="M433.182 52.7717C346.127 115.838 340.285 186.98 268.22 299.88C214.084 371.907 217.535 433.209 183.895 506.836C261.964 482.393 337.095 473.378 396.173 378.489C469.856 233.343 462.737 165.603 433.182 52.7717Z" fill="#F5E2B0"/>
<path d="M77.9944 5.80869C132.353 29.775 172.456 39.6466 184.054 52.5704C226.749 100.146 218.32 78.9269 224.47 179.223C230.62 279.52 211.673 373.04 180.616 505.942L21.6285 189.479C8.47666 97.0043 48.6766 48.0969 77.9944 5.80869Z" fill="#F5E2B0"/>
<path d="M400.735 175.805C333.286 350.09 175.674 462.116 75.6078 612.733L92.425 625.62C185.053 475.538 351.169 360.232 400.735 175.805Z" fill="#C54846"/>
<path d="M135.178 158.02L185.681 499.727L162.932 500.812L135.178 158.02Z" fill="#C54846"/>
</svg>
