<svg width="204" height="222" viewBox="0 0 204 222" fill="none" xmlns="http://www.w3.org/2000/svg">
<path d="M76.3655 19.1089C75.5587 50.0364 74.7418 66.905 79.1726 104.601C83.9601 129.619 78.3189 143.729 77.9997 166.726C62.0335 151.147 45.0127 139.898 41.6465 108.393C40.5061 62.1827 56.3913 44.7194 76.3655 19.1089Z" fill="#F5E2B0"/>
<path d="M177.321 62.7415C149.83 72.8951 142.378 91.6552 114.536 116.46C94.691 131.638 90.435 148.475 75.6848 165.707C97.6474 165.278 117.568 168.786 140.589 147.821C171.546 114.432 175.406 95.5657 177.321 62.7415Z" fill="#F5E2B0"/>
<path d="M118.973 21.5377C121.1 26.9945 120.047 32.634 121.277 37.1631C125.805 53.8361 141.155 59.1882 130.206 85.4391C119.256 111.69 103.015 133.548 78.9243 164.173L79.3569 66.5336C87.6237 41.5361 98.0122 32.7173 118.973 21.5377Z" fill="#F5E2B0"/>
<path d="M52.7829 76.0078C59.7123 111.494 64.3994 128.939 77.427 161.234L73.7058 163.207C61.9179 131.303 56.4408 112.71 52.7829 76.0078Z" fill="#283C57"/>
<path d="M159.746 94.4904C136.503 124.004 102.109 138.036 74.909 161.735L76.9029 164.86C102.8 140.939 138.864 126.664 159.746 94.4904Z" fill="#283C57"/>
<path d="M106.036 71.6171L69.2839 195.749L63.39 194.243L106.036 71.6171Z" fill="#283C57"/>
</svg>
