<svg width="145" height="145" viewBox="0 0 145 145" fill="none" xmlns="http://www.w3.org/2000/svg">
<g clip-path="url(#clip0_158_10)">
<rect width="145" height="145" fill="#F5E2B0"/>
<path d="M38.9483 22.2421C30.3622 49.1335 32.3675 85.5627 53.5042 101.269C74.6409 116.976 96.7146 117.697 116.723 119.817C116.723 119.817 131.811 69.2505 108.742 57.2406C85.673 45.2308 60.1389 43.4138 38.9483 22.2421Z" fill="#283C57"/>
<path d="M64.8141 56.5601C87.3204 79.7098 100.735 92.4508 114.219 122.506L119.803 117.927C103.021 89.6388 88.8196 78.1855 64.8141 56.5601Z" fill="#F5E2B0"/>
<path d="M97.5072 111.764C102.079 109.608 104.474 109.043 109.28 110.553L108.447 106.714C103.536 107.331 101.238 108.639 97.5072 111.764Z" fill="#F5E2B0"/>
<path d="M80.6231 88.6925C85.6682 86.4539 87.7431 85.7574 92.8691 86.7728L92.6897 83.4325C87.3506 84.322 84.8035 85.647 80.6231 88.6925Z" fill="#F5E2B0"/>
<path d="M109.772 87.2152C106.895 90.9632 105.852 93.0204 105.929 97.5899L102.978 96.2012C104.673 91.8924 106.303 90.0453 109.772 87.2152Z" fill="#F5E2B0"/>
</g>
<defs>
<clipPath id="clip0_158_10">
<rect width="145" height="145" fill="white"/>
</clipPath>
</defs>
</svg>
