<svg width="170" height="163" viewBox="0 0 170 163" fill="none" xmlns="http://www.w3.org/2000/svg">
<path d="M155.17 6.23873C149.054 33.8008 145.559 50.0961 128.511 77.6688C122.537 87.7583 112.103 94.5378 89.5561 111.373C92.5 91.1474 90.0315 79.3075 96.8104 66.2057C111.343 39.9345 129.133 28.5906 155.17 6.23873Z" fill="#C54846"/>
<path d="M18.3917 23.7486C40.2186 38.6556 53.2108 47.3756 67.1581 70.7022C72.4528 79.0341 71.3768 89.5752 71.1322 113.162C54.0006 103.412 40.9464 100.931 33.365 90.8647C18.8414 69.956 20.8803 52.0639 18.3917 23.7486Z" fill="#C54846"/>
<path d="M129.129 48.9517L78.4522 134.125L74.5559 132.72L129.129 48.9517Z" fill="#283C57"/>
<path d="M43.521 67.5949C63.1874 89.4186 73.4457 102.175 78.5881 133.868L74.1482 135.69C70.7811 106.063 61.6852 91.9983 43.521 67.5949Z" fill="#283C57"/>
</svg>
