<svg width="281" height="303" viewBox="0 0 281 303" fill="none" xmlns="http://www.w3.org/2000/svg">
<path d="M25.9333 142.168C57.446 135.095 100.467 141.308 119.51 167.466C138.552 193.624 139.94 219.267 142.928 242.667C142.928 242.667 83.6456 254.742 68.917 226.741C54.1885 198.739 51.4237 168.972 25.9333 142.168Z" fill="#C54846"/>
<path d="M86.6077 190.764C106.474 211.118 116.34 224.607 141.859 238.035L140.859 243.365C116.768 227.348 105.218 212.24 86.6077 190.764Z" fill="#283C57"/>
<path d="M129.933 218C127.502 223.066 126.894 225.779 128.792 231.507L124.242 230.132C124.851 224.51 126.337 221.987 129.933 218Z" fill="#283C57"/>
<path d="M104.898 227.123C109.249 224.192 111.65 223.204 117.042 223.781L115.332 220.215C110.291 221.717 108.152 223.408 104.898 227.123Z" fill="#283C57"/>
<path d="M127.39 1.3713C152.846 21.2484 175.329 58.4494 167.184 89.7625C159.039 121.076 140.095 138.413 123.899 155.565C123.899 155.565 76.9623 117.392 89.2688 88.2445C101.575 59.0973 122.835 38.0792 127.39 1.3713Z" fill="#C54846"/>
<path d="M127.558 79.0993C124.422 107.368 120.996 123.557 126.801 151.803L124.471 152.276C117.34 123.461 120.118 107.088 127.558 79.0993Z" fill="#283C57"/>
<path d="M134.728 129.872C129.269 131.205 126.786 132.456 123.562 137.556L121.739 133.167C126.471 130.072 129.365 129.621 134.728 129.872Z" fill="#283C57"/>
<path d="M255.07 102.087C223.663 94.557 180.556 100.144 161.135 126.022C141.715 151.901 139.955 177.52 136.627 200.875C136.627 200.875 195.727 213.81 210.861 186.026C225.995 158.242 229.193 128.518 255.07 102.087Z" fill="#C54846"/>
<path d="M193.693 149.795C173.533 169.858 163.472 183.203 137.76 196.258L138.684 201.602C163.004 185.937 174.773 170.999 193.693 149.795Z" fill="#283C57"/>
<path d="M149.977 176.398C152.335 181.498 152.903 184.22 150.922 189.919L155.492 188.61C154.965 182.98 153.515 180.436 149.977 176.398Z" fill="#283C57"/>
<path d="M174.878 185.885C170.57 182.891 168.183 181.868 162.783 182.367L164.545 178.826C169.564 180.402 171.678 182.123 174.878 185.885Z" fill="#283C57"/>
<path d="M157.138 268.19C144.824 204.135 135.165 170.644 114.167 114.224C128.376 168.577 142.616 252.11 143.864 266.492C142.562 269.318 139.612 278.374 133.424 301.743L154.902 293.5C155.846 287.631 156.644 279.521 157.138 268.19Z" fill="#283C57"/>
</svg>
