<svg width="200" height="272" viewBox="0 0 200 272" fill="none" xmlns="http://www.w3.org/2000/svg">
<path d="M9.956 61V0.720421H32.5178C37.6272 0.720421 42.019 1.55285 45.6932 3.21772C49.3674 4.82518 52.1804 7.17895 54.1323 10.279C56.1416 13.3217 57.1463 17.0246 57.1463 21.3877C57.1463 25.636 56.1416 29.3102 54.1323 32.4103C52.1804 35.4529 49.3674 37.8067 45.6932 39.4716C42.019 41.1364 37.6272 41.9689 32.5178 41.9689H13.4867L16.3284 38.9549V61H9.956ZM16.3284 39.4716L13.4867 36.3715H32.3456C38.3735 36.3715 42.9375 35.0798 46.0376 32.4964C49.1951 29.8556 50.7739 26.1527 50.7739 21.3877C50.7739 16.5653 49.1951 12.8337 46.0376 10.1929C42.9375 7.55211 38.3735 6.2317 32.3456 6.2317H13.4867L16.3284 3.21772V39.4716ZM98.1169 61.5167C93.5816 61.5167 89.362 60.7704 85.4582 59.2777C81.6118 57.7277 78.2533 55.5748 75.3829 52.8192C72.5698 50.0062 70.3596 46.7625 68.7521 43.0884C67.2021 39.3568 66.4271 35.2807 66.4271 30.8602C66.4271 26.4397 67.2021 22.3924 68.7521 18.7182C70.3596 14.9866 72.5698 11.743 75.3829 8.98734C78.2533 6.17429 81.6118 4.02145 85.4582 2.52881C89.3046 0.978764 93.5242 0.203741 98.1169 0.203741C102.652 0.203741 106.843 0.978764 110.689 2.52881C114.536 4.02145 117.866 6.14558 120.679 8.90122C123.549 11.6569 125.759 14.9005 127.309 18.6321C128.917 22.3637 129.721 26.4397 129.721 30.8602C129.721 35.2807 128.917 39.3568 127.309 43.0884C125.759 46.8199 123.549 50.0636 120.679 52.8192C117.866 55.5748 114.536 57.7277 110.689 59.2777C106.843 60.7704 102.652 61.5167 98.1169 61.5167ZM98.1169 55.8332C101.734 55.8332 105.063 55.2304 108.106 54.0248C111.206 52.7618 113.876 51.0108 116.115 48.7719C118.411 46.4755 120.191 43.8347 121.454 40.8494C122.717 37.8067 123.348 34.477 123.348 30.8602C123.348 27.2434 122.717 23.9424 121.454 20.9571C120.191 17.9145 118.411 15.2736 116.115 13.0347C113.876 10.7383 111.206 8.98734 108.106 7.78174C105.063 6.51874 101.734 5.88724 98.1169 5.88724C94.5001 5.88724 91.1417 6.51874 88.0416 7.78174C84.9415 8.98734 82.2433 10.7383 79.9469 13.0347C77.708 15.2736 75.9283 17.9145 74.6079 20.9571C73.3449 23.9424 72.7134 27.2434 72.7134 30.8602C72.7134 34.4196 73.3449 37.7206 74.6079 40.7633C75.9283 43.806 77.708 46.4755 79.9469 48.7719C82.2433 51.0108 84.9415 52.7618 88.0416 54.0248C91.1417 55.2304 94.5001 55.8332 98.1169 55.8332ZM144.004 61V0.720421H166.566C171.675 0.720421 176.067 1.55285 179.741 3.21772C183.415 4.82518 186.228 7.17895 188.18 10.279C190.19 13.3217 191.194 17.0246 191.194 21.3877C191.194 25.636 190.19 29.3102 188.18 32.4103C186.228 35.4529 183.415 37.8067 179.741 39.4716C176.067 41.079 171.675 41.8828 166.566 41.8828H147.535L150.376 38.9549V61H144.004ZM185.166 61L169.666 39.1271H176.555L192.142 61H185.166ZM150.376 39.4716L147.535 36.4576H166.394C172.422 36.4576 176.986 35.1372 180.086 32.4964C183.243 29.8556 184.822 26.1527 184.822 21.3877C184.822 16.5653 183.243 12.8337 180.086 10.1929C176.986 7.55211 172.422 6.2317 166.394 6.2317H147.535L150.376 3.21772V39.4716Z" fill="#283C57"/>
<path d="M21.6675 166V111.232H0.483493V105.72H49.2238V111.232H28.0399V166H21.6675ZM78.0046 134.913H109.867V140.424H78.0046V134.913ZM78.6936 166H72.3211V105.72H113.656V111.232H78.6936V166ZM165.326 166.517C160.791 166.517 156.571 165.77 152.667 164.278C148.821 162.728 145.462 160.575 142.592 157.819C139.779 155.006 137.569 151.763 135.961 148.088C134.411 144.357 133.636 140.281 133.636 135.86C133.636 131.44 134.411 127.392 135.961 123.718C137.569 119.987 139.779 116.743 142.592 113.987C145.462 111.174 148.821 109.021 152.667 107.529C156.514 105.979 160.733 105.204 165.326 105.204C169.861 105.204 174.052 105.979 177.899 107.529C181.745 109.021 185.075 111.146 187.888 113.901C190.758 116.657 192.968 119.9 194.518 123.632C196.126 127.364 196.93 131.44 196.93 135.86C196.93 140.281 196.126 144.357 194.518 148.088C192.968 151.82 190.758 155.064 187.888 157.819C185.075 160.575 181.745 162.728 177.899 164.278C174.052 165.77 169.861 166.517 165.326 166.517ZM165.326 160.833C168.943 160.833 172.272 160.23 175.315 159.025C178.415 157.762 181.085 156.011 183.324 153.772C185.62 151.475 187.4 148.835 188.663 145.849C189.926 142.807 190.557 139.477 190.557 135.86C190.557 132.243 189.926 128.942 188.663 125.957C187.4 122.914 185.62 120.274 183.324 118.035C181.085 115.738 178.415 113.987 175.315 112.782C172.272 111.519 168.943 110.887 165.326 110.887C161.709 110.887 158.351 111.519 155.251 112.782C152.151 113.987 149.452 115.738 147.156 118.035C144.917 120.274 143.137 122.914 141.817 125.957C140.554 128.942 139.922 132.243 139.922 135.86C139.922 139.42 140.554 142.721 141.817 145.763C143.137 148.806 144.917 151.475 147.156 153.772C149.452 156.011 152.151 157.762 155.251 159.025C158.351 160.23 161.709 160.833 165.326 160.833Z" fill="#E5B89F"/>
<path d="M9.956 271V210.72H16.3284V265.489H50.085V271H9.956ZM88.2219 271V210.72H94.5943V271H88.2219ZM168.115 271.517C163.579 271.517 159.36 270.77 155.456 269.278C151.609 267.728 148.251 265.575 145.381 262.819C142.567 260.006 140.357 256.763 138.75 253.088C137.2 249.357 136.425 245.281 136.425 240.86C136.425 236.44 137.2 232.392 138.75 228.718C140.357 224.987 142.567 221.743 145.381 218.987C148.251 216.174 151.609 214.021 155.456 212.529C159.302 210.979 163.522 210.204 168.115 210.204C172.65 210.204 176.841 210.979 180.687 212.529C184.534 214.021 187.863 216.146 190.676 218.901C193.547 221.657 195.757 224.9 197.307 228.632C198.915 232.364 199.718 236.44 199.718 240.86C199.718 245.281 198.915 249.357 197.307 253.088C195.757 256.82 193.547 260.064 190.676 262.819C187.863 265.575 184.534 267.728 180.687 269.278C176.841 270.77 172.65 271.517 168.115 271.517ZM168.115 265.833C171.731 265.833 175.061 265.23 178.104 264.025C181.204 262.762 183.873 261.011 186.112 258.772C188.409 256.475 190.188 253.835 191.451 250.849C192.714 247.807 193.346 244.477 193.346 240.86C193.346 237.243 192.714 233.942 191.451 230.957C190.188 227.914 188.409 225.274 186.112 223.035C183.873 220.738 181.204 218.987 178.104 217.782C175.061 216.519 171.731 215.887 168.115 215.887C164.498 215.887 161.139 216.519 158.039 217.782C154.939 218.987 152.241 220.738 149.945 223.035C147.706 225.274 145.926 227.914 144.606 230.957C143.343 233.942 142.711 237.243 142.711 240.86C142.711 244.42 143.343 247.721 144.606 250.763C145.926 253.806 147.706 256.475 149.945 258.772C152.241 261.011 154.939 262.762 158.039 264.025C161.139 265.23 164.498 265.833 168.115 265.833Z" fill="#C54846"/>
</svg>
