<svg width="240" height="219" viewBox="0 0 240 219" fill="none" xmlns="http://www.w3.org/2000/svg">
<path d="M29.4717 20.8129C43.5513 56.5233 50.7331 76.1887 75.0421 117.012C93.6138 143.184 101.181 157.948 112.021 184.361C83.3125 174.545 55.3322 170.198 35.4604 135.911C11.3262 83.7251 15.6417 60.02 29.4717 20.8129Z" fill="#D71A38"/>
<path d="M210.36 14.2927C179.036 39.6057 178.386 64.7419 153.772 106.956C135.005 134.189 137.631 155.535 126.595 182.57C155.381 171.119 183.399 165.18 203.527 129.755C228.048 76.1861 223.906 52.7215 210.36 14.2927Z" fill="#D71A38"/>
<path d="M104.876 1.73983C110.295 6.91058 111.652 13.8751 115.451 18.4336C129.436 35.2149 146.602 34.2136 145.026 69.6461C143.45 105.079 134.839 137.937 118.23 184.914L76.9637 72.6689C75.6459 40.0045 82.9334 24.9534 104.876 1.73983Z" fill="#D71A38"/>
<path d="M34.3063 93.3815C74.6154 144.725 96.28 169.49 142.666 213.719L138.98 218.099C94.717 174.003 70.9314 147.787 34.3063 93.3815Z" fill="#283C57"/>
<path d="M202.703 59.3091C183.869 109.568 142.907 147.382 116.08 192.83L120.194 195.495C145.137 150.55 188.281 111.44 202.703 59.3091Z" fill="#283C57"/>
<path d="M107.103 54.7292L120.944 191.384L116.355 192.042L107.103 54.7292Z" fill="#283C57"/>
</svg>
